G04 #@! TF.GenerationSoftware,KiCad,Pcbnew,6.0.0-rc1-unknown-bb2e402~84~ubuntu18.04.1*
G04 #@! TF.CreationDate,2019-10-14T10:53:54-04:00
G04 #@! TF.ProjectId,pmtcmini-h10770,706d7463-6d69-46e6-992d-683130373730,rev?*
G04 #@! TF.SameCoordinates,Original*
G04 #@! TF.FileFunction,Copper,L1,Top*
G04 #@! TF.FilePolarity,Positive*
%FSLAX46Y46*%
G04 Gerber Fmt 4.6, Leading zero omitted, Abs format (unit mm)*
G04 Created by KiCad (PCBNEW 6.0.0-rc1-unknown-bb2e402~84~ubuntu18.04.1) date Mon 14 Oct 2019 10:53:54 AM EDT*
%MOMM*%
%LPD*%
G04 APERTURE LIST*
%ADD10C,0.100000*%
%ADD11C,0.875000*%
%ADD12R,0.406400X1.371600*%
%ADD13R,0.600000X1.250000*%
%ADD14R,1.295400X0.558800*%
%ADD15O,1.700000X1.700000*%
%ADD16R,1.700000X1.700000*%
%ADD17C,0.975000*%
%ADD18R,0.550000X1.050000*%
%ADD19R,0.700000X0.700000*%
%ADD20C,0.704800*%
%ADD21R,0.270000X0.620000*%
%ADD22R,0.620000X0.270000*%
%ADD23O,1.000000X1.550000*%
%ADD24O,1.250000X0.950000*%
%ADD25R,0.400000X1.350000*%
%ADD26C,0.600000*%
%ADD27C,0.800000*%
%ADD28C,0.250000*%
%ADD29C,0.500000*%
%ADD30C,0.200000*%
G04 APERTURE END LIST*
D10*
G36*
X137927691Y-76476053D02*
G01*
X137948926Y-76479203D01*
X137969750Y-76484419D01*
X137989962Y-76491651D01*
X138009368Y-76500830D01*
X138027781Y-76511866D01*
X138045024Y-76524654D01*
X138060930Y-76539070D01*
X138075346Y-76554976D01*
X138088134Y-76572219D01*
X138099170Y-76590632D01*
X138108349Y-76610038D01*
X138115581Y-76630250D01*
X138120797Y-76651074D01*
X138123947Y-76672309D01*
X138125000Y-76693750D01*
X138125000Y-77206250D01*
X138123947Y-77227691D01*
X138120797Y-77248926D01*
X138115581Y-77269750D01*
X138108349Y-77289962D01*
X138099170Y-77309368D01*
X138088134Y-77327781D01*
X138075346Y-77345024D01*
X138060930Y-77360930D01*
X138045024Y-77375346D01*
X138027781Y-77388134D01*
X138009368Y-77399170D01*
X137989962Y-77408349D01*
X137969750Y-77415581D01*
X137948926Y-77420797D01*
X137927691Y-77423947D01*
X137906250Y-77425000D01*
X137468750Y-77425000D01*
X137447309Y-77423947D01*
X137426074Y-77420797D01*
X137405250Y-77415581D01*
X137385038Y-77408349D01*
X137365632Y-77399170D01*
X137347219Y-77388134D01*
X137329976Y-77375346D01*
X137314070Y-77360930D01*
X137299654Y-77345024D01*
X137286866Y-77327781D01*
X137275830Y-77309368D01*
X137266651Y-77289962D01*
X137259419Y-77269750D01*
X137254203Y-77248926D01*
X137251053Y-77227691D01*
X137250000Y-77206250D01*
X137250000Y-76693750D01*
X137251053Y-76672309D01*
X137254203Y-76651074D01*
X137259419Y-76630250D01*
X137266651Y-76610038D01*
X137275830Y-76590632D01*
X137286866Y-76572219D01*
X137299654Y-76554976D01*
X137314070Y-76539070D01*
X137329976Y-76524654D01*
X137347219Y-76511866D01*
X137365632Y-76500830D01*
X137385038Y-76491651D01*
X137405250Y-76484419D01*
X137426074Y-76479203D01*
X137447309Y-76476053D01*
X137468750Y-76475000D01*
X137906250Y-76475000D01*
X137927691Y-76476053D01*
X137927691Y-76476053D01*
G37*
D11*
X137687500Y-76950000D03*
D10*
G36*
X136352691Y-76476053D02*
G01*
X136373926Y-76479203D01*
X136394750Y-76484419D01*
X136414962Y-76491651D01*
X136434368Y-76500830D01*
X136452781Y-76511866D01*
X136470024Y-76524654D01*
X136485930Y-76539070D01*
X136500346Y-76554976D01*
X136513134Y-76572219D01*
X136524170Y-76590632D01*
X136533349Y-76610038D01*
X136540581Y-76630250D01*
X136545797Y-76651074D01*
X136548947Y-76672309D01*
X136550000Y-76693750D01*
X136550000Y-77206250D01*
X136548947Y-77227691D01*
X136545797Y-77248926D01*
X136540581Y-77269750D01*
X136533349Y-77289962D01*
X136524170Y-77309368D01*
X136513134Y-77327781D01*
X136500346Y-77345024D01*
X136485930Y-77360930D01*
X136470024Y-77375346D01*
X136452781Y-77388134D01*
X136434368Y-77399170D01*
X136414962Y-77408349D01*
X136394750Y-77415581D01*
X136373926Y-77420797D01*
X136352691Y-77423947D01*
X136331250Y-77425000D01*
X135893750Y-77425000D01*
X135872309Y-77423947D01*
X135851074Y-77420797D01*
X135830250Y-77415581D01*
X135810038Y-77408349D01*
X135790632Y-77399170D01*
X135772219Y-77388134D01*
X135754976Y-77375346D01*
X135739070Y-77360930D01*
X135724654Y-77345024D01*
X135711866Y-77327781D01*
X135700830Y-77309368D01*
X135691651Y-77289962D01*
X135684419Y-77269750D01*
X135679203Y-77248926D01*
X135676053Y-77227691D01*
X135675000Y-77206250D01*
X135675000Y-76693750D01*
X135676053Y-76672309D01*
X135679203Y-76651074D01*
X135684419Y-76630250D01*
X135691651Y-76610038D01*
X135700830Y-76590632D01*
X135711866Y-76572219D01*
X135724654Y-76554976D01*
X135739070Y-76539070D01*
X135754976Y-76524654D01*
X135772219Y-76511866D01*
X135790632Y-76500830D01*
X135810038Y-76491651D01*
X135830250Y-76484419D01*
X135851074Y-76479203D01*
X135872309Y-76476053D01*
X135893750Y-76475000D01*
X136331250Y-76475000D01*
X136352691Y-76476053D01*
X136352691Y-76476053D01*
G37*
D11*
X136112500Y-76950000D03*
D12*
X137740600Y-74484400D03*
X137080200Y-74484400D03*
X136419800Y-74484400D03*
X135759400Y-74484400D03*
X135759400Y-70115600D03*
X136419800Y-70115600D03*
X137080200Y-70115600D03*
X137740600Y-70115600D03*
D13*
X141100000Y-79150000D03*
X140150000Y-79150000D03*
X139200000Y-79150000D03*
X139200000Y-76650000D03*
X140150000Y-76650000D03*
X141100000Y-76650000D03*
D14*
X139421300Y-72500000D03*
X141478700Y-71550000D03*
X141478700Y-73450000D03*
D15*
X137780000Y-85700000D03*
X135240000Y-85700000D03*
D16*
X132700000Y-85700000D03*
D10*
G36*
X129377691Y-58476053D02*
G01*
X129398926Y-58479203D01*
X129419750Y-58484419D01*
X129439962Y-58491651D01*
X129459368Y-58500830D01*
X129477781Y-58511866D01*
X129495024Y-58524654D01*
X129510930Y-58539070D01*
X129525346Y-58554976D01*
X129538134Y-58572219D01*
X129549170Y-58590632D01*
X129558349Y-58610038D01*
X129565581Y-58630250D01*
X129570797Y-58651074D01*
X129573947Y-58672309D01*
X129575000Y-58693750D01*
X129575000Y-59131250D01*
X129573947Y-59152691D01*
X129570797Y-59173926D01*
X129565581Y-59194750D01*
X129558349Y-59214962D01*
X129549170Y-59234368D01*
X129538134Y-59252781D01*
X129525346Y-59270024D01*
X129510930Y-59285930D01*
X129495024Y-59300346D01*
X129477781Y-59313134D01*
X129459368Y-59324170D01*
X129439962Y-59333349D01*
X129419750Y-59340581D01*
X129398926Y-59345797D01*
X129377691Y-59348947D01*
X129356250Y-59350000D01*
X128843750Y-59350000D01*
X128822309Y-59348947D01*
X128801074Y-59345797D01*
X128780250Y-59340581D01*
X128760038Y-59333349D01*
X128740632Y-59324170D01*
X128722219Y-59313134D01*
X128704976Y-59300346D01*
X128689070Y-59285930D01*
X128674654Y-59270024D01*
X128661866Y-59252781D01*
X128650830Y-59234368D01*
X128641651Y-59214962D01*
X128634419Y-59194750D01*
X128629203Y-59173926D01*
X128626053Y-59152691D01*
X128625000Y-59131250D01*
X128625000Y-58693750D01*
X128626053Y-58672309D01*
X128629203Y-58651074D01*
X128634419Y-58630250D01*
X128641651Y-58610038D01*
X128650830Y-58590632D01*
X128661866Y-58572219D01*
X128674654Y-58554976D01*
X128689070Y-58539070D01*
X128704976Y-58524654D01*
X128722219Y-58511866D01*
X128740632Y-58500830D01*
X128760038Y-58491651D01*
X128780250Y-58484419D01*
X128801074Y-58479203D01*
X128822309Y-58476053D01*
X128843750Y-58475000D01*
X129356250Y-58475000D01*
X129377691Y-58476053D01*
X129377691Y-58476053D01*
G37*
D11*
X129100000Y-58912500D03*
D10*
G36*
X129377691Y-60051053D02*
G01*
X129398926Y-60054203D01*
X129419750Y-60059419D01*
X129439962Y-60066651D01*
X129459368Y-60075830D01*
X129477781Y-60086866D01*
X129495024Y-60099654D01*
X129510930Y-60114070D01*
X129525346Y-60129976D01*
X129538134Y-60147219D01*
X129549170Y-60165632D01*
X129558349Y-60185038D01*
X129565581Y-60205250D01*
X129570797Y-60226074D01*
X129573947Y-60247309D01*
X129575000Y-60268750D01*
X129575000Y-60706250D01*
X129573947Y-60727691D01*
X129570797Y-60748926D01*
X129565581Y-60769750D01*
X129558349Y-60789962D01*
X129549170Y-60809368D01*
X129538134Y-60827781D01*
X129525346Y-60845024D01*
X129510930Y-60860930D01*
X129495024Y-60875346D01*
X129477781Y-60888134D01*
X129459368Y-60899170D01*
X129439962Y-60908349D01*
X129419750Y-60915581D01*
X129398926Y-60920797D01*
X129377691Y-60923947D01*
X129356250Y-60925000D01*
X128843750Y-60925000D01*
X128822309Y-60923947D01*
X128801074Y-60920797D01*
X128780250Y-60915581D01*
X128760038Y-60908349D01*
X128740632Y-60899170D01*
X128722219Y-60888134D01*
X128704976Y-60875346D01*
X128689070Y-60860930D01*
X128674654Y-60845024D01*
X128661866Y-60827781D01*
X128650830Y-60809368D01*
X128641651Y-60789962D01*
X128634419Y-60769750D01*
X128629203Y-60748926D01*
X128626053Y-60727691D01*
X128625000Y-60706250D01*
X128625000Y-60268750D01*
X128626053Y-60247309D01*
X128629203Y-60226074D01*
X128634419Y-60205250D01*
X128641651Y-60185038D01*
X128650830Y-60165632D01*
X128661866Y-60147219D01*
X128674654Y-60129976D01*
X128689070Y-60114070D01*
X128704976Y-60099654D01*
X128722219Y-60086866D01*
X128740632Y-60075830D01*
X128760038Y-60066651D01*
X128780250Y-60059419D01*
X128801074Y-60054203D01*
X128822309Y-60051053D01*
X128843750Y-60050000D01*
X129356250Y-60050000D01*
X129377691Y-60051053D01*
X129377691Y-60051053D01*
G37*
D11*
X129100000Y-60487500D03*
D10*
G36*
X130780142Y-65176174D02*
G01*
X130803803Y-65179684D01*
X130827007Y-65185496D01*
X130849529Y-65193554D01*
X130871153Y-65203782D01*
X130891670Y-65216079D01*
X130910883Y-65230329D01*
X130928607Y-65246393D01*
X130944671Y-65264117D01*
X130958921Y-65283330D01*
X130971218Y-65303847D01*
X130981446Y-65325471D01*
X130989504Y-65347993D01*
X130995316Y-65371197D01*
X130998826Y-65394858D01*
X131000000Y-65418750D01*
X131000000Y-65906250D01*
X130998826Y-65930142D01*
X130995316Y-65953803D01*
X130989504Y-65977007D01*
X130981446Y-65999529D01*
X130971218Y-66021153D01*
X130958921Y-66041670D01*
X130944671Y-66060883D01*
X130928607Y-66078607D01*
X130910883Y-66094671D01*
X130891670Y-66108921D01*
X130871153Y-66121218D01*
X130849529Y-66131446D01*
X130827007Y-66139504D01*
X130803803Y-66145316D01*
X130780142Y-66148826D01*
X130756250Y-66150000D01*
X129843750Y-66150000D01*
X129819858Y-66148826D01*
X129796197Y-66145316D01*
X129772993Y-66139504D01*
X129750471Y-66131446D01*
X129728847Y-66121218D01*
X129708330Y-66108921D01*
X129689117Y-66094671D01*
X129671393Y-66078607D01*
X129655329Y-66060883D01*
X129641079Y-66041670D01*
X129628782Y-66021153D01*
X129618554Y-65999529D01*
X129610496Y-65977007D01*
X129604684Y-65953803D01*
X129601174Y-65930142D01*
X129600000Y-65906250D01*
X129600000Y-65418750D01*
X129601174Y-65394858D01*
X129604684Y-65371197D01*
X129610496Y-65347993D01*
X129618554Y-65325471D01*
X129628782Y-65303847D01*
X129641079Y-65283330D01*
X129655329Y-65264117D01*
X129671393Y-65246393D01*
X129689117Y-65230329D01*
X129708330Y-65216079D01*
X129728847Y-65203782D01*
X129750471Y-65193554D01*
X129772993Y-65185496D01*
X129796197Y-65179684D01*
X129819858Y-65176174D01*
X129843750Y-65175000D01*
X130756250Y-65175000D01*
X130780142Y-65176174D01*
X130780142Y-65176174D01*
G37*
D17*
X130300000Y-65662500D03*
D10*
G36*
X130780142Y-67051174D02*
G01*
X130803803Y-67054684D01*
X130827007Y-67060496D01*
X130849529Y-67068554D01*
X130871153Y-67078782D01*
X130891670Y-67091079D01*
X130910883Y-67105329D01*
X130928607Y-67121393D01*
X130944671Y-67139117D01*
X130958921Y-67158330D01*
X130971218Y-67178847D01*
X130981446Y-67200471D01*
X130989504Y-67222993D01*
X130995316Y-67246197D01*
X130998826Y-67269858D01*
X131000000Y-67293750D01*
X131000000Y-67781250D01*
X130998826Y-67805142D01*
X130995316Y-67828803D01*
X130989504Y-67852007D01*
X130981446Y-67874529D01*
X130971218Y-67896153D01*
X130958921Y-67916670D01*
X130944671Y-67935883D01*
X130928607Y-67953607D01*
X130910883Y-67969671D01*
X130891670Y-67983921D01*
X130871153Y-67996218D01*
X130849529Y-68006446D01*
X130827007Y-68014504D01*
X130803803Y-68020316D01*
X130780142Y-68023826D01*
X130756250Y-68025000D01*
X129843750Y-68025000D01*
X129819858Y-68023826D01*
X129796197Y-68020316D01*
X129772993Y-68014504D01*
X129750471Y-68006446D01*
X129728847Y-67996218D01*
X129708330Y-67983921D01*
X129689117Y-67969671D01*
X129671393Y-67953607D01*
X129655329Y-67935883D01*
X129641079Y-67916670D01*
X129628782Y-67896153D01*
X129618554Y-67874529D01*
X129610496Y-67852007D01*
X129604684Y-67828803D01*
X129601174Y-67805142D01*
X129600000Y-67781250D01*
X129600000Y-67293750D01*
X129601174Y-67269858D01*
X129604684Y-67246197D01*
X129610496Y-67222993D01*
X129618554Y-67200471D01*
X129628782Y-67178847D01*
X129641079Y-67158330D01*
X129655329Y-67139117D01*
X129671393Y-67121393D01*
X129689117Y-67105329D01*
X129708330Y-67091079D01*
X129728847Y-67078782D01*
X129750471Y-67068554D01*
X129772993Y-67060496D01*
X129796197Y-67054684D01*
X129819858Y-67051174D01*
X129843750Y-67050000D01*
X130756250Y-67050000D01*
X130780142Y-67051174D01*
X130780142Y-67051174D01*
G37*
D17*
X130300000Y-67537500D03*
D10*
G36*
X130780142Y-69001174D02*
G01*
X130803803Y-69004684D01*
X130827007Y-69010496D01*
X130849529Y-69018554D01*
X130871153Y-69028782D01*
X130891670Y-69041079D01*
X130910883Y-69055329D01*
X130928607Y-69071393D01*
X130944671Y-69089117D01*
X130958921Y-69108330D01*
X130971218Y-69128847D01*
X130981446Y-69150471D01*
X130989504Y-69172993D01*
X130995316Y-69196197D01*
X130998826Y-69219858D01*
X131000000Y-69243750D01*
X131000000Y-69731250D01*
X130998826Y-69755142D01*
X130995316Y-69778803D01*
X130989504Y-69802007D01*
X130981446Y-69824529D01*
X130971218Y-69846153D01*
X130958921Y-69866670D01*
X130944671Y-69885883D01*
X130928607Y-69903607D01*
X130910883Y-69919671D01*
X130891670Y-69933921D01*
X130871153Y-69946218D01*
X130849529Y-69956446D01*
X130827007Y-69964504D01*
X130803803Y-69970316D01*
X130780142Y-69973826D01*
X130756250Y-69975000D01*
X129843750Y-69975000D01*
X129819858Y-69973826D01*
X129796197Y-69970316D01*
X129772993Y-69964504D01*
X129750471Y-69956446D01*
X129728847Y-69946218D01*
X129708330Y-69933921D01*
X129689117Y-69919671D01*
X129671393Y-69903607D01*
X129655329Y-69885883D01*
X129641079Y-69866670D01*
X129628782Y-69846153D01*
X129618554Y-69824529D01*
X129610496Y-69802007D01*
X129604684Y-69778803D01*
X129601174Y-69755142D01*
X129600000Y-69731250D01*
X129600000Y-69243750D01*
X129601174Y-69219858D01*
X129604684Y-69196197D01*
X129610496Y-69172993D01*
X129618554Y-69150471D01*
X129628782Y-69128847D01*
X129641079Y-69108330D01*
X129655329Y-69089117D01*
X129671393Y-69071393D01*
X129689117Y-69055329D01*
X129708330Y-69041079D01*
X129728847Y-69028782D01*
X129750471Y-69018554D01*
X129772993Y-69010496D01*
X129796197Y-69004684D01*
X129819858Y-69001174D01*
X129843750Y-69000000D01*
X130756250Y-69000000D01*
X130780142Y-69001174D01*
X130780142Y-69001174D01*
G37*
D17*
X130300000Y-69487500D03*
D10*
G36*
X130780142Y-70876174D02*
G01*
X130803803Y-70879684D01*
X130827007Y-70885496D01*
X130849529Y-70893554D01*
X130871153Y-70903782D01*
X130891670Y-70916079D01*
X130910883Y-70930329D01*
X130928607Y-70946393D01*
X130944671Y-70964117D01*
X130958921Y-70983330D01*
X130971218Y-71003847D01*
X130981446Y-71025471D01*
X130989504Y-71047993D01*
X130995316Y-71071197D01*
X130998826Y-71094858D01*
X131000000Y-71118750D01*
X131000000Y-71606250D01*
X130998826Y-71630142D01*
X130995316Y-71653803D01*
X130989504Y-71677007D01*
X130981446Y-71699529D01*
X130971218Y-71721153D01*
X130958921Y-71741670D01*
X130944671Y-71760883D01*
X130928607Y-71778607D01*
X130910883Y-71794671D01*
X130891670Y-71808921D01*
X130871153Y-71821218D01*
X130849529Y-71831446D01*
X130827007Y-71839504D01*
X130803803Y-71845316D01*
X130780142Y-71848826D01*
X130756250Y-71850000D01*
X129843750Y-71850000D01*
X129819858Y-71848826D01*
X129796197Y-71845316D01*
X129772993Y-71839504D01*
X129750471Y-71831446D01*
X129728847Y-71821218D01*
X129708330Y-71808921D01*
X129689117Y-71794671D01*
X129671393Y-71778607D01*
X129655329Y-71760883D01*
X129641079Y-71741670D01*
X129628782Y-71721153D01*
X129618554Y-71699529D01*
X129610496Y-71677007D01*
X129604684Y-71653803D01*
X129601174Y-71630142D01*
X129600000Y-71606250D01*
X129600000Y-71118750D01*
X129601174Y-71094858D01*
X129604684Y-71071197D01*
X129610496Y-71047993D01*
X129618554Y-71025471D01*
X129628782Y-71003847D01*
X129641079Y-70983330D01*
X129655329Y-70964117D01*
X129671393Y-70946393D01*
X129689117Y-70930329D01*
X129708330Y-70916079D01*
X129728847Y-70903782D01*
X129750471Y-70893554D01*
X129772993Y-70885496D01*
X129796197Y-70879684D01*
X129819858Y-70876174D01*
X129843750Y-70875000D01*
X130756250Y-70875000D01*
X130780142Y-70876174D01*
X130780142Y-70876174D01*
G37*
D17*
X130300000Y-71362500D03*
D10*
G36*
X134927691Y-78101053D02*
G01*
X134948926Y-78104203D01*
X134969750Y-78109419D01*
X134989962Y-78116651D01*
X135009368Y-78125830D01*
X135027781Y-78136866D01*
X135045024Y-78149654D01*
X135060930Y-78164070D01*
X135075346Y-78179976D01*
X135088134Y-78197219D01*
X135099170Y-78215632D01*
X135108349Y-78235038D01*
X135115581Y-78255250D01*
X135120797Y-78276074D01*
X135123947Y-78297309D01*
X135125000Y-78318750D01*
X135125000Y-78756250D01*
X135123947Y-78777691D01*
X135120797Y-78798926D01*
X135115581Y-78819750D01*
X135108349Y-78839962D01*
X135099170Y-78859368D01*
X135088134Y-78877781D01*
X135075346Y-78895024D01*
X135060930Y-78910930D01*
X135045024Y-78925346D01*
X135027781Y-78938134D01*
X135009368Y-78949170D01*
X134989962Y-78958349D01*
X134969750Y-78965581D01*
X134948926Y-78970797D01*
X134927691Y-78973947D01*
X134906250Y-78975000D01*
X134393750Y-78975000D01*
X134372309Y-78973947D01*
X134351074Y-78970797D01*
X134330250Y-78965581D01*
X134310038Y-78958349D01*
X134290632Y-78949170D01*
X134272219Y-78938134D01*
X134254976Y-78925346D01*
X134239070Y-78910930D01*
X134224654Y-78895024D01*
X134211866Y-78877781D01*
X134200830Y-78859368D01*
X134191651Y-78839962D01*
X134184419Y-78819750D01*
X134179203Y-78798926D01*
X134176053Y-78777691D01*
X134175000Y-78756250D01*
X134175000Y-78318750D01*
X134176053Y-78297309D01*
X134179203Y-78276074D01*
X134184419Y-78255250D01*
X134191651Y-78235038D01*
X134200830Y-78215632D01*
X134211866Y-78197219D01*
X134224654Y-78179976D01*
X134239070Y-78164070D01*
X134254976Y-78149654D01*
X134272219Y-78136866D01*
X134290632Y-78125830D01*
X134310038Y-78116651D01*
X134330250Y-78109419D01*
X134351074Y-78104203D01*
X134372309Y-78101053D01*
X134393750Y-78100000D01*
X134906250Y-78100000D01*
X134927691Y-78101053D01*
X134927691Y-78101053D01*
G37*
D11*
X134650000Y-78537500D03*
D10*
G36*
X134927691Y-76526053D02*
G01*
X134948926Y-76529203D01*
X134969750Y-76534419D01*
X134989962Y-76541651D01*
X135009368Y-76550830D01*
X135027781Y-76561866D01*
X135045024Y-76574654D01*
X135060930Y-76589070D01*
X135075346Y-76604976D01*
X135088134Y-76622219D01*
X135099170Y-76640632D01*
X135108349Y-76660038D01*
X135115581Y-76680250D01*
X135120797Y-76701074D01*
X135123947Y-76722309D01*
X135125000Y-76743750D01*
X135125000Y-77181250D01*
X135123947Y-77202691D01*
X135120797Y-77223926D01*
X135115581Y-77244750D01*
X135108349Y-77264962D01*
X135099170Y-77284368D01*
X135088134Y-77302781D01*
X135075346Y-77320024D01*
X135060930Y-77335930D01*
X135045024Y-77350346D01*
X135027781Y-77363134D01*
X135009368Y-77374170D01*
X134989962Y-77383349D01*
X134969750Y-77390581D01*
X134948926Y-77395797D01*
X134927691Y-77398947D01*
X134906250Y-77400000D01*
X134393750Y-77400000D01*
X134372309Y-77398947D01*
X134351074Y-77395797D01*
X134330250Y-77390581D01*
X134310038Y-77383349D01*
X134290632Y-77374170D01*
X134272219Y-77363134D01*
X134254976Y-77350346D01*
X134239070Y-77335930D01*
X134224654Y-77320024D01*
X134211866Y-77302781D01*
X134200830Y-77284368D01*
X134191651Y-77264962D01*
X134184419Y-77244750D01*
X134179203Y-77223926D01*
X134176053Y-77202691D01*
X134175000Y-77181250D01*
X134175000Y-76743750D01*
X134176053Y-76722309D01*
X134179203Y-76701074D01*
X134184419Y-76680250D01*
X134191651Y-76660038D01*
X134200830Y-76640632D01*
X134211866Y-76622219D01*
X134224654Y-76604976D01*
X134239070Y-76589070D01*
X134254976Y-76574654D01*
X134272219Y-76561866D01*
X134290632Y-76550830D01*
X134310038Y-76541651D01*
X134330250Y-76534419D01*
X134351074Y-76529203D01*
X134372309Y-76526053D01*
X134393750Y-76525000D01*
X134906250Y-76525000D01*
X134927691Y-76526053D01*
X134927691Y-76526053D01*
G37*
D11*
X134650000Y-76962500D03*
D10*
G36*
X133477691Y-76563553D02*
G01*
X133498926Y-76566703D01*
X133519750Y-76571919D01*
X133539962Y-76579151D01*
X133559368Y-76588330D01*
X133577781Y-76599366D01*
X133595024Y-76612154D01*
X133610930Y-76626570D01*
X133625346Y-76642476D01*
X133638134Y-76659719D01*
X133649170Y-76678132D01*
X133658349Y-76697538D01*
X133665581Y-76717750D01*
X133670797Y-76738574D01*
X133673947Y-76759809D01*
X133675000Y-76781250D01*
X133675000Y-77218750D01*
X133673947Y-77240191D01*
X133670797Y-77261426D01*
X133665581Y-77282250D01*
X133658349Y-77302462D01*
X133649170Y-77321868D01*
X133638134Y-77340281D01*
X133625346Y-77357524D01*
X133610930Y-77373430D01*
X133595024Y-77387846D01*
X133577781Y-77400634D01*
X133559368Y-77411670D01*
X133539962Y-77420849D01*
X133519750Y-77428081D01*
X133498926Y-77433297D01*
X133477691Y-77436447D01*
X133456250Y-77437500D01*
X132943750Y-77437500D01*
X132922309Y-77436447D01*
X132901074Y-77433297D01*
X132880250Y-77428081D01*
X132860038Y-77420849D01*
X132840632Y-77411670D01*
X132822219Y-77400634D01*
X132804976Y-77387846D01*
X132789070Y-77373430D01*
X132774654Y-77357524D01*
X132761866Y-77340281D01*
X132750830Y-77321868D01*
X132741651Y-77302462D01*
X132734419Y-77282250D01*
X132729203Y-77261426D01*
X132726053Y-77240191D01*
X132725000Y-77218750D01*
X132725000Y-76781250D01*
X132726053Y-76759809D01*
X132729203Y-76738574D01*
X132734419Y-76717750D01*
X132741651Y-76697538D01*
X132750830Y-76678132D01*
X132761866Y-76659719D01*
X132774654Y-76642476D01*
X132789070Y-76626570D01*
X132804976Y-76612154D01*
X132822219Y-76599366D01*
X132840632Y-76588330D01*
X132860038Y-76579151D01*
X132880250Y-76571919D01*
X132901074Y-76566703D01*
X132922309Y-76563553D01*
X132943750Y-76562500D01*
X133456250Y-76562500D01*
X133477691Y-76563553D01*
X133477691Y-76563553D01*
G37*
D11*
X133200000Y-77000000D03*
D10*
G36*
X133477691Y-78138553D02*
G01*
X133498926Y-78141703D01*
X133519750Y-78146919D01*
X133539962Y-78154151D01*
X133559368Y-78163330D01*
X133577781Y-78174366D01*
X133595024Y-78187154D01*
X133610930Y-78201570D01*
X133625346Y-78217476D01*
X133638134Y-78234719D01*
X133649170Y-78253132D01*
X133658349Y-78272538D01*
X133665581Y-78292750D01*
X133670797Y-78313574D01*
X133673947Y-78334809D01*
X133675000Y-78356250D01*
X133675000Y-78793750D01*
X133673947Y-78815191D01*
X133670797Y-78836426D01*
X133665581Y-78857250D01*
X133658349Y-78877462D01*
X133649170Y-78896868D01*
X133638134Y-78915281D01*
X133625346Y-78932524D01*
X133610930Y-78948430D01*
X133595024Y-78962846D01*
X133577781Y-78975634D01*
X133559368Y-78986670D01*
X133539962Y-78995849D01*
X133519750Y-79003081D01*
X133498926Y-79008297D01*
X133477691Y-79011447D01*
X133456250Y-79012500D01*
X132943750Y-79012500D01*
X132922309Y-79011447D01*
X132901074Y-79008297D01*
X132880250Y-79003081D01*
X132860038Y-78995849D01*
X132840632Y-78986670D01*
X132822219Y-78975634D01*
X132804976Y-78962846D01*
X132789070Y-78948430D01*
X132774654Y-78932524D01*
X132761866Y-78915281D01*
X132750830Y-78896868D01*
X132741651Y-78877462D01*
X132734419Y-78857250D01*
X132729203Y-78836426D01*
X132726053Y-78815191D01*
X132725000Y-78793750D01*
X132725000Y-78356250D01*
X132726053Y-78334809D01*
X132729203Y-78313574D01*
X132734419Y-78292750D01*
X132741651Y-78272538D01*
X132750830Y-78253132D01*
X132761866Y-78234719D01*
X132774654Y-78217476D01*
X132789070Y-78201570D01*
X132804976Y-78187154D01*
X132822219Y-78174366D01*
X132840632Y-78163330D01*
X132860038Y-78154151D01*
X132880250Y-78146919D01*
X132901074Y-78141703D01*
X132922309Y-78138553D01*
X132943750Y-78137500D01*
X133456250Y-78137500D01*
X133477691Y-78138553D01*
X133477691Y-78138553D01*
G37*
D11*
X133200000Y-78575000D03*
D10*
G36*
X142102691Y-65726053D02*
G01*
X142123926Y-65729203D01*
X142144750Y-65734419D01*
X142164962Y-65741651D01*
X142184368Y-65750830D01*
X142202781Y-65761866D01*
X142220024Y-65774654D01*
X142235930Y-65789070D01*
X142250346Y-65804976D01*
X142263134Y-65822219D01*
X142274170Y-65840632D01*
X142283349Y-65860038D01*
X142290581Y-65880250D01*
X142295797Y-65901074D01*
X142298947Y-65922309D01*
X142300000Y-65943750D01*
X142300000Y-66456250D01*
X142298947Y-66477691D01*
X142295797Y-66498926D01*
X142290581Y-66519750D01*
X142283349Y-66539962D01*
X142274170Y-66559368D01*
X142263134Y-66577781D01*
X142250346Y-66595024D01*
X142235930Y-66610930D01*
X142220024Y-66625346D01*
X142202781Y-66638134D01*
X142184368Y-66649170D01*
X142164962Y-66658349D01*
X142144750Y-66665581D01*
X142123926Y-66670797D01*
X142102691Y-66673947D01*
X142081250Y-66675000D01*
X141643750Y-66675000D01*
X141622309Y-66673947D01*
X141601074Y-66670797D01*
X141580250Y-66665581D01*
X141560038Y-66658349D01*
X141540632Y-66649170D01*
X141522219Y-66638134D01*
X141504976Y-66625346D01*
X141489070Y-66610930D01*
X141474654Y-66595024D01*
X141461866Y-66577781D01*
X141450830Y-66559368D01*
X141441651Y-66539962D01*
X141434419Y-66519750D01*
X141429203Y-66498926D01*
X141426053Y-66477691D01*
X141425000Y-66456250D01*
X141425000Y-65943750D01*
X141426053Y-65922309D01*
X141429203Y-65901074D01*
X141434419Y-65880250D01*
X141441651Y-65860038D01*
X141450830Y-65840632D01*
X141461866Y-65822219D01*
X141474654Y-65804976D01*
X141489070Y-65789070D01*
X141504976Y-65774654D01*
X141522219Y-65761866D01*
X141540632Y-65750830D01*
X141560038Y-65741651D01*
X141580250Y-65734419D01*
X141601074Y-65729203D01*
X141622309Y-65726053D01*
X141643750Y-65725000D01*
X142081250Y-65725000D01*
X142102691Y-65726053D01*
X142102691Y-65726053D01*
G37*
D11*
X141862500Y-66200000D03*
D10*
G36*
X140527691Y-65726053D02*
G01*
X140548926Y-65729203D01*
X140569750Y-65734419D01*
X140589962Y-65741651D01*
X140609368Y-65750830D01*
X140627781Y-65761866D01*
X140645024Y-65774654D01*
X140660930Y-65789070D01*
X140675346Y-65804976D01*
X140688134Y-65822219D01*
X140699170Y-65840632D01*
X140708349Y-65860038D01*
X140715581Y-65880250D01*
X140720797Y-65901074D01*
X140723947Y-65922309D01*
X140725000Y-65943750D01*
X140725000Y-66456250D01*
X140723947Y-66477691D01*
X140720797Y-66498926D01*
X140715581Y-66519750D01*
X140708349Y-66539962D01*
X140699170Y-66559368D01*
X140688134Y-66577781D01*
X140675346Y-66595024D01*
X140660930Y-66610930D01*
X140645024Y-66625346D01*
X140627781Y-66638134D01*
X140609368Y-66649170D01*
X140589962Y-66658349D01*
X140569750Y-66665581D01*
X140548926Y-66670797D01*
X140527691Y-66673947D01*
X140506250Y-66675000D01*
X140068750Y-66675000D01*
X140047309Y-66673947D01*
X140026074Y-66670797D01*
X140005250Y-66665581D01*
X139985038Y-66658349D01*
X139965632Y-66649170D01*
X139947219Y-66638134D01*
X139929976Y-66625346D01*
X139914070Y-66610930D01*
X139899654Y-66595024D01*
X139886866Y-66577781D01*
X139875830Y-66559368D01*
X139866651Y-66539962D01*
X139859419Y-66519750D01*
X139854203Y-66498926D01*
X139851053Y-66477691D01*
X139850000Y-66456250D01*
X139850000Y-65943750D01*
X139851053Y-65922309D01*
X139854203Y-65901074D01*
X139859419Y-65880250D01*
X139866651Y-65860038D01*
X139875830Y-65840632D01*
X139886866Y-65822219D01*
X139899654Y-65804976D01*
X139914070Y-65789070D01*
X139929976Y-65774654D01*
X139947219Y-65761866D01*
X139965632Y-65750830D01*
X139985038Y-65741651D01*
X140005250Y-65734419D01*
X140026074Y-65729203D01*
X140047309Y-65726053D01*
X140068750Y-65725000D01*
X140506250Y-65725000D01*
X140527691Y-65726053D01*
X140527691Y-65726053D01*
G37*
D11*
X140287500Y-66200000D03*
D10*
G36*
X133927691Y-73376053D02*
G01*
X133948926Y-73379203D01*
X133969750Y-73384419D01*
X133989962Y-73391651D01*
X134009368Y-73400830D01*
X134027781Y-73411866D01*
X134045024Y-73424654D01*
X134060930Y-73439070D01*
X134075346Y-73454976D01*
X134088134Y-73472219D01*
X134099170Y-73490632D01*
X134108349Y-73510038D01*
X134115581Y-73530250D01*
X134120797Y-73551074D01*
X134123947Y-73572309D01*
X134125000Y-73593750D01*
X134125000Y-74106250D01*
X134123947Y-74127691D01*
X134120797Y-74148926D01*
X134115581Y-74169750D01*
X134108349Y-74189962D01*
X134099170Y-74209368D01*
X134088134Y-74227781D01*
X134075346Y-74245024D01*
X134060930Y-74260930D01*
X134045024Y-74275346D01*
X134027781Y-74288134D01*
X134009368Y-74299170D01*
X133989962Y-74308349D01*
X133969750Y-74315581D01*
X133948926Y-74320797D01*
X133927691Y-74323947D01*
X133906250Y-74325000D01*
X133468750Y-74325000D01*
X133447309Y-74323947D01*
X133426074Y-74320797D01*
X133405250Y-74315581D01*
X133385038Y-74308349D01*
X133365632Y-74299170D01*
X133347219Y-74288134D01*
X133329976Y-74275346D01*
X133314070Y-74260930D01*
X133299654Y-74245024D01*
X133286866Y-74227781D01*
X133275830Y-74209368D01*
X133266651Y-74189962D01*
X133259419Y-74169750D01*
X133254203Y-74148926D01*
X133251053Y-74127691D01*
X133250000Y-74106250D01*
X133250000Y-73593750D01*
X133251053Y-73572309D01*
X133254203Y-73551074D01*
X133259419Y-73530250D01*
X133266651Y-73510038D01*
X133275830Y-73490632D01*
X133286866Y-73472219D01*
X133299654Y-73454976D01*
X133314070Y-73439070D01*
X133329976Y-73424654D01*
X133347219Y-73411866D01*
X133365632Y-73400830D01*
X133385038Y-73391651D01*
X133405250Y-73384419D01*
X133426074Y-73379203D01*
X133447309Y-73376053D01*
X133468750Y-73375000D01*
X133906250Y-73375000D01*
X133927691Y-73376053D01*
X133927691Y-73376053D01*
G37*
D11*
X133687500Y-73850000D03*
D10*
G36*
X132352691Y-73376053D02*
G01*
X132373926Y-73379203D01*
X132394750Y-73384419D01*
X132414962Y-73391651D01*
X132434368Y-73400830D01*
X132452781Y-73411866D01*
X132470024Y-73424654D01*
X132485930Y-73439070D01*
X132500346Y-73454976D01*
X132513134Y-73472219D01*
X132524170Y-73490632D01*
X132533349Y-73510038D01*
X132540581Y-73530250D01*
X132545797Y-73551074D01*
X132548947Y-73572309D01*
X132550000Y-73593750D01*
X132550000Y-74106250D01*
X132548947Y-74127691D01*
X132545797Y-74148926D01*
X132540581Y-74169750D01*
X132533349Y-74189962D01*
X132524170Y-74209368D01*
X132513134Y-74227781D01*
X132500346Y-74245024D01*
X132485930Y-74260930D01*
X132470024Y-74275346D01*
X132452781Y-74288134D01*
X132434368Y-74299170D01*
X132414962Y-74308349D01*
X132394750Y-74315581D01*
X132373926Y-74320797D01*
X132352691Y-74323947D01*
X132331250Y-74325000D01*
X131893750Y-74325000D01*
X131872309Y-74323947D01*
X131851074Y-74320797D01*
X131830250Y-74315581D01*
X131810038Y-74308349D01*
X131790632Y-74299170D01*
X131772219Y-74288134D01*
X131754976Y-74275346D01*
X131739070Y-74260930D01*
X131724654Y-74245024D01*
X131711866Y-74227781D01*
X131700830Y-74209368D01*
X131691651Y-74189962D01*
X131684419Y-74169750D01*
X131679203Y-74148926D01*
X131676053Y-74127691D01*
X131675000Y-74106250D01*
X131675000Y-73593750D01*
X131676053Y-73572309D01*
X131679203Y-73551074D01*
X131684419Y-73530250D01*
X131691651Y-73510038D01*
X131700830Y-73490632D01*
X131711866Y-73472219D01*
X131724654Y-73454976D01*
X131739070Y-73439070D01*
X131754976Y-73424654D01*
X131772219Y-73411866D01*
X131790632Y-73400830D01*
X131810038Y-73391651D01*
X131830250Y-73384419D01*
X131851074Y-73379203D01*
X131872309Y-73376053D01*
X131893750Y-73375000D01*
X132331250Y-73375000D01*
X132352691Y-73376053D01*
X132352691Y-73376053D01*
G37*
D11*
X132112500Y-73850000D03*
D10*
G36*
X140602691Y-59576053D02*
G01*
X140623926Y-59579203D01*
X140644750Y-59584419D01*
X140664962Y-59591651D01*
X140684368Y-59600830D01*
X140702781Y-59611866D01*
X140720024Y-59624654D01*
X140735930Y-59639070D01*
X140750346Y-59654976D01*
X140763134Y-59672219D01*
X140774170Y-59690632D01*
X140783349Y-59710038D01*
X140790581Y-59730250D01*
X140795797Y-59751074D01*
X140798947Y-59772309D01*
X140800000Y-59793750D01*
X140800000Y-60306250D01*
X140798947Y-60327691D01*
X140795797Y-60348926D01*
X140790581Y-60369750D01*
X140783349Y-60389962D01*
X140774170Y-60409368D01*
X140763134Y-60427781D01*
X140750346Y-60445024D01*
X140735930Y-60460930D01*
X140720024Y-60475346D01*
X140702781Y-60488134D01*
X140684368Y-60499170D01*
X140664962Y-60508349D01*
X140644750Y-60515581D01*
X140623926Y-60520797D01*
X140602691Y-60523947D01*
X140581250Y-60525000D01*
X140143750Y-60525000D01*
X140122309Y-60523947D01*
X140101074Y-60520797D01*
X140080250Y-60515581D01*
X140060038Y-60508349D01*
X140040632Y-60499170D01*
X140022219Y-60488134D01*
X140004976Y-60475346D01*
X139989070Y-60460930D01*
X139974654Y-60445024D01*
X139961866Y-60427781D01*
X139950830Y-60409368D01*
X139941651Y-60389962D01*
X139934419Y-60369750D01*
X139929203Y-60348926D01*
X139926053Y-60327691D01*
X139925000Y-60306250D01*
X139925000Y-59793750D01*
X139926053Y-59772309D01*
X139929203Y-59751074D01*
X139934419Y-59730250D01*
X139941651Y-59710038D01*
X139950830Y-59690632D01*
X139961866Y-59672219D01*
X139974654Y-59654976D01*
X139989070Y-59639070D01*
X140004976Y-59624654D01*
X140022219Y-59611866D01*
X140040632Y-59600830D01*
X140060038Y-59591651D01*
X140080250Y-59584419D01*
X140101074Y-59579203D01*
X140122309Y-59576053D01*
X140143750Y-59575000D01*
X140581250Y-59575000D01*
X140602691Y-59576053D01*
X140602691Y-59576053D01*
G37*
D11*
X140362500Y-60050000D03*
D10*
G36*
X142177691Y-59576053D02*
G01*
X142198926Y-59579203D01*
X142219750Y-59584419D01*
X142239962Y-59591651D01*
X142259368Y-59600830D01*
X142277781Y-59611866D01*
X142295024Y-59624654D01*
X142310930Y-59639070D01*
X142325346Y-59654976D01*
X142338134Y-59672219D01*
X142349170Y-59690632D01*
X142358349Y-59710038D01*
X142365581Y-59730250D01*
X142370797Y-59751074D01*
X142373947Y-59772309D01*
X142375000Y-59793750D01*
X142375000Y-60306250D01*
X142373947Y-60327691D01*
X142370797Y-60348926D01*
X142365581Y-60369750D01*
X142358349Y-60389962D01*
X142349170Y-60409368D01*
X142338134Y-60427781D01*
X142325346Y-60445024D01*
X142310930Y-60460930D01*
X142295024Y-60475346D01*
X142277781Y-60488134D01*
X142259368Y-60499170D01*
X142239962Y-60508349D01*
X142219750Y-60515581D01*
X142198926Y-60520797D01*
X142177691Y-60523947D01*
X142156250Y-60525000D01*
X141718750Y-60525000D01*
X141697309Y-60523947D01*
X141676074Y-60520797D01*
X141655250Y-60515581D01*
X141635038Y-60508349D01*
X141615632Y-60499170D01*
X141597219Y-60488134D01*
X141579976Y-60475346D01*
X141564070Y-60460930D01*
X141549654Y-60445024D01*
X141536866Y-60427781D01*
X141525830Y-60409368D01*
X141516651Y-60389962D01*
X141509419Y-60369750D01*
X141504203Y-60348926D01*
X141501053Y-60327691D01*
X141500000Y-60306250D01*
X141500000Y-59793750D01*
X141501053Y-59772309D01*
X141504203Y-59751074D01*
X141509419Y-59730250D01*
X141516651Y-59710038D01*
X141525830Y-59690632D01*
X141536866Y-59672219D01*
X141549654Y-59654976D01*
X141564070Y-59639070D01*
X141579976Y-59624654D01*
X141597219Y-59611866D01*
X141615632Y-59600830D01*
X141635038Y-59591651D01*
X141655250Y-59584419D01*
X141676074Y-59579203D01*
X141697309Y-59576053D01*
X141718750Y-59575000D01*
X142156250Y-59575000D01*
X142177691Y-59576053D01*
X142177691Y-59576053D01*
G37*
D11*
X141937500Y-60050000D03*
D10*
G36*
X132677691Y-67551053D02*
G01*
X132698926Y-67554203D01*
X132719750Y-67559419D01*
X132739962Y-67566651D01*
X132759368Y-67575830D01*
X132777781Y-67586866D01*
X132795024Y-67599654D01*
X132810930Y-67614070D01*
X132825346Y-67629976D01*
X132838134Y-67647219D01*
X132849170Y-67665632D01*
X132858349Y-67685038D01*
X132865581Y-67705250D01*
X132870797Y-67726074D01*
X132873947Y-67747309D01*
X132875000Y-67768750D01*
X132875000Y-68281250D01*
X132873947Y-68302691D01*
X132870797Y-68323926D01*
X132865581Y-68344750D01*
X132858349Y-68364962D01*
X132849170Y-68384368D01*
X132838134Y-68402781D01*
X132825346Y-68420024D01*
X132810930Y-68435930D01*
X132795024Y-68450346D01*
X132777781Y-68463134D01*
X132759368Y-68474170D01*
X132739962Y-68483349D01*
X132719750Y-68490581D01*
X132698926Y-68495797D01*
X132677691Y-68498947D01*
X132656250Y-68500000D01*
X132218750Y-68500000D01*
X132197309Y-68498947D01*
X132176074Y-68495797D01*
X132155250Y-68490581D01*
X132135038Y-68483349D01*
X132115632Y-68474170D01*
X132097219Y-68463134D01*
X132079976Y-68450346D01*
X132064070Y-68435930D01*
X132049654Y-68420024D01*
X132036866Y-68402781D01*
X132025830Y-68384368D01*
X132016651Y-68364962D01*
X132009419Y-68344750D01*
X132004203Y-68323926D01*
X132001053Y-68302691D01*
X132000000Y-68281250D01*
X132000000Y-67768750D01*
X132001053Y-67747309D01*
X132004203Y-67726074D01*
X132009419Y-67705250D01*
X132016651Y-67685038D01*
X132025830Y-67665632D01*
X132036866Y-67647219D01*
X132049654Y-67629976D01*
X132064070Y-67614070D01*
X132079976Y-67599654D01*
X132097219Y-67586866D01*
X132115632Y-67575830D01*
X132135038Y-67566651D01*
X132155250Y-67559419D01*
X132176074Y-67554203D01*
X132197309Y-67551053D01*
X132218750Y-67550000D01*
X132656250Y-67550000D01*
X132677691Y-67551053D01*
X132677691Y-67551053D01*
G37*
D11*
X132437500Y-68025000D03*
D10*
G36*
X134252691Y-67551053D02*
G01*
X134273926Y-67554203D01*
X134294750Y-67559419D01*
X134314962Y-67566651D01*
X134334368Y-67575830D01*
X134352781Y-67586866D01*
X134370024Y-67599654D01*
X134385930Y-67614070D01*
X134400346Y-67629976D01*
X134413134Y-67647219D01*
X134424170Y-67665632D01*
X134433349Y-67685038D01*
X134440581Y-67705250D01*
X134445797Y-67726074D01*
X134448947Y-67747309D01*
X134450000Y-67768750D01*
X134450000Y-68281250D01*
X134448947Y-68302691D01*
X134445797Y-68323926D01*
X134440581Y-68344750D01*
X134433349Y-68364962D01*
X134424170Y-68384368D01*
X134413134Y-68402781D01*
X134400346Y-68420024D01*
X134385930Y-68435930D01*
X134370024Y-68450346D01*
X134352781Y-68463134D01*
X134334368Y-68474170D01*
X134314962Y-68483349D01*
X134294750Y-68490581D01*
X134273926Y-68495797D01*
X134252691Y-68498947D01*
X134231250Y-68500000D01*
X133793750Y-68500000D01*
X133772309Y-68498947D01*
X133751074Y-68495797D01*
X133730250Y-68490581D01*
X133710038Y-68483349D01*
X133690632Y-68474170D01*
X133672219Y-68463134D01*
X133654976Y-68450346D01*
X133639070Y-68435930D01*
X133624654Y-68420024D01*
X133611866Y-68402781D01*
X133600830Y-68384368D01*
X133591651Y-68364962D01*
X133584419Y-68344750D01*
X133579203Y-68323926D01*
X133576053Y-68302691D01*
X133575000Y-68281250D01*
X133575000Y-67768750D01*
X133576053Y-67747309D01*
X133579203Y-67726074D01*
X133584419Y-67705250D01*
X133591651Y-67685038D01*
X133600830Y-67665632D01*
X133611866Y-67647219D01*
X133624654Y-67629976D01*
X133639070Y-67614070D01*
X133654976Y-67599654D01*
X133672219Y-67586866D01*
X133690632Y-67575830D01*
X133710038Y-67566651D01*
X133730250Y-67559419D01*
X133751074Y-67554203D01*
X133772309Y-67551053D01*
X133793750Y-67550000D01*
X134231250Y-67550000D01*
X134252691Y-67551053D01*
X134252691Y-67551053D01*
G37*
D11*
X134012500Y-68025000D03*
D10*
G36*
X140277691Y-67676053D02*
G01*
X140298926Y-67679203D01*
X140319750Y-67684419D01*
X140339962Y-67691651D01*
X140359368Y-67700830D01*
X140377781Y-67711866D01*
X140395024Y-67724654D01*
X140410930Y-67739070D01*
X140425346Y-67754976D01*
X140438134Y-67772219D01*
X140449170Y-67790632D01*
X140458349Y-67810038D01*
X140465581Y-67830250D01*
X140470797Y-67851074D01*
X140473947Y-67872309D01*
X140475000Y-67893750D01*
X140475000Y-68331250D01*
X140473947Y-68352691D01*
X140470797Y-68373926D01*
X140465581Y-68394750D01*
X140458349Y-68414962D01*
X140449170Y-68434368D01*
X140438134Y-68452781D01*
X140425346Y-68470024D01*
X140410930Y-68485930D01*
X140395024Y-68500346D01*
X140377781Y-68513134D01*
X140359368Y-68524170D01*
X140339962Y-68533349D01*
X140319750Y-68540581D01*
X140298926Y-68545797D01*
X140277691Y-68548947D01*
X140256250Y-68550000D01*
X139743750Y-68550000D01*
X139722309Y-68548947D01*
X139701074Y-68545797D01*
X139680250Y-68540581D01*
X139660038Y-68533349D01*
X139640632Y-68524170D01*
X139622219Y-68513134D01*
X139604976Y-68500346D01*
X139589070Y-68485930D01*
X139574654Y-68470024D01*
X139561866Y-68452781D01*
X139550830Y-68434368D01*
X139541651Y-68414962D01*
X139534419Y-68394750D01*
X139529203Y-68373926D01*
X139526053Y-68352691D01*
X139525000Y-68331250D01*
X139525000Y-67893750D01*
X139526053Y-67872309D01*
X139529203Y-67851074D01*
X139534419Y-67830250D01*
X139541651Y-67810038D01*
X139550830Y-67790632D01*
X139561866Y-67772219D01*
X139574654Y-67754976D01*
X139589070Y-67739070D01*
X139604976Y-67724654D01*
X139622219Y-67711866D01*
X139640632Y-67700830D01*
X139660038Y-67691651D01*
X139680250Y-67684419D01*
X139701074Y-67679203D01*
X139722309Y-67676053D01*
X139743750Y-67675000D01*
X140256250Y-67675000D01*
X140277691Y-67676053D01*
X140277691Y-67676053D01*
G37*
D11*
X140000000Y-68112500D03*
D10*
G36*
X140277691Y-69251053D02*
G01*
X140298926Y-69254203D01*
X140319750Y-69259419D01*
X140339962Y-69266651D01*
X140359368Y-69275830D01*
X140377781Y-69286866D01*
X140395024Y-69299654D01*
X140410930Y-69314070D01*
X140425346Y-69329976D01*
X140438134Y-69347219D01*
X140449170Y-69365632D01*
X140458349Y-69385038D01*
X140465581Y-69405250D01*
X140470797Y-69426074D01*
X140473947Y-69447309D01*
X140475000Y-69468750D01*
X140475000Y-69906250D01*
X140473947Y-69927691D01*
X140470797Y-69948926D01*
X140465581Y-69969750D01*
X140458349Y-69989962D01*
X140449170Y-70009368D01*
X140438134Y-70027781D01*
X140425346Y-70045024D01*
X140410930Y-70060930D01*
X140395024Y-70075346D01*
X140377781Y-70088134D01*
X140359368Y-70099170D01*
X140339962Y-70108349D01*
X140319750Y-70115581D01*
X140298926Y-70120797D01*
X140277691Y-70123947D01*
X140256250Y-70125000D01*
X139743750Y-70125000D01*
X139722309Y-70123947D01*
X139701074Y-70120797D01*
X139680250Y-70115581D01*
X139660038Y-70108349D01*
X139640632Y-70099170D01*
X139622219Y-70088134D01*
X139604976Y-70075346D01*
X139589070Y-70060930D01*
X139574654Y-70045024D01*
X139561866Y-70027781D01*
X139550830Y-70009368D01*
X139541651Y-69989962D01*
X139534419Y-69969750D01*
X139529203Y-69948926D01*
X139526053Y-69927691D01*
X139525000Y-69906250D01*
X139525000Y-69468750D01*
X139526053Y-69447309D01*
X139529203Y-69426074D01*
X139534419Y-69405250D01*
X139541651Y-69385038D01*
X139550830Y-69365632D01*
X139561866Y-69347219D01*
X139574654Y-69329976D01*
X139589070Y-69314070D01*
X139604976Y-69299654D01*
X139622219Y-69286866D01*
X139640632Y-69275830D01*
X139660038Y-69266651D01*
X139680250Y-69259419D01*
X139701074Y-69254203D01*
X139722309Y-69251053D01*
X139743750Y-69250000D01*
X140256250Y-69250000D01*
X140277691Y-69251053D01*
X140277691Y-69251053D01*
G37*
D11*
X140000000Y-69687500D03*
D18*
X142000000Y-61600000D03*
X141050000Y-61600000D03*
X140100000Y-61600000D03*
X140100000Y-64200000D03*
X142000000Y-64200000D03*
X133850000Y-69650000D03*
X132900000Y-69650000D03*
X131950000Y-69650000D03*
X131950000Y-72250000D03*
X133850000Y-72250000D03*
D19*
X132350000Y-60795000D03*
X132350000Y-62065000D03*
X132350000Y-63335000D03*
D20*
X132350000Y-59525000D03*
D19*
X132350000Y-64605000D03*
D20*
X132350000Y-65875000D03*
D21*
X134250000Y-64305000D03*
X134750000Y-64305000D03*
X135250000Y-64305000D03*
X135750000Y-64305000D03*
X136250000Y-64305000D03*
X136750000Y-64305000D03*
X137250000Y-64305000D03*
D22*
X137805000Y-63750000D03*
X137805000Y-63250000D03*
X137805000Y-62750000D03*
X137805000Y-62250000D03*
X137805000Y-61750000D03*
X137805000Y-61250000D03*
X137805000Y-60750000D03*
D21*
X137250000Y-60195000D03*
X136750000Y-60195000D03*
X136250000Y-60195000D03*
X135750000Y-60195000D03*
X135250000Y-60195000D03*
X134750000Y-60195000D03*
X134250000Y-60195000D03*
D22*
X133695000Y-60750000D03*
X133695000Y-61250000D03*
X133695000Y-61750000D03*
X133695000Y-62250000D03*
X133695000Y-62750000D03*
X133695000Y-63250000D03*
X133695000Y-63750000D03*
D23*
X131750000Y-55250000D03*
X138750000Y-55250000D03*
D24*
X137750000Y-57950000D03*
X132750000Y-57950000D03*
D25*
X136550000Y-57950000D03*
X135900000Y-57950000D03*
X133950000Y-57950000D03*
X134600000Y-57950000D03*
X135250000Y-57950000D03*
D26*
X134600000Y-61350000D03*
X141050000Y-62800000D03*
X133950000Y-56600000D03*
X134250000Y-65250000D03*
X132900000Y-70850000D03*
X136473715Y-61310183D03*
X141150000Y-68150000D03*
X133200000Y-75950000D03*
X137950000Y-72500000D03*
X129025000Y-67550000D03*
X137925000Y-65625000D03*
X138750000Y-69450000D03*
D27*
X139775000Y-83075000D03*
D26*
X130688838Y-72618126D03*
X134300000Y-66700000D03*
D27*
X136500000Y-80300000D03*
X132400000Y-81200000D03*
X129400000Y-80600000D03*
X142500000Y-76100000D03*
X134500000Y-54400000D03*
X142250000Y-57550000D03*
X137805210Y-75853828D03*
X138900000Y-58800000D03*
X134800000Y-62650000D03*
D26*
X136450000Y-67150000D03*
X136531773Y-63297875D03*
X135677000Y-68093867D03*
X136200000Y-62100000D03*
X127675000Y-75200000D03*
X129050000Y-62500000D03*
X129050000Y-65000000D03*
X128850004Y-69987482D03*
D28*
X135900000Y-58875000D02*
X135900000Y-57950000D01*
X135900000Y-58985000D02*
X135900000Y-58875000D01*
X135250000Y-59635000D02*
X135900000Y-58985000D01*
X135250000Y-60195000D02*
X135250000Y-59635000D01*
X134750000Y-59375000D02*
X135250000Y-58875000D01*
X135250000Y-58875000D02*
X135250000Y-57950000D01*
X134750000Y-60195000D02*
X134750000Y-59375000D01*
D29*
X131950000Y-73687500D02*
X132112500Y-73850000D01*
X131950000Y-72250000D02*
X131950000Y-73687500D01*
X134625000Y-74333272D02*
X134625000Y-73275000D01*
X133958272Y-75000000D02*
X134625000Y-74333272D01*
X133850000Y-72500000D02*
X133850000Y-72250000D01*
X132112500Y-73850000D02*
X133262500Y-75000000D01*
X134625000Y-73275000D02*
X133850000Y-72500000D01*
X133262500Y-75000000D02*
X133958272Y-75000000D01*
D28*
X134625000Y-73275000D02*
X134625000Y-73151400D01*
X135759400Y-73340600D02*
X135759400Y-74484400D01*
X135775000Y-73325000D02*
X135759400Y-73340600D01*
X135775000Y-73325000D02*
X135800000Y-73300000D01*
X135750000Y-73300000D02*
X135775000Y-73325000D01*
X134625000Y-73275000D02*
X134650000Y-73250000D01*
X137080200Y-73319800D02*
X137100000Y-73300000D01*
X135800000Y-73300000D02*
X137100000Y-73300000D01*
X137080200Y-74484400D02*
X137080200Y-73319800D01*
X141110400Y-73450000D02*
X141478700Y-73450000D01*
X139024996Y-73450000D02*
X141110400Y-73450000D01*
X137100000Y-73300000D02*
X138874996Y-73300000D01*
X138874996Y-73300000D02*
X139024996Y-73450000D01*
X134650000Y-73300000D02*
X134625000Y-73275000D01*
X135800000Y-73300000D02*
X134650000Y-73300000D01*
X137080200Y-75982300D02*
X137080200Y-74484400D01*
X136112500Y-76950000D02*
X137080200Y-75982300D01*
D29*
X141200000Y-65250000D02*
X140100000Y-65250000D01*
X142000000Y-64450000D02*
X141200000Y-65250000D01*
X142000000Y-64200000D02*
X142000000Y-64450000D01*
X140100000Y-64200000D02*
X140100000Y-65250000D01*
D28*
X140412500Y-66325000D02*
X140287500Y-66200000D01*
X136250000Y-64305000D02*
X136250000Y-63900000D01*
X136250000Y-63900000D02*
X135550000Y-63200000D01*
X135550000Y-63200000D02*
X135550000Y-61350000D01*
X136250000Y-60650000D02*
X136250000Y-60195000D01*
X135550000Y-61350000D02*
X136250000Y-60650000D01*
X135550000Y-61350000D02*
X134600000Y-61350000D01*
D29*
X140100000Y-66012500D02*
X140287500Y-66200000D01*
X140100000Y-65250000D02*
X140100000Y-66012500D01*
D28*
X140100000Y-63425000D02*
X140100000Y-64200000D01*
X136250000Y-59635000D02*
X136735000Y-59150000D01*
X136250000Y-60195000D02*
X136250000Y-59635000D01*
X136735000Y-59150000D02*
X137950000Y-59150000D01*
X137950000Y-59150000D02*
X138649999Y-59849999D01*
X138649999Y-59849999D02*
X138649999Y-61974999D01*
X138649999Y-61974999D02*
X140100000Y-63425000D01*
D29*
X141050000Y-60737500D02*
X141050000Y-61600000D01*
X140362500Y-60050000D02*
X141050000Y-60737500D01*
X141050000Y-60737500D02*
X140881250Y-60568750D01*
X141050000Y-61600000D02*
X141050000Y-62800000D01*
X141912500Y-66150000D02*
X141862500Y-66200000D01*
X142450000Y-66150000D02*
X141912500Y-66150000D01*
X141050000Y-62800000D02*
X142300000Y-62800000D01*
X142725001Y-65874999D02*
X142450000Y-66150000D01*
X142725001Y-63225001D02*
X142725001Y-65874999D01*
X142300000Y-62800000D02*
X142725001Y-63225001D01*
X133950000Y-57950000D02*
X133950000Y-56600000D01*
D28*
X134250000Y-64305000D02*
X134250000Y-65250000D01*
D29*
X132900000Y-73062500D02*
X133687500Y-73850000D01*
X132900000Y-69650000D02*
X132900000Y-70850000D01*
X132900000Y-70850000D02*
X132900000Y-73062500D01*
D28*
X136750000Y-60195000D02*
X136750000Y-61033898D01*
X136750000Y-61033898D02*
X136473715Y-61310183D01*
X140000000Y-68112500D02*
X141112500Y-68112500D01*
X141112500Y-68112500D02*
X141150000Y-68150000D01*
X133200000Y-77000000D02*
X133200000Y-76000000D01*
X139421300Y-72500000D02*
X137950000Y-72500000D01*
D29*
X132900000Y-68487500D02*
X132900000Y-69650000D01*
X132437500Y-68025000D02*
X132900000Y-68487500D01*
X129037500Y-67537500D02*
X129025000Y-67550000D01*
X130475000Y-67512500D02*
X130450000Y-67537500D01*
X130450000Y-67537500D02*
X129037500Y-67537500D01*
X130388839Y-72318127D02*
X130688838Y-72618126D01*
X130300000Y-72229288D02*
X130388839Y-72318127D01*
X130300000Y-71362500D02*
X130300000Y-72229288D01*
D28*
X137740600Y-74484400D02*
X137740600Y-75789218D01*
X137740600Y-75789218D02*
X137805210Y-75853828D01*
X137687500Y-76950000D02*
X137687500Y-75971538D01*
X137687500Y-75971538D02*
X137805210Y-75853828D01*
D29*
X139875000Y-80550000D02*
X140150000Y-80275000D01*
X140150000Y-80275000D02*
X140150000Y-79150000D01*
X140850000Y-80550000D02*
X139875000Y-80550000D01*
X141100000Y-79150000D02*
X141100000Y-80300000D01*
X141100000Y-80300000D02*
X140850000Y-80550000D01*
X137780000Y-85700000D02*
X137780000Y-83650000D01*
X139875000Y-81555000D02*
X139875000Y-80550000D01*
X137780000Y-83650000D02*
X139875000Y-81555000D01*
D28*
X134650000Y-76425000D02*
X135225000Y-75850000D01*
X134650000Y-76962500D02*
X134650000Y-76425000D01*
X136419800Y-75420200D02*
X136419800Y-74484400D01*
X135990000Y-75850000D02*
X136419800Y-75420200D01*
X135225000Y-75850000D02*
X135990000Y-75850000D01*
X132350000Y-60795000D02*
X132350000Y-60650000D01*
X132350000Y-60650000D02*
X133550000Y-59450000D01*
X133550000Y-59450000D02*
X134150000Y-59450000D01*
X134250000Y-59550000D02*
X134250000Y-60195000D01*
X134150000Y-59450000D02*
X134250000Y-59550000D01*
X132950000Y-62065000D02*
X132350000Y-62065000D01*
X133025001Y-61989999D02*
X132950000Y-62065000D01*
X133025001Y-60859999D02*
X133025001Y-61989999D01*
X133135000Y-60750000D02*
X133025001Y-60859999D01*
X133695000Y-60750000D02*
X133135000Y-60750000D01*
X132350000Y-63335000D02*
X133350000Y-64335000D01*
X133350000Y-64335000D02*
X133350000Y-65350000D01*
X133350000Y-65350000D02*
X133950000Y-65950000D01*
X133950000Y-65950000D02*
X135050000Y-65950000D01*
X135750000Y-65250000D02*
X135750000Y-64305000D01*
X135050000Y-65950000D02*
X135750000Y-65250000D01*
X139062500Y-68750000D02*
X140000000Y-69687500D01*
X138000000Y-68750000D02*
X139062500Y-68750000D01*
X137740600Y-70115600D02*
X137740600Y-69009400D01*
X137740600Y-69009400D02*
X138000000Y-68750000D01*
X140000000Y-70900000D02*
X140000000Y-69687500D01*
X141478700Y-71550000D02*
X140650000Y-71550000D01*
X140650000Y-71550000D02*
X140000000Y-70900000D01*
X139200000Y-75775000D02*
X139200000Y-76650000D01*
X142100000Y-74900000D02*
X140075000Y-74900000D01*
X142750000Y-72850000D02*
X142750000Y-74250000D01*
X140883402Y-72450000D02*
X142350000Y-72450000D01*
X140075000Y-74900000D02*
X139200000Y-75775000D01*
X142350000Y-72450000D02*
X142750000Y-72850000D01*
X137250000Y-64950000D02*
X134950000Y-67250000D01*
X135650000Y-71800000D02*
X140233402Y-71800000D01*
X137250000Y-64305000D02*
X137250000Y-64950000D01*
X134950000Y-71100000D02*
X135650000Y-71800000D01*
X134950000Y-67250000D02*
X134950000Y-71100000D01*
X142750000Y-74250000D02*
X142100000Y-74900000D01*
X140233402Y-71800000D02*
X140883402Y-72450000D01*
X136419800Y-67180200D02*
X136450000Y-67150000D01*
X136419800Y-70115600D02*
X136419800Y-67180200D01*
X136831772Y-62997876D02*
X136531773Y-63297875D01*
X136831772Y-62518228D02*
X136831772Y-62997876D01*
X137100000Y-62250000D02*
X136831772Y-62518228D01*
X137805000Y-62250000D02*
X137100000Y-62250000D01*
X135759400Y-70115600D02*
X135759400Y-68176267D01*
X135759400Y-68176267D02*
X135677000Y-68093867D01*
X137098717Y-61614871D02*
X136613588Y-62100000D01*
X137098717Y-61396283D02*
X137098717Y-61614871D01*
X137805000Y-61250000D02*
X137245000Y-61250000D01*
X136613588Y-62100000D02*
X136200000Y-62100000D01*
X137245000Y-61250000D02*
X137098717Y-61396283D01*
D29*
X142000000Y-60112500D02*
X141937500Y-60050000D01*
X142000000Y-61600000D02*
X142000000Y-60112500D01*
X127625000Y-75150000D02*
X127675000Y-75200000D01*
X127625000Y-61550000D02*
X127625000Y-75150000D01*
X133850000Y-68187500D02*
X134012500Y-68025000D01*
X133850000Y-69650000D02*
X133850000Y-68187500D01*
X134012500Y-68025000D02*
X132887500Y-66900000D01*
X131450010Y-61591738D02*
X131408272Y-61550000D01*
X132887500Y-66900000D02*
X132187446Y-66900000D01*
X131450010Y-66162564D02*
X131450010Y-64300010D01*
X131450010Y-64300010D02*
X131450010Y-61591738D01*
D28*
X131674990Y-66675010D02*
X131818723Y-66531277D01*
X131674990Y-68599990D02*
X131674990Y-66675010D01*
X131950000Y-68875000D02*
X131674990Y-68599990D01*
X131950000Y-69650000D02*
X131950000Y-68875000D01*
D29*
X132187446Y-66900000D02*
X131818723Y-66531277D01*
X131818723Y-66531277D02*
X131450010Y-66162564D01*
X127625000Y-58925000D02*
X127625000Y-61550000D01*
X136000000Y-56650000D02*
X135100000Y-55750000D01*
X136075000Y-56650000D02*
X136000000Y-56650000D01*
X135100000Y-55750000D02*
X132850000Y-55750000D01*
X132850000Y-55750000D02*
X131400000Y-57200000D01*
X130900000Y-61041728D02*
X130900000Y-57200000D01*
X131450010Y-61591738D02*
X130900000Y-61041728D01*
X131400000Y-57200000D02*
X130900000Y-57200000D01*
X141937500Y-59237500D02*
X141937500Y-60050000D01*
X136075000Y-56650000D02*
X139350000Y-56650000D01*
X139350000Y-56650000D02*
X140400000Y-57700000D01*
X140400000Y-57700000D02*
X141937500Y-59237500D01*
X127625000Y-58475000D02*
X127625000Y-58925000D01*
X128100000Y-58000000D02*
X127625000Y-58475000D01*
X130900000Y-57200000D02*
X130100000Y-58000000D01*
X130100000Y-58000000D02*
X128100000Y-58000000D01*
D28*
X128550000Y-58000000D02*
X127625000Y-58925000D01*
X129000000Y-58000000D02*
X128550000Y-58000000D01*
X129100000Y-58912500D02*
X129100000Y-58100000D01*
X129100000Y-58100000D02*
X129000000Y-58000000D01*
D29*
X136550000Y-56700000D02*
X136600000Y-56650000D01*
X136550000Y-57925000D02*
X136550000Y-56700000D01*
D28*
X139600000Y-59350000D02*
X140400000Y-58550000D01*
X140400000Y-58550000D02*
X140400000Y-57700000D01*
X139600000Y-59568506D02*
X139600000Y-59350000D01*
X140100000Y-61000000D02*
X139950010Y-60850010D01*
X139918516Y-60850010D02*
X139599990Y-60531484D01*
X140100000Y-61600000D02*
X140100000Y-61000000D01*
X139950010Y-60850010D02*
X139918516Y-60850010D01*
X139599990Y-60531484D02*
X139599990Y-59568516D01*
X139599990Y-59568516D02*
X139600000Y-59568506D01*
X133237500Y-78537500D02*
X133200000Y-78575000D01*
X134650000Y-78537500D02*
X133237500Y-78537500D01*
X135250000Y-85690000D02*
X135240000Y-85700000D01*
X133200000Y-78575000D02*
X133200000Y-79112500D01*
X135250000Y-81162500D02*
X135250000Y-85690000D01*
X133200000Y-79112500D02*
X135250000Y-81162500D01*
X129087500Y-62537500D02*
X129050000Y-62500000D01*
X129050000Y-60637500D02*
X129050000Y-62500000D01*
X128950000Y-60537500D02*
X129050000Y-60637500D01*
X137080200Y-68819800D02*
X137080200Y-69179800D01*
X138900000Y-67000000D02*
X137080200Y-68819800D01*
X137080200Y-69179800D02*
X137080200Y-70115600D01*
X138900000Y-63386410D02*
X138900000Y-67000000D01*
X137805000Y-62750000D02*
X138263590Y-62750000D01*
X138263590Y-62750000D02*
X138900000Y-63386410D01*
D29*
X129712500Y-65662500D02*
X129050000Y-65000000D01*
X130300000Y-65662500D02*
X129712500Y-65662500D01*
X130475000Y-65637500D02*
X130325000Y-65637500D01*
X130325000Y-65637500D02*
X130300000Y-65662500D01*
X129150003Y-69687483D02*
X128850004Y-69987482D01*
X130450000Y-69487500D02*
X129349986Y-69487500D01*
X129349986Y-69487500D02*
X129150003Y-69687483D01*
X139500000Y-86600000D02*
X138700000Y-87400000D01*
X139500000Y-85200000D02*
X139500000Y-86600000D01*
X141900000Y-82800000D02*
X139500000Y-85200000D01*
X141900000Y-77775000D02*
X141900000Y-82800000D01*
X128850004Y-70411746D02*
X128850004Y-69987482D01*
X141100000Y-76650000D02*
X141100000Y-76975000D01*
X141100000Y-76975000D02*
X141900000Y-77775000D01*
X131000000Y-86800000D02*
X131000000Y-73989963D01*
X129599990Y-72300010D02*
X129556384Y-72300010D01*
X129556384Y-72300010D02*
X129149990Y-71893616D01*
X129209816Y-70771558D02*
X128850004Y-70411746D01*
X138700000Y-87400000D02*
X131600000Y-87400000D01*
X131600000Y-87400000D02*
X131000000Y-86800000D01*
X131000000Y-73989963D02*
X129599990Y-72589953D01*
X129599990Y-72589953D02*
X129599990Y-72300010D01*
X129149990Y-71893616D02*
X129149990Y-70831384D01*
X129149990Y-70831384D02*
X129209816Y-70771558D01*
D30*
G36*
X130350000Y-61014720D02*
G01*
X130347340Y-61041728D01*
X130350000Y-61068736D01*
X130350000Y-61068745D01*
X130357958Y-61149546D01*
X130389408Y-61253221D01*
X130440479Y-61348770D01*
X130509210Y-61432518D01*
X130530196Y-61449741D01*
X130900011Y-61819556D01*
X130900010Y-64327027D01*
X130900011Y-64327037D01*
X130900011Y-64895369D01*
X130862613Y-64884025D01*
X130756250Y-64873549D01*
X129843750Y-64873549D01*
X129737387Y-64884025D01*
X129717787Y-64889970D01*
X129608656Y-64780839D01*
X129581713Y-64715793D01*
X129516050Y-64617522D01*
X129432478Y-64533950D01*
X129334207Y-64468287D01*
X129225014Y-64423058D01*
X129109095Y-64400000D01*
X128990905Y-64400000D01*
X128874986Y-64423058D01*
X128765793Y-64468287D01*
X128667522Y-64533950D01*
X128583950Y-64617522D01*
X128518287Y-64715793D01*
X128473058Y-64824986D01*
X128450000Y-64940905D01*
X128450000Y-65059095D01*
X128473058Y-65175014D01*
X128518287Y-65284207D01*
X128583950Y-65382478D01*
X128667522Y-65466050D01*
X128765793Y-65531713D01*
X128830839Y-65558656D01*
X129304487Y-66032304D01*
X129321161Y-66052622D01*
X129340050Y-66114889D01*
X129390432Y-66209147D01*
X129458235Y-66291765D01*
X129540853Y-66359568D01*
X129635111Y-66409950D01*
X129737387Y-66440975D01*
X129843750Y-66451451D01*
X130756250Y-66451451D01*
X130862613Y-66440975D01*
X130959480Y-66411591D01*
X130974921Y-66440479D01*
X130990489Y-66469606D01*
X131040215Y-66530196D01*
X131059220Y-66553354D01*
X131080206Y-66570577D01*
X131249991Y-66740362D01*
X131249991Y-66805016D01*
X131223112Y-66778137D01*
X131165787Y-66739834D01*
X131102091Y-66713450D01*
X131034472Y-66700000D01*
X130412500Y-66700000D01*
X130325000Y-66787500D01*
X130325000Y-67512500D01*
X130345000Y-67512500D01*
X130345000Y-67562500D01*
X130325000Y-67562500D01*
X130325000Y-68287500D01*
X130412500Y-68375000D01*
X131034472Y-68375000D01*
X131102091Y-68361550D01*
X131165787Y-68335166D01*
X131223112Y-68296863D01*
X131249990Y-68269985D01*
X131249990Y-68579123D01*
X131247935Y-68599990D01*
X131249990Y-68620857D01*
X131249990Y-68620863D01*
X131252770Y-68649088D01*
X131256140Y-68683304D01*
X131260626Y-68698091D01*
X131280442Y-68763416D01*
X131319906Y-68837249D01*
X131373016Y-68901964D01*
X131389234Y-68915274D01*
X131427567Y-68953607D01*
X131424353Y-68957523D01*
X131396496Y-69009640D01*
X131379341Y-69066190D01*
X131373549Y-69125000D01*
X131373549Y-70175000D01*
X131379341Y-70233810D01*
X131396496Y-70290360D01*
X131424353Y-70342477D01*
X131461842Y-70388158D01*
X131507523Y-70425647D01*
X131559640Y-70453504D01*
X131616190Y-70470659D01*
X131675000Y-70476451D01*
X132225000Y-70476451D01*
X132283810Y-70470659D01*
X132340360Y-70453504D01*
X132384784Y-70429759D01*
X132401888Y-70446863D01*
X132459213Y-70485166D01*
X132522909Y-70511550D01*
X132590528Y-70525000D01*
X132787500Y-70525000D01*
X132875000Y-70437500D01*
X132875000Y-69675000D01*
X132855000Y-69675000D01*
X132855000Y-69625000D01*
X132875000Y-69625000D01*
X132875000Y-69605000D01*
X132925000Y-69605000D01*
X132925000Y-69625000D01*
X132945000Y-69625000D01*
X132945000Y-69675000D01*
X132925000Y-69675000D01*
X132925000Y-70437500D01*
X133012500Y-70525000D01*
X133209472Y-70525000D01*
X133277091Y-70511550D01*
X133340787Y-70485166D01*
X133398112Y-70446863D01*
X133415216Y-70429759D01*
X133459640Y-70453504D01*
X133516190Y-70470659D01*
X133575000Y-70476451D01*
X134125000Y-70476451D01*
X134183810Y-70470659D01*
X134240360Y-70453504D01*
X134292477Y-70425647D01*
X134338158Y-70388158D01*
X134375647Y-70342477D01*
X134403504Y-70290360D01*
X134420659Y-70233810D01*
X134426451Y-70175000D01*
X134426451Y-69125000D01*
X134420659Y-69066190D01*
X134403504Y-69009640D01*
X134400000Y-69003084D01*
X134400000Y-68771051D01*
X134430322Y-68761853D01*
X134520258Y-68713781D01*
X134525000Y-68709889D01*
X134525001Y-71079123D01*
X134522945Y-71100000D01*
X134531150Y-71183314D01*
X134550781Y-71248026D01*
X134555453Y-71263427D01*
X134594917Y-71337260D01*
X134622454Y-71370813D01*
X134632476Y-71383025D01*
X134648027Y-71401974D01*
X134664239Y-71415279D01*
X135334719Y-72085760D01*
X135348026Y-72101974D01*
X135364238Y-72115279D01*
X135364239Y-72115280D01*
X135376155Y-72125059D01*
X135412740Y-72155084D01*
X135486573Y-72194548D01*
X135542383Y-72211478D01*
X135566685Y-72218850D01*
X135575098Y-72219679D01*
X135629126Y-72225000D01*
X135629132Y-72225000D01*
X135649999Y-72227055D01*
X135670866Y-72225000D01*
X138423600Y-72225000D01*
X138423600Y-72387500D01*
X138511100Y-72475000D01*
X139396300Y-72475000D01*
X139396300Y-72455000D01*
X139446300Y-72455000D01*
X139446300Y-72475000D01*
X139466300Y-72475000D01*
X139466300Y-72525000D01*
X139446300Y-72525000D01*
X139446300Y-72545000D01*
X139396300Y-72545000D01*
X139396300Y-72525000D01*
X138511100Y-72525000D01*
X138423600Y-72612500D01*
X138423600Y-72813872D01*
X138435759Y-72875000D01*
X137120866Y-72875000D01*
X137099999Y-72872945D01*
X137079133Y-72875000D01*
X135820866Y-72875000D01*
X135799999Y-72872945D01*
X135779133Y-72875000D01*
X135770867Y-72875000D01*
X135750000Y-72872945D01*
X135729133Y-72875000D01*
X135004568Y-72875000D01*
X134994804Y-72866987D01*
X134426451Y-72298634D01*
X134426451Y-71725000D01*
X134420659Y-71666190D01*
X134403504Y-71609640D01*
X134375647Y-71557523D01*
X134338158Y-71511842D01*
X134292477Y-71474353D01*
X134240360Y-71446496D01*
X134183810Y-71429341D01*
X134125000Y-71423549D01*
X133575000Y-71423549D01*
X133516190Y-71429341D01*
X133459640Y-71446496D01*
X133407523Y-71474353D01*
X133361842Y-71511842D01*
X133324353Y-71557523D01*
X133296496Y-71609640D01*
X133279341Y-71666190D01*
X133273549Y-71725000D01*
X133273549Y-72775000D01*
X133279341Y-72833810D01*
X133296496Y-72890360D01*
X133324353Y-72942477D01*
X133361842Y-72988158D01*
X133406735Y-73025000D01*
X133215528Y-73025000D01*
X133147909Y-73038450D01*
X133084213Y-73064834D01*
X133026888Y-73103137D01*
X132978137Y-73151888D01*
X132939834Y-73209213D01*
X132913450Y-73272909D01*
X132900000Y-73340528D01*
X132900000Y-73737500D01*
X132987500Y-73825000D01*
X133662500Y-73825000D01*
X133662500Y-73805000D01*
X133712500Y-73805000D01*
X133712500Y-73825000D01*
X133732500Y-73825000D01*
X133732500Y-73875000D01*
X133712500Y-73875000D01*
X133712500Y-73895000D01*
X133662500Y-73895000D01*
X133662500Y-73875000D01*
X132987500Y-73875000D01*
X132951409Y-73911092D01*
X132851451Y-73811134D01*
X132851451Y-73593750D01*
X132841455Y-73492264D01*
X132811853Y-73394678D01*
X132763781Y-73304742D01*
X132699088Y-73225912D01*
X132620258Y-73161219D01*
X132530322Y-73113147D01*
X132500000Y-73103949D01*
X132500000Y-72896916D01*
X132503504Y-72890360D01*
X132520659Y-72833810D01*
X132526451Y-72775000D01*
X132526451Y-71725000D01*
X132520659Y-71666190D01*
X132503504Y-71609640D01*
X132475647Y-71557523D01*
X132438158Y-71511842D01*
X132392477Y-71474353D01*
X132340360Y-71446496D01*
X132283810Y-71429341D01*
X132225000Y-71423549D01*
X131675000Y-71423549D01*
X131616190Y-71429341D01*
X131559640Y-71446496D01*
X131507523Y-71474353D01*
X131461842Y-71511842D01*
X131424353Y-71557523D01*
X131396496Y-71609640D01*
X131379341Y-71666190D01*
X131373549Y-71725000D01*
X131373549Y-72775000D01*
X131379341Y-72833810D01*
X131396496Y-72890360D01*
X131400000Y-72896916D01*
X131400001Y-73438016D01*
X131383545Y-73492264D01*
X131374344Y-73585676D01*
X131369810Y-73581955D01*
X130149990Y-72362136D01*
X130149990Y-72327028D01*
X130152651Y-72300010D01*
X130142801Y-72200000D01*
X130187500Y-72200000D01*
X130275000Y-72112500D01*
X130275000Y-71387500D01*
X130325000Y-71387500D01*
X130325000Y-72112500D01*
X130412500Y-72200000D01*
X131034472Y-72200000D01*
X131102091Y-72186550D01*
X131165787Y-72160166D01*
X131223112Y-72121863D01*
X131271863Y-72073112D01*
X131310166Y-72015787D01*
X131336550Y-71952091D01*
X131350000Y-71884472D01*
X131350000Y-71475000D01*
X131262500Y-71387500D01*
X130325000Y-71387500D01*
X130275000Y-71387500D01*
X130255000Y-71387500D01*
X130255000Y-71337500D01*
X130275000Y-71337500D01*
X130275000Y-70612500D01*
X130325000Y-70612500D01*
X130325000Y-71337500D01*
X131262500Y-71337500D01*
X131350000Y-71250000D01*
X131350000Y-70840528D01*
X131336550Y-70772909D01*
X131310166Y-70709213D01*
X131271863Y-70651888D01*
X131223112Y-70603137D01*
X131165787Y-70564834D01*
X131102091Y-70538450D01*
X131034472Y-70525000D01*
X130412500Y-70525000D01*
X130325000Y-70612500D01*
X130275000Y-70612500D01*
X130187500Y-70525000D01*
X129701666Y-70525000D01*
X129691218Y-70505453D01*
X129669337Y-70464515D01*
X129617829Y-70401754D01*
X129600606Y-70380768D01*
X129579620Y-70363545D01*
X129415689Y-70199614D01*
X129480371Y-70134931D01*
X129540853Y-70184568D01*
X129635111Y-70234950D01*
X129737387Y-70265975D01*
X129843750Y-70276451D01*
X130756250Y-70276451D01*
X130862613Y-70265975D01*
X130964889Y-70234950D01*
X131059147Y-70184568D01*
X131141765Y-70116765D01*
X131209568Y-70034147D01*
X131259950Y-69939889D01*
X131290975Y-69837613D01*
X131301451Y-69731250D01*
X131301451Y-69243750D01*
X131290975Y-69137387D01*
X131259950Y-69035111D01*
X131209568Y-68940853D01*
X131141765Y-68858235D01*
X131059147Y-68790432D01*
X130964889Y-68740050D01*
X130862613Y-68709025D01*
X130756250Y-68698549D01*
X129843750Y-68698549D01*
X129737387Y-68709025D01*
X129635111Y-68740050D01*
X129540853Y-68790432D01*
X129458235Y-68858235D01*
X129393184Y-68937500D01*
X129376997Y-68937500D01*
X129349986Y-68934840D01*
X129322975Y-68937500D01*
X129322968Y-68937500D01*
X129242167Y-68945458D01*
X129138492Y-68976908D01*
X129042944Y-69027979D01*
X128959196Y-69096710D01*
X128941969Y-69117700D01*
X128741990Y-69317679D01*
X128741986Y-69317684D01*
X128630844Y-69428826D01*
X128565797Y-69455769D01*
X128467526Y-69521432D01*
X128383954Y-69605004D01*
X128318291Y-69703275D01*
X128273062Y-69812468D01*
X128250004Y-69928387D01*
X128250004Y-70046577D01*
X128273062Y-70162496D01*
X128300004Y-70227540D01*
X128300004Y-70384738D01*
X128297344Y-70411746D01*
X128300004Y-70438754D01*
X128300004Y-70438763D01*
X128307962Y-70519564D01*
X128339412Y-70623239D01*
X128390483Y-70718788D01*
X128459214Y-70802536D01*
X128480200Y-70819759D01*
X128599991Y-70939550D01*
X128599990Y-71866608D01*
X128597330Y-71893616D01*
X128599990Y-71920624D01*
X128599990Y-71920633D01*
X128607948Y-72001434D01*
X128639398Y-72105109D01*
X128690469Y-72200658D01*
X128759200Y-72284406D01*
X128780185Y-72301628D01*
X129049229Y-72570673D01*
X129047330Y-72589953D01*
X129049990Y-72616961D01*
X129049990Y-72616970D01*
X129057948Y-72697771D01*
X129089398Y-72801446D01*
X129138197Y-72892744D01*
X129140469Y-72896995D01*
X129180730Y-72946052D01*
X129209200Y-72980743D01*
X129230186Y-72997966D01*
X130450001Y-74217782D01*
X130450000Y-85410745D01*
X130446199Y-85391635D01*
X130340664Y-85136851D01*
X130187451Y-84907552D01*
X129992448Y-84712549D01*
X129763149Y-84559336D01*
X129508365Y-84453801D01*
X129237888Y-84400000D01*
X128962112Y-84400000D01*
X128691635Y-84453801D01*
X128436851Y-84559336D01*
X128207552Y-84712549D01*
X128012549Y-84907552D01*
X127859336Y-85136851D01*
X127753801Y-85391635D01*
X127700000Y-85662112D01*
X127700000Y-85937888D01*
X127753801Y-86208365D01*
X127859336Y-86463149D01*
X128012549Y-86692448D01*
X128207552Y-86887451D01*
X128436851Y-87040664D01*
X128691635Y-87146199D01*
X128962112Y-87200000D01*
X129237888Y-87200000D01*
X129508365Y-87146199D01*
X129763149Y-87040664D01*
X129992448Y-86887451D01*
X130187451Y-86692448D01*
X130340664Y-86463149D01*
X130446199Y-86208365D01*
X130450000Y-86189256D01*
X130450000Y-86772992D01*
X130447340Y-86800000D01*
X130450000Y-86827008D01*
X130450000Y-86827017D01*
X130457958Y-86907818D01*
X130489408Y-87011493D01*
X130540479Y-87107042D01*
X130609210Y-87190790D01*
X130630195Y-87208013D01*
X131047182Y-87625000D01*
X127375000Y-87625000D01*
X127375000Y-75721160D01*
X127390793Y-75731713D01*
X127499986Y-75776942D01*
X127615905Y-75800000D01*
X127734095Y-75800000D01*
X127850014Y-75776942D01*
X127959207Y-75731713D01*
X128057478Y-75666050D01*
X128141050Y-75582478D01*
X128206713Y-75484207D01*
X128251942Y-75375014D01*
X128275000Y-75259095D01*
X128275000Y-75140905D01*
X128251942Y-75024986D01*
X128206713Y-74915793D01*
X128175000Y-74868331D01*
X128175000Y-67650000D01*
X129250000Y-67650000D01*
X129250000Y-68059472D01*
X129263450Y-68127091D01*
X129289834Y-68190787D01*
X129328137Y-68248112D01*
X129376888Y-68296863D01*
X129434213Y-68335166D01*
X129497909Y-68361550D01*
X129565528Y-68375000D01*
X130187500Y-68375000D01*
X130275000Y-68287500D01*
X130275000Y-67562500D01*
X129337500Y-67562500D01*
X129250000Y-67650000D01*
X128175000Y-67650000D01*
X128175000Y-67015528D01*
X129250000Y-67015528D01*
X129250000Y-67425000D01*
X129337500Y-67512500D01*
X130275000Y-67512500D01*
X130275000Y-66787500D01*
X130187500Y-66700000D01*
X129565528Y-66700000D01*
X129497909Y-66713450D01*
X129434213Y-66739834D01*
X129376888Y-66778137D01*
X129328137Y-66826888D01*
X129289834Y-66884213D01*
X129263450Y-66947909D01*
X129250000Y-67015528D01*
X128175000Y-67015528D01*
X128175000Y-60268750D01*
X128323549Y-60268750D01*
X128323549Y-60706250D01*
X128333545Y-60807736D01*
X128363147Y-60905322D01*
X128411219Y-60995258D01*
X128475912Y-61074088D01*
X128554742Y-61138781D01*
X128625000Y-61176335D01*
X128625001Y-62076471D01*
X128583950Y-62117522D01*
X128518287Y-62215793D01*
X128473058Y-62324986D01*
X128450000Y-62440905D01*
X128450000Y-62559095D01*
X128473058Y-62675014D01*
X128518287Y-62784207D01*
X128583950Y-62882478D01*
X128667522Y-62966050D01*
X128765793Y-63031713D01*
X128874986Y-63076942D01*
X128990905Y-63100000D01*
X129109095Y-63100000D01*
X129225014Y-63076942D01*
X129334207Y-63031713D01*
X129432478Y-62966050D01*
X129516050Y-62882478D01*
X129581713Y-62784207D01*
X129626942Y-62675014D01*
X129650000Y-62559095D01*
X129650000Y-62440905D01*
X129626942Y-62324986D01*
X129581713Y-62215793D01*
X129516050Y-62117522D01*
X129475000Y-62076472D01*
X129475000Y-61211218D01*
X129555322Y-61186853D01*
X129645258Y-61138781D01*
X129724088Y-61074088D01*
X129788781Y-60995258D01*
X129836853Y-60905322D01*
X129866455Y-60807736D01*
X129876451Y-60706250D01*
X129876451Y-60268750D01*
X129866455Y-60167264D01*
X129836853Y-60069678D01*
X129788781Y-59979742D01*
X129724088Y-59900912D01*
X129645258Y-59836219D01*
X129555322Y-59788147D01*
X129457736Y-59758545D01*
X129356250Y-59748549D01*
X128843750Y-59748549D01*
X128742264Y-59758545D01*
X128644678Y-59788147D01*
X128554742Y-59836219D01*
X128475912Y-59900912D01*
X128411219Y-59979742D01*
X128363147Y-60069678D01*
X128333545Y-60167264D01*
X128323549Y-60268750D01*
X128175000Y-60268750D01*
X128175000Y-58976040D01*
X128323549Y-58827491D01*
X128323549Y-59131250D01*
X128333545Y-59232736D01*
X128363147Y-59330322D01*
X128411219Y-59420258D01*
X128475912Y-59499088D01*
X128554742Y-59563781D01*
X128644678Y-59611853D01*
X128742264Y-59641455D01*
X128843750Y-59651451D01*
X129356250Y-59651451D01*
X129457736Y-59641455D01*
X129555322Y-59611853D01*
X129645258Y-59563781D01*
X129724088Y-59499088D01*
X129788781Y-59420258D01*
X129836853Y-59330322D01*
X129866455Y-59232736D01*
X129876451Y-59131250D01*
X129876451Y-58693750D01*
X129866455Y-58592264D01*
X129853635Y-58550000D01*
X130072992Y-58550000D01*
X130100000Y-58552660D01*
X130127008Y-58550000D01*
X130127018Y-58550000D01*
X130207819Y-58542042D01*
X130311494Y-58510592D01*
X130350001Y-58490010D01*
X130350000Y-61014720D01*
X130350000Y-61014720D01*
G37*
X130350000Y-61014720D02*
X130347340Y-61041728D01*
X130350000Y-61068736D01*
X130350000Y-61068745D01*
X130357958Y-61149546D01*
X130389408Y-61253221D01*
X130440479Y-61348770D01*
X130509210Y-61432518D01*
X130530196Y-61449741D01*
X130900011Y-61819556D01*
X130900010Y-64327027D01*
X130900011Y-64327037D01*
X130900011Y-64895369D01*
X130862613Y-64884025D01*
X130756250Y-64873549D01*
X129843750Y-64873549D01*
X129737387Y-64884025D01*
X129717787Y-64889970D01*
X129608656Y-64780839D01*
X129581713Y-64715793D01*
X129516050Y-64617522D01*
X129432478Y-64533950D01*
X129334207Y-64468287D01*
X129225014Y-64423058D01*
X129109095Y-64400000D01*
X128990905Y-64400000D01*
X128874986Y-64423058D01*
X128765793Y-64468287D01*
X128667522Y-64533950D01*
X128583950Y-64617522D01*
X128518287Y-64715793D01*
X128473058Y-64824986D01*
X128450000Y-64940905D01*
X128450000Y-65059095D01*
X128473058Y-65175014D01*
X128518287Y-65284207D01*
X128583950Y-65382478D01*
X128667522Y-65466050D01*
X128765793Y-65531713D01*
X128830839Y-65558656D01*
X129304487Y-66032304D01*
X129321161Y-66052622D01*
X129340050Y-66114889D01*
X129390432Y-66209147D01*
X129458235Y-66291765D01*
X129540853Y-66359568D01*
X129635111Y-66409950D01*
X129737387Y-66440975D01*
X129843750Y-66451451D01*
X130756250Y-66451451D01*
X130862613Y-66440975D01*
X130959480Y-66411591D01*
X130974921Y-66440479D01*
X130990489Y-66469606D01*
X131040215Y-66530196D01*
X131059220Y-66553354D01*
X131080206Y-66570577D01*
X131249991Y-66740362D01*
X131249991Y-66805016D01*
X131223112Y-66778137D01*
X131165787Y-66739834D01*
X131102091Y-66713450D01*
X131034472Y-66700000D01*
X130412500Y-66700000D01*
X130325000Y-66787500D01*
X130325000Y-67512500D01*
X130345000Y-67512500D01*
X130345000Y-67562500D01*
X130325000Y-67562500D01*
X130325000Y-68287500D01*
X130412500Y-68375000D01*
X131034472Y-68375000D01*
X131102091Y-68361550D01*
X131165787Y-68335166D01*
X131223112Y-68296863D01*
X131249990Y-68269985D01*
X131249990Y-68579123D01*
X131247935Y-68599990D01*
X131249990Y-68620857D01*
X131249990Y-68620863D01*
X131252770Y-68649088D01*
X131256140Y-68683304D01*
X131260626Y-68698091D01*
X131280442Y-68763416D01*
X131319906Y-68837249D01*
X131373016Y-68901964D01*
X131389234Y-68915274D01*
X131427567Y-68953607D01*
X131424353Y-68957523D01*
X131396496Y-69009640D01*
X131379341Y-69066190D01*
X131373549Y-69125000D01*
X131373549Y-70175000D01*
X131379341Y-70233810D01*
X131396496Y-70290360D01*
X131424353Y-70342477D01*
X131461842Y-70388158D01*
X131507523Y-70425647D01*
X131559640Y-70453504D01*
X131616190Y-70470659D01*
X131675000Y-70476451D01*
X132225000Y-70476451D01*
X132283810Y-70470659D01*
X132340360Y-70453504D01*
X132384784Y-70429759D01*
X132401888Y-70446863D01*
X132459213Y-70485166D01*
X132522909Y-70511550D01*
X132590528Y-70525000D01*
X132787500Y-70525000D01*
X132875000Y-70437500D01*
X132875000Y-69675000D01*
X132855000Y-69675000D01*
X132855000Y-69625000D01*
X132875000Y-69625000D01*
X132875000Y-69605000D01*
X132925000Y-69605000D01*
X132925000Y-69625000D01*
X132945000Y-69625000D01*
X132945000Y-69675000D01*
X132925000Y-69675000D01*
X132925000Y-70437500D01*
X133012500Y-70525000D01*
X133209472Y-70525000D01*
X133277091Y-70511550D01*
X133340787Y-70485166D01*
X133398112Y-70446863D01*
X133415216Y-70429759D01*
X133459640Y-70453504D01*
X133516190Y-70470659D01*
X133575000Y-70476451D01*
X134125000Y-70476451D01*
X134183810Y-70470659D01*
X134240360Y-70453504D01*
X134292477Y-70425647D01*
X134338158Y-70388158D01*
X134375647Y-70342477D01*
X134403504Y-70290360D01*
X134420659Y-70233810D01*
X134426451Y-70175000D01*
X134426451Y-69125000D01*
X134420659Y-69066190D01*
X134403504Y-69009640D01*
X134400000Y-69003084D01*
X134400000Y-68771051D01*
X134430322Y-68761853D01*
X134520258Y-68713781D01*
X134525000Y-68709889D01*
X134525001Y-71079123D01*
X134522945Y-71100000D01*
X134531150Y-71183314D01*
X134550781Y-71248026D01*
X134555453Y-71263427D01*
X134594917Y-71337260D01*
X134622454Y-71370813D01*
X134632476Y-71383025D01*
X134648027Y-71401974D01*
X134664239Y-71415279D01*
X135334719Y-72085760D01*
X135348026Y-72101974D01*
X135364238Y-72115279D01*
X135364239Y-72115280D01*
X135376155Y-72125059D01*
X135412740Y-72155084D01*
X135486573Y-72194548D01*
X135542383Y-72211478D01*
X135566685Y-72218850D01*
X135575098Y-72219679D01*
X135629126Y-72225000D01*
X135629132Y-72225000D01*
X135649999Y-72227055D01*
X135670866Y-72225000D01*
X138423600Y-72225000D01*
X138423600Y-72387500D01*
X138511100Y-72475000D01*
X139396300Y-72475000D01*
X139396300Y-72455000D01*
X139446300Y-72455000D01*
X139446300Y-72475000D01*
X139466300Y-72475000D01*
X139466300Y-72525000D01*
X139446300Y-72525000D01*
X139446300Y-72545000D01*
X139396300Y-72545000D01*
X139396300Y-72525000D01*
X138511100Y-72525000D01*
X138423600Y-72612500D01*
X138423600Y-72813872D01*
X138435759Y-72875000D01*
X137120866Y-72875000D01*
X137099999Y-72872945D01*
X137079133Y-72875000D01*
X135820866Y-72875000D01*
X135799999Y-72872945D01*
X135779133Y-72875000D01*
X135770867Y-72875000D01*
X135750000Y-72872945D01*
X135729133Y-72875000D01*
X135004568Y-72875000D01*
X134994804Y-72866987D01*
X134426451Y-72298634D01*
X134426451Y-71725000D01*
X134420659Y-71666190D01*
X134403504Y-71609640D01*
X134375647Y-71557523D01*
X134338158Y-71511842D01*
X134292477Y-71474353D01*
X134240360Y-71446496D01*
X134183810Y-71429341D01*
X134125000Y-71423549D01*
X133575000Y-71423549D01*
X133516190Y-71429341D01*
X133459640Y-71446496D01*
X133407523Y-71474353D01*
X133361842Y-71511842D01*
X133324353Y-71557523D01*
X133296496Y-71609640D01*
X133279341Y-71666190D01*
X133273549Y-71725000D01*
X133273549Y-72775000D01*
X133279341Y-72833810D01*
X133296496Y-72890360D01*
X133324353Y-72942477D01*
X133361842Y-72988158D01*
X133406735Y-73025000D01*
X133215528Y-73025000D01*
X133147909Y-73038450D01*
X133084213Y-73064834D01*
X133026888Y-73103137D01*
X132978137Y-73151888D01*
X132939834Y-73209213D01*
X132913450Y-73272909D01*
X132900000Y-73340528D01*
X132900000Y-73737500D01*
X132987500Y-73825000D01*
X133662500Y-73825000D01*
X133662500Y-73805000D01*
X133712500Y-73805000D01*
X133712500Y-73825000D01*
X133732500Y-73825000D01*
X133732500Y-73875000D01*
X133712500Y-73875000D01*
X133712500Y-73895000D01*
X133662500Y-73895000D01*
X133662500Y-73875000D01*
X132987500Y-73875000D01*
X132951409Y-73911092D01*
X132851451Y-73811134D01*
X132851451Y-73593750D01*
X132841455Y-73492264D01*
X132811853Y-73394678D01*
X132763781Y-73304742D01*
X132699088Y-73225912D01*
X132620258Y-73161219D01*
X132530322Y-73113147D01*
X132500000Y-73103949D01*
X132500000Y-72896916D01*
X132503504Y-72890360D01*
X132520659Y-72833810D01*
X132526451Y-72775000D01*
X132526451Y-71725000D01*
X132520659Y-71666190D01*
X132503504Y-71609640D01*
X132475647Y-71557523D01*
X132438158Y-71511842D01*
X132392477Y-71474353D01*
X132340360Y-71446496D01*
X132283810Y-71429341D01*
X132225000Y-71423549D01*
X131675000Y-71423549D01*
X131616190Y-71429341D01*
X131559640Y-71446496D01*
X131507523Y-71474353D01*
X131461842Y-71511842D01*
X131424353Y-71557523D01*
X131396496Y-71609640D01*
X131379341Y-71666190D01*
X131373549Y-71725000D01*
X131373549Y-72775000D01*
X131379341Y-72833810D01*
X131396496Y-72890360D01*
X131400000Y-72896916D01*
X131400001Y-73438016D01*
X131383545Y-73492264D01*
X131374344Y-73585676D01*
X131369810Y-73581955D01*
X130149990Y-72362136D01*
X130149990Y-72327028D01*
X130152651Y-72300010D01*
X130142801Y-72200000D01*
X130187500Y-72200000D01*
X130275000Y-72112500D01*
X130275000Y-71387500D01*
X130325000Y-71387500D01*
X130325000Y-72112500D01*
X130412500Y-72200000D01*
X131034472Y-72200000D01*
X131102091Y-72186550D01*
X131165787Y-72160166D01*
X131223112Y-72121863D01*
X131271863Y-72073112D01*
X131310166Y-72015787D01*
X131336550Y-71952091D01*
X131350000Y-71884472D01*
X131350000Y-71475000D01*
X131262500Y-71387500D01*
X130325000Y-71387500D01*
X130275000Y-71387500D01*
X130255000Y-71387500D01*
X130255000Y-71337500D01*
X130275000Y-71337500D01*
X130275000Y-70612500D01*
X130325000Y-70612500D01*
X130325000Y-71337500D01*
X131262500Y-71337500D01*
X131350000Y-71250000D01*
X131350000Y-70840528D01*
X131336550Y-70772909D01*
X131310166Y-70709213D01*
X131271863Y-70651888D01*
X131223112Y-70603137D01*
X131165787Y-70564834D01*
X131102091Y-70538450D01*
X131034472Y-70525000D01*
X130412500Y-70525000D01*
X130325000Y-70612500D01*
X130275000Y-70612500D01*
X130187500Y-70525000D01*
X129701666Y-70525000D01*
X129691218Y-70505453D01*
X129669337Y-70464515D01*
X129617829Y-70401754D01*
X129600606Y-70380768D01*
X129579620Y-70363545D01*
X129415689Y-70199614D01*
X129480371Y-70134931D01*
X129540853Y-70184568D01*
X129635111Y-70234950D01*
X129737387Y-70265975D01*
X129843750Y-70276451D01*
X130756250Y-70276451D01*
X130862613Y-70265975D01*
X130964889Y-70234950D01*
X131059147Y-70184568D01*
X131141765Y-70116765D01*
X131209568Y-70034147D01*
X131259950Y-69939889D01*
X131290975Y-69837613D01*
X131301451Y-69731250D01*
X131301451Y-69243750D01*
X131290975Y-69137387D01*
X131259950Y-69035111D01*
X131209568Y-68940853D01*
X131141765Y-68858235D01*
X131059147Y-68790432D01*
X130964889Y-68740050D01*
X130862613Y-68709025D01*
X130756250Y-68698549D01*
X129843750Y-68698549D01*
X129737387Y-68709025D01*
X129635111Y-68740050D01*
X129540853Y-68790432D01*
X129458235Y-68858235D01*
X129393184Y-68937500D01*
X129376997Y-68937500D01*
X129349986Y-68934840D01*
X129322975Y-68937500D01*
X129322968Y-68937500D01*
X129242167Y-68945458D01*
X129138492Y-68976908D01*
X129042944Y-69027979D01*
X128959196Y-69096710D01*
X128941969Y-69117700D01*
X128741990Y-69317679D01*
X128741986Y-69317684D01*
X128630844Y-69428826D01*
X128565797Y-69455769D01*
X128467526Y-69521432D01*
X128383954Y-69605004D01*
X128318291Y-69703275D01*
X128273062Y-69812468D01*
X128250004Y-69928387D01*
X128250004Y-70046577D01*
X128273062Y-70162496D01*
X128300004Y-70227540D01*
X128300004Y-70384738D01*
X128297344Y-70411746D01*
X128300004Y-70438754D01*
X128300004Y-70438763D01*
X128307962Y-70519564D01*
X128339412Y-70623239D01*
X128390483Y-70718788D01*
X128459214Y-70802536D01*
X128480200Y-70819759D01*
X128599991Y-70939550D01*
X128599990Y-71866608D01*
X128597330Y-71893616D01*
X128599990Y-71920624D01*
X128599990Y-71920633D01*
X128607948Y-72001434D01*
X128639398Y-72105109D01*
X128690469Y-72200658D01*
X128759200Y-72284406D01*
X128780185Y-72301628D01*
X129049229Y-72570673D01*
X129047330Y-72589953D01*
X129049990Y-72616961D01*
X129049990Y-72616970D01*
X129057948Y-72697771D01*
X129089398Y-72801446D01*
X129138197Y-72892744D01*
X129140469Y-72896995D01*
X129180730Y-72946052D01*
X129209200Y-72980743D01*
X129230186Y-72997966D01*
X130450001Y-74217782D01*
X130450000Y-85410745D01*
X130446199Y-85391635D01*
X130340664Y-85136851D01*
X130187451Y-84907552D01*
X129992448Y-84712549D01*
X129763149Y-84559336D01*
X129508365Y-84453801D01*
X129237888Y-84400000D01*
X128962112Y-84400000D01*
X128691635Y-84453801D01*
X128436851Y-84559336D01*
X128207552Y-84712549D01*
X128012549Y-84907552D01*
X127859336Y-85136851D01*
X127753801Y-85391635D01*
X127700000Y-85662112D01*
X127700000Y-85937888D01*
X127753801Y-86208365D01*
X127859336Y-86463149D01*
X128012549Y-86692448D01*
X128207552Y-86887451D01*
X128436851Y-87040664D01*
X128691635Y-87146199D01*
X128962112Y-87200000D01*
X129237888Y-87200000D01*
X129508365Y-87146199D01*
X129763149Y-87040664D01*
X129992448Y-86887451D01*
X130187451Y-86692448D01*
X130340664Y-86463149D01*
X130446199Y-86208365D01*
X130450000Y-86189256D01*
X130450000Y-86772992D01*
X130447340Y-86800000D01*
X130450000Y-86827008D01*
X130450000Y-86827017D01*
X130457958Y-86907818D01*
X130489408Y-87011493D01*
X130540479Y-87107042D01*
X130609210Y-87190790D01*
X130630195Y-87208013D01*
X131047182Y-87625000D01*
X127375000Y-87625000D01*
X127375000Y-75721160D01*
X127390793Y-75731713D01*
X127499986Y-75776942D01*
X127615905Y-75800000D01*
X127734095Y-75800000D01*
X127850014Y-75776942D01*
X127959207Y-75731713D01*
X128057478Y-75666050D01*
X128141050Y-75582478D01*
X128206713Y-75484207D01*
X128251942Y-75375014D01*
X128275000Y-75259095D01*
X128275000Y-75140905D01*
X128251942Y-75024986D01*
X128206713Y-74915793D01*
X128175000Y-74868331D01*
X128175000Y-67650000D01*
X129250000Y-67650000D01*
X129250000Y-68059472D01*
X129263450Y-68127091D01*
X129289834Y-68190787D01*
X129328137Y-68248112D01*
X129376888Y-68296863D01*
X129434213Y-68335166D01*
X129497909Y-68361550D01*
X129565528Y-68375000D01*
X130187500Y-68375000D01*
X130275000Y-68287500D01*
X130275000Y-67562500D01*
X129337500Y-67562500D01*
X129250000Y-67650000D01*
X128175000Y-67650000D01*
X128175000Y-67015528D01*
X129250000Y-67015528D01*
X129250000Y-67425000D01*
X129337500Y-67512500D01*
X130275000Y-67512500D01*
X130275000Y-66787500D01*
X130187500Y-66700000D01*
X129565528Y-66700000D01*
X129497909Y-66713450D01*
X129434213Y-66739834D01*
X129376888Y-66778137D01*
X129328137Y-66826888D01*
X129289834Y-66884213D01*
X129263450Y-66947909D01*
X129250000Y-67015528D01*
X128175000Y-67015528D01*
X128175000Y-60268750D01*
X128323549Y-60268750D01*
X128323549Y-60706250D01*
X128333545Y-60807736D01*
X128363147Y-60905322D01*
X128411219Y-60995258D01*
X128475912Y-61074088D01*
X128554742Y-61138781D01*
X128625000Y-61176335D01*
X128625001Y-62076471D01*
X128583950Y-62117522D01*
X128518287Y-62215793D01*
X128473058Y-62324986D01*
X128450000Y-62440905D01*
X128450000Y-62559095D01*
X128473058Y-62675014D01*
X128518287Y-62784207D01*
X128583950Y-62882478D01*
X128667522Y-62966050D01*
X128765793Y-63031713D01*
X128874986Y-63076942D01*
X128990905Y-63100000D01*
X129109095Y-63100000D01*
X129225014Y-63076942D01*
X129334207Y-63031713D01*
X129432478Y-62966050D01*
X129516050Y-62882478D01*
X129581713Y-62784207D01*
X129626942Y-62675014D01*
X129650000Y-62559095D01*
X129650000Y-62440905D01*
X129626942Y-62324986D01*
X129581713Y-62215793D01*
X129516050Y-62117522D01*
X129475000Y-62076472D01*
X129475000Y-61211218D01*
X129555322Y-61186853D01*
X129645258Y-61138781D01*
X129724088Y-61074088D01*
X129788781Y-60995258D01*
X129836853Y-60905322D01*
X129866455Y-60807736D01*
X129876451Y-60706250D01*
X129876451Y-60268750D01*
X129866455Y-60167264D01*
X129836853Y-60069678D01*
X129788781Y-59979742D01*
X129724088Y-59900912D01*
X129645258Y-59836219D01*
X129555322Y-59788147D01*
X129457736Y-59758545D01*
X129356250Y-59748549D01*
X128843750Y-59748549D01*
X128742264Y-59758545D01*
X128644678Y-59788147D01*
X128554742Y-59836219D01*
X128475912Y-59900912D01*
X128411219Y-59979742D01*
X128363147Y-60069678D01*
X128333545Y-60167264D01*
X128323549Y-60268750D01*
X128175000Y-60268750D01*
X128175000Y-58976040D01*
X128323549Y-58827491D01*
X128323549Y-59131250D01*
X128333545Y-59232736D01*
X128363147Y-59330322D01*
X128411219Y-59420258D01*
X128475912Y-59499088D01*
X128554742Y-59563781D01*
X128644678Y-59611853D01*
X128742264Y-59641455D01*
X128843750Y-59651451D01*
X129356250Y-59651451D01*
X129457736Y-59641455D01*
X129555322Y-59611853D01*
X129645258Y-59563781D01*
X129724088Y-59499088D01*
X129788781Y-59420258D01*
X129836853Y-59330322D01*
X129866455Y-59232736D01*
X129876451Y-59131250D01*
X129876451Y-58693750D01*
X129866455Y-58592264D01*
X129853635Y-58550000D01*
X130072992Y-58550000D01*
X130100000Y-58552660D01*
X130127008Y-58550000D01*
X130127018Y-58550000D01*
X130207819Y-58542042D01*
X130311494Y-58510592D01*
X130350001Y-58490010D01*
X130350000Y-61014720D01*
G36*
X135260541Y-73739790D02*
G01*
X135254749Y-73798600D01*
X135254749Y-75170200D01*
X135260541Y-75229010D01*
X135277696Y-75285560D01*
X135305553Y-75337677D01*
X135343042Y-75383358D01*
X135388723Y-75420847D01*
X135396493Y-75425000D01*
X135245867Y-75425000D01*
X135225000Y-75422945D01*
X135204133Y-75425000D01*
X135204126Y-75425000D01*
X135149327Y-75430397D01*
X135141685Y-75431150D01*
X135061572Y-75455452D01*
X135035855Y-75469199D01*
X134987740Y-75494916D01*
X134923026Y-75548026D01*
X134909721Y-75564238D01*
X134364239Y-76109721D01*
X134348027Y-76123026D01*
X134334722Y-76139238D01*
X134334720Y-76139240D01*
X134329396Y-76145728D01*
X134294917Y-76187740D01*
X134266210Y-76241448D01*
X134194678Y-76263147D01*
X134104742Y-76311219D01*
X134025912Y-76375912D01*
X133993107Y-76415885D01*
X133985166Y-76396713D01*
X133946863Y-76339388D01*
X133898112Y-76290637D01*
X133840787Y-76252334D01*
X133777091Y-76225950D01*
X133709472Y-76212500D01*
X133312500Y-76212500D01*
X133225000Y-76300000D01*
X133225000Y-76975000D01*
X133245000Y-76975000D01*
X133245000Y-77025000D01*
X133225000Y-77025000D01*
X133225000Y-77700000D01*
X133312500Y-77787500D01*
X133709472Y-77787500D01*
X133777091Y-77774050D01*
X133840787Y-77747666D01*
X133898112Y-77709363D01*
X133946863Y-77660612D01*
X133985166Y-77603287D01*
X134011550Y-77539591D01*
X134012831Y-77533149D01*
X134025912Y-77549088D01*
X134104742Y-77613781D01*
X134194678Y-77661853D01*
X134292264Y-77691455D01*
X134393750Y-77701451D01*
X134906250Y-77701451D01*
X135007736Y-77691455D01*
X135105322Y-77661853D01*
X135195258Y-77613781D01*
X135274088Y-77549088D01*
X135338781Y-77470258D01*
X135386853Y-77380322D01*
X135396208Y-77349482D01*
X135413147Y-77405322D01*
X135461219Y-77495258D01*
X135525912Y-77574088D01*
X135604742Y-77638781D01*
X135694678Y-77686853D01*
X135792264Y-77716455D01*
X135893750Y-77726451D01*
X136331250Y-77726451D01*
X136432736Y-77716455D01*
X136530322Y-77686853D01*
X136620258Y-77638781D01*
X136699088Y-77574088D01*
X136763781Y-77495258D01*
X136811853Y-77405322D01*
X136841455Y-77307736D01*
X136851451Y-77206250D01*
X136851451Y-77062500D01*
X136900000Y-77062500D01*
X136900000Y-77459472D01*
X136913450Y-77527091D01*
X136939834Y-77590787D01*
X136978137Y-77648112D01*
X137026888Y-77696863D01*
X137084213Y-77735166D01*
X137147909Y-77761550D01*
X137215528Y-77775000D01*
X137575000Y-77775000D01*
X137662500Y-77687500D01*
X137662500Y-76975000D01*
X137712500Y-76975000D01*
X137712500Y-77687500D01*
X137800000Y-77775000D01*
X138159472Y-77775000D01*
X138227091Y-77761550D01*
X138290787Y-77735166D01*
X138348112Y-77696863D01*
X138396863Y-77648112D01*
X138435166Y-77590787D01*
X138461550Y-77527091D01*
X138475000Y-77459472D01*
X138475000Y-77062500D01*
X138387500Y-76975000D01*
X137712500Y-76975000D01*
X137662500Y-76975000D01*
X136987500Y-76975000D01*
X136900000Y-77062500D01*
X136851451Y-77062500D01*
X136851451Y-76812089D01*
X136900000Y-76763541D01*
X136900000Y-76837500D01*
X136987500Y-76925000D01*
X137662500Y-76925000D01*
X137662500Y-76212500D01*
X137712500Y-76212500D01*
X137712500Y-76925000D01*
X138387500Y-76925000D01*
X138475000Y-76837500D01*
X138475000Y-76440528D01*
X138461550Y-76372909D01*
X138435166Y-76309213D01*
X138396863Y-76251888D01*
X138348112Y-76203137D01*
X138290787Y-76164834D01*
X138227091Y-76138450D01*
X138159472Y-76125000D01*
X137800000Y-76125000D01*
X137712500Y-76212500D01*
X137662500Y-76212500D01*
X137575000Y-76125000D01*
X137481035Y-76125000D01*
X137499050Y-76065614D01*
X137505200Y-76003174D01*
X137505200Y-76003168D01*
X137507255Y-75982301D01*
X137505200Y-75961434D01*
X137505200Y-75520200D01*
X137628100Y-75520200D01*
X137715600Y-75432700D01*
X137715600Y-74509400D01*
X137765600Y-74509400D01*
X137765600Y-75432700D01*
X137853100Y-75520200D01*
X137978272Y-75520200D01*
X138045891Y-75506750D01*
X138109587Y-75480366D01*
X138166912Y-75442063D01*
X138215663Y-75393312D01*
X138253966Y-75335987D01*
X138280350Y-75272291D01*
X138293800Y-75204672D01*
X138293800Y-74596900D01*
X138206300Y-74509400D01*
X137765600Y-74509400D01*
X137715600Y-74509400D01*
X137695600Y-74509400D01*
X137695600Y-74459400D01*
X137715600Y-74459400D01*
X137715600Y-74439400D01*
X137765600Y-74439400D01*
X137765600Y-74459400D01*
X138206300Y-74459400D01*
X138293800Y-74371900D01*
X138293800Y-73764128D01*
X138286017Y-73725000D01*
X138698956Y-73725000D01*
X138709712Y-73735756D01*
X138723022Y-73751974D01*
X138787736Y-73805084D01*
X138861569Y-73844548D01*
X138923035Y-73863194D01*
X138941681Y-73868850D01*
X138950094Y-73869679D01*
X139004122Y-73875000D01*
X139004128Y-73875000D01*
X139024995Y-73877055D01*
X139045862Y-73875000D01*
X140568660Y-73875000D01*
X140580353Y-73896877D01*
X140617842Y-73942558D01*
X140663523Y-73980047D01*
X140715640Y-74007904D01*
X140772190Y-74025059D01*
X140831000Y-74030851D01*
X142126400Y-74030851D01*
X142185210Y-74025059D01*
X142241760Y-74007904D01*
X142293877Y-73980047D01*
X142325001Y-73954505D01*
X142325001Y-74073958D01*
X141923960Y-74475000D01*
X140095867Y-74475000D01*
X140075000Y-74472945D01*
X140054133Y-74475000D01*
X140054126Y-74475000D01*
X139999327Y-74480397D01*
X139991685Y-74481150D01*
X139911572Y-74505452D01*
X139885855Y-74519199D01*
X139837740Y-74544916D01*
X139773026Y-74598026D01*
X139759721Y-74614238D01*
X138914243Y-75459717D01*
X138898026Y-75473026D01*
X138844916Y-75537741D01*
X138805452Y-75611574D01*
X138781150Y-75691687D01*
X138775258Y-75751511D01*
X138732523Y-75774353D01*
X138686842Y-75811842D01*
X138649353Y-75857523D01*
X138621496Y-75909640D01*
X138604341Y-75966190D01*
X138598549Y-76025000D01*
X138598549Y-77275000D01*
X138604341Y-77333810D01*
X138621496Y-77390360D01*
X138649353Y-77442477D01*
X138686842Y-77488158D01*
X138732523Y-77525647D01*
X138784640Y-77553504D01*
X138841190Y-77570659D01*
X138900000Y-77576451D01*
X139500000Y-77576451D01*
X139558810Y-77570659D01*
X139615360Y-77553504D01*
X139627286Y-77547129D01*
X139684213Y-77585166D01*
X139747909Y-77611550D01*
X139815528Y-77625000D01*
X140037500Y-77625000D01*
X140125000Y-77537500D01*
X140125000Y-76675000D01*
X140105000Y-76675000D01*
X140105000Y-76625000D01*
X140125000Y-76625000D01*
X140125000Y-75762500D01*
X140037500Y-75675000D01*
X139901040Y-75675000D01*
X140251041Y-75325000D01*
X142079133Y-75325000D01*
X142100000Y-75327055D01*
X142120867Y-75325000D01*
X142120874Y-75325000D01*
X142183314Y-75318850D01*
X142263427Y-75294548D01*
X142337260Y-75255084D01*
X142401974Y-75201974D01*
X142415283Y-75185757D01*
X143035762Y-74565279D01*
X143051974Y-74551974D01*
X143105084Y-74487260D01*
X143125001Y-74449998D01*
X143125001Y-87625000D01*
X139252817Y-87625000D01*
X139869810Y-87008008D01*
X139890790Y-86990790D01*
X139908008Y-86969810D01*
X139908013Y-86969805D01*
X139959521Y-86907042D01*
X140010592Y-86811495D01*
X140042042Y-86707819D01*
X140046671Y-86660816D01*
X140050000Y-86627018D01*
X140050000Y-86627011D01*
X140052660Y-86600000D01*
X140050000Y-86572989D01*
X140050000Y-86089256D01*
X140053801Y-86108365D01*
X140159336Y-86363149D01*
X140312549Y-86592448D01*
X140507552Y-86787451D01*
X140736851Y-86940664D01*
X140991635Y-87046199D01*
X141262112Y-87100000D01*
X141537888Y-87100000D01*
X141808365Y-87046199D01*
X142063149Y-86940664D01*
X142292448Y-86787451D01*
X142487451Y-86592448D01*
X142640664Y-86363149D01*
X142746199Y-86108365D01*
X142800000Y-85837888D01*
X142800000Y-85562112D01*
X142746199Y-85291635D01*
X142640664Y-85036851D01*
X142487451Y-84807552D01*
X142292448Y-84612549D01*
X142063149Y-84459336D01*
X141808365Y-84353801D01*
X141537888Y-84300000D01*
X141262112Y-84300000D01*
X141156886Y-84320931D01*
X142269804Y-83208013D01*
X142290790Y-83190790D01*
X142359521Y-83107042D01*
X142410592Y-83011494D01*
X142442042Y-82907819D01*
X142450000Y-82827018D01*
X142450000Y-82827011D01*
X142452660Y-82800000D01*
X142450000Y-82772989D01*
X142450000Y-77802011D01*
X142452660Y-77775000D01*
X142450000Y-77747989D01*
X142450000Y-77747982D01*
X142442042Y-77667181D01*
X142412762Y-77570659D01*
X142410592Y-77563505D01*
X142359521Y-77467958D01*
X142308013Y-77405195D01*
X142308008Y-77405190D01*
X142290790Y-77384210D01*
X142269810Y-77366992D01*
X141701451Y-76798634D01*
X141701451Y-76025000D01*
X141695659Y-75966190D01*
X141678504Y-75909640D01*
X141650647Y-75857523D01*
X141613158Y-75811842D01*
X141567477Y-75774353D01*
X141515360Y-75746496D01*
X141458810Y-75729341D01*
X141400000Y-75723549D01*
X140800000Y-75723549D01*
X140741190Y-75729341D01*
X140684640Y-75746496D01*
X140672714Y-75752871D01*
X140615787Y-75714834D01*
X140552091Y-75688450D01*
X140484472Y-75675000D01*
X140262500Y-75675000D01*
X140175000Y-75762500D01*
X140175000Y-76625000D01*
X140195000Y-76625000D01*
X140195000Y-76675000D01*
X140175000Y-76675000D01*
X140175000Y-77537500D01*
X140262500Y-77625000D01*
X140484472Y-77625000D01*
X140552091Y-77611550D01*
X140615787Y-77585166D01*
X140672714Y-77547129D01*
X140684640Y-77553504D01*
X140741190Y-77570659D01*
X140800000Y-77576451D01*
X140923634Y-77576451D01*
X141350000Y-78002818D01*
X141350000Y-78223549D01*
X140800000Y-78223549D01*
X140741190Y-78229341D01*
X140684640Y-78246496D01*
X140632523Y-78274353D01*
X140625000Y-78280527D01*
X140617477Y-78274353D01*
X140565360Y-78246496D01*
X140508810Y-78229341D01*
X140450000Y-78223549D01*
X139850000Y-78223549D01*
X139791190Y-78229341D01*
X139734640Y-78246496D01*
X139682523Y-78274353D01*
X139675000Y-78280527D01*
X139667477Y-78274353D01*
X139615360Y-78246496D01*
X139558810Y-78229341D01*
X139500000Y-78223549D01*
X138900000Y-78223549D01*
X138841190Y-78229341D01*
X138784640Y-78246496D01*
X138732523Y-78274353D01*
X138686842Y-78311842D01*
X138649353Y-78357523D01*
X138621496Y-78409640D01*
X138604341Y-78466190D01*
X138598549Y-78525000D01*
X138598549Y-79775000D01*
X138604341Y-79833810D01*
X138621496Y-79890360D01*
X138649353Y-79942477D01*
X138686842Y-79988158D01*
X138732523Y-80025647D01*
X138784640Y-80053504D01*
X138841190Y-80070659D01*
X138900000Y-80076451D01*
X139500000Y-80076451D01*
X139558810Y-80070659D01*
X139584238Y-80062945D01*
X139505196Y-80141987D01*
X139484210Y-80159210D01*
X139415479Y-80242958D01*
X139364408Y-80338506D01*
X139332958Y-80442181D01*
X139322339Y-80550000D01*
X139325001Y-80577028D01*
X139325000Y-81327182D01*
X137410191Y-83241992D01*
X137389211Y-83259210D01*
X137371993Y-83280190D01*
X137371987Y-83280196D01*
X137320479Y-83342958D01*
X137269409Y-83438506D01*
X137237959Y-83542182D01*
X137227340Y-83650000D01*
X137230001Y-83677018D01*
X137230000Y-84690010D01*
X137138003Y-84739184D01*
X136962893Y-84882893D01*
X136819184Y-85058003D01*
X136712398Y-85257785D01*
X136646640Y-85474561D01*
X136624436Y-85700000D01*
X136646640Y-85925439D01*
X136712398Y-86142215D01*
X136819184Y-86341997D01*
X136962893Y-86517107D01*
X137138003Y-86660816D01*
X137337785Y-86767602D01*
X137554561Y-86833360D01*
X137723508Y-86850000D01*
X135296492Y-86850000D01*
X135465439Y-86833360D01*
X135682215Y-86767602D01*
X135881997Y-86660816D01*
X136057107Y-86517107D01*
X136200816Y-86341997D01*
X136307602Y-86142215D01*
X136373360Y-85925439D01*
X136395564Y-85700000D01*
X136373360Y-85474561D01*
X136307602Y-85257785D01*
X136200816Y-85058003D01*
X136057107Y-84882893D01*
X135881997Y-84739184D01*
X135682215Y-84632398D01*
X135675000Y-84630209D01*
X135675000Y-81183367D01*
X135677055Y-81162500D01*
X135675000Y-81141633D01*
X135675000Y-81141626D01*
X135668850Y-81079186D01*
X135663210Y-81060592D01*
X135644548Y-80999072D01*
X135622601Y-80958013D01*
X135605084Y-80925240D01*
X135551974Y-80860526D01*
X135535763Y-80847222D01*
X133835826Y-79147285D01*
X133888781Y-79082758D01*
X133935022Y-78996247D01*
X133961219Y-79045258D01*
X134025912Y-79124088D01*
X134104742Y-79188781D01*
X134194678Y-79236853D01*
X134292264Y-79266455D01*
X134393750Y-79276451D01*
X134906250Y-79276451D01*
X135007736Y-79266455D01*
X135105322Y-79236853D01*
X135195258Y-79188781D01*
X135274088Y-79124088D01*
X135338781Y-79045258D01*
X135386853Y-78955322D01*
X135416455Y-78857736D01*
X135426451Y-78756250D01*
X135426451Y-78318750D01*
X135416455Y-78217264D01*
X135386853Y-78119678D01*
X135338781Y-78029742D01*
X135274088Y-77950912D01*
X135195258Y-77886219D01*
X135105322Y-77838147D01*
X135007736Y-77808545D01*
X134906250Y-77798549D01*
X134393750Y-77798549D01*
X134292264Y-77808545D01*
X134194678Y-77838147D01*
X134104742Y-77886219D01*
X134025912Y-77950912D01*
X133961219Y-78029742D01*
X133916984Y-78112500D01*
X133912972Y-78112500D01*
X133888781Y-78067242D01*
X133824088Y-77988412D01*
X133745258Y-77923719D01*
X133655322Y-77875647D01*
X133557736Y-77846045D01*
X133456250Y-77836049D01*
X132943750Y-77836049D01*
X132842264Y-77846045D01*
X132744678Y-77875647D01*
X132654742Y-77923719D01*
X132575912Y-77988412D01*
X132511219Y-78067242D01*
X132463147Y-78157178D01*
X132433545Y-78254764D01*
X132423549Y-78356250D01*
X132423549Y-78793750D01*
X132433545Y-78895236D01*
X132463147Y-78992822D01*
X132511219Y-79082758D01*
X132575912Y-79161588D01*
X132654742Y-79226281D01*
X132744678Y-79274353D01*
X132816210Y-79296052D01*
X132844917Y-79349760D01*
X132898027Y-79414474D01*
X132914239Y-79427779D01*
X134825000Y-81338541D01*
X134825001Y-84624142D01*
X134797785Y-84632398D01*
X134598003Y-84739184D01*
X134422893Y-84882893D01*
X134279184Y-85058003D01*
X134172398Y-85257785D01*
X134106640Y-85474561D01*
X134084436Y-85700000D01*
X134106640Y-85925439D01*
X134172398Y-86142215D01*
X134279184Y-86341997D01*
X134422893Y-86517107D01*
X134598003Y-86660816D01*
X134797785Y-86767602D01*
X135014561Y-86833360D01*
X135183508Y-86850000D01*
X133731002Y-86850000D01*
X133773112Y-86821863D01*
X133821863Y-86773112D01*
X133860166Y-86715787D01*
X133886550Y-86652091D01*
X133900000Y-86584472D01*
X133900000Y-85812500D01*
X133812500Y-85725000D01*
X132725000Y-85725000D01*
X132725000Y-85745000D01*
X132675000Y-85745000D01*
X132675000Y-85725000D01*
X132655000Y-85725000D01*
X132655000Y-85675000D01*
X132675000Y-85675000D01*
X132675000Y-84587500D01*
X132725000Y-84587500D01*
X132725000Y-85675000D01*
X133812500Y-85675000D01*
X133900000Y-85587500D01*
X133900000Y-84815528D01*
X133886550Y-84747909D01*
X133860166Y-84684213D01*
X133821863Y-84626888D01*
X133773112Y-84578137D01*
X133715787Y-84539834D01*
X133652091Y-84513450D01*
X133584472Y-84500000D01*
X132812500Y-84500000D01*
X132725000Y-84587500D01*
X132675000Y-84587500D01*
X132587500Y-84500000D01*
X131815528Y-84500000D01*
X131747909Y-84513450D01*
X131684213Y-84539834D01*
X131626888Y-84578137D01*
X131578137Y-84626888D01*
X131550000Y-84668998D01*
X131550000Y-77112500D01*
X132375000Y-77112500D01*
X132375000Y-77471972D01*
X132388450Y-77539591D01*
X132414834Y-77603287D01*
X132453137Y-77660612D01*
X132501888Y-77709363D01*
X132559213Y-77747666D01*
X132622909Y-77774050D01*
X132690528Y-77787500D01*
X133087500Y-77787500D01*
X133175000Y-77700000D01*
X133175000Y-77025000D01*
X132462500Y-77025000D01*
X132375000Y-77112500D01*
X131550000Y-77112500D01*
X131550000Y-76528028D01*
X132375000Y-76528028D01*
X132375000Y-76887500D01*
X132462500Y-76975000D01*
X133175000Y-76975000D01*
X133175000Y-76300000D01*
X133087500Y-76212500D01*
X132690528Y-76212500D01*
X132622909Y-76225950D01*
X132559213Y-76252334D01*
X132501888Y-76290637D01*
X132453137Y-76339388D01*
X132414834Y-76396713D01*
X132388450Y-76460409D01*
X132375000Y-76528028D01*
X131550000Y-76528028D01*
X131550000Y-74493856D01*
X131604742Y-74538781D01*
X131694678Y-74586853D01*
X131792264Y-74616455D01*
X131893750Y-74626451D01*
X132111134Y-74626451D01*
X132854487Y-75369804D01*
X132871710Y-75390790D01*
X132892696Y-75408013D01*
X132920888Y-75431150D01*
X132955458Y-75459521D01*
X133051006Y-75510592D01*
X133154681Y-75542042D01*
X133235482Y-75550000D01*
X133235489Y-75550000D01*
X133262500Y-75552660D01*
X133289511Y-75550000D01*
X133931264Y-75550000D01*
X133958272Y-75552660D01*
X133985280Y-75550000D01*
X133985290Y-75550000D01*
X134066091Y-75542042D01*
X134169766Y-75510592D01*
X134265314Y-75459521D01*
X134299884Y-75431150D01*
X134328076Y-75408013D01*
X134349062Y-75390790D01*
X134366285Y-75369804D01*
X134994804Y-74741285D01*
X135015790Y-74724062D01*
X135084521Y-74640314D01*
X135091931Y-74626451D01*
X135135592Y-74544767D01*
X135167042Y-74441091D01*
X135169766Y-74413428D01*
X135175000Y-74360290D01*
X135175000Y-74360283D01*
X135177660Y-74333272D01*
X135175000Y-74306261D01*
X135175000Y-73725000D01*
X135265028Y-73725000D01*
X135260541Y-73739790D01*
X135260541Y-73739790D01*
G37*
X135260541Y-73739790D02*
X135254749Y-73798600D01*
X135254749Y-75170200D01*
X135260541Y-75229010D01*
X135277696Y-75285560D01*
X135305553Y-75337677D01*
X135343042Y-75383358D01*
X135388723Y-75420847D01*
X135396493Y-75425000D01*
X135245867Y-75425000D01*
X135225000Y-75422945D01*
X135204133Y-75425000D01*
X135204126Y-75425000D01*
X135149327Y-75430397D01*
X135141685Y-75431150D01*
X135061572Y-75455452D01*
X135035855Y-75469199D01*
X134987740Y-75494916D01*
X134923026Y-75548026D01*
X134909721Y-75564238D01*
X134364239Y-76109721D01*
X134348027Y-76123026D01*
X134334722Y-76139238D01*
X134334720Y-76139240D01*
X134329396Y-76145728D01*
X134294917Y-76187740D01*
X134266210Y-76241448D01*
X134194678Y-76263147D01*
X134104742Y-76311219D01*
X134025912Y-76375912D01*
X133993107Y-76415885D01*
X133985166Y-76396713D01*
X133946863Y-76339388D01*
X133898112Y-76290637D01*
X133840787Y-76252334D01*
X133777091Y-76225950D01*
X133709472Y-76212500D01*
X133312500Y-76212500D01*
X133225000Y-76300000D01*
X133225000Y-76975000D01*
X133245000Y-76975000D01*
X133245000Y-77025000D01*
X133225000Y-77025000D01*
X133225000Y-77700000D01*
X133312500Y-77787500D01*
X133709472Y-77787500D01*
X133777091Y-77774050D01*
X133840787Y-77747666D01*
X133898112Y-77709363D01*
X133946863Y-77660612D01*
X133985166Y-77603287D01*
X134011550Y-77539591D01*
X134012831Y-77533149D01*
X134025912Y-77549088D01*
X134104742Y-77613781D01*
X134194678Y-77661853D01*
X134292264Y-77691455D01*
X134393750Y-77701451D01*
X134906250Y-77701451D01*
X135007736Y-77691455D01*
X135105322Y-77661853D01*
X135195258Y-77613781D01*
X135274088Y-77549088D01*
X135338781Y-77470258D01*
X135386853Y-77380322D01*
X135396208Y-77349482D01*
X135413147Y-77405322D01*
X135461219Y-77495258D01*
X135525912Y-77574088D01*
X135604742Y-77638781D01*
X135694678Y-77686853D01*
X135792264Y-77716455D01*
X135893750Y-77726451D01*
X136331250Y-77726451D01*
X136432736Y-77716455D01*
X136530322Y-77686853D01*
X136620258Y-77638781D01*
X136699088Y-77574088D01*
X136763781Y-77495258D01*
X136811853Y-77405322D01*
X136841455Y-77307736D01*
X136851451Y-77206250D01*
X136851451Y-77062500D01*
X136900000Y-77062500D01*
X136900000Y-77459472D01*
X136913450Y-77527091D01*
X136939834Y-77590787D01*
X136978137Y-77648112D01*
X137026888Y-77696863D01*
X137084213Y-77735166D01*
X137147909Y-77761550D01*
X137215528Y-77775000D01*
X137575000Y-77775000D01*
X137662500Y-77687500D01*
X137662500Y-76975000D01*
X137712500Y-76975000D01*
X137712500Y-77687500D01*
X137800000Y-77775000D01*
X138159472Y-77775000D01*
X138227091Y-77761550D01*
X138290787Y-77735166D01*
X138348112Y-77696863D01*
X138396863Y-77648112D01*
X138435166Y-77590787D01*
X138461550Y-77527091D01*
X138475000Y-77459472D01*
X138475000Y-77062500D01*
X138387500Y-76975000D01*
X137712500Y-76975000D01*
X137662500Y-76975000D01*
X136987500Y-76975000D01*
X136900000Y-77062500D01*
X136851451Y-77062500D01*
X136851451Y-76812089D01*
X136900000Y-76763541D01*
X136900000Y-76837500D01*
X136987500Y-76925000D01*
X137662500Y-76925000D01*
X137662500Y-76212500D01*
X137712500Y-76212500D01*
X137712500Y-76925000D01*
X138387500Y-76925000D01*
X138475000Y-76837500D01*
X138475000Y-76440528D01*
X138461550Y-76372909D01*
X138435166Y-76309213D01*
X138396863Y-76251888D01*
X138348112Y-76203137D01*
X138290787Y-76164834D01*
X138227091Y-76138450D01*
X138159472Y-76125000D01*
X137800000Y-76125000D01*
X137712500Y-76212500D01*
X137662500Y-76212500D01*
X137575000Y-76125000D01*
X137481035Y-76125000D01*
X137499050Y-76065614D01*
X137505200Y-76003174D01*
X137505200Y-76003168D01*
X137507255Y-75982301D01*
X137505200Y-75961434D01*
X137505200Y-75520200D01*
X137628100Y-75520200D01*
X137715600Y-75432700D01*
X137715600Y-74509400D01*
X137765600Y-74509400D01*
X137765600Y-75432700D01*
X137853100Y-75520200D01*
X137978272Y-75520200D01*
X138045891Y-75506750D01*
X138109587Y-75480366D01*
X138166912Y-75442063D01*
X138215663Y-75393312D01*
X138253966Y-75335987D01*
X138280350Y-75272291D01*
X138293800Y-75204672D01*
X138293800Y-74596900D01*
X138206300Y-74509400D01*
X137765600Y-74509400D01*
X137715600Y-74509400D01*
X137695600Y-74509400D01*
X137695600Y-74459400D01*
X137715600Y-74459400D01*
X137715600Y-74439400D01*
X137765600Y-74439400D01*
X137765600Y-74459400D01*
X138206300Y-74459400D01*
X138293800Y-74371900D01*
X138293800Y-73764128D01*
X138286017Y-73725000D01*
X138698956Y-73725000D01*
X138709712Y-73735756D01*
X138723022Y-73751974D01*
X138787736Y-73805084D01*
X138861569Y-73844548D01*
X138923035Y-73863194D01*
X138941681Y-73868850D01*
X138950094Y-73869679D01*
X139004122Y-73875000D01*
X139004128Y-73875000D01*
X139024995Y-73877055D01*
X139045862Y-73875000D01*
X140568660Y-73875000D01*
X140580353Y-73896877D01*
X140617842Y-73942558D01*
X140663523Y-73980047D01*
X140715640Y-74007904D01*
X140772190Y-74025059D01*
X140831000Y-74030851D01*
X142126400Y-74030851D01*
X142185210Y-74025059D01*
X142241760Y-74007904D01*
X142293877Y-73980047D01*
X142325001Y-73954505D01*
X142325001Y-74073958D01*
X141923960Y-74475000D01*
X140095867Y-74475000D01*
X140075000Y-74472945D01*
X140054133Y-74475000D01*
X140054126Y-74475000D01*
X139999327Y-74480397D01*
X139991685Y-74481150D01*
X139911572Y-74505452D01*
X139885855Y-74519199D01*
X139837740Y-74544916D01*
X139773026Y-74598026D01*
X139759721Y-74614238D01*
X138914243Y-75459717D01*
X138898026Y-75473026D01*
X138844916Y-75537741D01*
X138805452Y-75611574D01*
X138781150Y-75691687D01*
X138775258Y-75751511D01*
X138732523Y-75774353D01*
X138686842Y-75811842D01*
X138649353Y-75857523D01*
X138621496Y-75909640D01*
X138604341Y-75966190D01*
X138598549Y-76025000D01*
X138598549Y-77275000D01*
X138604341Y-77333810D01*
X138621496Y-77390360D01*
X138649353Y-77442477D01*
X138686842Y-77488158D01*
X138732523Y-77525647D01*
X138784640Y-77553504D01*
X138841190Y-77570659D01*
X138900000Y-77576451D01*
X139500000Y-77576451D01*
X139558810Y-77570659D01*
X139615360Y-77553504D01*
X139627286Y-77547129D01*
X139684213Y-77585166D01*
X139747909Y-77611550D01*
X139815528Y-77625000D01*
X140037500Y-77625000D01*
X140125000Y-77537500D01*
X140125000Y-76675000D01*
X140105000Y-76675000D01*
X140105000Y-76625000D01*
X140125000Y-76625000D01*
X140125000Y-75762500D01*
X140037500Y-75675000D01*
X139901040Y-75675000D01*
X140251041Y-75325000D01*
X142079133Y-75325000D01*
X142100000Y-75327055D01*
X142120867Y-75325000D01*
X142120874Y-75325000D01*
X142183314Y-75318850D01*
X142263427Y-75294548D01*
X142337260Y-75255084D01*
X142401974Y-75201974D01*
X142415283Y-75185757D01*
X143035762Y-74565279D01*
X143051974Y-74551974D01*
X143105084Y-74487260D01*
X143125001Y-74449998D01*
X143125001Y-87625000D01*
X139252817Y-87625000D01*
X139869810Y-87008008D01*
X139890790Y-86990790D01*
X139908008Y-86969810D01*
X139908013Y-86969805D01*
X139959521Y-86907042D01*
X140010592Y-86811495D01*
X140042042Y-86707819D01*
X140046671Y-86660816D01*
X140050000Y-86627018D01*
X140050000Y-86627011D01*
X140052660Y-86600000D01*
X140050000Y-86572989D01*
X140050000Y-86089256D01*
X140053801Y-86108365D01*
X140159336Y-86363149D01*
X140312549Y-86592448D01*
X140507552Y-86787451D01*
X140736851Y-86940664D01*
X140991635Y-87046199D01*
X141262112Y-87100000D01*
X141537888Y-87100000D01*
X141808365Y-87046199D01*
X142063149Y-86940664D01*
X142292448Y-86787451D01*
X142487451Y-86592448D01*
X142640664Y-86363149D01*
X142746199Y-86108365D01*
X142800000Y-85837888D01*
X142800000Y-85562112D01*
X142746199Y-85291635D01*
X142640664Y-85036851D01*
X142487451Y-84807552D01*
X142292448Y-84612549D01*
X142063149Y-84459336D01*
X141808365Y-84353801D01*
X141537888Y-84300000D01*
X141262112Y-84300000D01*
X141156886Y-84320931D01*
X142269804Y-83208013D01*
X142290790Y-83190790D01*
X142359521Y-83107042D01*
X142410592Y-83011494D01*
X142442042Y-82907819D01*
X142450000Y-82827018D01*
X142450000Y-82827011D01*
X142452660Y-82800000D01*
X142450000Y-82772989D01*
X142450000Y-77802011D01*
X142452660Y-77775000D01*
X142450000Y-77747989D01*
X142450000Y-77747982D01*
X142442042Y-77667181D01*
X142412762Y-77570659D01*
X142410592Y-77563505D01*
X142359521Y-77467958D01*
X142308013Y-77405195D01*
X142308008Y-77405190D01*
X142290790Y-77384210D01*
X142269810Y-77366992D01*
X141701451Y-76798634D01*
X141701451Y-76025000D01*
X141695659Y-75966190D01*
X141678504Y-75909640D01*
X141650647Y-75857523D01*
X141613158Y-75811842D01*
X141567477Y-75774353D01*
X141515360Y-75746496D01*
X141458810Y-75729341D01*
X141400000Y-75723549D01*
X140800000Y-75723549D01*
X140741190Y-75729341D01*
X140684640Y-75746496D01*
X140672714Y-75752871D01*
X140615787Y-75714834D01*
X140552091Y-75688450D01*
X140484472Y-75675000D01*
X140262500Y-75675000D01*
X140175000Y-75762500D01*
X140175000Y-76625000D01*
X140195000Y-76625000D01*
X140195000Y-76675000D01*
X140175000Y-76675000D01*
X140175000Y-77537500D01*
X140262500Y-77625000D01*
X140484472Y-77625000D01*
X140552091Y-77611550D01*
X140615787Y-77585166D01*
X140672714Y-77547129D01*
X140684640Y-77553504D01*
X140741190Y-77570659D01*
X140800000Y-77576451D01*
X140923634Y-77576451D01*
X141350000Y-78002818D01*
X141350000Y-78223549D01*
X140800000Y-78223549D01*
X140741190Y-78229341D01*
X140684640Y-78246496D01*
X140632523Y-78274353D01*
X140625000Y-78280527D01*
X140617477Y-78274353D01*
X140565360Y-78246496D01*
X140508810Y-78229341D01*
X140450000Y-78223549D01*
X139850000Y-78223549D01*
X139791190Y-78229341D01*
X139734640Y-78246496D01*
X139682523Y-78274353D01*
X139675000Y-78280527D01*
X139667477Y-78274353D01*
X139615360Y-78246496D01*
X139558810Y-78229341D01*
X139500000Y-78223549D01*
X138900000Y-78223549D01*
X138841190Y-78229341D01*
X138784640Y-78246496D01*
X138732523Y-78274353D01*
X138686842Y-78311842D01*
X138649353Y-78357523D01*
X138621496Y-78409640D01*
X138604341Y-78466190D01*
X138598549Y-78525000D01*
X138598549Y-79775000D01*
X138604341Y-79833810D01*
X138621496Y-79890360D01*
X138649353Y-79942477D01*
X138686842Y-79988158D01*
X138732523Y-80025647D01*
X138784640Y-80053504D01*
X138841190Y-80070659D01*
X138900000Y-80076451D01*
X139500000Y-80076451D01*
X139558810Y-80070659D01*
X139584238Y-80062945D01*
X139505196Y-80141987D01*
X139484210Y-80159210D01*
X139415479Y-80242958D01*
X139364408Y-80338506D01*
X139332958Y-80442181D01*
X139322339Y-80550000D01*
X139325001Y-80577028D01*
X139325000Y-81327182D01*
X137410191Y-83241992D01*
X137389211Y-83259210D01*
X137371993Y-83280190D01*
X137371987Y-83280196D01*
X137320479Y-83342958D01*
X137269409Y-83438506D01*
X137237959Y-83542182D01*
X137227340Y-83650000D01*
X137230001Y-83677018D01*
X137230000Y-84690010D01*
X137138003Y-84739184D01*
X136962893Y-84882893D01*
X136819184Y-85058003D01*
X136712398Y-85257785D01*
X136646640Y-85474561D01*
X136624436Y-85700000D01*
X136646640Y-85925439D01*
X136712398Y-86142215D01*
X136819184Y-86341997D01*
X136962893Y-86517107D01*
X137138003Y-86660816D01*
X137337785Y-86767602D01*
X137554561Y-86833360D01*
X137723508Y-86850000D01*
X135296492Y-86850000D01*
X135465439Y-86833360D01*
X135682215Y-86767602D01*
X135881997Y-86660816D01*
X136057107Y-86517107D01*
X136200816Y-86341997D01*
X136307602Y-86142215D01*
X136373360Y-85925439D01*
X136395564Y-85700000D01*
X136373360Y-85474561D01*
X136307602Y-85257785D01*
X136200816Y-85058003D01*
X136057107Y-84882893D01*
X135881997Y-84739184D01*
X135682215Y-84632398D01*
X135675000Y-84630209D01*
X135675000Y-81183367D01*
X135677055Y-81162500D01*
X135675000Y-81141633D01*
X135675000Y-81141626D01*
X135668850Y-81079186D01*
X135663210Y-81060592D01*
X135644548Y-80999072D01*
X135622601Y-80958013D01*
X135605084Y-80925240D01*
X135551974Y-80860526D01*
X135535763Y-80847222D01*
X133835826Y-79147285D01*
X133888781Y-79082758D01*
X133935022Y-78996247D01*
X133961219Y-79045258D01*
X134025912Y-79124088D01*
X134104742Y-79188781D01*
X134194678Y-79236853D01*
X134292264Y-79266455D01*
X134393750Y-79276451D01*
X134906250Y-79276451D01*
X135007736Y-79266455D01*
X135105322Y-79236853D01*
X135195258Y-79188781D01*
X135274088Y-79124088D01*
X135338781Y-79045258D01*
X135386853Y-78955322D01*
X135416455Y-78857736D01*
X135426451Y-78756250D01*
X135426451Y-78318750D01*
X135416455Y-78217264D01*
X135386853Y-78119678D01*
X135338781Y-78029742D01*
X135274088Y-77950912D01*
X135195258Y-77886219D01*
X135105322Y-77838147D01*
X135007736Y-77808545D01*
X134906250Y-77798549D01*
X134393750Y-77798549D01*
X134292264Y-77808545D01*
X134194678Y-77838147D01*
X134104742Y-77886219D01*
X134025912Y-77950912D01*
X133961219Y-78029742D01*
X133916984Y-78112500D01*
X133912972Y-78112500D01*
X133888781Y-78067242D01*
X133824088Y-77988412D01*
X133745258Y-77923719D01*
X133655322Y-77875647D01*
X133557736Y-77846045D01*
X133456250Y-77836049D01*
X132943750Y-77836049D01*
X132842264Y-77846045D01*
X132744678Y-77875647D01*
X132654742Y-77923719D01*
X132575912Y-77988412D01*
X132511219Y-78067242D01*
X132463147Y-78157178D01*
X132433545Y-78254764D01*
X132423549Y-78356250D01*
X132423549Y-78793750D01*
X132433545Y-78895236D01*
X132463147Y-78992822D01*
X132511219Y-79082758D01*
X132575912Y-79161588D01*
X132654742Y-79226281D01*
X132744678Y-79274353D01*
X132816210Y-79296052D01*
X132844917Y-79349760D01*
X132898027Y-79414474D01*
X132914239Y-79427779D01*
X134825000Y-81338541D01*
X134825001Y-84624142D01*
X134797785Y-84632398D01*
X134598003Y-84739184D01*
X134422893Y-84882893D01*
X134279184Y-85058003D01*
X134172398Y-85257785D01*
X134106640Y-85474561D01*
X134084436Y-85700000D01*
X134106640Y-85925439D01*
X134172398Y-86142215D01*
X134279184Y-86341997D01*
X134422893Y-86517107D01*
X134598003Y-86660816D01*
X134797785Y-86767602D01*
X135014561Y-86833360D01*
X135183508Y-86850000D01*
X133731002Y-86850000D01*
X133773112Y-86821863D01*
X133821863Y-86773112D01*
X133860166Y-86715787D01*
X133886550Y-86652091D01*
X133900000Y-86584472D01*
X133900000Y-85812500D01*
X133812500Y-85725000D01*
X132725000Y-85725000D01*
X132725000Y-85745000D01*
X132675000Y-85745000D01*
X132675000Y-85725000D01*
X132655000Y-85725000D01*
X132655000Y-85675000D01*
X132675000Y-85675000D01*
X132675000Y-84587500D01*
X132725000Y-84587500D01*
X132725000Y-85675000D01*
X133812500Y-85675000D01*
X133900000Y-85587500D01*
X133900000Y-84815528D01*
X133886550Y-84747909D01*
X133860166Y-84684213D01*
X133821863Y-84626888D01*
X133773112Y-84578137D01*
X133715787Y-84539834D01*
X133652091Y-84513450D01*
X133584472Y-84500000D01*
X132812500Y-84500000D01*
X132725000Y-84587500D01*
X132675000Y-84587500D01*
X132587500Y-84500000D01*
X131815528Y-84500000D01*
X131747909Y-84513450D01*
X131684213Y-84539834D01*
X131626888Y-84578137D01*
X131578137Y-84626888D01*
X131550000Y-84668998D01*
X131550000Y-77112500D01*
X132375000Y-77112500D01*
X132375000Y-77471972D01*
X132388450Y-77539591D01*
X132414834Y-77603287D01*
X132453137Y-77660612D01*
X132501888Y-77709363D01*
X132559213Y-77747666D01*
X132622909Y-77774050D01*
X132690528Y-77787500D01*
X133087500Y-77787500D01*
X133175000Y-77700000D01*
X133175000Y-77025000D01*
X132462500Y-77025000D01*
X132375000Y-77112500D01*
X131550000Y-77112500D01*
X131550000Y-76528028D01*
X132375000Y-76528028D01*
X132375000Y-76887500D01*
X132462500Y-76975000D01*
X133175000Y-76975000D01*
X133175000Y-76300000D01*
X133087500Y-76212500D01*
X132690528Y-76212500D01*
X132622909Y-76225950D01*
X132559213Y-76252334D01*
X132501888Y-76290637D01*
X132453137Y-76339388D01*
X132414834Y-76396713D01*
X132388450Y-76460409D01*
X132375000Y-76528028D01*
X131550000Y-76528028D01*
X131550000Y-74493856D01*
X131604742Y-74538781D01*
X131694678Y-74586853D01*
X131792264Y-74616455D01*
X131893750Y-74626451D01*
X132111134Y-74626451D01*
X132854487Y-75369804D01*
X132871710Y-75390790D01*
X132892696Y-75408013D01*
X132920888Y-75431150D01*
X132955458Y-75459521D01*
X133051006Y-75510592D01*
X133154681Y-75542042D01*
X133235482Y-75550000D01*
X133235489Y-75550000D01*
X133262500Y-75552660D01*
X133289511Y-75550000D01*
X133931264Y-75550000D01*
X133958272Y-75552660D01*
X133985280Y-75550000D01*
X133985290Y-75550000D01*
X134066091Y-75542042D01*
X134169766Y-75510592D01*
X134265314Y-75459521D01*
X134299884Y-75431150D01*
X134328076Y-75408013D01*
X134349062Y-75390790D01*
X134366285Y-75369804D01*
X134994804Y-74741285D01*
X135015790Y-74724062D01*
X135084521Y-74640314D01*
X135091931Y-74626451D01*
X135135592Y-74544767D01*
X135167042Y-74441091D01*
X135169766Y-74413428D01*
X135175000Y-74360290D01*
X135175000Y-74360283D01*
X135177660Y-74333272D01*
X135175000Y-74306261D01*
X135175000Y-73725000D01*
X135265028Y-73725000D01*
X135260541Y-73739790D01*
G36*
X141350001Y-82572182D02*
G01*
X139130196Y-84791987D01*
X139109210Y-84809210D01*
X139040479Y-84892958D01*
X138989408Y-84988507D01*
X138957958Y-85092182D01*
X138950000Y-85172983D01*
X138950000Y-85172992D01*
X138947340Y-85200000D01*
X138950000Y-85227008D01*
X138950001Y-86372181D01*
X138472183Y-86850000D01*
X137836492Y-86850000D01*
X138005439Y-86833360D01*
X138222215Y-86767602D01*
X138421997Y-86660816D01*
X138597107Y-86517107D01*
X138740816Y-86341997D01*
X138847602Y-86142215D01*
X138913360Y-85925439D01*
X138935564Y-85700000D01*
X138913360Y-85474561D01*
X138847602Y-85257785D01*
X138740816Y-85058003D01*
X138597107Y-84882893D01*
X138421997Y-84739184D01*
X138330000Y-84690010D01*
X138330000Y-83877817D01*
X140244810Y-81963008D01*
X140265790Y-81945790D01*
X140283008Y-81924810D01*
X140283013Y-81924805D01*
X140334520Y-81862043D01*
X140385591Y-81766495D01*
X140385592Y-81766494D01*
X140417042Y-81662819D01*
X140425000Y-81582018D01*
X140425000Y-81582009D01*
X140427660Y-81555001D01*
X140425000Y-81527993D01*
X140425000Y-81100000D01*
X140822992Y-81100000D01*
X140850000Y-81102660D01*
X140877008Y-81100000D01*
X140877018Y-81100000D01*
X140957819Y-81092042D01*
X141061494Y-81060592D01*
X141157042Y-81009521D01*
X141240790Y-80940790D01*
X141258013Y-80919804D01*
X141350001Y-80827816D01*
X141350001Y-82572182D01*
X141350001Y-82572182D01*
G37*
X141350001Y-82572182D02*
X139130196Y-84791987D01*
X139109210Y-84809210D01*
X139040479Y-84892958D01*
X138989408Y-84988507D01*
X138957958Y-85092182D01*
X138950000Y-85172983D01*
X138950000Y-85172992D01*
X138947340Y-85200000D01*
X138950000Y-85227008D01*
X138950001Y-86372181D01*
X138472183Y-86850000D01*
X137836492Y-86850000D01*
X138005439Y-86833360D01*
X138222215Y-86767602D01*
X138421997Y-86660816D01*
X138597107Y-86517107D01*
X138740816Y-86341997D01*
X138847602Y-86142215D01*
X138913360Y-85925439D01*
X138935564Y-85700000D01*
X138913360Y-85474561D01*
X138847602Y-85257785D01*
X138740816Y-85058003D01*
X138597107Y-84882893D01*
X138421997Y-84739184D01*
X138330000Y-84690010D01*
X138330000Y-83877817D01*
X140244810Y-81963008D01*
X140265790Y-81945790D01*
X140283008Y-81924810D01*
X140283013Y-81924805D01*
X140334520Y-81862043D01*
X140385591Y-81766495D01*
X140385592Y-81766494D01*
X140417042Y-81662819D01*
X140425000Y-81582018D01*
X140425000Y-81582009D01*
X140427660Y-81555001D01*
X140425000Y-81527993D01*
X140425000Y-81100000D01*
X140822992Y-81100000D01*
X140850000Y-81102660D01*
X140877008Y-81100000D01*
X140877018Y-81100000D01*
X140957819Y-81092042D01*
X141061494Y-81060592D01*
X141157042Y-81009521D01*
X141240790Y-80940790D01*
X141258013Y-80919804D01*
X141350001Y-80827816D01*
X141350001Y-82572182D01*
G36*
X143125001Y-72650002D02*
G01*
X143105084Y-72612740D01*
X143051974Y-72548026D01*
X143035763Y-72534722D01*
X142665283Y-72164243D01*
X142651974Y-72148026D01*
X142587260Y-72094916D01*
X142513427Y-72055452D01*
X142433314Y-72031150D01*
X142370874Y-72025000D01*
X142370867Y-72025000D01*
X142355231Y-72023460D01*
X142377047Y-71996877D01*
X142404904Y-71944760D01*
X142422059Y-71888210D01*
X142427851Y-71829400D01*
X142427851Y-71270600D01*
X142422059Y-71211790D01*
X142404904Y-71155240D01*
X142377047Y-71103123D01*
X142339558Y-71057442D01*
X142293877Y-71019953D01*
X142241760Y-70992096D01*
X142185210Y-70974941D01*
X142126400Y-70969149D01*
X140831000Y-70969149D01*
X140772190Y-70974941D01*
X140715640Y-70992096D01*
X140700975Y-70999935D01*
X140425000Y-70723960D01*
X140425000Y-70396051D01*
X140455322Y-70386853D01*
X140545258Y-70338781D01*
X140624088Y-70274088D01*
X140688781Y-70195258D01*
X140736853Y-70105322D01*
X140766455Y-70007736D01*
X140776451Y-69906250D01*
X140776451Y-69468750D01*
X140766455Y-69367264D01*
X140736853Y-69269678D01*
X140688781Y-69179742D01*
X140624088Y-69100912D01*
X140545258Y-69036219D01*
X140455322Y-68988147D01*
X140357736Y-68958545D01*
X140256250Y-68948549D01*
X139862090Y-68948549D01*
X139813540Y-68900000D01*
X139887500Y-68900000D01*
X139975000Y-68812500D01*
X139975000Y-68137500D01*
X140025000Y-68137500D01*
X140025000Y-68812500D01*
X140112500Y-68900000D01*
X140509472Y-68900000D01*
X140577091Y-68886550D01*
X140640787Y-68860166D01*
X140698112Y-68821863D01*
X140746863Y-68773112D01*
X140785166Y-68715787D01*
X140811550Y-68652091D01*
X140825000Y-68584472D01*
X140825000Y-68225000D01*
X140737500Y-68137500D01*
X140025000Y-68137500D01*
X139975000Y-68137500D01*
X139262500Y-68137500D01*
X139175000Y-68225000D01*
X139175000Y-68340003D01*
X139145814Y-68331150D01*
X139083374Y-68325000D01*
X139083367Y-68325000D01*
X139062500Y-68322945D01*
X139041633Y-68325000D01*
X138176040Y-68325000D01*
X138860512Y-67640528D01*
X139175000Y-67640528D01*
X139175000Y-68000000D01*
X139262500Y-68087500D01*
X139975000Y-68087500D01*
X139975000Y-67412500D01*
X140025000Y-67412500D01*
X140025000Y-68087500D01*
X140737500Y-68087500D01*
X140825000Y-68000000D01*
X140825000Y-67640528D01*
X140811550Y-67572909D01*
X140785166Y-67509213D01*
X140746863Y-67451888D01*
X140698112Y-67403137D01*
X140640787Y-67364834D01*
X140577091Y-67338450D01*
X140509472Y-67325000D01*
X140112500Y-67325000D01*
X140025000Y-67412500D01*
X139975000Y-67412500D01*
X139887500Y-67325000D01*
X139490528Y-67325000D01*
X139422909Y-67338450D01*
X139359213Y-67364834D01*
X139301888Y-67403137D01*
X139253137Y-67451888D01*
X139214834Y-67509213D01*
X139188450Y-67572909D01*
X139175000Y-67640528D01*
X138860512Y-67640528D01*
X139185762Y-67315279D01*
X139201974Y-67301974D01*
X139255084Y-67237260D01*
X139292806Y-67166687D01*
X139294548Y-67163428D01*
X139318850Y-67083315D01*
X139322932Y-67041868D01*
X139325000Y-67020874D01*
X139325000Y-67020867D01*
X139327055Y-67000000D01*
X139325000Y-66979133D01*
X139325000Y-63407277D01*
X139327055Y-63386410D01*
X139325000Y-63365543D01*
X139325000Y-63365536D01*
X139318850Y-63303096D01*
X139294548Y-63222983D01*
X139291799Y-63217839D01*
X139577566Y-63503607D01*
X139574353Y-63507523D01*
X139546496Y-63559640D01*
X139529341Y-63616190D01*
X139523549Y-63675000D01*
X139523549Y-64725000D01*
X139529341Y-64783810D01*
X139546496Y-64840360D01*
X139550001Y-64846917D01*
X139550001Y-65222972D01*
X139547339Y-65250000D01*
X139550000Y-65277018D01*
X139550000Y-65929018D01*
X139548549Y-65943750D01*
X139548549Y-66000225D01*
X139547340Y-66012500D01*
X139548549Y-66024775D01*
X139548549Y-66456250D01*
X139558545Y-66557736D01*
X139588147Y-66655322D01*
X139636219Y-66745258D01*
X139700912Y-66824088D01*
X139779742Y-66888781D01*
X139869678Y-66936853D01*
X139967264Y-66966455D01*
X140068750Y-66976451D01*
X140506250Y-66976451D01*
X140607736Y-66966455D01*
X140705322Y-66936853D01*
X140795258Y-66888781D01*
X140874088Y-66824088D01*
X140938781Y-66745258D01*
X140986853Y-66655322D01*
X141016455Y-66557736D01*
X141026451Y-66456250D01*
X141026451Y-66312500D01*
X141075000Y-66312500D01*
X141075000Y-66709472D01*
X141088450Y-66777091D01*
X141114834Y-66840787D01*
X141153137Y-66898112D01*
X141201888Y-66946863D01*
X141259213Y-66985166D01*
X141322909Y-67011550D01*
X141390528Y-67025000D01*
X141750000Y-67025000D01*
X141837500Y-66937500D01*
X141837500Y-66225000D01*
X141887500Y-66225000D01*
X141887500Y-66937500D01*
X141975000Y-67025000D01*
X142334472Y-67025000D01*
X142402091Y-67011550D01*
X142465787Y-66985166D01*
X142523112Y-66946863D01*
X142571863Y-66898112D01*
X142610166Y-66840787D01*
X142636550Y-66777091D01*
X142650000Y-66709472D01*
X142650000Y-66312500D01*
X142562500Y-66225000D01*
X141887500Y-66225000D01*
X141837500Y-66225000D01*
X141162500Y-66225000D01*
X141075000Y-66312500D01*
X141026451Y-66312500D01*
X141026451Y-65943750D01*
X141016455Y-65842264D01*
X141003635Y-65800000D01*
X141075000Y-65800000D01*
X141075000Y-66087500D01*
X141162500Y-66175000D01*
X141837500Y-66175000D01*
X141837500Y-65462500D01*
X141887500Y-65462500D01*
X141887500Y-66175000D01*
X142562500Y-66175000D01*
X142650000Y-66087500D01*
X142650000Y-65690528D01*
X142636550Y-65622909D01*
X142610166Y-65559213D01*
X142571863Y-65501888D01*
X142523112Y-65453137D01*
X142465787Y-65414834D01*
X142402091Y-65388450D01*
X142334472Y-65375000D01*
X141975000Y-65375000D01*
X141887500Y-65462500D01*
X141837500Y-65462500D01*
X141801409Y-65426409D01*
X142201367Y-65026451D01*
X142275000Y-65026451D01*
X142333810Y-65020659D01*
X142390360Y-65003504D01*
X142442477Y-64975647D01*
X142488158Y-64938158D01*
X142525647Y-64892477D01*
X142553504Y-64840360D01*
X142570659Y-64783810D01*
X142576451Y-64725000D01*
X142576451Y-63675000D01*
X142570659Y-63616190D01*
X142553504Y-63559640D01*
X142525647Y-63507523D01*
X142488158Y-63461842D01*
X142442477Y-63424353D01*
X142390360Y-63396496D01*
X142333810Y-63379341D01*
X142275000Y-63373549D01*
X141725000Y-63373549D01*
X141666190Y-63379341D01*
X141609640Y-63396496D01*
X141557523Y-63424353D01*
X141511842Y-63461842D01*
X141474353Y-63507523D01*
X141446496Y-63559640D01*
X141429341Y-63616190D01*
X141423549Y-63675000D01*
X141423549Y-64248633D01*
X140972183Y-64700000D01*
X140676451Y-64700000D01*
X140676451Y-63675000D01*
X140670659Y-63616190D01*
X140653504Y-63559640D01*
X140625647Y-63507523D01*
X140588158Y-63461842D01*
X140542477Y-63424353D01*
X140526131Y-63415616D01*
X140525000Y-63404132D01*
X140525000Y-63404126D01*
X140518850Y-63341686D01*
X140494548Y-63261573D01*
X140455084Y-63187740D01*
X140401974Y-63123026D01*
X140385763Y-63109722D01*
X139624982Y-62348942D01*
X139657523Y-62375647D01*
X139709640Y-62403504D01*
X139766190Y-62420659D01*
X139825000Y-62426451D01*
X140375000Y-62426451D01*
X140433810Y-62420659D01*
X140490360Y-62403504D01*
X140534784Y-62379759D01*
X140551888Y-62396863D01*
X140609213Y-62435166D01*
X140672909Y-62461550D01*
X140740528Y-62475000D01*
X140937500Y-62475000D01*
X141025000Y-62387500D01*
X141025000Y-61625000D01*
X141005000Y-61625000D01*
X141005000Y-61575000D01*
X141025000Y-61575000D01*
X141025000Y-61555000D01*
X141075000Y-61555000D01*
X141075000Y-61575000D01*
X141095000Y-61575000D01*
X141095000Y-61625000D01*
X141075000Y-61625000D01*
X141075000Y-62387500D01*
X141162500Y-62475000D01*
X141359472Y-62475000D01*
X141427091Y-62461550D01*
X141490787Y-62435166D01*
X141548112Y-62396863D01*
X141565216Y-62379759D01*
X141609640Y-62403504D01*
X141666190Y-62420659D01*
X141725000Y-62426451D01*
X142275000Y-62426451D01*
X142333810Y-62420659D01*
X142390360Y-62403504D01*
X142442477Y-62375647D01*
X142488158Y-62338158D01*
X142525647Y-62292477D01*
X142553504Y-62240360D01*
X142570659Y-62183810D01*
X142576451Y-62125000D01*
X142576451Y-61075000D01*
X142570659Y-61016190D01*
X142553504Y-60959640D01*
X142550000Y-60953084D01*
X142550000Y-60642514D01*
X142588781Y-60595258D01*
X142636853Y-60505322D01*
X142666455Y-60407736D01*
X142676451Y-60306250D01*
X142676451Y-59793750D01*
X142666455Y-59692264D01*
X142636853Y-59594678D01*
X142588781Y-59504742D01*
X142524088Y-59425912D01*
X142487500Y-59395886D01*
X142487500Y-59264507D01*
X142490160Y-59237499D01*
X142487500Y-59210491D01*
X142487500Y-59210482D01*
X142479542Y-59129681D01*
X142448092Y-59026006D01*
X142397021Y-58930458D01*
X142373408Y-58901686D01*
X142345513Y-58867695D01*
X142345508Y-58867690D01*
X142328290Y-58846710D01*
X142307310Y-58829492D01*
X140808017Y-57330200D01*
X140808013Y-57330195D01*
X139758012Y-56280195D01*
X139740790Y-56259210D01*
X139717967Y-56240479D01*
X139657042Y-56190479D01*
X139655038Y-56189408D01*
X139561494Y-56139408D01*
X139457819Y-56107958D01*
X139377018Y-56100000D01*
X139377008Y-56100000D01*
X139350000Y-56097340D01*
X139322992Y-56100000D01*
X139310407Y-56100000D01*
X139318422Y-56093422D01*
X139418393Y-55971606D01*
X139492679Y-55832628D01*
X139538424Y-55681827D01*
X139550000Y-55564293D01*
X139550000Y-55462112D01*
X140000000Y-55462112D01*
X140000000Y-55737888D01*
X140053801Y-56008365D01*
X140159336Y-56263149D01*
X140312549Y-56492448D01*
X140507552Y-56687451D01*
X140736851Y-56840664D01*
X140991635Y-56946199D01*
X141262112Y-57000000D01*
X141537888Y-57000000D01*
X141808365Y-56946199D01*
X142063149Y-56840664D01*
X142292448Y-56687451D01*
X142487451Y-56492448D01*
X142640664Y-56263149D01*
X142746199Y-56008365D01*
X142800000Y-55737888D01*
X142800000Y-55462112D01*
X142746199Y-55191635D01*
X142640664Y-54936851D01*
X142487451Y-54707552D01*
X142292448Y-54512549D01*
X142063149Y-54359336D01*
X141808365Y-54253801D01*
X141537888Y-54200000D01*
X141262112Y-54200000D01*
X140991635Y-54253801D01*
X140736851Y-54359336D01*
X140507552Y-54512549D01*
X140312549Y-54707552D01*
X140159336Y-54936851D01*
X140053801Y-55191635D01*
X140000000Y-55462112D01*
X139550000Y-55462112D01*
X139550000Y-54935707D01*
X139538424Y-54818173D01*
X139492679Y-54667372D01*
X139418393Y-54528394D01*
X139318422Y-54406578D01*
X139196606Y-54306607D01*
X139057628Y-54232321D01*
X138906827Y-54186576D01*
X138750000Y-54171130D01*
X138593174Y-54186576D01*
X138442373Y-54232321D01*
X138303395Y-54306607D01*
X138181579Y-54406578D01*
X138081608Y-54528394D01*
X138007321Y-54667372D01*
X137961576Y-54818173D01*
X137950000Y-54935707D01*
X137950000Y-55564292D01*
X137961576Y-55681826D01*
X138007321Y-55832627D01*
X138081607Y-55971605D01*
X138181578Y-56093422D01*
X138189593Y-56100000D01*
X136627011Y-56100000D01*
X136600000Y-56097340D01*
X136572990Y-56100000D01*
X136227818Y-56100000D01*
X135508013Y-55380196D01*
X135490790Y-55359210D01*
X135407042Y-55290479D01*
X135311494Y-55239408D01*
X135207819Y-55207958D01*
X135127018Y-55200000D01*
X135127008Y-55200000D01*
X135100000Y-55197340D01*
X135072992Y-55200000D01*
X132877011Y-55200000D01*
X132850000Y-55197340D01*
X132822989Y-55200000D01*
X132822982Y-55200000D01*
X132742181Y-55207958D01*
X132638506Y-55239408D01*
X132550000Y-55286715D01*
X132550000Y-54935707D01*
X132538424Y-54818173D01*
X132492679Y-54667372D01*
X132418393Y-54528394D01*
X132318422Y-54406578D01*
X132196606Y-54306607D01*
X132057628Y-54232321D01*
X131906827Y-54186576D01*
X131750000Y-54171130D01*
X131593174Y-54186576D01*
X131442373Y-54232321D01*
X131303395Y-54306607D01*
X131181579Y-54406578D01*
X131081608Y-54528394D01*
X131007321Y-54667372D01*
X130961576Y-54818173D01*
X130950000Y-54935707D01*
X130950000Y-55564292D01*
X130961576Y-55681826D01*
X131007321Y-55832627D01*
X131081607Y-55971605D01*
X131181578Y-56093422D01*
X131303394Y-56193393D01*
X131442372Y-56267679D01*
X131528406Y-56293777D01*
X131172183Y-56650000D01*
X130927018Y-56650000D01*
X130900000Y-56647339D01*
X130872982Y-56650000D01*
X130792181Y-56657958D01*
X130688505Y-56689408D01*
X130592958Y-56740479D01*
X130530195Y-56791987D01*
X130530190Y-56791992D01*
X130509210Y-56809210D01*
X130491992Y-56830190D01*
X129872183Y-57450000D01*
X128127007Y-57450000D01*
X128099999Y-57447340D01*
X128072991Y-57450000D01*
X128072982Y-57450000D01*
X127992181Y-57457958D01*
X127888506Y-57489408D01*
X127792958Y-57540479D01*
X127792956Y-57540480D01*
X127792957Y-57540480D01*
X127730195Y-57591987D01*
X127730190Y-57591992D01*
X127709210Y-57609210D01*
X127691991Y-57630191D01*
X127375000Y-57947183D01*
X127375000Y-55462112D01*
X127700000Y-55462112D01*
X127700000Y-55737888D01*
X127753801Y-56008365D01*
X127859336Y-56263149D01*
X128012549Y-56492448D01*
X128207552Y-56687451D01*
X128436851Y-56840664D01*
X128691635Y-56946199D01*
X128962112Y-57000000D01*
X129237888Y-57000000D01*
X129508365Y-56946199D01*
X129763149Y-56840664D01*
X129992448Y-56687451D01*
X130187451Y-56492448D01*
X130340664Y-56263149D01*
X130446199Y-56008365D01*
X130500000Y-55737888D01*
X130500000Y-55462112D01*
X130446199Y-55191635D01*
X130340664Y-54936851D01*
X130187451Y-54707552D01*
X129992448Y-54512549D01*
X129763149Y-54359336D01*
X129508365Y-54253801D01*
X129237888Y-54200000D01*
X128962112Y-54200000D01*
X128691635Y-54253801D01*
X128436851Y-54359336D01*
X128207552Y-54512549D01*
X128012549Y-54707552D01*
X127859336Y-54936851D01*
X127753801Y-55191635D01*
X127700000Y-55462112D01*
X127375000Y-55462112D01*
X127375000Y-53875000D01*
X143125000Y-53875000D01*
X143125001Y-72650002D01*
X143125001Y-72650002D01*
G37*
X143125001Y-72650002D02*
X143105084Y-72612740D01*
X143051974Y-72548026D01*
X143035763Y-72534722D01*
X142665283Y-72164243D01*
X142651974Y-72148026D01*
X142587260Y-72094916D01*
X142513427Y-72055452D01*
X142433314Y-72031150D01*
X142370874Y-72025000D01*
X142370867Y-72025000D01*
X142355231Y-72023460D01*
X142377047Y-71996877D01*
X142404904Y-71944760D01*
X142422059Y-71888210D01*
X142427851Y-71829400D01*
X142427851Y-71270600D01*
X142422059Y-71211790D01*
X142404904Y-71155240D01*
X142377047Y-71103123D01*
X142339558Y-71057442D01*
X142293877Y-71019953D01*
X142241760Y-70992096D01*
X142185210Y-70974941D01*
X142126400Y-70969149D01*
X140831000Y-70969149D01*
X140772190Y-70974941D01*
X140715640Y-70992096D01*
X140700975Y-70999935D01*
X140425000Y-70723960D01*
X140425000Y-70396051D01*
X140455322Y-70386853D01*
X140545258Y-70338781D01*
X140624088Y-70274088D01*
X140688781Y-70195258D01*
X140736853Y-70105322D01*
X140766455Y-70007736D01*
X140776451Y-69906250D01*
X140776451Y-69468750D01*
X140766455Y-69367264D01*
X140736853Y-69269678D01*
X140688781Y-69179742D01*
X140624088Y-69100912D01*
X140545258Y-69036219D01*
X140455322Y-68988147D01*
X140357736Y-68958545D01*
X140256250Y-68948549D01*
X139862090Y-68948549D01*
X139813540Y-68900000D01*
X139887500Y-68900000D01*
X139975000Y-68812500D01*
X139975000Y-68137500D01*
X140025000Y-68137500D01*
X140025000Y-68812500D01*
X140112500Y-68900000D01*
X140509472Y-68900000D01*
X140577091Y-68886550D01*
X140640787Y-68860166D01*
X140698112Y-68821863D01*
X140746863Y-68773112D01*
X140785166Y-68715787D01*
X140811550Y-68652091D01*
X140825000Y-68584472D01*
X140825000Y-68225000D01*
X140737500Y-68137500D01*
X140025000Y-68137500D01*
X139975000Y-68137500D01*
X139262500Y-68137500D01*
X139175000Y-68225000D01*
X139175000Y-68340003D01*
X139145814Y-68331150D01*
X139083374Y-68325000D01*
X139083367Y-68325000D01*
X139062500Y-68322945D01*
X139041633Y-68325000D01*
X138176040Y-68325000D01*
X138860512Y-67640528D01*
X139175000Y-67640528D01*
X139175000Y-68000000D01*
X139262500Y-68087500D01*
X139975000Y-68087500D01*
X139975000Y-67412500D01*
X140025000Y-67412500D01*
X140025000Y-68087500D01*
X140737500Y-68087500D01*
X140825000Y-68000000D01*
X140825000Y-67640528D01*
X140811550Y-67572909D01*
X140785166Y-67509213D01*
X140746863Y-67451888D01*
X140698112Y-67403137D01*
X140640787Y-67364834D01*
X140577091Y-67338450D01*
X140509472Y-67325000D01*
X140112500Y-67325000D01*
X140025000Y-67412500D01*
X139975000Y-67412500D01*
X139887500Y-67325000D01*
X139490528Y-67325000D01*
X139422909Y-67338450D01*
X139359213Y-67364834D01*
X139301888Y-67403137D01*
X139253137Y-67451888D01*
X139214834Y-67509213D01*
X139188450Y-67572909D01*
X139175000Y-67640528D01*
X138860512Y-67640528D01*
X139185762Y-67315279D01*
X139201974Y-67301974D01*
X139255084Y-67237260D01*
X139292806Y-67166687D01*
X139294548Y-67163428D01*
X139318850Y-67083315D01*
X139322932Y-67041868D01*
X139325000Y-67020874D01*
X139325000Y-67020867D01*
X139327055Y-67000000D01*
X139325000Y-66979133D01*
X139325000Y-63407277D01*
X139327055Y-63386410D01*
X139325000Y-63365543D01*
X139325000Y-63365536D01*
X139318850Y-63303096D01*
X139294548Y-63222983D01*
X139291799Y-63217839D01*
X139577566Y-63503607D01*
X139574353Y-63507523D01*
X139546496Y-63559640D01*
X139529341Y-63616190D01*
X139523549Y-63675000D01*
X139523549Y-64725000D01*
X139529341Y-64783810D01*
X139546496Y-64840360D01*
X139550001Y-64846917D01*
X139550001Y-65222972D01*
X139547339Y-65250000D01*
X139550000Y-65277018D01*
X139550000Y-65929018D01*
X139548549Y-65943750D01*
X139548549Y-66000225D01*
X139547340Y-66012500D01*
X139548549Y-66024775D01*
X139548549Y-66456250D01*
X139558545Y-66557736D01*
X139588147Y-66655322D01*
X139636219Y-66745258D01*
X139700912Y-66824088D01*
X139779742Y-66888781D01*
X139869678Y-66936853D01*
X139967264Y-66966455D01*
X140068750Y-66976451D01*
X140506250Y-66976451D01*
X140607736Y-66966455D01*
X140705322Y-66936853D01*
X140795258Y-66888781D01*
X140874088Y-66824088D01*
X140938781Y-66745258D01*
X140986853Y-66655322D01*
X141016455Y-66557736D01*
X141026451Y-66456250D01*
X141026451Y-66312500D01*
X141075000Y-66312500D01*
X141075000Y-66709472D01*
X141088450Y-66777091D01*
X141114834Y-66840787D01*
X141153137Y-66898112D01*
X141201888Y-66946863D01*
X141259213Y-66985166D01*
X141322909Y-67011550D01*
X141390528Y-67025000D01*
X141750000Y-67025000D01*
X141837500Y-66937500D01*
X141837500Y-66225000D01*
X141887500Y-66225000D01*
X141887500Y-66937500D01*
X141975000Y-67025000D01*
X142334472Y-67025000D01*
X142402091Y-67011550D01*
X142465787Y-66985166D01*
X142523112Y-66946863D01*
X142571863Y-66898112D01*
X142610166Y-66840787D01*
X142636550Y-66777091D01*
X142650000Y-66709472D01*
X142650000Y-66312500D01*
X142562500Y-66225000D01*
X141887500Y-66225000D01*
X141837500Y-66225000D01*
X141162500Y-66225000D01*
X141075000Y-66312500D01*
X141026451Y-66312500D01*
X141026451Y-65943750D01*
X141016455Y-65842264D01*
X141003635Y-65800000D01*
X141075000Y-65800000D01*
X141075000Y-66087500D01*
X141162500Y-66175000D01*
X141837500Y-66175000D01*
X141837500Y-65462500D01*
X141887500Y-65462500D01*
X141887500Y-66175000D01*
X142562500Y-66175000D01*
X142650000Y-66087500D01*
X142650000Y-65690528D01*
X142636550Y-65622909D01*
X142610166Y-65559213D01*
X142571863Y-65501888D01*
X142523112Y-65453137D01*
X142465787Y-65414834D01*
X142402091Y-65388450D01*
X142334472Y-65375000D01*
X141975000Y-65375000D01*
X141887500Y-65462500D01*
X141837500Y-65462500D01*
X141801409Y-65426409D01*
X142201367Y-65026451D01*
X142275000Y-65026451D01*
X142333810Y-65020659D01*
X142390360Y-65003504D01*
X142442477Y-64975647D01*
X142488158Y-64938158D01*
X142525647Y-64892477D01*
X142553504Y-64840360D01*
X142570659Y-64783810D01*
X142576451Y-64725000D01*
X142576451Y-63675000D01*
X142570659Y-63616190D01*
X142553504Y-63559640D01*
X142525647Y-63507523D01*
X142488158Y-63461842D01*
X142442477Y-63424353D01*
X142390360Y-63396496D01*
X142333810Y-63379341D01*
X142275000Y-63373549D01*
X141725000Y-63373549D01*
X141666190Y-63379341D01*
X141609640Y-63396496D01*
X141557523Y-63424353D01*
X141511842Y-63461842D01*
X141474353Y-63507523D01*
X141446496Y-63559640D01*
X141429341Y-63616190D01*
X141423549Y-63675000D01*
X141423549Y-64248633D01*
X140972183Y-64700000D01*
X140676451Y-64700000D01*
X140676451Y-63675000D01*
X140670659Y-63616190D01*
X140653504Y-63559640D01*
X140625647Y-63507523D01*
X140588158Y-63461842D01*
X140542477Y-63424353D01*
X140526131Y-63415616D01*
X140525000Y-63404132D01*
X140525000Y-63404126D01*
X140518850Y-63341686D01*
X140494548Y-63261573D01*
X140455084Y-63187740D01*
X140401974Y-63123026D01*
X140385763Y-63109722D01*
X139624982Y-62348942D01*
X139657523Y-62375647D01*
X139709640Y-62403504D01*
X139766190Y-62420659D01*
X139825000Y-62426451D01*
X140375000Y-62426451D01*
X140433810Y-62420659D01*
X140490360Y-62403504D01*
X140534784Y-62379759D01*
X140551888Y-62396863D01*
X140609213Y-62435166D01*
X140672909Y-62461550D01*
X140740528Y-62475000D01*
X140937500Y-62475000D01*
X141025000Y-62387500D01*
X141025000Y-61625000D01*
X141005000Y-61625000D01*
X141005000Y-61575000D01*
X141025000Y-61575000D01*
X141025000Y-61555000D01*
X141075000Y-61555000D01*
X141075000Y-61575000D01*
X141095000Y-61575000D01*
X141095000Y-61625000D01*
X141075000Y-61625000D01*
X141075000Y-62387500D01*
X141162500Y-62475000D01*
X141359472Y-62475000D01*
X141427091Y-62461550D01*
X141490787Y-62435166D01*
X141548112Y-62396863D01*
X141565216Y-62379759D01*
X141609640Y-62403504D01*
X141666190Y-62420659D01*
X141725000Y-62426451D01*
X142275000Y-62426451D01*
X142333810Y-62420659D01*
X142390360Y-62403504D01*
X142442477Y-62375647D01*
X142488158Y-62338158D01*
X142525647Y-62292477D01*
X142553504Y-62240360D01*
X142570659Y-62183810D01*
X142576451Y-62125000D01*
X142576451Y-61075000D01*
X142570659Y-61016190D01*
X142553504Y-60959640D01*
X142550000Y-60953084D01*
X142550000Y-60642514D01*
X142588781Y-60595258D01*
X142636853Y-60505322D01*
X142666455Y-60407736D01*
X142676451Y-60306250D01*
X142676451Y-59793750D01*
X142666455Y-59692264D01*
X142636853Y-59594678D01*
X142588781Y-59504742D01*
X142524088Y-59425912D01*
X142487500Y-59395886D01*
X142487500Y-59264507D01*
X142490160Y-59237499D01*
X142487500Y-59210491D01*
X142487500Y-59210482D01*
X142479542Y-59129681D01*
X142448092Y-59026006D01*
X142397021Y-58930458D01*
X142373408Y-58901686D01*
X142345513Y-58867695D01*
X142345508Y-58867690D01*
X142328290Y-58846710D01*
X142307310Y-58829492D01*
X140808017Y-57330200D01*
X140808013Y-57330195D01*
X139758012Y-56280195D01*
X139740790Y-56259210D01*
X139717967Y-56240479D01*
X139657042Y-56190479D01*
X139655038Y-56189408D01*
X139561494Y-56139408D01*
X139457819Y-56107958D01*
X139377018Y-56100000D01*
X139377008Y-56100000D01*
X139350000Y-56097340D01*
X139322992Y-56100000D01*
X139310407Y-56100000D01*
X139318422Y-56093422D01*
X139418393Y-55971606D01*
X139492679Y-55832628D01*
X139538424Y-55681827D01*
X139550000Y-55564293D01*
X139550000Y-55462112D01*
X140000000Y-55462112D01*
X140000000Y-55737888D01*
X140053801Y-56008365D01*
X140159336Y-56263149D01*
X140312549Y-56492448D01*
X140507552Y-56687451D01*
X140736851Y-56840664D01*
X140991635Y-56946199D01*
X141262112Y-57000000D01*
X141537888Y-57000000D01*
X141808365Y-56946199D01*
X142063149Y-56840664D01*
X142292448Y-56687451D01*
X142487451Y-56492448D01*
X142640664Y-56263149D01*
X142746199Y-56008365D01*
X142800000Y-55737888D01*
X142800000Y-55462112D01*
X142746199Y-55191635D01*
X142640664Y-54936851D01*
X142487451Y-54707552D01*
X142292448Y-54512549D01*
X142063149Y-54359336D01*
X141808365Y-54253801D01*
X141537888Y-54200000D01*
X141262112Y-54200000D01*
X140991635Y-54253801D01*
X140736851Y-54359336D01*
X140507552Y-54512549D01*
X140312549Y-54707552D01*
X140159336Y-54936851D01*
X140053801Y-55191635D01*
X140000000Y-55462112D01*
X139550000Y-55462112D01*
X139550000Y-54935707D01*
X139538424Y-54818173D01*
X139492679Y-54667372D01*
X139418393Y-54528394D01*
X139318422Y-54406578D01*
X139196606Y-54306607D01*
X139057628Y-54232321D01*
X138906827Y-54186576D01*
X138750000Y-54171130D01*
X138593174Y-54186576D01*
X138442373Y-54232321D01*
X138303395Y-54306607D01*
X138181579Y-54406578D01*
X138081608Y-54528394D01*
X138007321Y-54667372D01*
X137961576Y-54818173D01*
X137950000Y-54935707D01*
X137950000Y-55564292D01*
X137961576Y-55681826D01*
X138007321Y-55832627D01*
X138081607Y-55971605D01*
X138181578Y-56093422D01*
X138189593Y-56100000D01*
X136627011Y-56100000D01*
X136600000Y-56097340D01*
X136572990Y-56100000D01*
X136227818Y-56100000D01*
X135508013Y-55380196D01*
X135490790Y-55359210D01*
X135407042Y-55290479D01*
X135311494Y-55239408D01*
X135207819Y-55207958D01*
X135127018Y-55200000D01*
X135127008Y-55200000D01*
X135100000Y-55197340D01*
X135072992Y-55200000D01*
X132877011Y-55200000D01*
X132850000Y-55197340D01*
X132822989Y-55200000D01*
X132822982Y-55200000D01*
X132742181Y-55207958D01*
X132638506Y-55239408D01*
X132550000Y-55286715D01*
X132550000Y-54935707D01*
X132538424Y-54818173D01*
X132492679Y-54667372D01*
X132418393Y-54528394D01*
X132318422Y-54406578D01*
X132196606Y-54306607D01*
X132057628Y-54232321D01*
X131906827Y-54186576D01*
X131750000Y-54171130D01*
X131593174Y-54186576D01*
X131442373Y-54232321D01*
X131303395Y-54306607D01*
X131181579Y-54406578D01*
X131081608Y-54528394D01*
X131007321Y-54667372D01*
X130961576Y-54818173D01*
X130950000Y-54935707D01*
X130950000Y-55564292D01*
X130961576Y-55681826D01*
X131007321Y-55832627D01*
X131081607Y-55971605D01*
X131181578Y-56093422D01*
X131303394Y-56193393D01*
X131442372Y-56267679D01*
X131528406Y-56293777D01*
X131172183Y-56650000D01*
X130927018Y-56650000D01*
X130900000Y-56647339D01*
X130872982Y-56650000D01*
X130792181Y-56657958D01*
X130688505Y-56689408D01*
X130592958Y-56740479D01*
X130530195Y-56791987D01*
X130530190Y-56791992D01*
X130509210Y-56809210D01*
X130491992Y-56830190D01*
X129872183Y-57450000D01*
X128127007Y-57450000D01*
X128099999Y-57447340D01*
X128072991Y-57450000D01*
X128072982Y-57450000D01*
X127992181Y-57457958D01*
X127888506Y-57489408D01*
X127792958Y-57540479D01*
X127792956Y-57540480D01*
X127792957Y-57540480D01*
X127730195Y-57591987D01*
X127730190Y-57591992D01*
X127709210Y-57609210D01*
X127691991Y-57630191D01*
X127375000Y-57947183D01*
X127375000Y-55462112D01*
X127700000Y-55462112D01*
X127700000Y-55737888D01*
X127753801Y-56008365D01*
X127859336Y-56263149D01*
X128012549Y-56492448D01*
X128207552Y-56687451D01*
X128436851Y-56840664D01*
X128691635Y-56946199D01*
X128962112Y-57000000D01*
X129237888Y-57000000D01*
X129508365Y-56946199D01*
X129763149Y-56840664D01*
X129992448Y-56687451D01*
X130187451Y-56492448D01*
X130340664Y-56263149D01*
X130446199Y-56008365D01*
X130500000Y-55737888D01*
X130500000Y-55462112D01*
X130446199Y-55191635D01*
X130340664Y-54936851D01*
X130187451Y-54707552D01*
X129992448Y-54512549D01*
X129763149Y-54359336D01*
X129508365Y-54253801D01*
X129237888Y-54200000D01*
X128962112Y-54200000D01*
X128691635Y-54253801D01*
X128436851Y-54359336D01*
X128207552Y-54512549D01*
X128012549Y-54707552D01*
X127859336Y-54936851D01*
X127753801Y-55191635D01*
X127700000Y-55462112D01*
X127375000Y-55462112D01*
X127375000Y-53875000D01*
X143125000Y-53875000D01*
X143125001Y-72650002D01*
G36*
X139223549Y-69512089D02*
G01*
X139223549Y-69906250D01*
X139233545Y-70007736D01*
X139263147Y-70105322D01*
X139311219Y-70195258D01*
X139375912Y-70274088D01*
X139454742Y-70338781D01*
X139544678Y-70386853D01*
X139575000Y-70396051D01*
X139575000Y-70879133D01*
X139572945Y-70900000D01*
X139575000Y-70920867D01*
X139575000Y-70920873D01*
X139581150Y-70983313D01*
X139605452Y-71063426D01*
X139644916Y-71137259D01*
X139698026Y-71201974D01*
X139714243Y-71215283D01*
X139873960Y-71375000D01*
X135826041Y-71375000D01*
X135553639Y-71102599D01*
X135556200Y-71102851D01*
X135962600Y-71102851D01*
X136021410Y-71097059D01*
X136077960Y-71079904D01*
X136089600Y-71073682D01*
X136101240Y-71079904D01*
X136157790Y-71097059D01*
X136216600Y-71102851D01*
X136623000Y-71102851D01*
X136681810Y-71097059D01*
X136738360Y-71079904D01*
X136750000Y-71073682D01*
X136761640Y-71079904D01*
X136818190Y-71097059D01*
X136877000Y-71102851D01*
X137283400Y-71102851D01*
X137342210Y-71097059D01*
X137398760Y-71079904D01*
X137410400Y-71073682D01*
X137422040Y-71079904D01*
X137478590Y-71097059D01*
X137537400Y-71102851D01*
X137943800Y-71102851D01*
X138002610Y-71097059D01*
X138059160Y-71079904D01*
X138111277Y-71052047D01*
X138156958Y-71014558D01*
X138194447Y-70968877D01*
X138222304Y-70916760D01*
X138239459Y-70860210D01*
X138245251Y-70801400D01*
X138245251Y-69429800D01*
X138239459Y-69370990D01*
X138222304Y-69314440D01*
X138194447Y-69262323D01*
X138165600Y-69227172D01*
X138165600Y-69185440D01*
X138176040Y-69175000D01*
X138886460Y-69175000D01*
X139223549Y-69512089D01*
X139223549Y-69512089D01*
G37*
X139223549Y-69512089D02*
X139223549Y-69906250D01*
X139233545Y-70007736D01*
X139263147Y-70105322D01*
X139311219Y-70195258D01*
X139375912Y-70274088D01*
X139454742Y-70338781D01*
X139544678Y-70386853D01*
X139575000Y-70396051D01*
X139575000Y-70879133D01*
X139572945Y-70900000D01*
X139575000Y-70920867D01*
X139575000Y-70920873D01*
X139581150Y-70983313D01*
X139605452Y-71063426D01*
X139644916Y-71137259D01*
X139698026Y-71201974D01*
X139714243Y-71215283D01*
X139873960Y-71375000D01*
X135826041Y-71375000D01*
X135553639Y-71102599D01*
X135556200Y-71102851D01*
X135962600Y-71102851D01*
X136021410Y-71097059D01*
X136077960Y-71079904D01*
X136089600Y-71073682D01*
X136101240Y-71079904D01*
X136157790Y-71097059D01*
X136216600Y-71102851D01*
X136623000Y-71102851D01*
X136681810Y-71097059D01*
X136738360Y-71079904D01*
X136750000Y-71073682D01*
X136761640Y-71079904D01*
X136818190Y-71097059D01*
X136877000Y-71102851D01*
X137283400Y-71102851D01*
X137342210Y-71097059D01*
X137398760Y-71079904D01*
X137410400Y-71073682D01*
X137422040Y-71079904D01*
X137478590Y-71097059D01*
X137537400Y-71102851D01*
X137943800Y-71102851D01*
X138002610Y-71097059D01*
X138059160Y-71079904D01*
X138111277Y-71052047D01*
X138156958Y-71014558D01*
X138194447Y-70968877D01*
X138222304Y-70916760D01*
X138239459Y-70860210D01*
X138245251Y-70801400D01*
X138245251Y-69429800D01*
X138239459Y-69370990D01*
X138222304Y-69314440D01*
X138194447Y-69262323D01*
X138165600Y-69227172D01*
X138165600Y-69185440D01*
X138176040Y-69175000D01*
X138886460Y-69175000D01*
X139223549Y-69512089D01*
G36*
X133273549Y-68063867D02*
G01*
X133273549Y-68281250D01*
X133283545Y-68382736D01*
X133300001Y-68436984D01*
X133300001Y-68797940D01*
X133277091Y-68788450D01*
X133209472Y-68775000D01*
X133093417Y-68775000D01*
X133098112Y-68771863D01*
X133146863Y-68723112D01*
X133185166Y-68665787D01*
X133211550Y-68602091D01*
X133225000Y-68534472D01*
X133225000Y-68137500D01*
X133137500Y-68050000D01*
X132462500Y-68050000D01*
X132462500Y-68070000D01*
X132412500Y-68070000D01*
X132412500Y-68050000D01*
X132392500Y-68050000D01*
X132392500Y-68000000D01*
X132412500Y-68000000D01*
X132412500Y-67980000D01*
X132462500Y-67980000D01*
X132462500Y-68000000D01*
X133137500Y-68000000D01*
X133173591Y-67963909D01*
X133273549Y-68063867D01*
X133273549Y-68063867D01*
G37*
X133273549Y-68063867D02*
X133273549Y-68281250D01*
X133283545Y-68382736D01*
X133300001Y-68436984D01*
X133300001Y-68797940D01*
X133277091Y-68788450D01*
X133209472Y-68775000D01*
X133093417Y-68775000D01*
X133098112Y-68771863D01*
X133146863Y-68723112D01*
X133185166Y-68665787D01*
X133211550Y-68602091D01*
X133225000Y-68534472D01*
X133225000Y-68137500D01*
X133137500Y-68050000D01*
X132462500Y-68050000D01*
X132462500Y-68070000D01*
X132412500Y-68070000D01*
X132412500Y-68050000D01*
X132392500Y-68050000D01*
X132392500Y-68000000D01*
X132412500Y-68000000D01*
X132412500Y-67980000D01*
X132462500Y-67980000D01*
X132462500Y-68000000D01*
X133137500Y-68000000D01*
X133173591Y-67963909D01*
X133273549Y-68063867D01*
G36*
X138475000Y-63562450D02*
G01*
X138475001Y-66823958D01*
X136844800Y-68454160D01*
X136844800Y-67603728D01*
X136916050Y-67532478D01*
X136981713Y-67434207D01*
X137026942Y-67325014D01*
X137050000Y-67209095D01*
X137050000Y-67090905D01*
X137026942Y-66974986D01*
X136981713Y-66865793D01*
X136916050Y-66767522D01*
X136832478Y-66683950D01*
X136734207Y-66618287D01*
X136625014Y-66573058D01*
X136509095Y-66550000D01*
X136390905Y-66550000D01*
X136274986Y-66573058D01*
X136194746Y-66606294D01*
X137535762Y-65265279D01*
X137551974Y-65251974D01*
X137605084Y-65187260D01*
X137644548Y-65113427D01*
X137667275Y-65038506D01*
X137668850Y-65033315D01*
X137672915Y-64992042D01*
X137675000Y-64970874D01*
X137675000Y-64970868D01*
X137677055Y-64950001D01*
X137675000Y-64929134D01*
X137675000Y-64692464D01*
X137680659Y-64673810D01*
X137686451Y-64615000D01*
X137686451Y-64186451D01*
X138115000Y-64186451D01*
X138173810Y-64180659D01*
X138230360Y-64163504D01*
X138282477Y-64135647D01*
X138328158Y-64098158D01*
X138365647Y-64052477D01*
X138393504Y-64000360D01*
X138410659Y-63943810D01*
X138416451Y-63885000D01*
X138416451Y-63615000D01*
X138410659Y-63556190D01*
X138393613Y-63500000D01*
X138398021Y-63485471D01*
X138475000Y-63562450D01*
X138475000Y-63562450D01*
G37*
X138475000Y-63562450D02*
X138475001Y-66823958D01*
X136844800Y-68454160D01*
X136844800Y-67603728D01*
X136916050Y-67532478D01*
X136981713Y-67434207D01*
X137026942Y-67325014D01*
X137050000Y-67209095D01*
X137050000Y-67090905D01*
X137026942Y-66974986D01*
X136981713Y-66865793D01*
X136916050Y-66767522D01*
X136832478Y-66683950D01*
X136734207Y-66618287D01*
X136625014Y-66573058D01*
X136509095Y-66550000D01*
X136390905Y-66550000D01*
X136274986Y-66573058D01*
X136194746Y-66606294D01*
X137535762Y-65265279D01*
X137551974Y-65251974D01*
X137605084Y-65187260D01*
X137644548Y-65113427D01*
X137667275Y-65038506D01*
X137668850Y-65033315D01*
X137672915Y-64992042D01*
X137675000Y-64970874D01*
X137675000Y-64970868D01*
X137677055Y-64950001D01*
X137675000Y-64929134D01*
X137675000Y-64692464D01*
X137680659Y-64673810D01*
X137686451Y-64615000D01*
X137686451Y-64186451D01*
X138115000Y-64186451D01*
X138173810Y-64180659D01*
X138230360Y-64163504D01*
X138282477Y-64135647D01*
X138328158Y-64098158D01*
X138365647Y-64052477D01*
X138393504Y-64000360D01*
X138410659Y-63943810D01*
X138416451Y-63885000D01*
X138416451Y-63615000D01*
X138410659Y-63556190D01*
X138393613Y-63500000D01*
X138398021Y-63485471D01*
X138475000Y-63562450D01*
G36*
X132925001Y-65329124D02*
G01*
X132922945Y-65350000D01*
X132931150Y-65433314D01*
X132951953Y-65501888D01*
X132955453Y-65513427D01*
X132994917Y-65587260D01*
X133048027Y-65651974D01*
X133064239Y-65665279D01*
X133634721Y-66235762D01*
X133648026Y-66251974D01*
X133664238Y-66265279D01*
X133664239Y-66265280D01*
X133670456Y-66270382D01*
X133712740Y-66305084D01*
X133786573Y-66344548D01*
X133842383Y-66361478D01*
X133866685Y-66368850D01*
X133875098Y-66369679D01*
X133929126Y-66375000D01*
X133929132Y-66375000D01*
X133949999Y-66377055D01*
X133970866Y-66375000D01*
X135029133Y-66375000D01*
X135050000Y-66377055D01*
X135070867Y-66375000D01*
X135070874Y-66375000D01*
X135133314Y-66368850D01*
X135213427Y-66344548D01*
X135287260Y-66305084D01*
X135324155Y-66274805D01*
X134664243Y-66934717D01*
X134648026Y-66948026D01*
X134594916Y-67012741D01*
X134555452Y-67086574D01*
X134553242Y-67093860D01*
X134532139Y-67163428D01*
X134531150Y-67166687D01*
X134525000Y-67229127D01*
X134525000Y-67229133D01*
X134522945Y-67250000D01*
X134525000Y-67270867D01*
X134525000Y-67340111D01*
X134520258Y-67336219D01*
X134430322Y-67288147D01*
X134332736Y-67258545D01*
X134231250Y-67248549D01*
X134013867Y-67248549D01*
X133295513Y-66530196D01*
X133278290Y-66509210D01*
X133194542Y-66440479D01*
X133098994Y-66389408D01*
X132995319Y-66357958D01*
X132914518Y-66350000D01*
X132914508Y-66350000D01*
X132887500Y-66347340D01*
X132860492Y-66350000D01*
X132860358Y-66350000D01*
X132804526Y-66294168D01*
X132935339Y-66269373D01*
X133001030Y-66147601D01*
X133041703Y-66015354D01*
X133055794Y-65877712D01*
X133042761Y-65739967D01*
X133003106Y-65607410D01*
X132938352Y-65485137D01*
X132935339Y-65480627D01*
X132804523Y-65455832D01*
X132385355Y-65875000D01*
X132399498Y-65889143D01*
X132364143Y-65924498D01*
X132350000Y-65910355D01*
X132335858Y-65924498D01*
X132300503Y-65889143D01*
X132314645Y-65875000D01*
X132300503Y-65860858D01*
X132335858Y-65825503D01*
X132350000Y-65839645D01*
X132769168Y-65420477D01*
X132744373Y-65289661D01*
X132682811Y-65256451D01*
X132700000Y-65256451D01*
X132758810Y-65250659D01*
X132815360Y-65233504D01*
X132867477Y-65205647D01*
X132913158Y-65168158D01*
X132925001Y-65153727D01*
X132925001Y-65329124D01*
X132925001Y-65329124D01*
G37*
X132925001Y-65329124D02*
X132922945Y-65350000D01*
X132931150Y-65433314D01*
X132951953Y-65501888D01*
X132955453Y-65513427D01*
X132994917Y-65587260D01*
X133048027Y-65651974D01*
X133064239Y-65665279D01*
X133634721Y-66235762D01*
X133648026Y-66251974D01*
X133664238Y-66265279D01*
X133664239Y-66265280D01*
X133670456Y-66270382D01*
X133712740Y-66305084D01*
X133786573Y-66344548D01*
X133842383Y-66361478D01*
X133866685Y-66368850D01*
X133875098Y-66369679D01*
X133929126Y-66375000D01*
X133929132Y-66375000D01*
X133949999Y-66377055D01*
X133970866Y-66375000D01*
X135029133Y-66375000D01*
X135050000Y-66377055D01*
X135070867Y-66375000D01*
X135070874Y-66375000D01*
X135133314Y-66368850D01*
X135213427Y-66344548D01*
X135287260Y-66305084D01*
X135324155Y-66274805D01*
X134664243Y-66934717D01*
X134648026Y-66948026D01*
X134594916Y-67012741D01*
X134555452Y-67086574D01*
X134553242Y-67093860D01*
X134532139Y-67163428D01*
X134531150Y-67166687D01*
X134525000Y-67229127D01*
X134525000Y-67229133D01*
X134522945Y-67250000D01*
X134525000Y-67270867D01*
X134525000Y-67340111D01*
X134520258Y-67336219D01*
X134430322Y-67288147D01*
X134332736Y-67258545D01*
X134231250Y-67248549D01*
X134013867Y-67248549D01*
X133295513Y-66530196D01*
X133278290Y-66509210D01*
X133194542Y-66440479D01*
X133098994Y-66389408D01*
X132995319Y-66357958D01*
X132914518Y-66350000D01*
X132914508Y-66350000D01*
X132887500Y-66347340D01*
X132860492Y-66350000D01*
X132860358Y-66350000D01*
X132804526Y-66294168D01*
X132935339Y-66269373D01*
X133001030Y-66147601D01*
X133041703Y-66015354D01*
X133055794Y-65877712D01*
X133042761Y-65739967D01*
X133003106Y-65607410D01*
X132938352Y-65485137D01*
X132935339Y-65480627D01*
X132804523Y-65455832D01*
X132385355Y-65875000D01*
X132399498Y-65889143D01*
X132364143Y-65924498D01*
X132350000Y-65910355D01*
X132335858Y-65924498D01*
X132300503Y-65889143D01*
X132314645Y-65875000D01*
X132300503Y-65860858D01*
X132335858Y-65825503D01*
X132350000Y-65839645D01*
X132769168Y-65420477D01*
X132744373Y-65289661D01*
X132682811Y-65256451D01*
X132700000Y-65256451D01*
X132758810Y-65250659D01*
X132815360Y-65233504D01*
X132867477Y-65205647D01*
X132913158Y-65168158D01*
X132925001Y-65153727D01*
X132925001Y-65329124D01*
G36*
X134275000Y-64280000D02*
G01*
X134295000Y-64280000D01*
X134295000Y-64330000D01*
X134275000Y-64330000D01*
X134275000Y-64877500D01*
X134362500Y-64965000D01*
X134419472Y-64965000D01*
X134487091Y-64951550D01*
X134550787Y-64925166D01*
X134570403Y-64912059D01*
X134615000Y-64916451D01*
X134885000Y-64916451D01*
X134943810Y-64910659D01*
X135000000Y-64893613D01*
X135056190Y-64910659D01*
X135115000Y-64916451D01*
X135325000Y-64916451D01*
X135325000Y-65073959D01*
X134873960Y-65525000D01*
X134126041Y-65525000D01*
X133775000Y-65173960D01*
X133775000Y-64699746D01*
X133778450Y-64717091D01*
X133804834Y-64780787D01*
X133843137Y-64838112D01*
X133891888Y-64886863D01*
X133949213Y-64925166D01*
X134012909Y-64951550D01*
X134080528Y-64965000D01*
X134137500Y-64965000D01*
X134225000Y-64877500D01*
X134225000Y-64330000D01*
X134205000Y-64330000D01*
X134205000Y-64280000D01*
X134225000Y-64280000D01*
X134225000Y-64260000D01*
X134275000Y-64260000D01*
X134275000Y-64280000D01*
X134275000Y-64280000D01*
G37*
X134275000Y-64280000D02*
X134295000Y-64280000D01*
X134295000Y-64330000D01*
X134275000Y-64330000D01*
X134275000Y-64877500D01*
X134362500Y-64965000D01*
X134419472Y-64965000D01*
X134487091Y-64951550D01*
X134550787Y-64925166D01*
X134570403Y-64912059D01*
X134615000Y-64916451D01*
X134885000Y-64916451D01*
X134943810Y-64910659D01*
X135000000Y-64893613D01*
X135056190Y-64910659D01*
X135115000Y-64916451D01*
X135325000Y-64916451D01*
X135325000Y-65073959D01*
X134873960Y-65525000D01*
X134126041Y-65525000D01*
X133775000Y-65173960D01*
X133775000Y-64699746D01*
X133778450Y-64717091D01*
X133804834Y-64780787D01*
X133843137Y-64838112D01*
X133891888Y-64886863D01*
X133949213Y-64925166D01*
X134012909Y-64951550D01*
X134080528Y-64965000D01*
X134137500Y-64965000D01*
X134225000Y-64877500D01*
X134225000Y-64330000D01*
X134205000Y-64330000D01*
X134205000Y-64280000D01*
X134225000Y-64280000D01*
X134225000Y-64260000D01*
X134275000Y-64260000D01*
X134275000Y-64280000D01*
G36*
X135125000Y-63179133D02*
G01*
X135122945Y-63200000D01*
X135125000Y-63220867D01*
X135125000Y-63220873D01*
X135131150Y-63283313D01*
X135155452Y-63363426D01*
X135194916Y-63437259D01*
X135248026Y-63501974D01*
X135264243Y-63515283D01*
X135450256Y-63701297D01*
X135443810Y-63699341D01*
X135385000Y-63693549D01*
X135115000Y-63693549D01*
X135056190Y-63699341D01*
X135000000Y-63716387D01*
X134943810Y-63699341D01*
X134885000Y-63693549D01*
X134615000Y-63693549D01*
X134570403Y-63697941D01*
X134550787Y-63684834D01*
X134487091Y-63658450D01*
X134419472Y-63645000D01*
X134362500Y-63645000D01*
X134306451Y-63701049D01*
X134306451Y-63615000D01*
X134300659Y-63556190D01*
X134283613Y-63500000D01*
X134300659Y-63443810D01*
X134306451Y-63385000D01*
X134306451Y-63115000D01*
X134300659Y-63056190D01*
X134283613Y-63000000D01*
X134300659Y-62943810D01*
X134306451Y-62885000D01*
X134306451Y-62615000D01*
X134300659Y-62556190D01*
X134283613Y-62500000D01*
X134300659Y-62443810D01*
X134306451Y-62385000D01*
X134306451Y-62115000D01*
X134300659Y-62056190D01*
X134283613Y-62000000D01*
X134300659Y-61943810D01*
X134306451Y-61885000D01*
X134306451Y-61875471D01*
X134315793Y-61881713D01*
X134424986Y-61926942D01*
X134540905Y-61950000D01*
X134659095Y-61950000D01*
X134775014Y-61926942D01*
X134884207Y-61881713D01*
X134982478Y-61816050D01*
X135023528Y-61775000D01*
X135125001Y-61775000D01*
X135125000Y-63179133D01*
X135125000Y-63179133D01*
G37*
X135125000Y-63179133D02*
X135122945Y-63200000D01*
X135125000Y-63220867D01*
X135125000Y-63220873D01*
X135131150Y-63283313D01*
X135155452Y-63363426D01*
X135194916Y-63437259D01*
X135248026Y-63501974D01*
X135264243Y-63515283D01*
X135450256Y-63701297D01*
X135443810Y-63699341D01*
X135385000Y-63693549D01*
X135115000Y-63693549D01*
X135056190Y-63699341D01*
X135000000Y-63716387D01*
X134943810Y-63699341D01*
X134885000Y-63693549D01*
X134615000Y-63693549D01*
X134570403Y-63697941D01*
X134550787Y-63684834D01*
X134487091Y-63658450D01*
X134419472Y-63645000D01*
X134362500Y-63645000D01*
X134306451Y-63701049D01*
X134306451Y-63615000D01*
X134300659Y-63556190D01*
X134283613Y-63500000D01*
X134300659Y-63443810D01*
X134306451Y-63385000D01*
X134306451Y-63115000D01*
X134300659Y-63056190D01*
X134283613Y-63000000D01*
X134300659Y-62943810D01*
X134306451Y-62885000D01*
X134306451Y-62615000D01*
X134300659Y-62556190D01*
X134283613Y-62500000D01*
X134300659Y-62443810D01*
X134306451Y-62385000D01*
X134306451Y-62115000D01*
X134300659Y-62056190D01*
X134283613Y-62000000D01*
X134300659Y-61943810D01*
X134306451Y-61885000D01*
X134306451Y-61875471D01*
X134315793Y-61881713D01*
X134424986Y-61926942D01*
X134540905Y-61950000D01*
X134659095Y-61950000D01*
X134775014Y-61926942D01*
X134884207Y-61881713D01*
X134982478Y-61816050D01*
X135023528Y-61775000D01*
X135125001Y-61775000D01*
X135125000Y-63179133D01*
G36*
X139975001Y-58052819D02*
G01*
X139975000Y-58373959D01*
X139314239Y-59034721D01*
X139298027Y-59048026D01*
X139244916Y-59112740D01*
X139205452Y-59186573D01*
X139181150Y-59266686D01*
X139175000Y-59329126D01*
X139175000Y-59329133D01*
X139172945Y-59350000D01*
X139175000Y-59370867D01*
X139175000Y-59547548D01*
X139172935Y-59568516D01*
X139174991Y-59589392D01*
X139174990Y-60510617D01*
X139172935Y-60531484D01*
X139174990Y-60552351D01*
X139174990Y-60552357D01*
X139177826Y-60581150D01*
X139181140Y-60614798D01*
X139182965Y-60620814D01*
X139205442Y-60694910D01*
X139244906Y-60768743D01*
X139298016Y-60833458D01*
X139314233Y-60846767D01*
X139525245Y-61057780D01*
X139523549Y-61075000D01*
X139523549Y-62125000D01*
X139529341Y-62183810D01*
X139546496Y-62240360D01*
X139574353Y-62292477D01*
X139601058Y-62325018D01*
X139074999Y-61798959D01*
X139074999Y-59870865D01*
X139077054Y-59849998D01*
X139074999Y-59829131D01*
X139074999Y-59829125D01*
X139068849Y-59766685D01*
X139064387Y-59751974D01*
X139055206Y-59721710D01*
X139044547Y-59686572D01*
X139005083Y-59612739D01*
X138971529Y-59571854D01*
X138965279Y-59564238D01*
X138965278Y-59564237D01*
X138951973Y-59548025D01*
X138935762Y-59534721D01*
X138265283Y-58864243D01*
X138251974Y-58848026D01*
X138187260Y-58794916D01*
X138113427Y-58755452D01*
X138033314Y-58731150D01*
X137970874Y-58725000D01*
X137970867Y-58725000D01*
X137954465Y-58723385D01*
X138051926Y-58713786D01*
X138198014Y-58669470D01*
X138332650Y-58597506D01*
X138450659Y-58500659D01*
X138547506Y-58382650D01*
X138619470Y-58248014D01*
X138663786Y-58101926D01*
X138678749Y-57950000D01*
X138663786Y-57798074D01*
X138619470Y-57651986D01*
X138547506Y-57517350D01*
X138450659Y-57399341D01*
X138332650Y-57302494D01*
X138198014Y-57230530D01*
X138097372Y-57200000D01*
X139122183Y-57200000D01*
X139975001Y-58052819D01*
X139975001Y-58052819D01*
G37*
X139975001Y-58052819D02*
X139975000Y-58373959D01*
X139314239Y-59034721D01*
X139298027Y-59048026D01*
X139244916Y-59112740D01*
X139205452Y-59186573D01*
X139181150Y-59266686D01*
X139175000Y-59329126D01*
X139175000Y-59329133D01*
X139172945Y-59350000D01*
X139175000Y-59370867D01*
X139175000Y-59547548D01*
X139172935Y-59568516D01*
X139174991Y-59589392D01*
X139174990Y-60510617D01*
X139172935Y-60531484D01*
X139174990Y-60552351D01*
X139174990Y-60552357D01*
X139177826Y-60581150D01*
X139181140Y-60614798D01*
X139182965Y-60620814D01*
X139205442Y-60694910D01*
X139244906Y-60768743D01*
X139298016Y-60833458D01*
X139314233Y-60846767D01*
X139525245Y-61057780D01*
X139523549Y-61075000D01*
X139523549Y-62125000D01*
X139529341Y-62183810D01*
X139546496Y-62240360D01*
X139574353Y-62292477D01*
X139601058Y-62325018D01*
X139074999Y-61798959D01*
X139074999Y-59870865D01*
X139077054Y-59849998D01*
X139074999Y-59829131D01*
X139074999Y-59829125D01*
X139068849Y-59766685D01*
X139064387Y-59751974D01*
X139055206Y-59721710D01*
X139044547Y-59686572D01*
X139005083Y-59612739D01*
X138971529Y-59571854D01*
X138965279Y-59564238D01*
X138965278Y-59564237D01*
X138951973Y-59548025D01*
X138935762Y-59534721D01*
X138265283Y-58864243D01*
X138251974Y-58848026D01*
X138187260Y-58794916D01*
X138113427Y-58755452D01*
X138033314Y-58731150D01*
X137970874Y-58725000D01*
X137970867Y-58725000D01*
X137954465Y-58723385D01*
X138051926Y-58713786D01*
X138198014Y-58669470D01*
X138332650Y-58597506D01*
X138450659Y-58500659D01*
X138547506Y-58382650D01*
X138619470Y-58248014D01*
X138663786Y-58101926D01*
X138678749Y-57950000D01*
X138663786Y-57798074D01*
X138619470Y-57651986D01*
X138547506Y-57517350D01*
X138450659Y-57399341D01*
X138332650Y-57302494D01*
X138198014Y-57230530D01*
X138097372Y-57200000D01*
X139122183Y-57200000D01*
X139975001Y-58052819D01*
G36*
X136775000Y-60170000D02*
G01*
X136795000Y-60170000D01*
X136795000Y-60220000D01*
X136775000Y-60220000D01*
X136775000Y-60767500D01*
X136862500Y-60855000D01*
X136919472Y-60855000D01*
X136987091Y-60841550D01*
X137050787Y-60815166D01*
X137070403Y-60802059D01*
X137115000Y-60806451D01*
X137193549Y-60806451D01*
X137193549Y-60828012D01*
X137170986Y-60830234D01*
X137161685Y-60831150D01*
X137148447Y-60835166D01*
X137081573Y-60855452D01*
X137007740Y-60894916D01*
X136943026Y-60948026D01*
X136929716Y-60964244D01*
X136812961Y-61080999D01*
X136796743Y-61094309D01*
X136743633Y-61159024D01*
X136704169Y-61232857D01*
X136688444Y-61284696D01*
X136680017Y-61312477D01*
X136679867Y-61312970D01*
X136673717Y-61375410D01*
X136673717Y-61375416D01*
X136671662Y-61396283D01*
X136673717Y-61417150D01*
X136673717Y-61438830D01*
X136520206Y-61592341D01*
X136484207Y-61568287D01*
X136375014Y-61523058D01*
X136259095Y-61500000D01*
X136140905Y-61500000D01*
X136024986Y-61523058D01*
X135975000Y-61543763D01*
X135975000Y-61526040D01*
X136535763Y-60965278D01*
X136551974Y-60951974D01*
X136605084Y-60887260D01*
X136622327Y-60855000D01*
X136637500Y-60855000D01*
X136725000Y-60767500D01*
X136725000Y-60220000D01*
X136705000Y-60220000D01*
X136705000Y-60170000D01*
X136725000Y-60170000D01*
X136725000Y-60150000D01*
X136775000Y-60150000D01*
X136775000Y-60170000D01*
X136775000Y-60170000D01*
G37*
X136775000Y-60170000D02*
X136795000Y-60170000D01*
X136795000Y-60220000D01*
X136775000Y-60220000D01*
X136775000Y-60767500D01*
X136862500Y-60855000D01*
X136919472Y-60855000D01*
X136987091Y-60841550D01*
X137050787Y-60815166D01*
X137070403Y-60802059D01*
X137115000Y-60806451D01*
X137193549Y-60806451D01*
X137193549Y-60828012D01*
X137170986Y-60830234D01*
X137161685Y-60831150D01*
X137148447Y-60835166D01*
X137081573Y-60855452D01*
X137007740Y-60894916D01*
X136943026Y-60948026D01*
X136929716Y-60964244D01*
X136812961Y-61080999D01*
X136796743Y-61094309D01*
X136743633Y-61159024D01*
X136704169Y-61232857D01*
X136688444Y-61284696D01*
X136680017Y-61312477D01*
X136679867Y-61312970D01*
X136673717Y-61375410D01*
X136673717Y-61375416D01*
X136671662Y-61396283D01*
X136673717Y-61417150D01*
X136673717Y-61438830D01*
X136520206Y-61592341D01*
X136484207Y-61568287D01*
X136375014Y-61523058D01*
X136259095Y-61500000D01*
X136140905Y-61500000D01*
X136024986Y-61523058D01*
X135975000Y-61543763D01*
X135975000Y-61526040D01*
X136535763Y-60965278D01*
X136551974Y-60951974D01*
X136605084Y-60887260D01*
X136622327Y-60855000D01*
X136637500Y-60855000D01*
X136725000Y-60767500D01*
X136725000Y-60220000D01*
X136705000Y-60220000D01*
X136705000Y-60170000D01*
X136725000Y-60170000D01*
X136725000Y-60150000D01*
X136775000Y-60150000D01*
X136775000Y-60170000D01*
G36*
X135572488Y-57000306D02*
G01*
X135565360Y-56996496D01*
X135508810Y-56979341D01*
X135450000Y-56973549D01*
X135050000Y-56973549D01*
X134991190Y-56979341D01*
X134934640Y-56996496D01*
X134925000Y-57001649D01*
X134915360Y-56996496D01*
X134858810Y-56979341D01*
X134800000Y-56973549D01*
X134400000Y-56973549D01*
X134341190Y-56979341D01*
X134338651Y-56980111D01*
X134315787Y-56964834D01*
X134252091Y-56938450D01*
X134184472Y-56925000D01*
X134062500Y-56925000D01*
X133975000Y-57012500D01*
X133975000Y-57925000D01*
X133995000Y-57925000D01*
X133995000Y-57975000D01*
X133975000Y-57975000D01*
X133975000Y-58887500D01*
X134062500Y-58975000D01*
X134184472Y-58975000D01*
X134252091Y-58961550D01*
X134315787Y-58935166D01*
X134338651Y-58919889D01*
X134341190Y-58920659D01*
X134400000Y-58926451D01*
X134597509Y-58926451D01*
X134464239Y-59059721D01*
X134448027Y-59073026D01*
X134412836Y-59115906D01*
X134387260Y-59094916D01*
X134313427Y-59055452D01*
X134233314Y-59031150D01*
X134170874Y-59025000D01*
X134170867Y-59025000D01*
X134150000Y-59022945D01*
X134129133Y-59025000D01*
X133570866Y-59025000D01*
X133549999Y-59022945D01*
X133529132Y-59025000D01*
X133529126Y-59025000D01*
X133475098Y-59030321D01*
X133466685Y-59031150D01*
X133442700Y-59038426D01*
X133386573Y-59055452D01*
X133312740Y-59094916D01*
X133248026Y-59148026D01*
X133234721Y-59164238D01*
X132991751Y-59407208D01*
X132977329Y-59334702D01*
X132928150Y-59215973D01*
X132856752Y-59109119D01*
X132765881Y-59018248D01*
X132659027Y-58946850D01*
X132540298Y-58897671D01*
X132414256Y-58872600D01*
X132285744Y-58872600D01*
X132159702Y-58897671D01*
X132040973Y-58946850D01*
X131934119Y-59018248D01*
X131843248Y-59109119D01*
X131771850Y-59215973D01*
X131722671Y-59334702D01*
X131697600Y-59460744D01*
X131697600Y-59589256D01*
X131722671Y-59715298D01*
X131771850Y-59834027D01*
X131843248Y-59940881D01*
X131934119Y-60031752D01*
X132040973Y-60103150D01*
X132138505Y-60143549D01*
X132000000Y-60143549D01*
X131941190Y-60149341D01*
X131884640Y-60166496D01*
X131832523Y-60194353D01*
X131786842Y-60231842D01*
X131749353Y-60277523D01*
X131721496Y-60329640D01*
X131704341Y-60386190D01*
X131698549Y-60445000D01*
X131698549Y-61062460D01*
X131450000Y-60813911D01*
X131450000Y-57950000D01*
X131821251Y-57950000D01*
X131836214Y-58101926D01*
X131880530Y-58248014D01*
X131952494Y-58382650D01*
X132049341Y-58500659D01*
X132167350Y-58597506D01*
X132301986Y-58669470D01*
X132448074Y-58713786D01*
X132561935Y-58725000D01*
X132938065Y-58725000D01*
X133051926Y-58713786D01*
X133198014Y-58669470D01*
X133332650Y-58597506D01*
X133400000Y-58542234D01*
X133400000Y-58659472D01*
X133413450Y-58727091D01*
X133439834Y-58790787D01*
X133478137Y-58848112D01*
X133526888Y-58896863D01*
X133584213Y-58935166D01*
X133647909Y-58961550D01*
X133715528Y-58975000D01*
X133837500Y-58975000D01*
X133925000Y-58887500D01*
X133925000Y-57975000D01*
X133905000Y-57975000D01*
X133905000Y-57925000D01*
X133925000Y-57925000D01*
X133925000Y-57012500D01*
X133837500Y-56925000D01*
X133715528Y-56925000D01*
X133647909Y-56938450D01*
X133584213Y-56964834D01*
X133526888Y-57003137D01*
X133478137Y-57051888D01*
X133439834Y-57109213D01*
X133413450Y-57172909D01*
X133400000Y-57240528D01*
X133400000Y-57357766D01*
X133332650Y-57302494D01*
X133198014Y-57230530D01*
X133051926Y-57186214D01*
X132938065Y-57175000D01*
X132561935Y-57175000D01*
X132448074Y-57186214D01*
X132301986Y-57230530D01*
X132167350Y-57302494D01*
X132049341Y-57399341D01*
X131952494Y-57517350D01*
X131880530Y-57651986D01*
X131836214Y-57798074D01*
X131821251Y-57950000D01*
X131450000Y-57950000D01*
X131450000Y-57747737D01*
X131507819Y-57742042D01*
X131611494Y-57710592D01*
X131707042Y-57659521D01*
X131790790Y-57590790D01*
X131808013Y-57569804D01*
X133077817Y-56300000D01*
X134872183Y-56300000D01*
X135572488Y-57000306D01*
X135572488Y-57000306D01*
G37*
X135572488Y-57000306D02*
X135565360Y-56996496D01*
X135508810Y-56979341D01*
X135450000Y-56973549D01*
X135050000Y-56973549D01*
X134991190Y-56979341D01*
X134934640Y-56996496D01*
X134925000Y-57001649D01*
X134915360Y-56996496D01*
X134858810Y-56979341D01*
X134800000Y-56973549D01*
X134400000Y-56973549D01*
X134341190Y-56979341D01*
X134338651Y-56980111D01*
X134315787Y-56964834D01*
X134252091Y-56938450D01*
X134184472Y-56925000D01*
X134062500Y-56925000D01*
X133975000Y-57012500D01*
X133975000Y-57925000D01*
X133995000Y-57925000D01*
X133995000Y-57975000D01*
X133975000Y-57975000D01*
X133975000Y-58887500D01*
X134062500Y-58975000D01*
X134184472Y-58975000D01*
X134252091Y-58961550D01*
X134315787Y-58935166D01*
X134338651Y-58919889D01*
X134341190Y-58920659D01*
X134400000Y-58926451D01*
X134597509Y-58926451D01*
X134464239Y-59059721D01*
X134448027Y-59073026D01*
X134412836Y-59115906D01*
X134387260Y-59094916D01*
X134313427Y-59055452D01*
X134233314Y-59031150D01*
X134170874Y-59025000D01*
X134170867Y-59025000D01*
X134150000Y-59022945D01*
X134129133Y-59025000D01*
X133570866Y-59025000D01*
X133549999Y-59022945D01*
X133529132Y-59025000D01*
X133529126Y-59025000D01*
X133475098Y-59030321D01*
X133466685Y-59031150D01*
X133442700Y-59038426D01*
X133386573Y-59055452D01*
X133312740Y-59094916D01*
X133248026Y-59148026D01*
X133234721Y-59164238D01*
X132991751Y-59407208D01*
X132977329Y-59334702D01*
X132928150Y-59215973D01*
X132856752Y-59109119D01*
X132765881Y-59018248D01*
X132659027Y-58946850D01*
X132540298Y-58897671D01*
X132414256Y-58872600D01*
X132285744Y-58872600D01*
X132159702Y-58897671D01*
X132040973Y-58946850D01*
X131934119Y-59018248D01*
X131843248Y-59109119D01*
X131771850Y-59215973D01*
X131722671Y-59334702D01*
X131697600Y-59460744D01*
X131697600Y-59589256D01*
X131722671Y-59715298D01*
X131771850Y-59834027D01*
X131843248Y-59940881D01*
X131934119Y-60031752D01*
X132040973Y-60103150D01*
X132138505Y-60143549D01*
X132000000Y-60143549D01*
X131941190Y-60149341D01*
X131884640Y-60166496D01*
X131832523Y-60194353D01*
X131786842Y-60231842D01*
X131749353Y-60277523D01*
X131721496Y-60329640D01*
X131704341Y-60386190D01*
X131698549Y-60445000D01*
X131698549Y-61062460D01*
X131450000Y-60813911D01*
X131450000Y-57950000D01*
X131821251Y-57950000D01*
X131836214Y-58101926D01*
X131880530Y-58248014D01*
X131952494Y-58382650D01*
X132049341Y-58500659D01*
X132167350Y-58597506D01*
X132301986Y-58669470D01*
X132448074Y-58713786D01*
X132561935Y-58725000D01*
X132938065Y-58725000D01*
X133051926Y-58713786D01*
X133198014Y-58669470D01*
X133332650Y-58597506D01*
X133400000Y-58542234D01*
X133400000Y-58659472D01*
X133413450Y-58727091D01*
X133439834Y-58790787D01*
X133478137Y-58848112D01*
X133526888Y-58896863D01*
X133584213Y-58935166D01*
X133647909Y-58961550D01*
X133715528Y-58975000D01*
X133837500Y-58975000D01*
X133925000Y-58887500D01*
X133925000Y-57975000D01*
X133905000Y-57975000D01*
X133905000Y-57925000D01*
X133925000Y-57925000D01*
X133925000Y-57012500D01*
X133837500Y-56925000D01*
X133715528Y-56925000D01*
X133647909Y-56938450D01*
X133584213Y-56964834D01*
X133526888Y-57003137D01*
X133478137Y-57051888D01*
X133439834Y-57109213D01*
X133413450Y-57172909D01*
X133400000Y-57240528D01*
X133400000Y-57357766D01*
X133332650Y-57302494D01*
X133198014Y-57230530D01*
X133051926Y-57186214D01*
X132938065Y-57175000D01*
X132561935Y-57175000D01*
X132448074Y-57186214D01*
X132301986Y-57230530D01*
X132167350Y-57302494D01*
X132049341Y-57399341D01*
X131952494Y-57517350D01*
X131880530Y-57651986D01*
X131836214Y-57798074D01*
X131821251Y-57950000D01*
X131450000Y-57950000D01*
X131450000Y-57747737D01*
X131507819Y-57742042D01*
X131611494Y-57710592D01*
X131707042Y-57659521D01*
X131790790Y-57590790D01*
X131808013Y-57569804D01*
X133077817Y-56300000D01*
X134872183Y-56300000D01*
X135572488Y-57000306D01*
G36*
X141349642Y-59427460D02*
G01*
X141286219Y-59504742D01*
X141238147Y-59594678D01*
X141208545Y-59692264D01*
X141198549Y-59793750D01*
X141198549Y-60306250D01*
X141208545Y-60407736D01*
X141238147Y-60505322D01*
X141286219Y-60595258D01*
X141350912Y-60674088D01*
X141429742Y-60738781D01*
X141436119Y-60742189D01*
X141427091Y-60738450D01*
X141359472Y-60725000D01*
X141162500Y-60725000D01*
X141075002Y-60812498D01*
X141075002Y-60743414D01*
X141110166Y-60690787D01*
X141136550Y-60627091D01*
X141150000Y-60559472D01*
X141150000Y-60162500D01*
X141062500Y-60075000D01*
X140387500Y-60075000D01*
X140387500Y-60095000D01*
X140337500Y-60095000D01*
X140337500Y-60075000D01*
X140317500Y-60075000D01*
X140317500Y-60025000D01*
X140337500Y-60025000D01*
X140337500Y-59312500D01*
X140387500Y-59312500D01*
X140387500Y-60025000D01*
X141062500Y-60025000D01*
X141150000Y-59937500D01*
X141150000Y-59540528D01*
X141136550Y-59472909D01*
X141110166Y-59409213D01*
X141071863Y-59351888D01*
X141023112Y-59303137D01*
X140965787Y-59264834D01*
X140902091Y-59238450D01*
X140834472Y-59225000D01*
X140475000Y-59225000D01*
X140387500Y-59312500D01*
X140337500Y-59312500D01*
X140288020Y-59263020D01*
X140685763Y-58865278D01*
X140701974Y-58851974D01*
X140734511Y-58812328D01*
X141349642Y-59427460D01*
X141349642Y-59427460D01*
G37*
X141349642Y-59427460D02*
X141286219Y-59504742D01*
X141238147Y-59594678D01*
X141208545Y-59692264D01*
X141198549Y-59793750D01*
X141198549Y-60306250D01*
X141208545Y-60407736D01*
X141238147Y-60505322D01*
X141286219Y-60595258D01*
X141350912Y-60674088D01*
X141429742Y-60738781D01*
X141436119Y-60742189D01*
X141427091Y-60738450D01*
X141359472Y-60725000D01*
X141162500Y-60725000D01*
X141075002Y-60812498D01*
X141075002Y-60743414D01*
X141110166Y-60690787D01*
X141136550Y-60627091D01*
X141150000Y-60559472D01*
X141150000Y-60162500D01*
X141062500Y-60075000D01*
X140387500Y-60075000D01*
X140387500Y-60095000D01*
X140337500Y-60095000D01*
X140337500Y-60075000D01*
X140317500Y-60075000D01*
X140317500Y-60025000D01*
X140337500Y-60025000D01*
X140337500Y-59312500D01*
X140387500Y-59312500D01*
X140387500Y-60025000D01*
X141062500Y-60025000D01*
X141150000Y-59937500D01*
X141150000Y-59540528D01*
X141136550Y-59472909D01*
X141110166Y-59409213D01*
X141071863Y-59351888D01*
X141023112Y-59303137D01*
X140965787Y-59264834D01*
X140902091Y-59238450D01*
X140834472Y-59225000D01*
X140475000Y-59225000D01*
X140387500Y-59312500D01*
X140337500Y-59312500D01*
X140288020Y-59263020D01*
X140685763Y-58865278D01*
X140701974Y-58851974D01*
X140734511Y-58812328D01*
X141349642Y-59427460D01*
G36*
X141024998Y-60812498D02*
G01*
X141014870Y-60802370D01*
X141023112Y-60796863D01*
X141024998Y-60794977D01*
X141024998Y-60812498D01*
X141024998Y-60812498D01*
G37*
X141024998Y-60812498D02*
X141014870Y-60802370D01*
X141023112Y-60796863D01*
X141024998Y-60794977D01*
X141024998Y-60812498D01*
M02*
