G04 #@! TF.GenerationSoftware,KiCad,Pcbnew,6.0.0-rc1-unknown-bb2e402~84~ubuntu18.04.1*
G04 #@! TF.CreationDate,2019-10-14T10:53:54-04:00
G04 #@! TF.ProjectId,pmtcmini-h10770,706d7463-6d69-46e6-992d-683130373730,rev?*
G04 #@! TF.SameCoordinates,Original*
G04 #@! TF.FileFunction,Legend,Bot*
G04 #@! TF.FilePolarity,Positive*
%FSLAX46Y46*%
G04 Gerber Fmt 4.6, Leading zero omitted, Abs format (unit mm)*
G04 Created by KiCad (PCBNEW 6.0.0-rc1-unknown-bb2e402~84~ubuntu18.04.1) date Mon 14 Oct 2019 10:53:54 AM EDT*
%MOMM*%
%LPD*%
G04 APERTURE LIST*
%ADD10C,0.150000*%
%ADD11C,0.120000*%
%ADD12C,0.100000*%
G04 APERTURE END LIST*
D10*
X143161904Y-63542857D02*
X142361904Y-63542857D01*
X142361904Y-63847619D01*
X142400000Y-63923809D01*
X142438095Y-63961904D01*
X142514285Y-64000000D01*
X142628571Y-64000000D01*
X142704761Y-63961904D01*
X142742857Y-63923809D01*
X142780952Y-63847619D01*
X142780952Y-63542857D01*
X143161904Y-64342857D02*
X142361904Y-64342857D01*
X142933333Y-64609523D01*
X142361904Y-64876190D01*
X143161904Y-64876190D01*
X142361904Y-65142857D02*
X142361904Y-65600000D01*
X143161904Y-65371428D02*
X142361904Y-65371428D01*
X143085714Y-66323809D02*
X143123809Y-66285714D01*
X143161904Y-66171428D01*
X143161904Y-66095238D01*
X143123809Y-65980952D01*
X143047619Y-65904761D01*
X142971428Y-65866666D01*
X142819047Y-65828571D01*
X142704761Y-65828571D01*
X142552380Y-65866666D01*
X142476190Y-65904761D01*
X142400000Y-65980952D01*
X142361904Y-66095238D01*
X142361904Y-66171428D01*
X142400000Y-66285714D01*
X142438095Y-66323809D01*
X143161904Y-66666666D02*
X142361904Y-66666666D01*
X142933333Y-66933333D01*
X142361904Y-67200000D01*
X143161904Y-67200000D01*
X143161904Y-67580952D02*
X142628571Y-67580952D01*
X142361904Y-67580952D02*
X142400000Y-67542857D01*
X142438095Y-67580952D01*
X142400000Y-67619047D01*
X142361904Y-67580952D01*
X142438095Y-67580952D01*
X142628571Y-67961904D02*
X143161904Y-67961904D01*
X142704761Y-67961904D02*
X142666666Y-68000000D01*
X142628571Y-68076190D01*
X142628571Y-68190476D01*
X142666666Y-68266666D01*
X142742857Y-68304761D01*
X143161904Y-68304761D01*
X143161904Y-68685714D02*
X142628571Y-68685714D01*
X142361904Y-68685714D02*
X142400000Y-68647619D01*
X142438095Y-68685714D01*
X142400000Y-68723809D01*
X142361904Y-68685714D01*
X142438095Y-68685714D01*
X143161904Y-69676190D02*
X142361904Y-69676190D01*
X142742857Y-69676190D02*
X142742857Y-70133333D01*
X143161904Y-70133333D02*
X142361904Y-70133333D01*
X143161904Y-70933333D02*
X143161904Y-70476190D01*
X143161904Y-70704761D02*
X142361904Y-70704761D01*
X142476190Y-70628571D01*
X142552380Y-70552380D01*
X142590476Y-70476190D01*
X142361904Y-71428571D02*
X142361904Y-71504761D01*
X142400000Y-71580952D01*
X142438095Y-71619047D01*
X142514285Y-71657142D01*
X142666666Y-71695238D01*
X142857142Y-71695238D01*
X143009523Y-71657142D01*
X143085714Y-71619047D01*
X143123809Y-71580952D01*
X143161904Y-71504761D01*
X143161904Y-71428571D01*
X143123809Y-71352380D01*
X143085714Y-71314285D01*
X143009523Y-71276190D01*
X142857142Y-71238095D01*
X142666666Y-71238095D01*
X142514285Y-71276190D01*
X142438095Y-71314285D01*
X142400000Y-71352380D01*
X142361904Y-71428571D01*
X142361904Y-71961904D02*
X142361904Y-72495238D01*
X143161904Y-72152380D01*
X142361904Y-72723809D02*
X142361904Y-73257142D01*
X143161904Y-72914285D01*
X142361904Y-73714285D02*
X142361904Y-73790476D01*
X142400000Y-73866666D01*
X142438095Y-73904761D01*
X142514285Y-73942857D01*
X142666666Y-73980952D01*
X142857142Y-73980952D01*
X143009523Y-73942857D01*
X143085714Y-73904761D01*
X143123809Y-73866666D01*
X143161904Y-73790476D01*
X143161904Y-73714285D01*
X143123809Y-73638095D01*
X143085714Y-73600000D01*
X143009523Y-73561904D01*
X142857142Y-73523809D01*
X142666666Y-73523809D01*
X142514285Y-73561904D01*
X142438095Y-73600000D01*
X142400000Y-73638095D01*
X142361904Y-73714285D01*
X143161904Y-75390476D02*
X142780952Y-75123809D01*
X143161904Y-74933333D02*
X142361904Y-74933333D01*
X142361904Y-75238095D01*
X142400000Y-75314285D01*
X142438095Y-75352380D01*
X142514285Y-75390476D01*
X142628571Y-75390476D01*
X142704761Y-75352380D01*
X142742857Y-75314285D01*
X142780952Y-75238095D01*
X142780952Y-74933333D01*
X143123809Y-76038095D02*
X143161904Y-75961904D01*
X143161904Y-75809523D01*
X143123809Y-75733333D01*
X143047619Y-75695238D01*
X142742857Y-75695238D01*
X142666666Y-75733333D01*
X142628571Y-75809523D01*
X142628571Y-75961904D01*
X142666666Y-76038095D01*
X142742857Y-76076190D01*
X142819047Y-76076190D01*
X142895238Y-75695238D01*
X142628571Y-76342857D02*
X143161904Y-76533333D01*
X142628571Y-76723809D01*
X142742857Y-77904761D02*
X142780952Y-78019047D01*
X142819047Y-78057142D01*
X142895238Y-78095238D01*
X143009523Y-78095238D01*
X143085714Y-78057142D01*
X143123809Y-78019047D01*
X143161904Y-77942857D01*
X143161904Y-77638095D01*
X142361904Y-77638095D01*
X142361904Y-77904761D01*
X142400000Y-77980952D01*
X142438095Y-78019047D01*
X142514285Y-78057142D01*
X142590476Y-78057142D01*
X142666666Y-78019047D01*
X142704761Y-77980952D01*
X142742857Y-77904761D01*
X142742857Y-77638095D01*
X127150000Y-59199000D02*
X127150000Y-59326000D01*
X127277000Y-59199000D02*
X127150000Y-59199000D01*
X142136000Y-59199000D02*
X127277000Y-59199000D01*
X142136000Y-83329000D02*
X142136000Y-59199000D01*
X127150000Y-83329000D02*
X142136000Y-83329000D01*
X127150000Y-59326000D02*
X127150000Y-83329000D01*
D11*
X127725000Y-75201000D02*
X127725000Y-76531000D01*
X127725000Y-76531000D02*
X129055000Y-76531000D01*
X130385000Y-73931000D02*
X130385000Y-61171000D01*
X127725000Y-73931000D02*
X130385000Y-73931000D01*
X127725000Y-61171000D02*
X130385000Y-61171000D01*
X127725000Y-73931000D02*
X127725000Y-61171000D01*
D12*
X129250000Y-76996428D02*
X129250000Y-77425000D01*
X129278571Y-77510714D01*
X129335714Y-77567857D01*
X129421428Y-77596428D01*
X129478571Y-77596428D01*
X128707142Y-77196428D02*
X128707142Y-77596428D01*
X128850000Y-76967857D02*
X128992857Y-77396428D01*
X128621428Y-77396428D01*
M02*
