G04 #@! TF.GenerationSoftware,KiCad,Pcbnew,5.0.0-rc2-be01b52~65~ubuntu17.10.1*
G04 #@! TF.CreationDate,2018-07-06T13:28:39-04:00*
G04 #@! TF.ProjectId,pmtcmini-h10770,706D74636D696E692D6831303737302E,rev?*
G04 #@! TF.SameCoordinates,Original*
G04 #@! TF.FileFunction,Legend,Bot*
G04 #@! TF.FilePolarity,Positive*
%FSLAX46Y46*%
G04 Gerber Fmt 4.6, Leading zero omitted, Abs format (unit mm)*
G04 Created by KiCad (PCBNEW 5.0.0-rc2-be01b52~65~ubuntu17.10.1) date Fri Jul  6 13:28:39 2018*
%MOMM*%
%LPD*%
G01*
G04 APERTURE LIST*
%ADD10C,0.300000*%
%ADD11C,0.150000*%
%ADD12C,0.120000*%
G04 APERTURE END LIST*
D10*
X142467857Y-72660714D02*
X142467857Y-73160714D01*
X143253571Y-73375000D02*
X143253571Y-72660714D01*
X141753571Y-72660714D01*
X141753571Y-73375000D01*
X143253571Y-74017857D02*
X141753571Y-74017857D01*
X142325000Y-74017857D02*
X142253571Y-74160714D01*
X142253571Y-74446428D01*
X142325000Y-74589285D01*
X142396428Y-74660714D01*
X142539285Y-74732142D01*
X142967857Y-74732142D01*
X143110714Y-74660714D01*
X143182142Y-74589285D01*
X143253571Y-74446428D01*
X143253571Y-74160714D01*
X143182142Y-74017857D01*
X143182142Y-75946428D02*
X143253571Y-75803571D01*
X143253571Y-75517857D01*
X143182142Y-75375000D01*
X143039285Y-75303571D01*
X142467857Y-75303571D01*
X142325000Y-75375000D01*
X142253571Y-75517857D01*
X142253571Y-75803571D01*
X142325000Y-75946428D01*
X142467857Y-76017857D01*
X142610714Y-76017857D01*
X142753571Y-75303571D01*
X142253571Y-76660714D02*
X143253571Y-76660714D01*
X142396428Y-76660714D02*
X142325000Y-76732142D01*
X142253571Y-76875000D01*
X142253571Y-77089285D01*
X142325000Y-77232142D01*
X142467857Y-77303571D01*
X143253571Y-77303571D01*
X141753571Y-79446428D02*
X141753571Y-79732142D01*
X141825000Y-79875000D01*
X141967857Y-80017857D01*
X142253571Y-80089285D01*
X142753571Y-80089285D01*
X143039285Y-80017857D01*
X143182142Y-79875000D01*
X143253571Y-79732142D01*
X143253571Y-79446428D01*
X143182142Y-79303571D01*
X143039285Y-79160714D01*
X142753571Y-79089285D01*
X142253571Y-79089285D01*
X141967857Y-79160714D01*
X141825000Y-79303571D01*
X141753571Y-79446428D01*
X143253571Y-80946428D02*
X143182142Y-80803571D01*
X143039285Y-80732142D01*
X141753571Y-80732142D01*
X143182142Y-81446428D02*
X143253571Y-81589285D01*
X143253571Y-81875000D01*
X143182142Y-82017857D01*
X143039285Y-82089285D01*
X142967857Y-82089285D01*
X142825000Y-82017857D01*
X142753571Y-81875000D01*
X142753571Y-81660714D01*
X142682142Y-81517857D01*
X142539285Y-81446428D01*
X142467857Y-81446428D01*
X142325000Y-81517857D01*
X142253571Y-81660714D01*
X142253571Y-81875000D01*
X142325000Y-82017857D01*
X143253571Y-82946428D02*
X143182142Y-82803571D01*
X143110714Y-82732142D01*
X142967857Y-82660714D01*
X142539285Y-82660714D01*
X142396428Y-82732142D01*
X142325000Y-82803571D01*
X142253571Y-82946428D01*
X142253571Y-83160714D01*
X142325000Y-83303571D01*
X142396428Y-83375000D01*
X142539285Y-83446428D01*
X142967857Y-83446428D01*
X143110714Y-83375000D01*
X143182142Y-83303571D01*
X143253571Y-83160714D01*
X143253571Y-82946428D01*
X142253571Y-84089285D02*
X143253571Y-84089285D01*
X142396428Y-84089285D02*
X142325000Y-84160714D01*
X142253571Y-84303571D01*
X142253571Y-84517857D01*
X142325000Y-84660714D01*
X142467857Y-84732142D01*
X143253571Y-84732142D01*
X141896428Y-86517857D02*
X141825000Y-86589285D01*
X141753571Y-86732142D01*
X141753571Y-87089285D01*
X141825000Y-87232142D01*
X141896428Y-87303571D01*
X142039285Y-87375000D01*
X142182142Y-87375000D01*
X142396428Y-87303571D01*
X143253571Y-86446428D01*
X143253571Y-87375000D01*
X141753571Y-88303571D02*
X141753571Y-88446428D01*
X141825000Y-88589285D01*
X141896428Y-88660714D01*
X142039285Y-88732142D01*
X142325000Y-88803571D01*
X142682142Y-88803571D01*
X142967857Y-88732142D01*
X143110714Y-88660714D01*
X143182142Y-88589285D01*
X143253571Y-88446428D01*
X143253571Y-88303571D01*
X143182142Y-88160714D01*
X143110714Y-88089285D01*
X142967857Y-88017857D01*
X142682142Y-87946428D01*
X142325000Y-87946428D01*
X142039285Y-88017857D01*
X141896428Y-88089285D01*
X141825000Y-88160714D01*
X141753571Y-88303571D01*
X143253571Y-90232142D02*
X143253571Y-89375000D01*
X143253571Y-89803571D02*
X141753571Y-89803571D01*
X141967857Y-89660714D01*
X142110714Y-89517857D01*
X142182142Y-89375000D01*
X142396428Y-91089285D02*
X142325000Y-90946428D01*
X142253571Y-90875000D01*
X142110714Y-90803571D01*
X142039285Y-90803571D01*
X141896428Y-90875000D01*
X141825000Y-90946428D01*
X141753571Y-91089285D01*
X141753571Y-91375000D01*
X141825000Y-91517857D01*
X141896428Y-91589285D01*
X142039285Y-91660714D01*
X142110714Y-91660714D01*
X142253571Y-91589285D01*
X142325000Y-91517857D01*
X142396428Y-91375000D01*
X142396428Y-91089285D01*
X142467857Y-90946428D01*
X142539285Y-90875000D01*
X142682142Y-90803571D01*
X142967857Y-90803571D01*
X143110714Y-90875000D01*
X143182142Y-90946428D01*
X143253571Y-91089285D01*
X143253571Y-91375000D01*
X143182142Y-91517857D01*
X143110714Y-91589285D01*
X142967857Y-91660714D01*
X142682142Y-91660714D01*
X142539285Y-91589285D01*
X142467857Y-91517857D01*
X142396428Y-91375000D01*
X127153571Y-81128571D02*
X125653571Y-81128571D01*
X125653571Y-81700000D01*
X125725000Y-81842857D01*
X125796428Y-81914285D01*
X125939285Y-81985714D01*
X126153571Y-81985714D01*
X126296428Y-81914285D01*
X126367857Y-81842857D01*
X126439285Y-81700000D01*
X126439285Y-81128571D01*
X127153571Y-82628571D02*
X125653571Y-82628571D01*
X126725000Y-83128571D01*
X125653571Y-83628571D01*
X127153571Y-83628571D01*
X125653571Y-84128571D02*
X125653571Y-84985714D01*
X127153571Y-84557142D02*
X125653571Y-84557142D01*
X127010714Y-86342857D02*
X127082142Y-86271428D01*
X127153571Y-86057142D01*
X127153571Y-85914285D01*
X127082142Y-85700000D01*
X126939285Y-85557142D01*
X126796428Y-85485714D01*
X126510714Y-85414285D01*
X126296428Y-85414285D01*
X126010714Y-85485714D01*
X125867857Y-85557142D01*
X125725000Y-85700000D01*
X125653571Y-85914285D01*
X125653571Y-86057142D01*
X125725000Y-86271428D01*
X125796428Y-86342857D01*
X127153571Y-86985714D02*
X125653571Y-86985714D01*
X126725000Y-87485714D01*
X125653571Y-87985714D01*
X127153571Y-87985714D01*
X127153571Y-88700000D02*
X126153571Y-88700000D01*
X125653571Y-88700000D02*
X125725000Y-88628571D01*
X125796428Y-88700000D01*
X125725000Y-88771428D01*
X125653571Y-88700000D01*
X125796428Y-88700000D01*
X126153571Y-89414285D02*
X127153571Y-89414285D01*
X126296428Y-89414285D02*
X126225000Y-89485714D01*
X126153571Y-89628571D01*
X126153571Y-89842857D01*
X126225000Y-89985714D01*
X126367857Y-90057142D01*
X127153571Y-90057142D01*
X127153571Y-90771428D02*
X126153571Y-90771428D01*
X125653571Y-90771428D02*
X125725000Y-90700000D01*
X125796428Y-90771428D01*
X125725000Y-90842857D01*
X125653571Y-90771428D01*
X125796428Y-90771428D01*
X129703571Y-81378571D02*
X128203571Y-81378571D01*
X128917857Y-81378571D02*
X128917857Y-82235714D01*
X129703571Y-82235714D02*
X128203571Y-82235714D01*
X129703571Y-83735714D02*
X129703571Y-82878571D01*
X129703571Y-83307142D02*
X128203571Y-83307142D01*
X128417857Y-83164285D01*
X128560714Y-83021428D01*
X128632142Y-82878571D01*
X128203571Y-84664285D02*
X128203571Y-84807142D01*
X128275000Y-84950000D01*
X128346428Y-85021428D01*
X128489285Y-85092857D01*
X128775000Y-85164285D01*
X129132142Y-85164285D01*
X129417857Y-85092857D01*
X129560714Y-85021428D01*
X129632142Y-84950000D01*
X129703571Y-84807142D01*
X129703571Y-84664285D01*
X129632142Y-84521428D01*
X129560714Y-84450000D01*
X129417857Y-84378571D01*
X129132142Y-84307142D01*
X128775000Y-84307142D01*
X128489285Y-84378571D01*
X128346428Y-84450000D01*
X128275000Y-84521428D01*
X128203571Y-84664285D01*
X128203571Y-85664285D02*
X128203571Y-86664285D01*
X129703571Y-86021428D01*
X128203571Y-87092857D02*
X128203571Y-88092857D01*
X129703571Y-87450000D01*
X128203571Y-88950000D02*
X128203571Y-89092857D01*
X128275000Y-89235714D01*
X128346428Y-89307142D01*
X128489285Y-89378571D01*
X128775000Y-89450000D01*
X129132142Y-89450000D01*
X129417857Y-89378571D01*
X129560714Y-89307142D01*
X129632142Y-89235714D01*
X129703571Y-89092857D01*
X129703571Y-88950000D01*
X129632142Y-88807142D01*
X129560714Y-88735714D01*
X129417857Y-88664285D01*
X129132142Y-88592857D01*
X128775000Y-88592857D01*
X128489285Y-88664285D01*
X128346428Y-88735714D01*
X128275000Y-88807142D01*
X128203571Y-88950000D01*
X132253571Y-83985714D02*
X131539285Y-83485714D01*
X132253571Y-83128571D02*
X130753571Y-83128571D01*
X130753571Y-83700000D01*
X130825000Y-83842857D01*
X130896428Y-83914285D01*
X131039285Y-83985714D01*
X131253571Y-83985714D01*
X131396428Y-83914285D01*
X131467857Y-83842857D01*
X131539285Y-83700000D01*
X131539285Y-83128571D01*
X132182142Y-85200000D02*
X132253571Y-85057142D01*
X132253571Y-84771428D01*
X132182142Y-84628571D01*
X132039285Y-84557142D01*
X131467857Y-84557142D01*
X131325000Y-84628571D01*
X131253571Y-84771428D01*
X131253571Y-85057142D01*
X131325000Y-85200000D01*
X131467857Y-85271428D01*
X131610714Y-85271428D01*
X131753571Y-84557142D01*
X131253571Y-85771428D02*
X132253571Y-86128571D01*
X131253571Y-86485714D01*
X131825000Y-88128571D02*
X131825000Y-88842857D01*
X132253571Y-87985714D02*
X130753571Y-88485714D01*
X132253571Y-88985714D01*
D11*
G04 #@! TO.C,J4*
X125775000Y-55774000D02*
X125775000Y-55901000D01*
X125902000Y-55774000D02*
X125775000Y-55774000D01*
X140761000Y-55774000D02*
X125902000Y-55774000D01*
X140761000Y-79904000D02*
X140761000Y-55774000D01*
X125775000Y-79904000D02*
X140761000Y-79904000D01*
X125775000Y-55901000D02*
X125775000Y-79904000D01*
D12*
X126350000Y-71776000D02*
X126350000Y-73106000D01*
X126350000Y-73106000D02*
X127680000Y-73106000D01*
X129010000Y-70506000D02*
X129010000Y-57746000D01*
X126350000Y-70506000D02*
X129010000Y-70506000D01*
X126350000Y-57746000D02*
X129010000Y-57746000D01*
X126350000Y-70506000D02*
X126350000Y-57746000D01*
D11*
X128521333Y-74149380D02*
X128521333Y-74863666D01*
X128568952Y-75006523D01*
X128664190Y-75101761D01*
X128807047Y-75149380D01*
X128902285Y-75149380D01*
X127616571Y-74482714D02*
X127616571Y-75149380D01*
X127854666Y-74101761D02*
X128092761Y-74816047D01*
X127473714Y-74816047D01*
G04 #@! TD*
M02*
