G04 #@! TF.GenerationSoftware,KiCad,Pcbnew,5.1.8-db9833491~88~ubuntu20.04.1*
G04 #@! TF.CreationDate,2021-01-29T13:44:14-05:00*
G04 #@! TF.ProjectId,pmtcmini-h10770,706d7463-6d69-46e6-992d-683130373730,rev?*
G04 #@! TF.SameCoordinates,Original*
G04 #@! TF.FileFunction,Copper,L2,Bot*
G04 #@! TF.FilePolarity,Positive*
%FSLAX46Y46*%
G04 Gerber Fmt 4.6, Leading zero omitted, Abs format (unit mm)*
G04 Created by KiCad (PCBNEW 5.1.8-db9833491~88~ubuntu20.04.1) date 2021-01-29 13:44:14*
%MOMM*%
%LPD*%
G01*
G04 APERTURE LIST*
G04 #@! TA.AperFunction,SMDPad,CuDef*
%ADD10O,1.700000X1.700000*%
G04 #@! TD*
G04 #@! TA.AperFunction,SMDPad,CuDef*
%ADD11R,1.700000X1.700000*%
G04 #@! TD*
G04 #@! TA.AperFunction,ComponentPad*
%ADD12C,0.704800*%
G04 #@! TD*
G04 #@! TA.AperFunction,ComponentPad*
%ADD13O,1.700000X1.700000*%
G04 #@! TD*
G04 #@! TA.AperFunction,ComponentPad*
%ADD14R,1.700000X1.700000*%
G04 #@! TD*
G04 #@! TA.AperFunction,ComponentPad*
%ADD15O,1.000000X1.550000*%
G04 #@! TD*
G04 #@! TA.AperFunction,ComponentPad*
%ADD16O,1.250000X0.950000*%
G04 #@! TD*
G04 #@! TA.AperFunction,ViaPad*
%ADD17C,0.800000*%
G04 #@! TD*
G04 #@! TA.AperFunction,ViaPad*
%ADD18C,0.600000*%
G04 #@! TD*
G04 #@! TA.AperFunction,Conductor*
%ADD19C,0.500000*%
G04 #@! TD*
G04 #@! TA.AperFunction,Conductor*
%ADD20C,0.200000*%
G04 #@! TD*
G04 #@! TA.AperFunction,Conductor*
%ADD21C,0.100000*%
G04 #@! TD*
G04 APERTURE END LIST*
D10*
X129055000Y-67581000D03*
X129055000Y-65041000D03*
X129055000Y-72661000D03*
D11*
X129055000Y-75201000D03*
D10*
X129055000Y-70121000D03*
X129055000Y-62501000D03*
D12*
X132350000Y-62045000D03*
X132350000Y-60775000D03*
X132350000Y-63315000D03*
X132350000Y-64585000D03*
D13*
X137780000Y-85700000D03*
X135240000Y-85700000D03*
D14*
X132700000Y-85700000D03*
D15*
X131750000Y-55250000D03*
X138750000Y-55250000D03*
D16*
X137750000Y-57950000D03*
X132750000Y-57950000D03*
D17*
X129075000Y-65125000D03*
X129075000Y-67675000D03*
X129075000Y-72700000D03*
X129075000Y-70125000D03*
D18*
X141050000Y-62800000D03*
X133950000Y-56600000D03*
X134250000Y-65250000D03*
X132900000Y-70850000D03*
X133200000Y-75950000D03*
X137950000Y-72500000D03*
D17*
X140150000Y-75275000D03*
X137805210Y-75853828D03*
D18*
X138950000Y-68075000D03*
X136725000Y-61300000D03*
X127675000Y-75200000D03*
X129050000Y-62500000D03*
D19*
X129054000Y-75200000D02*
X129055000Y-75201000D01*
X127675000Y-75200000D02*
X129054000Y-75200000D01*
D20*
X143125001Y-87625000D02*
X127375000Y-87625000D01*
X127375000Y-86550000D01*
X131498306Y-86550000D01*
X131505064Y-86618612D01*
X131525077Y-86684587D01*
X131557577Y-86745391D01*
X131601315Y-86798685D01*
X131654609Y-86842423D01*
X131715413Y-86874923D01*
X131781388Y-86894936D01*
X131850000Y-86901694D01*
X132587500Y-86900000D01*
X132675000Y-86812500D01*
X132675000Y-85725000D01*
X132725000Y-85725000D01*
X132725000Y-86812500D01*
X132812500Y-86900000D01*
X133550000Y-86901694D01*
X133618612Y-86894936D01*
X133684587Y-86874923D01*
X133745391Y-86842423D01*
X133798685Y-86798685D01*
X133842423Y-86745391D01*
X133874923Y-86684587D01*
X133894936Y-86618612D01*
X133901694Y-86550000D01*
X133900000Y-85812500D01*
X133812500Y-85725000D01*
X132725000Y-85725000D01*
X132675000Y-85725000D01*
X131587500Y-85725000D01*
X131500000Y-85812500D01*
X131498306Y-86550000D01*
X127375000Y-86550000D01*
X127375000Y-84850000D01*
X131498306Y-84850000D01*
X131500000Y-85587500D01*
X131587500Y-85675000D01*
X132675000Y-85675000D01*
X132675000Y-84587500D01*
X132725000Y-84587500D01*
X132725000Y-85675000D01*
X133812500Y-85675000D01*
X133900000Y-85587500D01*
X133900001Y-85586735D01*
X134090000Y-85586735D01*
X134090000Y-85813265D01*
X134134194Y-86035443D01*
X134220884Y-86244729D01*
X134346737Y-86433082D01*
X134506918Y-86593263D01*
X134695271Y-86719116D01*
X134904557Y-86805806D01*
X135126735Y-86850000D01*
X135353265Y-86850000D01*
X135575443Y-86805806D01*
X135784729Y-86719116D01*
X135973082Y-86593263D01*
X136133263Y-86433082D01*
X136259116Y-86244729D01*
X136345806Y-86035443D01*
X136390000Y-85813265D01*
X136390000Y-85586735D01*
X136630000Y-85586735D01*
X136630000Y-85813265D01*
X136674194Y-86035443D01*
X136760884Y-86244729D01*
X136886737Y-86433082D01*
X137046918Y-86593263D01*
X137235271Y-86719116D01*
X137444557Y-86805806D01*
X137666735Y-86850000D01*
X137893265Y-86850000D01*
X138115443Y-86805806D01*
X138324729Y-86719116D01*
X138513082Y-86593263D01*
X138673263Y-86433082D01*
X138799116Y-86244729D01*
X138885806Y-86035443D01*
X138930000Y-85813265D01*
X138930000Y-85586735D01*
X138885806Y-85364557D01*
X138799116Y-85155271D01*
X138673263Y-84966918D01*
X138513082Y-84806737D01*
X138324729Y-84680884D01*
X138115443Y-84594194D01*
X137893265Y-84550000D01*
X137666735Y-84550000D01*
X137444557Y-84594194D01*
X137235271Y-84680884D01*
X137046918Y-84806737D01*
X136886737Y-84966918D01*
X136760884Y-85155271D01*
X136674194Y-85364557D01*
X136630000Y-85586735D01*
X136390000Y-85586735D01*
X136345806Y-85364557D01*
X136259116Y-85155271D01*
X136133263Y-84966918D01*
X135973082Y-84806737D01*
X135784729Y-84680884D01*
X135575443Y-84594194D01*
X135353265Y-84550000D01*
X135126735Y-84550000D01*
X134904557Y-84594194D01*
X134695271Y-84680884D01*
X134506918Y-84806737D01*
X134346737Y-84966918D01*
X134220884Y-85155271D01*
X134134194Y-85364557D01*
X134090000Y-85586735D01*
X133900001Y-85586735D01*
X133901694Y-84850000D01*
X133894936Y-84781388D01*
X133874923Y-84715413D01*
X133842423Y-84654609D01*
X133798685Y-84601315D01*
X133745391Y-84557577D01*
X133684587Y-84525077D01*
X133618612Y-84505064D01*
X133550000Y-84498306D01*
X132812500Y-84500000D01*
X132725000Y-84587500D01*
X132675000Y-84587500D01*
X132587500Y-84500000D01*
X131850000Y-84498306D01*
X131781388Y-84505064D01*
X131715413Y-84525077D01*
X131654609Y-84557577D01*
X131601315Y-84601315D01*
X131557577Y-84654609D01*
X131525077Y-84715413D01*
X131505064Y-84781388D01*
X131498306Y-84850000D01*
X127375000Y-84850000D01*
X127375000Y-75721160D01*
X127390793Y-75731713D01*
X127499986Y-75776942D01*
X127615905Y-75800000D01*
X127734095Y-75800000D01*
X127850014Y-75776942D01*
X127903549Y-75754767D01*
X127903549Y-76051000D01*
X127909341Y-76109810D01*
X127926496Y-76166360D01*
X127954353Y-76218477D01*
X127991842Y-76264158D01*
X128037523Y-76301647D01*
X128089640Y-76329504D01*
X128146190Y-76346659D01*
X128205000Y-76352451D01*
X129905000Y-76352451D01*
X129963810Y-76346659D01*
X130020360Y-76329504D01*
X130072477Y-76301647D01*
X130118158Y-76264158D01*
X130155647Y-76218477D01*
X130183504Y-76166360D01*
X130200659Y-76109810D01*
X130206451Y-76051000D01*
X130206451Y-74351000D01*
X130200659Y-74292190D01*
X130183504Y-74235640D01*
X130155647Y-74183523D01*
X130118158Y-74137842D01*
X130072477Y-74100353D01*
X130020360Y-74072496D01*
X129963810Y-74055341D01*
X129905000Y-74049549D01*
X128205000Y-74049549D01*
X128146190Y-74055341D01*
X128089640Y-74072496D01*
X128037523Y-74100353D01*
X127991842Y-74137842D01*
X127954353Y-74183523D01*
X127926496Y-74235640D01*
X127909341Y-74292190D01*
X127903549Y-74351000D01*
X127903549Y-74645233D01*
X127850014Y-74623058D01*
X127734095Y-74600000D01*
X127615905Y-74600000D01*
X127499986Y-74623058D01*
X127390793Y-74668287D01*
X127375000Y-74678840D01*
X127375000Y-72873373D01*
X127873942Y-72873373D01*
X127882573Y-72916764D01*
X127954998Y-73140579D01*
X128069696Y-73345964D01*
X128222258Y-73525026D01*
X128406822Y-73670884D01*
X128616295Y-73777933D01*
X128842627Y-73842059D01*
X129030000Y-73773241D01*
X129030000Y-72686000D01*
X129080000Y-72686000D01*
X129080000Y-73773241D01*
X129267373Y-73842059D01*
X129493705Y-73777933D01*
X129703178Y-73670884D01*
X129887742Y-73525026D01*
X130040304Y-73345964D01*
X130155002Y-73140579D01*
X130227427Y-72916764D01*
X130236058Y-72873373D01*
X130167219Y-72686000D01*
X129080000Y-72686000D01*
X129030000Y-72686000D01*
X127942781Y-72686000D01*
X127873942Y-72873373D01*
X127375000Y-72873373D01*
X127375000Y-72448627D01*
X127873942Y-72448627D01*
X127942781Y-72636000D01*
X129030000Y-72636000D01*
X129030000Y-71548759D01*
X129080000Y-71548759D01*
X129080000Y-72636000D01*
X130167219Y-72636000D01*
X130236058Y-72448627D01*
X130227427Y-72405236D01*
X130155002Y-72181421D01*
X130040304Y-71976036D01*
X129887742Y-71796974D01*
X129703178Y-71651116D01*
X129493705Y-71544067D01*
X129267373Y-71479941D01*
X129080000Y-71548759D01*
X129030000Y-71548759D01*
X128842627Y-71479941D01*
X128616295Y-71544067D01*
X128406822Y-71651116D01*
X128222258Y-71796974D01*
X128069696Y-71976036D01*
X127954998Y-72181421D01*
X127882573Y-72405236D01*
X127873942Y-72448627D01*
X127375000Y-72448627D01*
X127375000Y-70007735D01*
X127905000Y-70007735D01*
X127905000Y-70234265D01*
X127949194Y-70456443D01*
X128035884Y-70665729D01*
X128161737Y-70854082D01*
X128321918Y-71014263D01*
X128510271Y-71140116D01*
X128719557Y-71226806D01*
X128941735Y-71271000D01*
X129168265Y-71271000D01*
X129390443Y-71226806D01*
X129599729Y-71140116D01*
X129788082Y-71014263D01*
X129948263Y-70854082D01*
X130074116Y-70665729D01*
X130160806Y-70456443D01*
X130205000Y-70234265D01*
X130205000Y-70007735D01*
X130160806Y-69785557D01*
X130074116Y-69576271D01*
X129948263Y-69387918D01*
X129788082Y-69227737D01*
X129599729Y-69101884D01*
X129390443Y-69015194D01*
X129168265Y-68971000D01*
X128941735Y-68971000D01*
X128719557Y-69015194D01*
X128510271Y-69101884D01*
X128321918Y-69227737D01*
X128161737Y-69387918D01*
X128035884Y-69576271D01*
X127949194Y-69785557D01*
X127905000Y-70007735D01*
X127375000Y-70007735D01*
X127375000Y-67793373D01*
X127873942Y-67793373D01*
X127882573Y-67836764D01*
X127954998Y-68060579D01*
X128069696Y-68265964D01*
X128222258Y-68445026D01*
X128406822Y-68590884D01*
X128616295Y-68697933D01*
X128842627Y-68762059D01*
X129030000Y-68693241D01*
X129030000Y-67606000D01*
X129080000Y-67606000D01*
X129080000Y-68693241D01*
X129267373Y-68762059D01*
X129493705Y-68697933D01*
X129703178Y-68590884D01*
X129887742Y-68445026D01*
X130040304Y-68265964D01*
X130155002Y-68060579D01*
X130227427Y-67836764D01*
X130236058Y-67793373D01*
X130167219Y-67606000D01*
X129080000Y-67606000D01*
X129030000Y-67606000D01*
X127942781Y-67606000D01*
X127873942Y-67793373D01*
X127375000Y-67793373D01*
X127375000Y-67368627D01*
X127873942Y-67368627D01*
X127942781Y-67556000D01*
X129030000Y-67556000D01*
X129030000Y-66468759D01*
X129080000Y-66468759D01*
X129080000Y-67556000D01*
X130167219Y-67556000D01*
X130236058Y-67368627D01*
X130227427Y-67325236D01*
X130155002Y-67101421D01*
X130040304Y-66896036D01*
X129887742Y-66716974D01*
X129703178Y-66571116D01*
X129493705Y-66464067D01*
X129267373Y-66399941D01*
X129080000Y-66468759D01*
X129030000Y-66468759D01*
X128842627Y-66399941D01*
X128616295Y-66464067D01*
X128406822Y-66571116D01*
X128222258Y-66716974D01*
X128069696Y-66896036D01*
X127954998Y-67101421D01*
X127882573Y-67325236D01*
X127873942Y-67368627D01*
X127375000Y-67368627D01*
X127375000Y-64927735D01*
X127905000Y-64927735D01*
X127905000Y-65154265D01*
X127949194Y-65376443D01*
X128035884Y-65585729D01*
X128161737Y-65774082D01*
X128321918Y-65934263D01*
X128510271Y-66060116D01*
X128719557Y-66146806D01*
X128941735Y-66191000D01*
X129168265Y-66191000D01*
X129390443Y-66146806D01*
X129599729Y-66060116D01*
X129788082Y-65934263D01*
X129948263Y-65774082D01*
X130074116Y-65585729D01*
X130160806Y-65376443D01*
X130205000Y-65154265D01*
X130205000Y-65039523D01*
X131930832Y-65039523D01*
X131955627Y-65170339D01*
X132077399Y-65236030D01*
X132209646Y-65276703D01*
X132347288Y-65290794D01*
X132485033Y-65277761D01*
X132617590Y-65238106D01*
X132739863Y-65173352D01*
X132744373Y-65170339D01*
X132769168Y-65039523D01*
X132350000Y-64620355D01*
X131930832Y-65039523D01*
X130205000Y-65039523D01*
X130205000Y-64927735D01*
X130160806Y-64705557D01*
X130109746Y-64582288D01*
X131644206Y-64582288D01*
X131657239Y-64720033D01*
X131696894Y-64852590D01*
X131761648Y-64974863D01*
X131764661Y-64979373D01*
X131895477Y-65004168D01*
X132314645Y-64585000D01*
X132385355Y-64585000D01*
X132804523Y-65004168D01*
X132935339Y-64979373D01*
X133001030Y-64857601D01*
X133041703Y-64725354D01*
X133055794Y-64587712D01*
X133042761Y-64449967D01*
X133003106Y-64317410D01*
X132938352Y-64195137D01*
X132935339Y-64190627D01*
X132804523Y-64165832D01*
X132385355Y-64585000D01*
X132314645Y-64585000D01*
X131895477Y-64165832D01*
X131764661Y-64190627D01*
X131698970Y-64312399D01*
X131658297Y-64444646D01*
X131644206Y-64582288D01*
X130109746Y-64582288D01*
X130074116Y-64496271D01*
X129948263Y-64307918D01*
X129788082Y-64147737D01*
X129599729Y-64021884D01*
X129390443Y-63935194D01*
X129168265Y-63891000D01*
X128941735Y-63891000D01*
X128719557Y-63935194D01*
X128510271Y-64021884D01*
X128321918Y-64147737D01*
X128161737Y-64307918D01*
X128035884Y-64496271D01*
X127949194Y-64705557D01*
X127905000Y-64927735D01*
X127375000Y-64927735D01*
X127375000Y-62387735D01*
X127905000Y-62387735D01*
X127905000Y-62614265D01*
X127949194Y-62836443D01*
X128035884Y-63045729D01*
X128161737Y-63234082D01*
X128321918Y-63394263D01*
X128510271Y-63520116D01*
X128719557Y-63606806D01*
X128941735Y-63651000D01*
X129168265Y-63651000D01*
X129390443Y-63606806D01*
X129599729Y-63520116D01*
X129788082Y-63394263D01*
X129948263Y-63234082D01*
X130074116Y-63045729D01*
X130160806Y-62836443D01*
X130205000Y-62614265D01*
X130205000Y-62387735D01*
X130160806Y-62165557D01*
X130074116Y-61956271D01*
X129948263Y-61767918D01*
X129788082Y-61607737D01*
X129599729Y-61481884D01*
X129390443Y-61395194D01*
X129168265Y-61351000D01*
X128941735Y-61351000D01*
X128719557Y-61395194D01*
X128510271Y-61481884D01*
X128321918Y-61607737D01*
X128161737Y-61767918D01*
X128035884Y-61956271D01*
X127949194Y-62165557D01*
X127905000Y-62387735D01*
X127375000Y-62387735D01*
X127375000Y-60710744D01*
X131697600Y-60710744D01*
X131697600Y-60839256D01*
X131722671Y-60965298D01*
X131771850Y-61084027D01*
X131843248Y-61190881D01*
X131934119Y-61281752D01*
X132040973Y-61353150D01*
X132159702Y-61402329D01*
X132198267Y-61410000D01*
X132159702Y-61417671D01*
X132040973Y-61466850D01*
X131934119Y-61538248D01*
X131843248Y-61629119D01*
X131771850Y-61735973D01*
X131722671Y-61854702D01*
X131697600Y-61980744D01*
X131697600Y-62109256D01*
X131722671Y-62235298D01*
X131771850Y-62354027D01*
X131843248Y-62460881D01*
X131934119Y-62551752D01*
X132040973Y-62623150D01*
X132159702Y-62672329D01*
X132198267Y-62680000D01*
X132159702Y-62687671D01*
X132040973Y-62736850D01*
X131934119Y-62808248D01*
X131843248Y-62899119D01*
X131771850Y-63005973D01*
X131722671Y-63124702D01*
X131697600Y-63250744D01*
X131697600Y-63379256D01*
X131722671Y-63505298D01*
X131771850Y-63624027D01*
X131843248Y-63730881D01*
X131934119Y-63821752D01*
X132040973Y-63893150D01*
X132112661Y-63922844D01*
X132082410Y-63931894D01*
X131960137Y-63996648D01*
X131955627Y-63999661D01*
X131930832Y-64130477D01*
X132350000Y-64549645D01*
X132769168Y-64130477D01*
X132744373Y-63999661D01*
X132622601Y-63933970D01*
X132586950Y-63923005D01*
X132659027Y-63893150D01*
X132765881Y-63821752D01*
X132856752Y-63730881D01*
X132928150Y-63624027D01*
X132977329Y-63505298D01*
X133002400Y-63379256D01*
X133002400Y-63250744D01*
X132977329Y-63124702D01*
X132928150Y-63005973D01*
X132856752Y-62899119D01*
X132765881Y-62808248D01*
X132659027Y-62736850D01*
X132540298Y-62687671D01*
X132501733Y-62680000D01*
X132540298Y-62672329D01*
X132659027Y-62623150D01*
X132765881Y-62551752D01*
X132856752Y-62460881D01*
X132928150Y-62354027D01*
X132977329Y-62235298D01*
X133002400Y-62109256D01*
X133002400Y-61980744D01*
X132977329Y-61854702D01*
X132928150Y-61735973D01*
X132856752Y-61629119D01*
X132765881Y-61538248D01*
X132659027Y-61466850D01*
X132540298Y-61417671D01*
X132501733Y-61410000D01*
X132540298Y-61402329D01*
X132659027Y-61353150D01*
X132765881Y-61281752D01*
X132856752Y-61190881D01*
X132928150Y-61084027D01*
X132977329Y-60965298D01*
X133002400Y-60839256D01*
X133002400Y-60710744D01*
X132977329Y-60584702D01*
X132928150Y-60465973D01*
X132856752Y-60359119D01*
X132765881Y-60268248D01*
X132659027Y-60196850D01*
X132540298Y-60147671D01*
X132414256Y-60122600D01*
X132285744Y-60122600D01*
X132159702Y-60147671D01*
X132040973Y-60196850D01*
X131934119Y-60268248D01*
X131843248Y-60359119D01*
X131771850Y-60465973D01*
X131722671Y-60584702D01*
X131697600Y-60710744D01*
X127375000Y-60710744D01*
X127375000Y-57950000D01*
X131821251Y-57950000D01*
X131836214Y-58101926D01*
X131880530Y-58248014D01*
X131952494Y-58382650D01*
X132049341Y-58500659D01*
X132167350Y-58597506D01*
X132301986Y-58669470D01*
X132448074Y-58713786D01*
X132561935Y-58725000D01*
X132938065Y-58725000D01*
X133051926Y-58713786D01*
X133198014Y-58669470D01*
X133332650Y-58597506D01*
X133450659Y-58500659D01*
X133547506Y-58382650D01*
X133619470Y-58248014D01*
X133663786Y-58101926D01*
X133678749Y-57950000D01*
X136821251Y-57950000D01*
X136836214Y-58101926D01*
X136880530Y-58248014D01*
X136952494Y-58382650D01*
X137049341Y-58500659D01*
X137167350Y-58597506D01*
X137301986Y-58669470D01*
X137448074Y-58713786D01*
X137561935Y-58725000D01*
X137938065Y-58725000D01*
X138051926Y-58713786D01*
X138198014Y-58669470D01*
X138332650Y-58597506D01*
X138450659Y-58500659D01*
X138547506Y-58382650D01*
X138619470Y-58248014D01*
X138663786Y-58101926D01*
X138678749Y-57950000D01*
X138663786Y-57798074D01*
X138619470Y-57651986D01*
X138547506Y-57517350D01*
X138450659Y-57399341D01*
X138332650Y-57302494D01*
X138198014Y-57230530D01*
X138051926Y-57186214D01*
X137938065Y-57175000D01*
X137561935Y-57175000D01*
X137448074Y-57186214D01*
X137301986Y-57230530D01*
X137167350Y-57302494D01*
X137049341Y-57399341D01*
X136952494Y-57517350D01*
X136880530Y-57651986D01*
X136836214Y-57798074D01*
X136821251Y-57950000D01*
X133678749Y-57950000D01*
X133663786Y-57798074D01*
X133619470Y-57651986D01*
X133547506Y-57517350D01*
X133450659Y-57399341D01*
X133332650Y-57302494D01*
X133198014Y-57230530D01*
X133051926Y-57186214D01*
X132938065Y-57175000D01*
X132561935Y-57175000D01*
X132448074Y-57186214D01*
X132301986Y-57230530D01*
X132167350Y-57302494D01*
X132049341Y-57399341D01*
X131952494Y-57517350D01*
X131880530Y-57651986D01*
X131836214Y-57798074D01*
X131821251Y-57950000D01*
X127375000Y-57950000D01*
X127375000Y-54935707D01*
X130950000Y-54935707D01*
X130950000Y-55564292D01*
X130961576Y-55681826D01*
X131007321Y-55832627D01*
X131081607Y-55971605D01*
X131181578Y-56093422D01*
X131303394Y-56193393D01*
X131442372Y-56267679D01*
X131593173Y-56313424D01*
X131750000Y-56328870D01*
X131906826Y-56313424D01*
X132057627Y-56267679D01*
X132196605Y-56193393D01*
X132318422Y-56093422D01*
X132418393Y-55971606D01*
X132492679Y-55832628D01*
X132538424Y-55681827D01*
X132550000Y-55564293D01*
X132550000Y-54935707D01*
X137950000Y-54935707D01*
X137950000Y-55564292D01*
X137961576Y-55681826D01*
X138007321Y-55832627D01*
X138081607Y-55971605D01*
X138181578Y-56093422D01*
X138303394Y-56193393D01*
X138442372Y-56267679D01*
X138593173Y-56313424D01*
X138750000Y-56328870D01*
X138906826Y-56313424D01*
X139057627Y-56267679D01*
X139196605Y-56193393D01*
X139318422Y-56093422D01*
X139418393Y-55971606D01*
X139492679Y-55832628D01*
X139538424Y-55681827D01*
X139550000Y-55564293D01*
X139550000Y-54935707D01*
X139538424Y-54818173D01*
X139492679Y-54667372D01*
X139418393Y-54528394D01*
X139318422Y-54406578D01*
X139196606Y-54306607D01*
X139057628Y-54232321D01*
X138906827Y-54186576D01*
X138750000Y-54171130D01*
X138593174Y-54186576D01*
X138442373Y-54232321D01*
X138303395Y-54306607D01*
X138181579Y-54406578D01*
X138081608Y-54528394D01*
X138007321Y-54667372D01*
X137961576Y-54818173D01*
X137950000Y-54935707D01*
X132550000Y-54935707D01*
X132538424Y-54818173D01*
X132492679Y-54667372D01*
X132418393Y-54528394D01*
X132318422Y-54406578D01*
X132196606Y-54306607D01*
X132057628Y-54232321D01*
X131906827Y-54186576D01*
X131750000Y-54171130D01*
X131593174Y-54186576D01*
X131442373Y-54232321D01*
X131303395Y-54306607D01*
X131181579Y-54406578D01*
X131081608Y-54528394D01*
X131007321Y-54667372D01*
X130961576Y-54818173D01*
X130950000Y-54935707D01*
X127375000Y-54935707D01*
X127375000Y-53875000D01*
X143125000Y-53875000D01*
X143125001Y-87625000D01*
G04 #@! TA.AperFunction,Conductor*
D21*
G36*
X143125001Y-87625000D02*
G01*
X127375000Y-87625000D01*
X127375000Y-86550000D01*
X131498306Y-86550000D01*
X131505064Y-86618612D01*
X131525077Y-86684587D01*
X131557577Y-86745391D01*
X131601315Y-86798685D01*
X131654609Y-86842423D01*
X131715413Y-86874923D01*
X131781388Y-86894936D01*
X131850000Y-86901694D01*
X132587500Y-86900000D01*
X132675000Y-86812500D01*
X132675000Y-85725000D01*
X132725000Y-85725000D01*
X132725000Y-86812500D01*
X132812500Y-86900000D01*
X133550000Y-86901694D01*
X133618612Y-86894936D01*
X133684587Y-86874923D01*
X133745391Y-86842423D01*
X133798685Y-86798685D01*
X133842423Y-86745391D01*
X133874923Y-86684587D01*
X133894936Y-86618612D01*
X133901694Y-86550000D01*
X133900000Y-85812500D01*
X133812500Y-85725000D01*
X132725000Y-85725000D01*
X132675000Y-85725000D01*
X131587500Y-85725000D01*
X131500000Y-85812500D01*
X131498306Y-86550000D01*
X127375000Y-86550000D01*
X127375000Y-84850000D01*
X131498306Y-84850000D01*
X131500000Y-85587500D01*
X131587500Y-85675000D01*
X132675000Y-85675000D01*
X132675000Y-84587500D01*
X132725000Y-84587500D01*
X132725000Y-85675000D01*
X133812500Y-85675000D01*
X133900000Y-85587500D01*
X133900001Y-85586735D01*
X134090000Y-85586735D01*
X134090000Y-85813265D01*
X134134194Y-86035443D01*
X134220884Y-86244729D01*
X134346737Y-86433082D01*
X134506918Y-86593263D01*
X134695271Y-86719116D01*
X134904557Y-86805806D01*
X135126735Y-86850000D01*
X135353265Y-86850000D01*
X135575443Y-86805806D01*
X135784729Y-86719116D01*
X135973082Y-86593263D01*
X136133263Y-86433082D01*
X136259116Y-86244729D01*
X136345806Y-86035443D01*
X136390000Y-85813265D01*
X136390000Y-85586735D01*
X136630000Y-85586735D01*
X136630000Y-85813265D01*
X136674194Y-86035443D01*
X136760884Y-86244729D01*
X136886737Y-86433082D01*
X137046918Y-86593263D01*
X137235271Y-86719116D01*
X137444557Y-86805806D01*
X137666735Y-86850000D01*
X137893265Y-86850000D01*
X138115443Y-86805806D01*
X138324729Y-86719116D01*
X138513082Y-86593263D01*
X138673263Y-86433082D01*
X138799116Y-86244729D01*
X138885806Y-86035443D01*
X138930000Y-85813265D01*
X138930000Y-85586735D01*
X138885806Y-85364557D01*
X138799116Y-85155271D01*
X138673263Y-84966918D01*
X138513082Y-84806737D01*
X138324729Y-84680884D01*
X138115443Y-84594194D01*
X137893265Y-84550000D01*
X137666735Y-84550000D01*
X137444557Y-84594194D01*
X137235271Y-84680884D01*
X137046918Y-84806737D01*
X136886737Y-84966918D01*
X136760884Y-85155271D01*
X136674194Y-85364557D01*
X136630000Y-85586735D01*
X136390000Y-85586735D01*
X136345806Y-85364557D01*
X136259116Y-85155271D01*
X136133263Y-84966918D01*
X135973082Y-84806737D01*
X135784729Y-84680884D01*
X135575443Y-84594194D01*
X135353265Y-84550000D01*
X135126735Y-84550000D01*
X134904557Y-84594194D01*
X134695271Y-84680884D01*
X134506918Y-84806737D01*
X134346737Y-84966918D01*
X134220884Y-85155271D01*
X134134194Y-85364557D01*
X134090000Y-85586735D01*
X133900001Y-85586735D01*
X133901694Y-84850000D01*
X133894936Y-84781388D01*
X133874923Y-84715413D01*
X133842423Y-84654609D01*
X133798685Y-84601315D01*
X133745391Y-84557577D01*
X133684587Y-84525077D01*
X133618612Y-84505064D01*
X133550000Y-84498306D01*
X132812500Y-84500000D01*
X132725000Y-84587500D01*
X132675000Y-84587500D01*
X132587500Y-84500000D01*
X131850000Y-84498306D01*
X131781388Y-84505064D01*
X131715413Y-84525077D01*
X131654609Y-84557577D01*
X131601315Y-84601315D01*
X131557577Y-84654609D01*
X131525077Y-84715413D01*
X131505064Y-84781388D01*
X131498306Y-84850000D01*
X127375000Y-84850000D01*
X127375000Y-75721160D01*
X127390793Y-75731713D01*
X127499986Y-75776942D01*
X127615905Y-75800000D01*
X127734095Y-75800000D01*
X127850014Y-75776942D01*
X127903549Y-75754767D01*
X127903549Y-76051000D01*
X127909341Y-76109810D01*
X127926496Y-76166360D01*
X127954353Y-76218477D01*
X127991842Y-76264158D01*
X128037523Y-76301647D01*
X128089640Y-76329504D01*
X128146190Y-76346659D01*
X128205000Y-76352451D01*
X129905000Y-76352451D01*
X129963810Y-76346659D01*
X130020360Y-76329504D01*
X130072477Y-76301647D01*
X130118158Y-76264158D01*
X130155647Y-76218477D01*
X130183504Y-76166360D01*
X130200659Y-76109810D01*
X130206451Y-76051000D01*
X130206451Y-74351000D01*
X130200659Y-74292190D01*
X130183504Y-74235640D01*
X130155647Y-74183523D01*
X130118158Y-74137842D01*
X130072477Y-74100353D01*
X130020360Y-74072496D01*
X129963810Y-74055341D01*
X129905000Y-74049549D01*
X128205000Y-74049549D01*
X128146190Y-74055341D01*
X128089640Y-74072496D01*
X128037523Y-74100353D01*
X127991842Y-74137842D01*
X127954353Y-74183523D01*
X127926496Y-74235640D01*
X127909341Y-74292190D01*
X127903549Y-74351000D01*
X127903549Y-74645233D01*
X127850014Y-74623058D01*
X127734095Y-74600000D01*
X127615905Y-74600000D01*
X127499986Y-74623058D01*
X127390793Y-74668287D01*
X127375000Y-74678840D01*
X127375000Y-72873373D01*
X127873942Y-72873373D01*
X127882573Y-72916764D01*
X127954998Y-73140579D01*
X128069696Y-73345964D01*
X128222258Y-73525026D01*
X128406822Y-73670884D01*
X128616295Y-73777933D01*
X128842627Y-73842059D01*
X129030000Y-73773241D01*
X129030000Y-72686000D01*
X129080000Y-72686000D01*
X129080000Y-73773241D01*
X129267373Y-73842059D01*
X129493705Y-73777933D01*
X129703178Y-73670884D01*
X129887742Y-73525026D01*
X130040304Y-73345964D01*
X130155002Y-73140579D01*
X130227427Y-72916764D01*
X130236058Y-72873373D01*
X130167219Y-72686000D01*
X129080000Y-72686000D01*
X129030000Y-72686000D01*
X127942781Y-72686000D01*
X127873942Y-72873373D01*
X127375000Y-72873373D01*
X127375000Y-72448627D01*
X127873942Y-72448627D01*
X127942781Y-72636000D01*
X129030000Y-72636000D01*
X129030000Y-71548759D01*
X129080000Y-71548759D01*
X129080000Y-72636000D01*
X130167219Y-72636000D01*
X130236058Y-72448627D01*
X130227427Y-72405236D01*
X130155002Y-72181421D01*
X130040304Y-71976036D01*
X129887742Y-71796974D01*
X129703178Y-71651116D01*
X129493705Y-71544067D01*
X129267373Y-71479941D01*
X129080000Y-71548759D01*
X129030000Y-71548759D01*
X128842627Y-71479941D01*
X128616295Y-71544067D01*
X128406822Y-71651116D01*
X128222258Y-71796974D01*
X128069696Y-71976036D01*
X127954998Y-72181421D01*
X127882573Y-72405236D01*
X127873942Y-72448627D01*
X127375000Y-72448627D01*
X127375000Y-70007735D01*
X127905000Y-70007735D01*
X127905000Y-70234265D01*
X127949194Y-70456443D01*
X128035884Y-70665729D01*
X128161737Y-70854082D01*
X128321918Y-71014263D01*
X128510271Y-71140116D01*
X128719557Y-71226806D01*
X128941735Y-71271000D01*
X129168265Y-71271000D01*
X129390443Y-71226806D01*
X129599729Y-71140116D01*
X129788082Y-71014263D01*
X129948263Y-70854082D01*
X130074116Y-70665729D01*
X130160806Y-70456443D01*
X130205000Y-70234265D01*
X130205000Y-70007735D01*
X130160806Y-69785557D01*
X130074116Y-69576271D01*
X129948263Y-69387918D01*
X129788082Y-69227737D01*
X129599729Y-69101884D01*
X129390443Y-69015194D01*
X129168265Y-68971000D01*
X128941735Y-68971000D01*
X128719557Y-69015194D01*
X128510271Y-69101884D01*
X128321918Y-69227737D01*
X128161737Y-69387918D01*
X128035884Y-69576271D01*
X127949194Y-69785557D01*
X127905000Y-70007735D01*
X127375000Y-70007735D01*
X127375000Y-67793373D01*
X127873942Y-67793373D01*
X127882573Y-67836764D01*
X127954998Y-68060579D01*
X128069696Y-68265964D01*
X128222258Y-68445026D01*
X128406822Y-68590884D01*
X128616295Y-68697933D01*
X128842627Y-68762059D01*
X129030000Y-68693241D01*
X129030000Y-67606000D01*
X129080000Y-67606000D01*
X129080000Y-68693241D01*
X129267373Y-68762059D01*
X129493705Y-68697933D01*
X129703178Y-68590884D01*
X129887742Y-68445026D01*
X130040304Y-68265964D01*
X130155002Y-68060579D01*
X130227427Y-67836764D01*
X130236058Y-67793373D01*
X130167219Y-67606000D01*
X129080000Y-67606000D01*
X129030000Y-67606000D01*
X127942781Y-67606000D01*
X127873942Y-67793373D01*
X127375000Y-67793373D01*
X127375000Y-67368627D01*
X127873942Y-67368627D01*
X127942781Y-67556000D01*
X129030000Y-67556000D01*
X129030000Y-66468759D01*
X129080000Y-66468759D01*
X129080000Y-67556000D01*
X130167219Y-67556000D01*
X130236058Y-67368627D01*
X130227427Y-67325236D01*
X130155002Y-67101421D01*
X130040304Y-66896036D01*
X129887742Y-66716974D01*
X129703178Y-66571116D01*
X129493705Y-66464067D01*
X129267373Y-66399941D01*
X129080000Y-66468759D01*
X129030000Y-66468759D01*
X128842627Y-66399941D01*
X128616295Y-66464067D01*
X128406822Y-66571116D01*
X128222258Y-66716974D01*
X128069696Y-66896036D01*
X127954998Y-67101421D01*
X127882573Y-67325236D01*
X127873942Y-67368627D01*
X127375000Y-67368627D01*
X127375000Y-64927735D01*
X127905000Y-64927735D01*
X127905000Y-65154265D01*
X127949194Y-65376443D01*
X128035884Y-65585729D01*
X128161737Y-65774082D01*
X128321918Y-65934263D01*
X128510271Y-66060116D01*
X128719557Y-66146806D01*
X128941735Y-66191000D01*
X129168265Y-66191000D01*
X129390443Y-66146806D01*
X129599729Y-66060116D01*
X129788082Y-65934263D01*
X129948263Y-65774082D01*
X130074116Y-65585729D01*
X130160806Y-65376443D01*
X130205000Y-65154265D01*
X130205000Y-65039523D01*
X131930832Y-65039523D01*
X131955627Y-65170339D01*
X132077399Y-65236030D01*
X132209646Y-65276703D01*
X132347288Y-65290794D01*
X132485033Y-65277761D01*
X132617590Y-65238106D01*
X132739863Y-65173352D01*
X132744373Y-65170339D01*
X132769168Y-65039523D01*
X132350000Y-64620355D01*
X131930832Y-65039523D01*
X130205000Y-65039523D01*
X130205000Y-64927735D01*
X130160806Y-64705557D01*
X130109746Y-64582288D01*
X131644206Y-64582288D01*
X131657239Y-64720033D01*
X131696894Y-64852590D01*
X131761648Y-64974863D01*
X131764661Y-64979373D01*
X131895477Y-65004168D01*
X132314645Y-64585000D01*
X132385355Y-64585000D01*
X132804523Y-65004168D01*
X132935339Y-64979373D01*
X133001030Y-64857601D01*
X133041703Y-64725354D01*
X133055794Y-64587712D01*
X133042761Y-64449967D01*
X133003106Y-64317410D01*
X132938352Y-64195137D01*
X132935339Y-64190627D01*
X132804523Y-64165832D01*
X132385355Y-64585000D01*
X132314645Y-64585000D01*
X131895477Y-64165832D01*
X131764661Y-64190627D01*
X131698970Y-64312399D01*
X131658297Y-64444646D01*
X131644206Y-64582288D01*
X130109746Y-64582288D01*
X130074116Y-64496271D01*
X129948263Y-64307918D01*
X129788082Y-64147737D01*
X129599729Y-64021884D01*
X129390443Y-63935194D01*
X129168265Y-63891000D01*
X128941735Y-63891000D01*
X128719557Y-63935194D01*
X128510271Y-64021884D01*
X128321918Y-64147737D01*
X128161737Y-64307918D01*
X128035884Y-64496271D01*
X127949194Y-64705557D01*
X127905000Y-64927735D01*
X127375000Y-64927735D01*
X127375000Y-62387735D01*
X127905000Y-62387735D01*
X127905000Y-62614265D01*
X127949194Y-62836443D01*
X128035884Y-63045729D01*
X128161737Y-63234082D01*
X128321918Y-63394263D01*
X128510271Y-63520116D01*
X128719557Y-63606806D01*
X128941735Y-63651000D01*
X129168265Y-63651000D01*
X129390443Y-63606806D01*
X129599729Y-63520116D01*
X129788082Y-63394263D01*
X129948263Y-63234082D01*
X130074116Y-63045729D01*
X130160806Y-62836443D01*
X130205000Y-62614265D01*
X130205000Y-62387735D01*
X130160806Y-62165557D01*
X130074116Y-61956271D01*
X129948263Y-61767918D01*
X129788082Y-61607737D01*
X129599729Y-61481884D01*
X129390443Y-61395194D01*
X129168265Y-61351000D01*
X128941735Y-61351000D01*
X128719557Y-61395194D01*
X128510271Y-61481884D01*
X128321918Y-61607737D01*
X128161737Y-61767918D01*
X128035884Y-61956271D01*
X127949194Y-62165557D01*
X127905000Y-62387735D01*
X127375000Y-62387735D01*
X127375000Y-60710744D01*
X131697600Y-60710744D01*
X131697600Y-60839256D01*
X131722671Y-60965298D01*
X131771850Y-61084027D01*
X131843248Y-61190881D01*
X131934119Y-61281752D01*
X132040973Y-61353150D01*
X132159702Y-61402329D01*
X132198267Y-61410000D01*
X132159702Y-61417671D01*
X132040973Y-61466850D01*
X131934119Y-61538248D01*
X131843248Y-61629119D01*
X131771850Y-61735973D01*
X131722671Y-61854702D01*
X131697600Y-61980744D01*
X131697600Y-62109256D01*
X131722671Y-62235298D01*
X131771850Y-62354027D01*
X131843248Y-62460881D01*
X131934119Y-62551752D01*
X132040973Y-62623150D01*
X132159702Y-62672329D01*
X132198267Y-62680000D01*
X132159702Y-62687671D01*
X132040973Y-62736850D01*
X131934119Y-62808248D01*
X131843248Y-62899119D01*
X131771850Y-63005973D01*
X131722671Y-63124702D01*
X131697600Y-63250744D01*
X131697600Y-63379256D01*
X131722671Y-63505298D01*
X131771850Y-63624027D01*
X131843248Y-63730881D01*
X131934119Y-63821752D01*
X132040973Y-63893150D01*
X132112661Y-63922844D01*
X132082410Y-63931894D01*
X131960137Y-63996648D01*
X131955627Y-63999661D01*
X131930832Y-64130477D01*
X132350000Y-64549645D01*
X132769168Y-64130477D01*
X132744373Y-63999661D01*
X132622601Y-63933970D01*
X132586950Y-63923005D01*
X132659027Y-63893150D01*
X132765881Y-63821752D01*
X132856752Y-63730881D01*
X132928150Y-63624027D01*
X132977329Y-63505298D01*
X133002400Y-63379256D01*
X133002400Y-63250744D01*
X132977329Y-63124702D01*
X132928150Y-63005973D01*
X132856752Y-62899119D01*
X132765881Y-62808248D01*
X132659027Y-62736850D01*
X132540298Y-62687671D01*
X132501733Y-62680000D01*
X132540298Y-62672329D01*
X132659027Y-62623150D01*
X132765881Y-62551752D01*
X132856752Y-62460881D01*
X132928150Y-62354027D01*
X132977329Y-62235298D01*
X133002400Y-62109256D01*
X133002400Y-61980744D01*
X132977329Y-61854702D01*
X132928150Y-61735973D01*
X132856752Y-61629119D01*
X132765881Y-61538248D01*
X132659027Y-61466850D01*
X132540298Y-61417671D01*
X132501733Y-61410000D01*
X132540298Y-61402329D01*
X132659027Y-61353150D01*
X132765881Y-61281752D01*
X132856752Y-61190881D01*
X132928150Y-61084027D01*
X132977329Y-60965298D01*
X133002400Y-60839256D01*
X133002400Y-60710744D01*
X132977329Y-60584702D01*
X132928150Y-60465973D01*
X132856752Y-60359119D01*
X132765881Y-60268248D01*
X132659027Y-60196850D01*
X132540298Y-60147671D01*
X132414256Y-60122600D01*
X132285744Y-60122600D01*
X132159702Y-60147671D01*
X132040973Y-60196850D01*
X131934119Y-60268248D01*
X131843248Y-60359119D01*
X131771850Y-60465973D01*
X131722671Y-60584702D01*
X131697600Y-60710744D01*
X127375000Y-60710744D01*
X127375000Y-57950000D01*
X131821251Y-57950000D01*
X131836214Y-58101926D01*
X131880530Y-58248014D01*
X131952494Y-58382650D01*
X132049341Y-58500659D01*
X132167350Y-58597506D01*
X132301986Y-58669470D01*
X132448074Y-58713786D01*
X132561935Y-58725000D01*
X132938065Y-58725000D01*
X133051926Y-58713786D01*
X133198014Y-58669470D01*
X133332650Y-58597506D01*
X133450659Y-58500659D01*
X133547506Y-58382650D01*
X133619470Y-58248014D01*
X133663786Y-58101926D01*
X133678749Y-57950000D01*
X136821251Y-57950000D01*
X136836214Y-58101926D01*
X136880530Y-58248014D01*
X136952494Y-58382650D01*
X137049341Y-58500659D01*
X137167350Y-58597506D01*
X137301986Y-58669470D01*
X137448074Y-58713786D01*
X137561935Y-58725000D01*
X137938065Y-58725000D01*
X138051926Y-58713786D01*
X138198014Y-58669470D01*
X138332650Y-58597506D01*
X138450659Y-58500659D01*
X138547506Y-58382650D01*
X138619470Y-58248014D01*
X138663786Y-58101926D01*
X138678749Y-57950000D01*
X138663786Y-57798074D01*
X138619470Y-57651986D01*
X138547506Y-57517350D01*
X138450659Y-57399341D01*
X138332650Y-57302494D01*
X138198014Y-57230530D01*
X138051926Y-57186214D01*
X137938065Y-57175000D01*
X137561935Y-57175000D01*
X137448074Y-57186214D01*
X137301986Y-57230530D01*
X137167350Y-57302494D01*
X137049341Y-57399341D01*
X136952494Y-57517350D01*
X136880530Y-57651986D01*
X136836214Y-57798074D01*
X136821251Y-57950000D01*
X133678749Y-57950000D01*
X133663786Y-57798074D01*
X133619470Y-57651986D01*
X133547506Y-57517350D01*
X133450659Y-57399341D01*
X133332650Y-57302494D01*
X133198014Y-57230530D01*
X133051926Y-57186214D01*
X132938065Y-57175000D01*
X132561935Y-57175000D01*
X132448074Y-57186214D01*
X132301986Y-57230530D01*
X132167350Y-57302494D01*
X132049341Y-57399341D01*
X131952494Y-57517350D01*
X131880530Y-57651986D01*
X131836214Y-57798074D01*
X131821251Y-57950000D01*
X127375000Y-57950000D01*
X127375000Y-54935707D01*
X130950000Y-54935707D01*
X130950000Y-55564292D01*
X130961576Y-55681826D01*
X131007321Y-55832627D01*
X131081607Y-55971605D01*
X131181578Y-56093422D01*
X131303394Y-56193393D01*
X131442372Y-56267679D01*
X131593173Y-56313424D01*
X131750000Y-56328870D01*
X131906826Y-56313424D01*
X132057627Y-56267679D01*
X132196605Y-56193393D01*
X132318422Y-56093422D01*
X132418393Y-55971606D01*
X132492679Y-55832628D01*
X132538424Y-55681827D01*
X132550000Y-55564293D01*
X132550000Y-54935707D01*
X137950000Y-54935707D01*
X137950000Y-55564292D01*
X137961576Y-55681826D01*
X138007321Y-55832627D01*
X138081607Y-55971605D01*
X138181578Y-56093422D01*
X138303394Y-56193393D01*
X138442372Y-56267679D01*
X138593173Y-56313424D01*
X138750000Y-56328870D01*
X138906826Y-56313424D01*
X139057627Y-56267679D01*
X139196605Y-56193393D01*
X139318422Y-56093422D01*
X139418393Y-55971606D01*
X139492679Y-55832628D01*
X139538424Y-55681827D01*
X139550000Y-55564293D01*
X139550000Y-54935707D01*
X139538424Y-54818173D01*
X139492679Y-54667372D01*
X139418393Y-54528394D01*
X139318422Y-54406578D01*
X139196606Y-54306607D01*
X139057628Y-54232321D01*
X138906827Y-54186576D01*
X138750000Y-54171130D01*
X138593174Y-54186576D01*
X138442373Y-54232321D01*
X138303395Y-54306607D01*
X138181579Y-54406578D01*
X138081608Y-54528394D01*
X138007321Y-54667372D01*
X137961576Y-54818173D01*
X137950000Y-54935707D01*
X132550000Y-54935707D01*
X132538424Y-54818173D01*
X132492679Y-54667372D01*
X132418393Y-54528394D01*
X132318422Y-54406578D01*
X132196606Y-54306607D01*
X132057628Y-54232321D01*
X131906827Y-54186576D01*
X131750000Y-54171130D01*
X131593174Y-54186576D01*
X131442373Y-54232321D01*
X131303395Y-54306607D01*
X131181579Y-54406578D01*
X131081608Y-54528394D01*
X131007321Y-54667372D01*
X130961576Y-54818173D01*
X130950000Y-54935707D01*
X127375000Y-54935707D01*
X127375000Y-53875000D01*
X143125000Y-53875000D01*
X143125001Y-87625000D01*
G37*
G04 #@! TD.AperFunction*
M02*
