G04 #@! TF.GenerationSoftware,KiCad,Pcbnew,5.0.0-rc2-be01b52~65~ubuntu17.10.1*
G04 #@! TF.CreationDate,2018-07-06T13:28:39-04:00*
G04 #@! TF.ProjectId,pmtcmini-h10770,706D74636D696E692D6831303737302E,rev?*
G04 #@! TF.SameCoordinates,Original*
G04 #@! TF.FileFunction,Copper,L2,Bot,Signal*
G04 #@! TF.FilePolarity,Positive*
%FSLAX46Y46*%
G04 Gerber Fmt 4.6, Leading zero omitted, Abs format (unit mm)*
G04 Created by KiCad (PCBNEW 5.0.0-rc2-be01b52~65~ubuntu17.10.1) date Fri Jul  6 13:28:39 2018*
%MOMM*%
%LPD*%
G01*
G04 APERTURE LIST*
G04 #@! TA.AperFunction,SMDPad,CuDef*
%ADD10O,1.700000X1.700000*%
G04 #@! TD*
G04 #@! TA.AperFunction,SMDPad,CuDef*
%ADD11R,1.700000X1.700000*%
G04 #@! TD*
G04 #@! TA.AperFunction,ComponentPad*
%ADD12O,1.300000X0.800000*%
G04 #@! TD*
G04 #@! TA.AperFunction,ComponentPad*
%ADD13R,1.300000X0.800000*%
G04 #@! TD*
G04 #@! TA.AperFunction,ComponentPad*
%ADD14O,1.700000X1.700000*%
G04 #@! TD*
G04 #@! TA.AperFunction,ComponentPad*
%ADD15R,1.700000X1.700000*%
G04 #@! TD*
G04 #@! TA.AperFunction,ViaPad*
%ADD16C,0.800000*%
G04 #@! TD*
G04 #@! TA.AperFunction,Conductor*
%ADD17C,0.500000*%
G04 #@! TD*
G04 #@! TA.AperFunction,Conductor*
%ADD18C,0.250000*%
G04 #@! TD*
G04 #@! TA.AperFunction,Conductor*
%ADD19C,0.254000*%
G04 #@! TD*
G04 APERTURE END LIST*
D10*
G04 #@! TO.P,J4,4*
G04 #@! TO.N,GND*
X127680000Y-64156000D03*
G04 #@! TO.P,J4,5*
G04 #@! TO.N,Net-(J4-Pad5)*
X127680000Y-61616000D03*
G04 #@! TO.P,J4,2*
G04 #@! TO.N,GND*
X127680000Y-69236000D03*
D11*
G04 #@! TO.P,J4,1*
G04 #@! TO.N,VBUS*
X127680000Y-71776000D03*
D10*
G04 #@! TO.P,J4,3*
G04 #@! TO.N,/V+*
X127680000Y-66696000D03*
G04 #@! TO.P,J4,6*
G04 #@! TO.N,Net-(J4-Pad6)*
X127680000Y-59076000D03*
G04 #@! TD*
D12*
G04 #@! TO.P,J2,5*
G04 #@! TO.N,GND*
X141450000Y-70450000D03*
G04 #@! TO.P,J2,4*
G04 #@! TO.N,/RESET*
X141450000Y-69200000D03*
G04 #@! TO.P,J2,3*
G04 #@! TO.N,/SWCLK*
X141450000Y-67950000D03*
G04 #@! TO.P,J2,2*
G04 #@! TO.N,/SWDIO*
X141450000Y-66700000D03*
D13*
G04 #@! TO.P,J2,1*
G04 #@! TO.N,+3V3*
X141450000Y-65450000D03*
G04 #@! TD*
D14*
G04 #@! TO.P,J1,3*
G04 #@! TO.N,/PMT_VDD*
X136030000Y-91300000D03*
G04 #@! TO.P,J1,2*
G04 #@! TO.N,Net-(C11-Pad1)*
X133490000Y-91300000D03*
D15*
G04 #@! TO.P,J1,1*
G04 #@! TO.N,GND*
X130950000Y-91300000D03*
G04 #@! TD*
D16*
G04 #@! TO.N,*
X128700000Y-56575000D03*
X131300000Y-56575000D03*
X133600000Y-56575000D03*
X136200000Y-56575000D03*
G04 #@! TO.N,+3V3*
X131475000Y-61550000D03*
X134250000Y-61550000D03*
G04 #@! TO.N,Net-(R4-Pad1)*
X133875000Y-70089597D03*
X132800000Y-68975000D03*
G04 #@! TO.N,+3V3*
X131475000Y-72225000D03*
X131025000Y-69175000D03*
X130975000Y-66975000D03*
X134675000Y-67100000D03*
G04 #@! TO.N,GND*
X140900000Y-88600000D03*
X143050000Y-55350000D03*
X130900000Y-87300000D03*
X139300000Y-70650000D03*
X129600000Y-63700000D03*
X135900000Y-63650000D03*
X130100000Y-59950000D03*
X129400000Y-76325000D03*
X142150000Y-63275000D03*
X135350000Y-85450000D03*
X136550000Y-79200000D03*
X130200000Y-85775000D03*
G04 #@! TO.N,/SWDIO*
X139125000Y-68250000D03*
G04 #@! TO.N,/RESET*
X132325000Y-70725000D03*
X136650000Y-70025000D03*
G04 #@! TO.N,/PMT_EN*
X132050000Y-75750000D03*
X135950000Y-75750000D03*
G04 #@! TO.N,GND*
X126225000Y-70275000D03*
X137400000Y-62475000D03*
X133425000Y-72050000D03*
G04 #@! TO.N,VBUS*
X126775000Y-75710000D03*
G04 #@! TO.N,Net-(J4-Pad6)*
X127680000Y-59076000D03*
G04 #@! TO.N,/V+*
X135600000Y-65500000D03*
G04 #@! TO.N,Net-(J4-Pad5)*
X127680000Y-61616000D03*
G04 #@! TD*
D17*
G04 #@! TO.N,*
X131475000Y-61550000D02*
X134250000Y-61550000D01*
D18*
G04 #@! TO.N,Net-(R4-Pad1)*
X133875000Y-70089597D02*
X133875000Y-70050000D01*
X133875000Y-70050000D02*
X132800000Y-68975000D01*
D17*
G04 #@! TO.N,+3V3*
X134550000Y-66975000D02*
X134675000Y-67100000D01*
X130975000Y-66975000D02*
X134550000Y-66975000D01*
X131025000Y-71775000D02*
X131475000Y-72225000D01*
X131025000Y-69175000D02*
X131025000Y-71775000D01*
D18*
G04 #@! TO.N,/SWDIO*
X140750000Y-66700000D02*
X141450000Y-66700000D01*
X140675000Y-66700000D02*
X140750000Y-66700000D01*
X139125000Y-68250000D02*
X140675000Y-66700000D01*
G04 #@! TO.N,/RESET*
X141450000Y-69200000D02*
X141200000Y-69200000D01*
X135550001Y-71124999D02*
X136650000Y-70025000D01*
X132325000Y-70725000D02*
X132724999Y-71124999D01*
X132724999Y-71124999D02*
X135550001Y-71124999D01*
G04 #@! TO.N,/PMT_EN*
X132050000Y-75750000D02*
X135950000Y-75750000D01*
D17*
G04 #@! TO.N,VBUS*
X127680000Y-73126000D02*
X126775000Y-74031000D01*
X127680000Y-71776000D02*
X127680000Y-73126000D01*
X126775000Y-74031000D02*
X126775000Y-75710000D01*
G04 #@! TO.N,/V+*
X128882081Y-66696000D02*
X130078081Y-65500000D01*
X127680000Y-66696000D02*
X128882081Y-66696000D01*
X130078081Y-65500000D02*
X135600000Y-65500000D01*
G04 #@! TD*
D19*
G04 #@! TO.N,GND*
G36*
X143748001Y-92298000D02*
X136654930Y-92298000D01*
X136878569Y-92148569D01*
X137138709Y-91759242D01*
X137230058Y-91300000D01*
X137138709Y-90840758D01*
X136878569Y-90451431D01*
X136489242Y-90191291D01*
X136145920Y-90123000D01*
X135914080Y-90123000D01*
X135570758Y-90191291D01*
X135181431Y-90451431D01*
X134921291Y-90840758D01*
X134829942Y-91300000D01*
X134921291Y-91759242D01*
X135181431Y-92148569D01*
X135405070Y-92298000D01*
X134114930Y-92298000D01*
X134338569Y-92148569D01*
X134598709Y-91759242D01*
X134690058Y-91300000D01*
X134598709Y-90840758D01*
X134338569Y-90451431D01*
X133949242Y-90191291D01*
X133605920Y-90123000D01*
X133374080Y-90123000D01*
X133030758Y-90191291D01*
X132641431Y-90451431D01*
X132435000Y-90760377D01*
X132435000Y-90323691D01*
X132338327Y-90090302D01*
X132159699Y-89911673D01*
X131926310Y-89815000D01*
X131235750Y-89815000D01*
X131077000Y-89973750D01*
X131077000Y-91173000D01*
X131097000Y-91173000D01*
X131097000Y-91427000D01*
X131077000Y-91427000D01*
X131077000Y-91447000D01*
X130823000Y-91447000D01*
X130823000Y-91427000D01*
X129623750Y-91427000D01*
X129465000Y-91585750D01*
X129465000Y-92276309D01*
X129473985Y-92298000D01*
X125127000Y-92298000D01*
X125127000Y-90323691D01*
X129465000Y-90323691D01*
X129465000Y-91014250D01*
X129623750Y-91173000D01*
X130823000Y-91173000D01*
X130823000Y-89973750D01*
X130664250Y-89815000D01*
X129973690Y-89815000D01*
X129740301Y-89911673D01*
X129561673Y-90090302D01*
X129465000Y-90323691D01*
X125127000Y-90323691D01*
X125127000Y-75565391D01*
X126048000Y-75565391D01*
X126048000Y-75854609D01*
X126158679Y-76121813D01*
X126363187Y-76326321D01*
X126630391Y-76437000D01*
X126919609Y-76437000D01*
X127186813Y-76326321D01*
X127391321Y-76121813D01*
X127502000Y-75854609D01*
X127502000Y-75605391D01*
X131323000Y-75605391D01*
X131323000Y-75894609D01*
X131433679Y-76161813D01*
X131638187Y-76366321D01*
X131905391Y-76477000D01*
X132194609Y-76477000D01*
X132461813Y-76366321D01*
X132626134Y-76202000D01*
X135373866Y-76202000D01*
X135538187Y-76366321D01*
X135805391Y-76477000D01*
X136094609Y-76477000D01*
X136361813Y-76366321D01*
X136566321Y-76161813D01*
X136677000Y-75894609D01*
X136677000Y-75605391D01*
X136566321Y-75338187D01*
X136361813Y-75133679D01*
X136094609Y-75023000D01*
X135805391Y-75023000D01*
X135538187Y-75133679D01*
X135373866Y-75298000D01*
X132626134Y-75298000D01*
X132461813Y-75133679D01*
X132194609Y-75023000D01*
X131905391Y-75023000D01*
X131638187Y-75133679D01*
X131433679Y-75338187D01*
X131323000Y-75605391D01*
X127502000Y-75605391D01*
X127502000Y-75565391D01*
X127391321Y-75298187D01*
X127352000Y-75258866D01*
X127352000Y-74270000D01*
X128047815Y-73574186D01*
X128095994Y-73541994D01*
X128223522Y-73351134D01*
X128257000Y-73182829D01*
X128268304Y-73126001D01*
X128257000Y-73069173D01*
X128257000Y-72959406D01*
X128530000Y-72959406D01*
X128657589Y-72934027D01*
X128765754Y-72861754D01*
X128838027Y-72753589D01*
X128863406Y-72626000D01*
X128863406Y-70926000D01*
X128838027Y-70798411D01*
X128765754Y-70690246D01*
X128657589Y-70617973D01*
X128530000Y-70592594D01*
X128217657Y-70592594D01*
X128561358Y-70431183D01*
X128951645Y-70002924D01*
X129121476Y-69592890D01*
X129000155Y-69363000D01*
X127807000Y-69363000D01*
X127807000Y-69383000D01*
X127553000Y-69383000D01*
X127553000Y-69363000D01*
X126359845Y-69363000D01*
X126238524Y-69592890D01*
X126408355Y-70002924D01*
X126798642Y-70431183D01*
X127142343Y-70592594D01*
X126830000Y-70592594D01*
X126702411Y-70617973D01*
X126594246Y-70690246D01*
X126521973Y-70798411D01*
X126496594Y-70926000D01*
X126496594Y-72626000D01*
X126521973Y-72753589D01*
X126594246Y-72861754D01*
X126702411Y-72934027D01*
X126830000Y-72959406D01*
X127030593Y-72959406D01*
X126407188Y-73582812D01*
X126359006Y-73615006D01*
X126231478Y-73805867D01*
X126198000Y-73974171D01*
X126186696Y-74031000D01*
X126198000Y-74087828D01*
X126198001Y-75258865D01*
X126158679Y-75298187D01*
X126048000Y-75565391D01*
X125127000Y-75565391D01*
X125127000Y-64512890D01*
X126238524Y-64512890D01*
X126408355Y-64922924D01*
X126798642Y-65351183D01*
X127277406Y-65576023D01*
X127220758Y-65587291D01*
X126831431Y-65847431D01*
X126571291Y-66236758D01*
X126479942Y-66696000D01*
X126571291Y-67155242D01*
X126831431Y-67544569D01*
X127220758Y-67804709D01*
X127277406Y-67815977D01*
X126798642Y-68040817D01*
X126408355Y-68469076D01*
X126238524Y-68879110D01*
X126359845Y-69109000D01*
X127553000Y-69109000D01*
X127553000Y-69089000D01*
X127807000Y-69089000D01*
X127807000Y-69109000D01*
X129000155Y-69109000D01*
X129041639Y-69030391D01*
X130298000Y-69030391D01*
X130298000Y-69319609D01*
X130408679Y-69586813D01*
X130448000Y-69626134D01*
X130448001Y-71718167D01*
X130436696Y-71775000D01*
X130453044Y-71857183D01*
X130481479Y-72000134D01*
X130609007Y-72190994D01*
X130657186Y-72223186D01*
X130748000Y-72314000D01*
X130748000Y-72369609D01*
X130858679Y-72636813D01*
X131063187Y-72841321D01*
X131330391Y-72952000D01*
X131619609Y-72952000D01*
X131886813Y-72841321D01*
X132091321Y-72636813D01*
X132202000Y-72369609D01*
X132202000Y-72080391D01*
X132091321Y-71813187D01*
X131886813Y-71608679D01*
X131619609Y-71498000D01*
X131602000Y-71498000D01*
X131602000Y-70879266D01*
X131708679Y-71136813D01*
X131913187Y-71341321D01*
X132180391Y-71452000D01*
X132400812Y-71452000D01*
X132436865Y-71476090D01*
X132548637Y-71550774D01*
X132724998Y-71585854D01*
X132769516Y-71576999D01*
X135505483Y-71576999D01*
X135550001Y-71585854D01*
X135594519Y-71576999D01*
X135726363Y-71550774D01*
X135875875Y-71450873D01*
X135901094Y-71413130D01*
X136562224Y-70752000D01*
X136794609Y-70752000D01*
X136832939Y-70736123D01*
X140205334Y-70736123D01*
X140215013Y-70812969D01*
X140428893Y-71162278D01*
X140760167Y-71403149D01*
X141158402Y-71498912D01*
X141323000Y-71333756D01*
X141323000Y-70577000D01*
X141577000Y-70577000D01*
X141577000Y-71333756D01*
X141741598Y-71498912D01*
X142139833Y-71403149D01*
X142471107Y-71162278D01*
X142684987Y-70812969D01*
X142694666Y-70736123D01*
X142566998Y-70577000D01*
X141577000Y-70577000D01*
X141323000Y-70577000D01*
X140333002Y-70577000D01*
X140205334Y-70736123D01*
X136832939Y-70736123D01*
X137061813Y-70641321D01*
X137266321Y-70436813D01*
X137377000Y-70169609D01*
X137377000Y-69880391D01*
X137266321Y-69613187D01*
X137061813Y-69408679D01*
X136794609Y-69298000D01*
X136505391Y-69298000D01*
X136238187Y-69408679D01*
X136033679Y-69613187D01*
X135923000Y-69880391D01*
X135923000Y-70112776D01*
X135362777Y-70672999D01*
X134319732Y-70672999D01*
X134491321Y-70501410D01*
X134602000Y-70234206D01*
X134602000Y-69944988D01*
X134491321Y-69677784D01*
X134286813Y-69473276D01*
X134019609Y-69362597D01*
X133826821Y-69362597D01*
X133527000Y-69062776D01*
X133527000Y-68830391D01*
X133416321Y-68563187D01*
X133211813Y-68358679D01*
X132944609Y-68248000D01*
X132655391Y-68248000D01*
X132388187Y-68358679D01*
X132183679Y-68563187D01*
X132073000Y-68830391D01*
X132073000Y-69119609D01*
X132183679Y-69386813D01*
X132388187Y-69591321D01*
X132655391Y-69702000D01*
X132887776Y-69702000D01*
X133148000Y-69962224D01*
X133148000Y-70234206D01*
X133258679Y-70501410D01*
X133430268Y-70672999D01*
X133052000Y-70672999D01*
X133052000Y-70580391D01*
X132941321Y-70313187D01*
X132736813Y-70108679D01*
X132469609Y-69998000D01*
X132180391Y-69998000D01*
X131913187Y-70108679D01*
X131708679Y-70313187D01*
X131602000Y-70570734D01*
X131602000Y-69626134D01*
X131641321Y-69586813D01*
X131752000Y-69319609D01*
X131752000Y-69030391D01*
X131641321Y-68763187D01*
X131436813Y-68558679D01*
X131169609Y-68448000D01*
X130880391Y-68448000D01*
X130613187Y-68558679D01*
X130408679Y-68763187D01*
X130298000Y-69030391D01*
X129041639Y-69030391D01*
X129121476Y-68879110D01*
X128951645Y-68469076D01*
X128620207Y-68105391D01*
X138398000Y-68105391D01*
X138398000Y-68394609D01*
X138508679Y-68661813D01*
X138713187Y-68866321D01*
X138980391Y-68977000D01*
X139269609Y-68977000D01*
X139536813Y-68866321D01*
X139741321Y-68661813D01*
X139852000Y-68394609D01*
X139852000Y-68162224D01*
X140744336Y-67269889D01*
X140826815Y-67325000D01*
X140675863Y-67425863D01*
X140515182Y-67666339D01*
X140458758Y-67950000D01*
X140515182Y-68233661D01*
X140675863Y-68474137D01*
X140826815Y-68575000D01*
X140675863Y-68675863D01*
X140515182Y-68916339D01*
X140458758Y-69200000D01*
X140515182Y-69483661D01*
X140601218Y-69612423D01*
X140428893Y-69737722D01*
X140215013Y-70087031D01*
X140205334Y-70163877D01*
X140333002Y-70323000D01*
X141323000Y-70323000D01*
X141323000Y-70303000D01*
X141577000Y-70303000D01*
X141577000Y-70323000D01*
X142566998Y-70323000D01*
X142694666Y-70163877D01*
X142684987Y-70087031D01*
X142471107Y-69737722D01*
X142298782Y-69612423D01*
X142384818Y-69483661D01*
X142441242Y-69200000D01*
X142384818Y-68916339D01*
X142224137Y-68675863D01*
X142073185Y-68575000D01*
X142224137Y-68474137D01*
X142384818Y-68233661D01*
X142441242Y-67950000D01*
X142384818Y-67666339D01*
X142224137Y-67425863D01*
X142073185Y-67325000D01*
X142224137Y-67224137D01*
X142384818Y-66983661D01*
X142441242Y-66700000D01*
X142384818Y-66416339D01*
X142224137Y-66175863D01*
X142204359Y-66162648D01*
X142227589Y-66158027D01*
X142335754Y-66085754D01*
X142408027Y-65977589D01*
X142433406Y-65850000D01*
X142433406Y-65050000D01*
X142408027Y-64922411D01*
X142335754Y-64814246D01*
X142227589Y-64741973D01*
X142100000Y-64716594D01*
X140800000Y-64716594D01*
X140672411Y-64741973D01*
X140564246Y-64814246D01*
X140491973Y-64922411D01*
X140466594Y-65050000D01*
X140466594Y-65850000D01*
X140491973Y-65977589D01*
X140564246Y-66085754D01*
X140672411Y-66158027D01*
X140695641Y-66162648D01*
X140675863Y-66175863D01*
X140627231Y-66248647D01*
X140498638Y-66274225D01*
X140349126Y-66374126D01*
X140323909Y-66411867D01*
X139212776Y-67523000D01*
X138980391Y-67523000D01*
X138713187Y-67633679D01*
X138508679Y-67838187D01*
X138398000Y-68105391D01*
X128620207Y-68105391D01*
X128561358Y-68040817D01*
X128082594Y-67815977D01*
X128139242Y-67804709D01*
X128528569Y-67544569D01*
X128710026Y-67273000D01*
X128825253Y-67273000D01*
X128882081Y-67284304D01*
X128938909Y-67273000D01*
X128938910Y-67273000D01*
X129107215Y-67239522D01*
X129298075Y-67111994D01*
X129330269Y-67063812D01*
X129563690Y-66830391D01*
X130248000Y-66830391D01*
X130248000Y-67119609D01*
X130358679Y-67386813D01*
X130563187Y-67591321D01*
X130830391Y-67702000D01*
X131119609Y-67702000D01*
X131386813Y-67591321D01*
X131426134Y-67552000D01*
X134098866Y-67552000D01*
X134263187Y-67716321D01*
X134530391Y-67827000D01*
X134819609Y-67827000D01*
X135086813Y-67716321D01*
X135291321Y-67511813D01*
X135402000Y-67244609D01*
X135402000Y-66955391D01*
X135291321Y-66688187D01*
X135086813Y-66483679D01*
X134819609Y-66373000D01*
X134530391Y-66373000D01*
X134470035Y-66398000D01*
X131426134Y-66398000D01*
X131386813Y-66358679D01*
X131119609Y-66248000D01*
X130830391Y-66248000D01*
X130563187Y-66358679D01*
X130358679Y-66563187D01*
X130248000Y-66830391D01*
X129563690Y-66830391D01*
X130317082Y-66077000D01*
X135148866Y-66077000D01*
X135188187Y-66116321D01*
X135455391Y-66227000D01*
X135744609Y-66227000D01*
X136011813Y-66116321D01*
X136216321Y-65911813D01*
X136327000Y-65644609D01*
X136327000Y-65355391D01*
X136216321Y-65088187D01*
X136011813Y-64883679D01*
X135744609Y-64773000D01*
X135455391Y-64773000D01*
X135188187Y-64883679D01*
X135148866Y-64923000D01*
X130134908Y-64923000D01*
X130078080Y-64911696D01*
X130021252Y-64923000D01*
X129852947Y-64956478D01*
X129662087Y-65084006D01*
X129629895Y-65132185D01*
X128683211Y-66078870D01*
X128528569Y-65847431D01*
X128139242Y-65587291D01*
X128082594Y-65576023D01*
X128561358Y-65351183D01*
X128951645Y-64922924D01*
X129121476Y-64512890D01*
X129000155Y-64283000D01*
X127807000Y-64283000D01*
X127807000Y-64303000D01*
X127553000Y-64303000D01*
X127553000Y-64283000D01*
X126359845Y-64283000D01*
X126238524Y-64512890D01*
X125127000Y-64512890D01*
X125127000Y-63799110D01*
X126238524Y-63799110D01*
X126359845Y-64029000D01*
X127553000Y-64029000D01*
X127553000Y-64009000D01*
X127807000Y-64009000D01*
X127807000Y-64029000D01*
X129000155Y-64029000D01*
X129121476Y-63799110D01*
X128951645Y-63389076D01*
X128561358Y-62960817D01*
X128082594Y-62735977D01*
X128139242Y-62724709D01*
X128528569Y-62464569D01*
X128788709Y-62075242D01*
X128880058Y-61616000D01*
X128838166Y-61405391D01*
X130748000Y-61405391D01*
X130748000Y-61694609D01*
X130858679Y-61961813D01*
X131063187Y-62166321D01*
X131330391Y-62277000D01*
X131619609Y-62277000D01*
X131886813Y-62166321D01*
X131926134Y-62127000D01*
X133798866Y-62127000D01*
X133838187Y-62166321D01*
X134105391Y-62277000D01*
X134394609Y-62277000D01*
X134661813Y-62166321D01*
X134866321Y-61961813D01*
X134977000Y-61694609D01*
X134977000Y-61405391D01*
X134866321Y-61138187D01*
X134661813Y-60933679D01*
X134394609Y-60823000D01*
X134105391Y-60823000D01*
X133838187Y-60933679D01*
X133798866Y-60973000D01*
X131926134Y-60973000D01*
X131886813Y-60933679D01*
X131619609Y-60823000D01*
X131330391Y-60823000D01*
X131063187Y-60933679D01*
X130858679Y-61138187D01*
X130748000Y-61405391D01*
X128838166Y-61405391D01*
X128788709Y-61156758D01*
X128528569Y-60767431D01*
X128139242Y-60507291D01*
X127795920Y-60439000D01*
X127564080Y-60439000D01*
X127220758Y-60507291D01*
X126831431Y-60767431D01*
X126571291Y-61156758D01*
X126479942Y-61616000D01*
X126571291Y-62075242D01*
X126831431Y-62464569D01*
X127220758Y-62724709D01*
X127277406Y-62735977D01*
X126798642Y-62960817D01*
X126408355Y-63389076D01*
X126238524Y-63799110D01*
X125127000Y-63799110D01*
X125127000Y-59076000D01*
X126479942Y-59076000D01*
X126571291Y-59535242D01*
X126831431Y-59924569D01*
X127220758Y-60184709D01*
X127564080Y-60253000D01*
X127795920Y-60253000D01*
X128139242Y-60184709D01*
X128528569Y-59924569D01*
X128788709Y-59535242D01*
X128880058Y-59076000D01*
X128788709Y-58616758D01*
X128528569Y-58227431D01*
X128139242Y-57967291D01*
X127795920Y-57899000D01*
X127564080Y-57899000D01*
X127220758Y-57967291D01*
X126831431Y-58227431D01*
X126571291Y-58616758D01*
X126479942Y-59076000D01*
X125127000Y-59076000D01*
X125127000Y-56430391D01*
X127973000Y-56430391D01*
X127973000Y-56719609D01*
X128083679Y-56986813D01*
X128288187Y-57191321D01*
X128555391Y-57302000D01*
X128844609Y-57302000D01*
X129111813Y-57191321D01*
X129316321Y-56986813D01*
X129427000Y-56719609D01*
X129427000Y-56430391D01*
X130573000Y-56430391D01*
X130573000Y-56719609D01*
X130683679Y-56986813D01*
X130888187Y-57191321D01*
X131155391Y-57302000D01*
X131444609Y-57302000D01*
X131711813Y-57191321D01*
X131916321Y-56986813D01*
X132027000Y-56719609D01*
X132027000Y-56430391D01*
X132873000Y-56430391D01*
X132873000Y-56719609D01*
X132983679Y-56986813D01*
X133188187Y-57191321D01*
X133455391Y-57302000D01*
X133744609Y-57302000D01*
X134011813Y-57191321D01*
X134216321Y-56986813D01*
X134327000Y-56719609D01*
X134327000Y-56430391D01*
X135473000Y-56430391D01*
X135473000Y-56719609D01*
X135583679Y-56986813D01*
X135788187Y-57191321D01*
X136055391Y-57302000D01*
X136344609Y-57302000D01*
X136611813Y-57191321D01*
X136816321Y-56986813D01*
X136927000Y-56719609D01*
X136927000Y-56430391D01*
X136816321Y-56163187D01*
X136611813Y-55958679D01*
X136344609Y-55848000D01*
X136055391Y-55848000D01*
X135788187Y-55958679D01*
X135583679Y-56163187D01*
X135473000Y-56430391D01*
X134327000Y-56430391D01*
X134216321Y-56163187D01*
X134011813Y-55958679D01*
X133744609Y-55848000D01*
X133455391Y-55848000D01*
X133188187Y-55958679D01*
X132983679Y-56163187D01*
X132873000Y-56430391D01*
X132027000Y-56430391D01*
X131916321Y-56163187D01*
X131711813Y-55958679D01*
X131444609Y-55848000D01*
X131155391Y-55848000D01*
X130888187Y-55958679D01*
X130683679Y-56163187D01*
X130573000Y-56430391D01*
X129427000Y-56430391D01*
X129316321Y-56163187D01*
X129111813Y-55958679D01*
X128844609Y-55848000D01*
X128555391Y-55848000D01*
X128288187Y-55958679D01*
X128083679Y-56163187D01*
X127973000Y-56430391D01*
X125127000Y-56430391D01*
X125127000Y-54002000D01*
X143748000Y-54002000D01*
X143748001Y-92298000D01*
X143748001Y-92298000D01*
G37*
X143748001Y-92298000D02*
X136654930Y-92298000D01*
X136878569Y-92148569D01*
X137138709Y-91759242D01*
X137230058Y-91300000D01*
X137138709Y-90840758D01*
X136878569Y-90451431D01*
X136489242Y-90191291D01*
X136145920Y-90123000D01*
X135914080Y-90123000D01*
X135570758Y-90191291D01*
X135181431Y-90451431D01*
X134921291Y-90840758D01*
X134829942Y-91300000D01*
X134921291Y-91759242D01*
X135181431Y-92148569D01*
X135405070Y-92298000D01*
X134114930Y-92298000D01*
X134338569Y-92148569D01*
X134598709Y-91759242D01*
X134690058Y-91300000D01*
X134598709Y-90840758D01*
X134338569Y-90451431D01*
X133949242Y-90191291D01*
X133605920Y-90123000D01*
X133374080Y-90123000D01*
X133030758Y-90191291D01*
X132641431Y-90451431D01*
X132435000Y-90760377D01*
X132435000Y-90323691D01*
X132338327Y-90090302D01*
X132159699Y-89911673D01*
X131926310Y-89815000D01*
X131235750Y-89815000D01*
X131077000Y-89973750D01*
X131077000Y-91173000D01*
X131097000Y-91173000D01*
X131097000Y-91427000D01*
X131077000Y-91427000D01*
X131077000Y-91447000D01*
X130823000Y-91447000D01*
X130823000Y-91427000D01*
X129623750Y-91427000D01*
X129465000Y-91585750D01*
X129465000Y-92276309D01*
X129473985Y-92298000D01*
X125127000Y-92298000D01*
X125127000Y-90323691D01*
X129465000Y-90323691D01*
X129465000Y-91014250D01*
X129623750Y-91173000D01*
X130823000Y-91173000D01*
X130823000Y-89973750D01*
X130664250Y-89815000D01*
X129973690Y-89815000D01*
X129740301Y-89911673D01*
X129561673Y-90090302D01*
X129465000Y-90323691D01*
X125127000Y-90323691D01*
X125127000Y-75565391D01*
X126048000Y-75565391D01*
X126048000Y-75854609D01*
X126158679Y-76121813D01*
X126363187Y-76326321D01*
X126630391Y-76437000D01*
X126919609Y-76437000D01*
X127186813Y-76326321D01*
X127391321Y-76121813D01*
X127502000Y-75854609D01*
X127502000Y-75605391D01*
X131323000Y-75605391D01*
X131323000Y-75894609D01*
X131433679Y-76161813D01*
X131638187Y-76366321D01*
X131905391Y-76477000D01*
X132194609Y-76477000D01*
X132461813Y-76366321D01*
X132626134Y-76202000D01*
X135373866Y-76202000D01*
X135538187Y-76366321D01*
X135805391Y-76477000D01*
X136094609Y-76477000D01*
X136361813Y-76366321D01*
X136566321Y-76161813D01*
X136677000Y-75894609D01*
X136677000Y-75605391D01*
X136566321Y-75338187D01*
X136361813Y-75133679D01*
X136094609Y-75023000D01*
X135805391Y-75023000D01*
X135538187Y-75133679D01*
X135373866Y-75298000D01*
X132626134Y-75298000D01*
X132461813Y-75133679D01*
X132194609Y-75023000D01*
X131905391Y-75023000D01*
X131638187Y-75133679D01*
X131433679Y-75338187D01*
X131323000Y-75605391D01*
X127502000Y-75605391D01*
X127502000Y-75565391D01*
X127391321Y-75298187D01*
X127352000Y-75258866D01*
X127352000Y-74270000D01*
X128047815Y-73574186D01*
X128095994Y-73541994D01*
X128223522Y-73351134D01*
X128257000Y-73182829D01*
X128268304Y-73126001D01*
X128257000Y-73069173D01*
X128257000Y-72959406D01*
X128530000Y-72959406D01*
X128657589Y-72934027D01*
X128765754Y-72861754D01*
X128838027Y-72753589D01*
X128863406Y-72626000D01*
X128863406Y-70926000D01*
X128838027Y-70798411D01*
X128765754Y-70690246D01*
X128657589Y-70617973D01*
X128530000Y-70592594D01*
X128217657Y-70592594D01*
X128561358Y-70431183D01*
X128951645Y-70002924D01*
X129121476Y-69592890D01*
X129000155Y-69363000D01*
X127807000Y-69363000D01*
X127807000Y-69383000D01*
X127553000Y-69383000D01*
X127553000Y-69363000D01*
X126359845Y-69363000D01*
X126238524Y-69592890D01*
X126408355Y-70002924D01*
X126798642Y-70431183D01*
X127142343Y-70592594D01*
X126830000Y-70592594D01*
X126702411Y-70617973D01*
X126594246Y-70690246D01*
X126521973Y-70798411D01*
X126496594Y-70926000D01*
X126496594Y-72626000D01*
X126521973Y-72753589D01*
X126594246Y-72861754D01*
X126702411Y-72934027D01*
X126830000Y-72959406D01*
X127030593Y-72959406D01*
X126407188Y-73582812D01*
X126359006Y-73615006D01*
X126231478Y-73805867D01*
X126198000Y-73974171D01*
X126186696Y-74031000D01*
X126198000Y-74087828D01*
X126198001Y-75258865D01*
X126158679Y-75298187D01*
X126048000Y-75565391D01*
X125127000Y-75565391D01*
X125127000Y-64512890D01*
X126238524Y-64512890D01*
X126408355Y-64922924D01*
X126798642Y-65351183D01*
X127277406Y-65576023D01*
X127220758Y-65587291D01*
X126831431Y-65847431D01*
X126571291Y-66236758D01*
X126479942Y-66696000D01*
X126571291Y-67155242D01*
X126831431Y-67544569D01*
X127220758Y-67804709D01*
X127277406Y-67815977D01*
X126798642Y-68040817D01*
X126408355Y-68469076D01*
X126238524Y-68879110D01*
X126359845Y-69109000D01*
X127553000Y-69109000D01*
X127553000Y-69089000D01*
X127807000Y-69089000D01*
X127807000Y-69109000D01*
X129000155Y-69109000D01*
X129041639Y-69030391D01*
X130298000Y-69030391D01*
X130298000Y-69319609D01*
X130408679Y-69586813D01*
X130448000Y-69626134D01*
X130448001Y-71718167D01*
X130436696Y-71775000D01*
X130453044Y-71857183D01*
X130481479Y-72000134D01*
X130609007Y-72190994D01*
X130657186Y-72223186D01*
X130748000Y-72314000D01*
X130748000Y-72369609D01*
X130858679Y-72636813D01*
X131063187Y-72841321D01*
X131330391Y-72952000D01*
X131619609Y-72952000D01*
X131886813Y-72841321D01*
X132091321Y-72636813D01*
X132202000Y-72369609D01*
X132202000Y-72080391D01*
X132091321Y-71813187D01*
X131886813Y-71608679D01*
X131619609Y-71498000D01*
X131602000Y-71498000D01*
X131602000Y-70879266D01*
X131708679Y-71136813D01*
X131913187Y-71341321D01*
X132180391Y-71452000D01*
X132400812Y-71452000D01*
X132436865Y-71476090D01*
X132548637Y-71550774D01*
X132724998Y-71585854D01*
X132769516Y-71576999D01*
X135505483Y-71576999D01*
X135550001Y-71585854D01*
X135594519Y-71576999D01*
X135726363Y-71550774D01*
X135875875Y-71450873D01*
X135901094Y-71413130D01*
X136562224Y-70752000D01*
X136794609Y-70752000D01*
X136832939Y-70736123D01*
X140205334Y-70736123D01*
X140215013Y-70812969D01*
X140428893Y-71162278D01*
X140760167Y-71403149D01*
X141158402Y-71498912D01*
X141323000Y-71333756D01*
X141323000Y-70577000D01*
X141577000Y-70577000D01*
X141577000Y-71333756D01*
X141741598Y-71498912D01*
X142139833Y-71403149D01*
X142471107Y-71162278D01*
X142684987Y-70812969D01*
X142694666Y-70736123D01*
X142566998Y-70577000D01*
X141577000Y-70577000D01*
X141323000Y-70577000D01*
X140333002Y-70577000D01*
X140205334Y-70736123D01*
X136832939Y-70736123D01*
X137061813Y-70641321D01*
X137266321Y-70436813D01*
X137377000Y-70169609D01*
X137377000Y-69880391D01*
X137266321Y-69613187D01*
X137061813Y-69408679D01*
X136794609Y-69298000D01*
X136505391Y-69298000D01*
X136238187Y-69408679D01*
X136033679Y-69613187D01*
X135923000Y-69880391D01*
X135923000Y-70112776D01*
X135362777Y-70672999D01*
X134319732Y-70672999D01*
X134491321Y-70501410D01*
X134602000Y-70234206D01*
X134602000Y-69944988D01*
X134491321Y-69677784D01*
X134286813Y-69473276D01*
X134019609Y-69362597D01*
X133826821Y-69362597D01*
X133527000Y-69062776D01*
X133527000Y-68830391D01*
X133416321Y-68563187D01*
X133211813Y-68358679D01*
X132944609Y-68248000D01*
X132655391Y-68248000D01*
X132388187Y-68358679D01*
X132183679Y-68563187D01*
X132073000Y-68830391D01*
X132073000Y-69119609D01*
X132183679Y-69386813D01*
X132388187Y-69591321D01*
X132655391Y-69702000D01*
X132887776Y-69702000D01*
X133148000Y-69962224D01*
X133148000Y-70234206D01*
X133258679Y-70501410D01*
X133430268Y-70672999D01*
X133052000Y-70672999D01*
X133052000Y-70580391D01*
X132941321Y-70313187D01*
X132736813Y-70108679D01*
X132469609Y-69998000D01*
X132180391Y-69998000D01*
X131913187Y-70108679D01*
X131708679Y-70313187D01*
X131602000Y-70570734D01*
X131602000Y-69626134D01*
X131641321Y-69586813D01*
X131752000Y-69319609D01*
X131752000Y-69030391D01*
X131641321Y-68763187D01*
X131436813Y-68558679D01*
X131169609Y-68448000D01*
X130880391Y-68448000D01*
X130613187Y-68558679D01*
X130408679Y-68763187D01*
X130298000Y-69030391D01*
X129041639Y-69030391D01*
X129121476Y-68879110D01*
X128951645Y-68469076D01*
X128620207Y-68105391D01*
X138398000Y-68105391D01*
X138398000Y-68394609D01*
X138508679Y-68661813D01*
X138713187Y-68866321D01*
X138980391Y-68977000D01*
X139269609Y-68977000D01*
X139536813Y-68866321D01*
X139741321Y-68661813D01*
X139852000Y-68394609D01*
X139852000Y-68162224D01*
X140744336Y-67269889D01*
X140826815Y-67325000D01*
X140675863Y-67425863D01*
X140515182Y-67666339D01*
X140458758Y-67950000D01*
X140515182Y-68233661D01*
X140675863Y-68474137D01*
X140826815Y-68575000D01*
X140675863Y-68675863D01*
X140515182Y-68916339D01*
X140458758Y-69200000D01*
X140515182Y-69483661D01*
X140601218Y-69612423D01*
X140428893Y-69737722D01*
X140215013Y-70087031D01*
X140205334Y-70163877D01*
X140333002Y-70323000D01*
X141323000Y-70323000D01*
X141323000Y-70303000D01*
X141577000Y-70303000D01*
X141577000Y-70323000D01*
X142566998Y-70323000D01*
X142694666Y-70163877D01*
X142684987Y-70087031D01*
X142471107Y-69737722D01*
X142298782Y-69612423D01*
X142384818Y-69483661D01*
X142441242Y-69200000D01*
X142384818Y-68916339D01*
X142224137Y-68675863D01*
X142073185Y-68575000D01*
X142224137Y-68474137D01*
X142384818Y-68233661D01*
X142441242Y-67950000D01*
X142384818Y-67666339D01*
X142224137Y-67425863D01*
X142073185Y-67325000D01*
X142224137Y-67224137D01*
X142384818Y-66983661D01*
X142441242Y-66700000D01*
X142384818Y-66416339D01*
X142224137Y-66175863D01*
X142204359Y-66162648D01*
X142227589Y-66158027D01*
X142335754Y-66085754D01*
X142408027Y-65977589D01*
X142433406Y-65850000D01*
X142433406Y-65050000D01*
X142408027Y-64922411D01*
X142335754Y-64814246D01*
X142227589Y-64741973D01*
X142100000Y-64716594D01*
X140800000Y-64716594D01*
X140672411Y-64741973D01*
X140564246Y-64814246D01*
X140491973Y-64922411D01*
X140466594Y-65050000D01*
X140466594Y-65850000D01*
X140491973Y-65977589D01*
X140564246Y-66085754D01*
X140672411Y-66158027D01*
X140695641Y-66162648D01*
X140675863Y-66175863D01*
X140627231Y-66248647D01*
X140498638Y-66274225D01*
X140349126Y-66374126D01*
X140323909Y-66411867D01*
X139212776Y-67523000D01*
X138980391Y-67523000D01*
X138713187Y-67633679D01*
X138508679Y-67838187D01*
X138398000Y-68105391D01*
X128620207Y-68105391D01*
X128561358Y-68040817D01*
X128082594Y-67815977D01*
X128139242Y-67804709D01*
X128528569Y-67544569D01*
X128710026Y-67273000D01*
X128825253Y-67273000D01*
X128882081Y-67284304D01*
X128938909Y-67273000D01*
X128938910Y-67273000D01*
X129107215Y-67239522D01*
X129298075Y-67111994D01*
X129330269Y-67063812D01*
X129563690Y-66830391D01*
X130248000Y-66830391D01*
X130248000Y-67119609D01*
X130358679Y-67386813D01*
X130563187Y-67591321D01*
X130830391Y-67702000D01*
X131119609Y-67702000D01*
X131386813Y-67591321D01*
X131426134Y-67552000D01*
X134098866Y-67552000D01*
X134263187Y-67716321D01*
X134530391Y-67827000D01*
X134819609Y-67827000D01*
X135086813Y-67716321D01*
X135291321Y-67511813D01*
X135402000Y-67244609D01*
X135402000Y-66955391D01*
X135291321Y-66688187D01*
X135086813Y-66483679D01*
X134819609Y-66373000D01*
X134530391Y-66373000D01*
X134470035Y-66398000D01*
X131426134Y-66398000D01*
X131386813Y-66358679D01*
X131119609Y-66248000D01*
X130830391Y-66248000D01*
X130563187Y-66358679D01*
X130358679Y-66563187D01*
X130248000Y-66830391D01*
X129563690Y-66830391D01*
X130317082Y-66077000D01*
X135148866Y-66077000D01*
X135188187Y-66116321D01*
X135455391Y-66227000D01*
X135744609Y-66227000D01*
X136011813Y-66116321D01*
X136216321Y-65911813D01*
X136327000Y-65644609D01*
X136327000Y-65355391D01*
X136216321Y-65088187D01*
X136011813Y-64883679D01*
X135744609Y-64773000D01*
X135455391Y-64773000D01*
X135188187Y-64883679D01*
X135148866Y-64923000D01*
X130134908Y-64923000D01*
X130078080Y-64911696D01*
X130021252Y-64923000D01*
X129852947Y-64956478D01*
X129662087Y-65084006D01*
X129629895Y-65132185D01*
X128683211Y-66078870D01*
X128528569Y-65847431D01*
X128139242Y-65587291D01*
X128082594Y-65576023D01*
X128561358Y-65351183D01*
X128951645Y-64922924D01*
X129121476Y-64512890D01*
X129000155Y-64283000D01*
X127807000Y-64283000D01*
X127807000Y-64303000D01*
X127553000Y-64303000D01*
X127553000Y-64283000D01*
X126359845Y-64283000D01*
X126238524Y-64512890D01*
X125127000Y-64512890D01*
X125127000Y-63799110D01*
X126238524Y-63799110D01*
X126359845Y-64029000D01*
X127553000Y-64029000D01*
X127553000Y-64009000D01*
X127807000Y-64009000D01*
X127807000Y-64029000D01*
X129000155Y-64029000D01*
X129121476Y-63799110D01*
X128951645Y-63389076D01*
X128561358Y-62960817D01*
X128082594Y-62735977D01*
X128139242Y-62724709D01*
X128528569Y-62464569D01*
X128788709Y-62075242D01*
X128880058Y-61616000D01*
X128838166Y-61405391D01*
X130748000Y-61405391D01*
X130748000Y-61694609D01*
X130858679Y-61961813D01*
X131063187Y-62166321D01*
X131330391Y-62277000D01*
X131619609Y-62277000D01*
X131886813Y-62166321D01*
X131926134Y-62127000D01*
X133798866Y-62127000D01*
X133838187Y-62166321D01*
X134105391Y-62277000D01*
X134394609Y-62277000D01*
X134661813Y-62166321D01*
X134866321Y-61961813D01*
X134977000Y-61694609D01*
X134977000Y-61405391D01*
X134866321Y-61138187D01*
X134661813Y-60933679D01*
X134394609Y-60823000D01*
X134105391Y-60823000D01*
X133838187Y-60933679D01*
X133798866Y-60973000D01*
X131926134Y-60973000D01*
X131886813Y-60933679D01*
X131619609Y-60823000D01*
X131330391Y-60823000D01*
X131063187Y-60933679D01*
X130858679Y-61138187D01*
X130748000Y-61405391D01*
X128838166Y-61405391D01*
X128788709Y-61156758D01*
X128528569Y-60767431D01*
X128139242Y-60507291D01*
X127795920Y-60439000D01*
X127564080Y-60439000D01*
X127220758Y-60507291D01*
X126831431Y-60767431D01*
X126571291Y-61156758D01*
X126479942Y-61616000D01*
X126571291Y-62075242D01*
X126831431Y-62464569D01*
X127220758Y-62724709D01*
X127277406Y-62735977D01*
X126798642Y-62960817D01*
X126408355Y-63389076D01*
X126238524Y-63799110D01*
X125127000Y-63799110D01*
X125127000Y-59076000D01*
X126479942Y-59076000D01*
X126571291Y-59535242D01*
X126831431Y-59924569D01*
X127220758Y-60184709D01*
X127564080Y-60253000D01*
X127795920Y-60253000D01*
X128139242Y-60184709D01*
X128528569Y-59924569D01*
X128788709Y-59535242D01*
X128880058Y-59076000D01*
X128788709Y-58616758D01*
X128528569Y-58227431D01*
X128139242Y-57967291D01*
X127795920Y-57899000D01*
X127564080Y-57899000D01*
X127220758Y-57967291D01*
X126831431Y-58227431D01*
X126571291Y-58616758D01*
X126479942Y-59076000D01*
X125127000Y-59076000D01*
X125127000Y-56430391D01*
X127973000Y-56430391D01*
X127973000Y-56719609D01*
X128083679Y-56986813D01*
X128288187Y-57191321D01*
X128555391Y-57302000D01*
X128844609Y-57302000D01*
X129111813Y-57191321D01*
X129316321Y-56986813D01*
X129427000Y-56719609D01*
X129427000Y-56430391D01*
X130573000Y-56430391D01*
X130573000Y-56719609D01*
X130683679Y-56986813D01*
X130888187Y-57191321D01*
X131155391Y-57302000D01*
X131444609Y-57302000D01*
X131711813Y-57191321D01*
X131916321Y-56986813D01*
X132027000Y-56719609D01*
X132027000Y-56430391D01*
X132873000Y-56430391D01*
X132873000Y-56719609D01*
X132983679Y-56986813D01*
X133188187Y-57191321D01*
X133455391Y-57302000D01*
X133744609Y-57302000D01*
X134011813Y-57191321D01*
X134216321Y-56986813D01*
X134327000Y-56719609D01*
X134327000Y-56430391D01*
X135473000Y-56430391D01*
X135473000Y-56719609D01*
X135583679Y-56986813D01*
X135788187Y-57191321D01*
X136055391Y-57302000D01*
X136344609Y-57302000D01*
X136611813Y-57191321D01*
X136816321Y-56986813D01*
X136927000Y-56719609D01*
X136927000Y-56430391D01*
X136816321Y-56163187D01*
X136611813Y-55958679D01*
X136344609Y-55848000D01*
X136055391Y-55848000D01*
X135788187Y-55958679D01*
X135583679Y-56163187D01*
X135473000Y-56430391D01*
X134327000Y-56430391D01*
X134216321Y-56163187D01*
X134011813Y-55958679D01*
X133744609Y-55848000D01*
X133455391Y-55848000D01*
X133188187Y-55958679D01*
X132983679Y-56163187D01*
X132873000Y-56430391D01*
X132027000Y-56430391D01*
X131916321Y-56163187D01*
X131711813Y-55958679D01*
X131444609Y-55848000D01*
X131155391Y-55848000D01*
X130888187Y-55958679D01*
X130683679Y-56163187D01*
X130573000Y-56430391D01*
X129427000Y-56430391D01*
X129316321Y-56163187D01*
X129111813Y-55958679D01*
X128844609Y-55848000D01*
X128555391Y-55848000D01*
X128288187Y-55958679D01*
X128083679Y-56163187D01*
X127973000Y-56430391D01*
X125127000Y-56430391D01*
X125127000Y-54002000D01*
X143748000Y-54002000D01*
X143748001Y-92298000D01*
G04 #@! TD*
M02*
