G04 #@! TF.GenerationSoftware,KiCad,Pcbnew,6.0.0-rc1-unknown-bb2e402~84~ubuntu18.04.1*
G04 #@! TF.CreationDate,2019-10-14T10:53:54-04:00
G04 #@! TF.ProjectId,pmtcmini-h10770,706d7463-6d69-46e6-992d-683130373730,rev?*
G04 #@! TF.SameCoordinates,Original*
G04 #@! TF.FileFunction,Legend,Top*
G04 #@! TF.FilePolarity,Positive*
%FSLAX46Y46*%
G04 Gerber Fmt 4.6, Leading zero omitted, Abs format (unit mm)*
G04 Created by KiCad (PCBNEW 6.0.0-rc1-unknown-bb2e402~84~ubuntu18.04.1) date Mon 14 Oct 2019 10:53:54 AM EDT*
%MOMM*%
%LPD*%
G04 APERTURE LIST*
%ADD10C,0.100000*%
%ADD11C,0.120000*%
%ADD12C,0.152400*%
%ADD13C,0.200000*%
%ADD14C,0.150000*%
%ADD15C,0.127000*%
G04 APERTURE END LIST*
D10*
X132116666Y-83450000D02*
X132050000Y-83416666D01*
X131950000Y-83416666D01*
X131850000Y-83450000D01*
X131783333Y-83516666D01*
X131750000Y-83583333D01*
X131716666Y-83716666D01*
X131716666Y-83816666D01*
X131750000Y-83950000D01*
X131783333Y-84016666D01*
X131850000Y-84083333D01*
X131950000Y-84116666D01*
X132016666Y-84116666D01*
X132116666Y-84083333D01*
X132150000Y-84050000D01*
X132150000Y-83816666D01*
X132016666Y-83816666D01*
X132450000Y-84116666D02*
X132450000Y-83416666D01*
X132850000Y-84116666D01*
X132850000Y-83416666D01*
X133183333Y-84116666D02*
X133183333Y-83416666D01*
X133350000Y-83416666D01*
X133450000Y-83450000D01*
X133516666Y-83516666D01*
X133550000Y-83583333D01*
X133583333Y-83716666D01*
X133583333Y-83816666D01*
X133550000Y-83950000D01*
X133516666Y-84016666D01*
X133450000Y-84083333D01*
X133350000Y-84116666D01*
X133183333Y-84116666D01*
X134383333Y-83916666D02*
X134716666Y-83916666D01*
X134316666Y-84116666D02*
X134550000Y-83416666D01*
X134783333Y-84116666D01*
X135016666Y-84116666D02*
X135016666Y-83416666D01*
X135183333Y-83416666D01*
X135283333Y-83450000D01*
X135350000Y-83516666D01*
X135383333Y-83583333D01*
X135416666Y-83716666D01*
X135416666Y-83816666D01*
X135383333Y-83950000D01*
X135350000Y-84016666D01*
X135283333Y-84083333D01*
X135183333Y-84116666D01*
X135016666Y-84116666D01*
X135916666Y-83416666D02*
X135916666Y-83916666D01*
X135883333Y-84016666D01*
X135816666Y-84083333D01*
X135716666Y-84116666D01*
X135650000Y-84116666D01*
X137216666Y-83416666D02*
X137450000Y-84116666D01*
X137683333Y-83416666D01*
X137916666Y-83850000D02*
X138450000Y-83850000D01*
X138183333Y-84116666D02*
X138183333Y-83583333D01*
D11*
X136737221Y-77460000D02*
X137062779Y-77460000D01*
X136737221Y-76440000D02*
X137062779Y-76440000D01*
D12*
X138426400Y-73976400D02*
X138426400Y-69506000D01*
X135073600Y-70623600D02*
X135073600Y-73976400D01*
D13*
X141750000Y-76025000D02*
X141750000Y-77275000D01*
X138700000Y-77625000D02*
X141600000Y-77625000D01*
X138700000Y-78175000D02*
X138700000Y-77625000D01*
X141600000Y-78175000D02*
X138700000Y-78175000D01*
X141600000Y-77625000D02*
X141600000Y-78175000D01*
D12*
X141770800Y-75421000D02*
G75*
G02X141770800Y-75167000I0J127000D01*
G01*
X141770800Y-75167000D02*
G75*
G02X141770800Y-75421000I0J-127000D01*
G01*
X139637200Y-74151000D02*
X141262800Y-74151000D01*
X139637200Y-70849000D02*
X139637200Y-71890400D01*
X141262800Y-70849000D02*
X139637200Y-70849000D01*
X139637200Y-73109600D02*
X139637200Y-74151000D01*
D11*
X131370000Y-87030000D02*
X131370000Y-85700000D01*
X132700000Y-87030000D02*
X131370000Y-87030000D01*
X133970000Y-87030000D02*
X133970000Y-84370000D01*
X133970000Y-84370000D02*
X139110000Y-84370000D01*
X133970000Y-87030000D02*
X139110000Y-87030000D01*
X139110000Y-87030000D02*
X139110000Y-84370000D01*
X129610000Y-59537221D02*
X129610000Y-59862779D01*
X128590000Y-59537221D02*
X128590000Y-59862779D01*
X131010000Y-66858578D02*
X131010000Y-66341422D01*
X129590000Y-66858578D02*
X129590000Y-66341422D01*
X131010000Y-70683578D02*
X131010000Y-70166422D01*
X129590000Y-70683578D02*
X129590000Y-70166422D01*
X134140000Y-77912779D02*
X134140000Y-77587221D01*
X135160000Y-77912779D02*
X135160000Y-77587221D01*
X133710000Y-77950279D02*
X133710000Y-77624721D01*
X132690000Y-77950279D02*
X132690000Y-77624721D01*
X140912221Y-66710000D02*
X141237779Y-66710000D01*
X140912221Y-65690000D02*
X141237779Y-65690000D01*
X132737221Y-74360000D02*
X133062779Y-74360000D01*
X132737221Y-73340000D02*
X133062779Y-73340000D01*
X141312779Y-59540000D02*
X140987221Y-59540000D01*
X141312779Y-60560000D02*
X140987221Y-60560000D01*
X133387779Y-67515000D02*
X133062221Y-67515000D01*
X133387779Y-68535000D02*
X133062221Y-68535000D01*
X140510000Y-69062779D02*
X140510000Y-68737221D01*
X139490000Y-69062779D02*
X139490000Y-68737221D01*
D13*
X142500000Y-62475000D02*
X142500000Y-63325000D01*
X142500000Y-63325000D02*
X139600000Y-63325000D01*
X139600000Y-63325000D02*
X139600000Y-62475000D01*
X139600000Y-62475000D02*
X142500000Y-62475000D01*
X142525000Y-61075000D02*
X142525000Y-62125000D01*
X134350000Y-70525000D02*
X134350000Y-71375000D01*
X134350000Y-71375000D02*
X131450000Y-71375000D01*
X131450000Y-71375000D02*
X131450000Y-70525000D01*
X131450000Y-70525000D02*
X134350000Y-70525000D01*
X134375000Y-69125000D02*
X134375000Y-70175000D01*
D14*
X131715000Y-66510000D02*
X131715000Y-58890000D01*
X131715000Y-58890000D02*
X132985000Y-58890000D01*
X132985000Y-58890000D02*
X132985000Y-66510000D01*
X132985000Y-66510000D02*
X131715000Y-66510000D01*
X132888815Y-59525000D02*
G75*
G03X132888815Y-59525000I-538815J0D01*
G01*
X131842000Y-60160000D02*
X131842000Y-59017000D01*
X131842000Y-59017000D02*
X132858000Y-59017000D01*
X132858000Y-59017000D02*
X132858000Y-60160000D01*
X132858000Y-60160000D02*
X131842000Y-60160000D01*
X131842000Y-60033000D02*
X132858000Y-60033000D01*
D15*
X133750000Y-64150000D02*
X133750000Y-64250000D01*
X133750000Y-64250000D02*
X133850000Y-64250000D01*
X137650000Y-64250000D02*
X137750000Y-64250000D01*
X137750000Y-64250000D02*
X137750000Y-64150000D01*
X137750000Y-60350000D02*
X137750000Y-60250000D01*
X137750000Y-60250000D02*
X137650000Y-60250000D01*
X133850000Y-60250000D02*
X133750000Y-60250000D01*
X133750000Y-60250000D02*
X133750000Y-60350000D01*
D10*
X133900000Y-64650000D02*
G75*
G03X133900000Y-64650000I-50000J0D01*
G01*
X139350000Y-57550000D02*
X139500000Y-57550000D01*
X139350000Y-57850000D02*
X139350000Y-57550000D01*
X139050000Y-58200000D02*
X139350000Y-57850000D01*
X138600000Y-58200000D02*
X139050000Y-58200000D01*
X131150000Y-58200000D02*
X131150000Y-57500000D01*
X131650000Y-58200000D02*
X131150000Y-58200000D01*
X131150000Y-52500000D02*
X131550000Y-52500000D01*
X131150000Y-53100000D02*
X131150000Y-52500000D01*
X139350000Y-52500000D02*
X138700000Y-52500000D01*
X139350000Y-53050000D02*
X139350000Y-52500000D01*
X136775000Y-78489285D02*
X136746428Y-78517857D01*
X136660714Y-78546428D01*
X136603571Y-78546428D01*
X136517857Y-78517857D01*
X136460714Y-78460714D01*
X136432142Y-78403571D01*
X136403571Y-78289285D01*
X136403571Y-78203571D01*
X136432142Y-78089285D01*
X136460714Y-78032142D01*
X136517857Y-77975000D01*
X136603571Y-77946428D01*
X136660714Y-77946428D01*
X136746428Y-77975000D01*
X136775000Y-78003571D01*
X137289285Y-77946428D02*
X137175000Y-77946428D01*
X137117857Y-77975000D01*
X137089285Y-78003571D01*
X137032142Y-78089285D01*
X137003571Y-78203571D01*
X137003571Y-78432142D01*
X137032142Y-78489285D01*
X137060714Y-78517857D01*
X137117857Y-78546428D01*
X137232142Y-78546428D01*
X137289285Y-78517857D01*
X137317857Y-78489285D01*
X137346428Y-78432142D01*
X137346428Y-78289285D01*
X137317857Y-78232142D01*
X137289285Y-78203571D01*
X137232142Y-78175000D01*
X137117857Y-78175000D01*
X137060714Y-78203571D01*
X137032142Y-78232142D01*
X137003571Y-78289285D01*
X138721428Y-71057142D02*
X139207142Y-71057142D01*
X139264285Y-71028571D01*
X139292857Y-71000000D01*
X139321428Y-70942857D01*
X139321428Y-70828571D01*
X139292857Y-70771428D01*
X139264285Y-70742857D01*
X139207142Y-70714285D01*
X138721428Y-70714285D01*
X138778571Y-70457142D02*
X138750000Y-70428571D01*
X138721428Y-70371428D01*
X138721428Y-70228571D01*
X138750000Y-70171428D01*
X138778571Y-70142857D01*
X138835714Y-70114285D01*
X138892857Y-70114285D01*
X138978571Y-70142857D01*
X139321428Y-70485714D01*
X139321428Y-70114285D01*
X142121428Y-77957142D02*
X142607142Y-77957142D01*
X142664285Y-77928571D01*
X142692857Y-77900000D01*
X142721428Y-77842857D01*
X142721428Y-77728571D01*
X142692857Y-77671428D01*
X142664285Y-77642857D01*
X142607142Y-77614285D01*
X142121428Y-77614285D01*
X142121428Y-77042857D02*
X142121428Y-77328571D01*
X142407142Y-77357142D01*
X142378571Y-77328571D01*
X142350000Y-77271428D01*
X142350000Y-77128571D01*
X142378571Y-77071428D01*
X142407142Y-77042857D01*
X142464285Y-77014285D01*
X142607142Y-77014285D01*
X142664285Y-77042857D01*
X142692857Y-77071428D01*
X142721428Y-77128571D01*
X142721428Y-77271428D01*
X142692857Y-77328571D01*
X142664285Y-77357142D01*
X141742857Y-74221428D02*
X141742857Y-74707142D01*
X141771428Y-74764285D01*
X141800000Y-74792857D01*
X141857142Y-74821428D01*
X141971428Y-74821428D01*
X142028571Y-74792857D01*
X142057142Y-74764285D01*
X142085714Y-74707142D01*
X142085714Y-74221428D01*
X142685714Y-74821428D02*
X142342857Y-74821428D01*
X142514285Y-74821428D02*
X142514285Y-74221428D01*
X142457142Y-74307142D01*
X142400000Y-74364285D01*
X142342857Y-74392857D01*
X130471428Y-60185714D02*
X130185714Y-60385714D01*
X130471428Y-60528571D02*
X129871428Y-60528571D01*
X129871428Y-60300000D01*
X129900000Y-60242857D01*
X129928571Y-60214285D01*
X129985714Y-60185714D01*
X130071428Y-60185714D01*
X130128571Y-60214285D01*
X130157142Y-60242857D01*
X130185714Y-60300000D01*
X130185714Y-60528571D01*
X130471428Y-59614285D02*
X130471428Y-59957142D01*
X130471428Y-59785714D02*
X129871428Y-59785714D01*
X129957142Y-59842857D01*
X130014285Y-59900000D01*
X130042857Y-59957142D01*
X130471428Y-59042857D02*
X130471428Y-59385714D01*
X130471428Y-59214285D02*
X129871428Y-59214285D01*
X129957142Y-59271428D01*
X130014285Y-59328571D01*
X130042857Y-59385714D01*
X128921428Y-66985714D02*
X128635714Y-67185714D01*
X128921428Y-67328571D02*
X128321428Y-67328571D01*
X128321428Y-67100000D01*
X128350000Y-67042857D01*
X128378571Y-67014285D01*
X128435714Y-66985714D01*
X128521428Y-66985714D01*
X128578571Y-67014285D01*
X128607142Y-67042857D01*
X128635714Y-67100000D01*
X128635714Y-67328571D01*
X128921428Y-66414285D02*
X128921428Y-66757142D01*
X128921428Y-66585714D02*
X128321428Y-66585714D01*
X128407142Y-66642857D01*
X128464285Y-66700000D01*
X128492857Y-66757142D01*
X128321428Y-66042857D02*
X128321428Y-65985714D01*
X128350000Y-65928571D01*
X128378571Y-65900000D01*
X128435714Y-65871428D01*
X128550000Y-65842857D01*
X128692857Y-65842857D01*
X128807142Y-65871428D01*
X128864285Y-65900000D01*
X128892857Y-65928571D01*
X128921428Y-65985714D01*
X128921428Y-66042857D01*
X128892857Y-66100000D01*
X128864285Y-66128571D01*
X128807142Y-66157142D01*
X128692857Y-66185714D01*
X128550000Y-66185714D01*
X128435714Y-66157142D01*
X128378571Y-66128571D01*
X128350000Y-66100000D01*
X128321428Y-66042857D01*
X129071428Y-71250000D02*
X128785714Y-71450000D01*
X129071428Y-71592857D02*
X128471428Y-71592857D01*
X128471428Y-71364285D01*
X128500000Y-71307142D01*
X128528571Y-71278571D01*
X128585714Y-71250000D01*
X128671428Y-71250000D01*
X128728571Y-71278571D01*
X128757142Y-71307142D01*
X128785714Y-71364285D01*
X128785714Y-71592857D01*
X129071428Y-70964285D02*
X129071428Y-70850000D01*
X129042857Y-70792857D01*
X129014285Y-70764285D01*
X128928571Y-70707142D01*
X128814285Y-70678571D01*
X128585714Y-70678571D01*
X128528571Y-70707142D01*
X128500000Y-70735714D01*
X128471428Y-70792857D01*
X128471428Y-70907142D01*
X128500000Y-70964285D01*
X128528571Y-70992857D01*
X128585714Y-71021428D01*
X128728571Y-71021428D01*
X128785714Y-70992857D01*
X128814285Y-70964285D01*
X128842857Y-70907142D01*
X128842857Y-70792857D01*
X128814285Y-70735714D01*
X128785714Y-70707142D01*
X128728571Y-70678571D01*
X134971428Y-80200000D02*
X134685714Y-80400000D01*
X134971428Y-80542857D02*
X134371428Y-80542857D01*
X134371428Y-80314285D01*
X134400000Y-80257142D01*
X134428571Y-80228571D01*
X134485714Y-80200000D01*
X134571428Y-80200000D01*
X134628571Y-80228571D01*
X134657142Y-80257142D01*
X134685714Y-80314285D01*
X134685714Y-80542857D01*
X134628571Y-79857142D02*
X134600000Y-79914285D01*
X134571428Y-79942857D01*
X134514285Y-79971428D01*
X134485714Y-79971428D01*
X134428571Y-79942857D01*
X134400000Y-79914285D01*
X134371428Y-79857142D01*
X134371428Y-79742857D01*
X134400000Y-79685714D01*
X134428571Y-79657142D01*
X134485714Y-79628571D01*
X134514285Y-79628571D01*
X134571428Y-79657142D01*
X134600000Y-79685714D01*
X134628571Y-79742857D01*
X134628571Y-79857142D01*
X134657142Y-79914285D01*
X134685714Y-79942857D01*
X134742857Y-79971428D01*
X134857142Y-79971428D01*
X134914285Y-79942857D01*
X134942857Y-79914285D01*
X134971428Y-79857142D01*
X134971428Y-79742857D01*
X134942857Y-79685714D01*
X134914285Y-79657142D01*
X134857142Y-79628571D01*
X134742857Y-79628571D01*
X134685714Y-79657142D01*
X134657142Y-79685714D01*
X134628571Y-79742857D01*
X133404285Y-80485714D02*
X133432857Y-80514285D01*
X133461428Y-80600000D01*
X133461428Y-80657142D01*
X133432857Y-80742857D01*
X133375714Y-80800000D01*
X133318571Y-80828571D01*
X133204285Y-80857142D01*
X133118571Y-80857142D01*
X133004285Y-80828571D01*
X132947142Y-80800000D01*
X132890000Y-80742857D01*
X132861428Y-80657142D01*
X132861428Y-80600000D01*
X132890000Y-80514285D01*
X132918571Y-80485714D01*
X133461428Y-79914285D02*
X133461428Y-80257142D01*
X133461428Y-80085714D02*
X132861428Y-80085714D01*
X132947142Y-80142857D01*
X133004285Y-80200000D01*
X133032857Y-80257142D01*
X133461428Y-79342857D02*
X133461428Y-79685714D01*
X133461428Y-79514285D02*
X132861428Y-79514285D01*
X132947142Y-79571428D01*
X133004285Y-79628571D01*
X133032857Y-79685714D01*
X141000000Y-67614285D02*
X140971428Y-67642857D01*
X140885714Y-67671428D01*
X140828571Y-67671428D01*
X140742857Y-67642857D01*
X140685714Y-67585714D01*
X140657142Y-67528571D01*
X140628571Y-67414285D01*
X140628571Y-67328571D01*
X140657142Y-67214285D01*
X140685714Y-67157142D01*
X140742857Y-67100000D01*
X140828571Y-67071428D01*
X140885714Y-67071428D01*
X140971428Y-67100000D01*
X141000000Y-67128571D01*
X141285714Y-67671428D02*
X141400000Y-67671428D01*
X141457142Y-67642857D01*
X141485714Y-67614285D01*
X141542857Y-67528571D01*
X141571428Y-67414285D01*
X141571428Y-67185714D01*
X141542857Y-67128571D01*
X141514285Y-67100000D01*
X141457142Y-67071428D01*
X141342857Y-67071428D01*
X141285714Y-67100000D01*
X141257142Y-67128571D01*
X141228571Y-67185714D01*
X141228571Y-67328571D01*
X141257142Y-67385714D01*
X141285714Y-67414285D01*
X141342857Y-67442857D01*
X141457142Y-67442857D01*
X141514285Y-67414285D01*
X141542857Y-67385714D01*
X141571428Y-67328571D01*
X130725000Y-74114285D02*
X130696428Y-74142857D01*
X130610714Y-74171428D01*
X130553571Y-74171428D01*
X130467857Y-74142857D01*
X130410714Y-74085714D01*
X130382142Y-74028571D01*
X130353571Y-73914285D01*
X130353571Y-73828571D01*
X130382142Y-73714285D01*
X130410714Y-73657142D01*
X130467857Y-73600000D01*
X130553571Y-73571428D01*
X130610714Y-73571428D01*
X130696428Y-73600000D01*
X130725000Y-73628571D01*
X131067857Y-73828571D02*
X131010714Y-73800000D01*
X130982142Y-73771428D01*
X130953571Y-73714285D01*
X130953571Y-73685714D01*
X130982142Y-73628571D01*
X131010714Y-73600000D01*
X131067857Y-73571428D01*
X131182142Y-73571428D01*
X131239285Y-73600000D01*
X131267857Y-73628571D01*
X131296428Y-73685714D01*
X131296428Y-73714285D01*
X131267857Y-73771428D01*
X131239285Y-73800000D01*
X131182142Y-73828571D01*
X131067857Y-73828571D01*
X131010714Y-73857142D01*
X130982142Y-73885714D01*
X130953571Y-73942857D01*
X130953571Y-74057142D01*
X130982142Y-74114285D01*
X131010714Y-74142857D01*
X131067857Y-74171428D01*
X131182142Y-74171428D01*
X131239285Y-74142857D01*
X131267857Y-74114285D01*
X131296428Y-74057142D01*
X131296428Y-73942857D01*
X131267857Y-73885714D01*
X131239285Y-73857142D01*
X131182142Y-73828571D01*
X141030000Y-59154285D02*
X141001428Y-59182857D01*
X140915714Y-59211428D01*
X140858571Y-59211428D01*
X140772857Y-59182857D01*
X140715714Y-59125714D01*
X140687142Y-59068571D01*
X140658571Y-58954285D01*
X140658571Y-58868571D01*
X140687142Y-58754285D01*
X140715714Y-58697142D01*
X140772857Y-58640000D01*
X140858571Y-58611428D01*
X140915714Y-58611428D01*
X141001428Y-58640000D01*
X141030000Y-58668571D01*
X141230000Y-58611428D02*
X141630000Y-58611428D01*
X141372857Y-59211428D01*
X133325000Y-67239285D02*
X133296428Y-67267857D01*
X133210714Y-67296428D01*
X133153571Y-67296428D01*
X133067857Y-67267857D01*
X133010714Y-67210714D01*
X132982142Y-67153571D01*
X132953571Y-67039285D01*
X132953571Y-66953571D01*
X132982142Y-66839285D01*
X133010714Y-66782142D01*
X133067857Y-66725000D01*
X133153571Y-66696428D01*
X133210714Y-66696428D01*
X133296428Y-66725000D01*
X133325000Y-66753571D01*
X133867857Y-66696428D02*
X133582142Y-66696428D01*
X133553571Y-66982142D01*
X133582142Y-66953571D01*
X133639285Y-66925000D01*
X133782142Y-66925000D01*
X133839285Y-66953571D01*
X133867857Y-66982142D01*
X133896428Y-67039285D01*
X133896428Y-67182142D01*
X133867857Y-67239285D01*
X133839285Y-67267857D01*
X133782142Y-67296428D01*
X133639285Y-67296428D01*
X133582142Y-67267857D01*
X133553571Y-67239285D01*
X141689285Y-69637500D02*
X141717857Y-69666071D01*
X141746428Y-69751785D01*
X141746428Y-69808928D01*
X141717857Y-69894642D01*
X141660714Y-69951785D01*
X141603571Y-69980357D01*
X141489285Y-70008928D01*
X141403571Y-70008928D01*
X141289285Y-69980357D01*
X141232142Y-69951785D01*
X141175000Y-69894642D01*
X141146428Y-69808928D01*
X141146428Y-69751785D01*
X141175000Y-69666071D01*
X141203571Y-69637500D01*
X141746428Y-69066071D02*
X141746428Y-69408928D01*
X141746428Y-69237500D02*
X141146428Y-69237500D01*
X141232142Y-69294642D01*
X141289285Y-69351785D01*
X141317857Y-69408928D01*
X142561428Y-60577142D02*
X143047142Y-60577142D01*
X143104285Y-60548571D01*
X143132857Y-60520000D01*
X143161428Y-60462857D01*
X143161428Y-60348571D01*
X143132857Y-60291428D01*
X143104285Y-60262857D01*
X143047142Y-60234285D01*
X142561428Y-60234285D01*
X142561428Y-59691428D02*
X142561428Y-59805714D01*
X142590000Y-59862857D01*
X142618571Y-59891428D01*
X142704285Y-59948571D01*
X142818571Y-59977142D01*
X143047142Y-59977142D01*
X143104285Y-59948571D01*
X143132857Y-59920000D01*
X143161428Y-59862857D01*
X143161428Y-59748571D01*
X143132857Y-59691428D01*
X143104285Y-59662857D01*
X143047142Y-59634285D01*
X142904285Y-59634285D01*
X142847142Y-59662857D01*
X142818571Y-59691428D01*
X142790000Y-59748571D01*
X142790000Y-59862857D01*
X142818571Y-59920000D01*
X142847142Y-59948571D01*
X142904285Y-59977142D01*
X134621428Y-70077142D02*
X135107142Y-70077142D01*
X135164285Y-70048571D01*
X135192857Y-70020000D01*
X135221428Y-69962857D01*
X135221428Y-69848571D01*
X135192857Y-69791428D01*
X135164285Y-69762857D01*
X135107142Y-69734285D01*
X134621428Y-69734285D01*
X134821428Y-69191428D02*
X135221428Y-69191428D01*
X134592857Y-69334285D02*
X135021428Y-69477142D01*
X135021428Y-69105714D01*
X131321428Y-63085714D02*
X130721428Y-63085714D01*
X131292857Y-62828571D02*
X131321428Y-62742857D01*
X131321428Y-62600000D01*
X131292857Y-62542857D01*
X131264285Y-62514285D01*
X131207142Y-62485714D01*
X131150000Y-62485714D01*
X131092857Y-62514285D01*
X131064285Y-62542857D01*
X131035714Y-62600000D01*
X131007142Y-62714285D01*
X130978571Y-62771428D01*
X130950000Y-62800000D01*
X130892857Y-62828571D01*
X130835714Y-62828571D01*
X130778571Y-62800000D01*
X130750000Y-62771428D01*
X130721428Y-62714285D01*
X130721428Y-62571428D01*
X130750000Y-62485714D01*
X131321428Y-62228571D02*
X130721428Y-62228571D01*
X130721428Y-62000000D01*
X130750000Y-61942857D01*
X130778571Y-61914285D01*
X130835714Y-61885714D01*
X130921428Y-61885714D01*
X130978571Y-61914285D01*
X131007142Y-61942857D01*
X131035714Y-62000000D01*
X131035714Y-62228571D01*
X135114285Y-65771428D02*
X135114285Y-65171428D01*
X135742857Y-65714285D02*
X135714285Y-65742857D01*
X135628571Y-65771428D01*
X135571428Y-65771428D01*
X135485714Y-65742857D01*
X135428571Y-65685714D01*
X135400000Y-65628571D01*
X135371428Y-65514285D01*
X135371428Y-65428571D01*
X135400000Y-65314285D01*
X135428571Y-65257142D01*
X135485714Y-65200000D01*
X135571428Y-65171428D01*
X135628571Y-65171428D01*
X135714285Y-65200000D01*
X135742857Y-65228571D01*
X136314285Y-65771428D02*
X135971428Y-65771428D01*
X136142857Y-65771428D02*
X136142857Y-65171428D01*
X136085714Y-65257142D01*
X136028571Y-65314285D01*
X135971428Y-65342857D01*
X135050000Y-56191428D02*
X135050000Y-56620000D01*
X135021428Y-56705714D01*
X134964285Y-56762857D01*
X134878571Y-56791428D01*
X134821428Y-56791428D01*
X135278571Y-56191428D02*
X135650000Y-56191428D01*
X135450000Y-56420000D01*
X135535714Y-56420000D01*
X135592857Y-56448571D01*
X135621428Y-56477142D01*
X135650000Y-56534285D01*
X135650000Y-56677142D01*
X135621428Y-56734285D01*
X135592857Y-56762857D01*
X135535714Y-56791428D01*
X135364285Y-56791428D01*
X135307142Y-56762857D01*
X135278571Y-56734285D01*
M02*
