G04 #@! TF.GenerationSoftware,KiCad,Pcbnew,5.1.8-db9833491~88~ubuntu20.04.1*
G04 #@! TF.CreationDate,2021-01-29T13:44:14-05:00*
G04 #@! TF.ProjectId,pmtcmini-h10770,706d7463-6d69-46e6-992d-683130373730,rev?*
G04 #@! TF.SameCoordinates,Original*
G04 #@! TF.FileFunction,Soldermask,Top*
G04 #@! TF.FilePolarity,Negative*
%FSLAX46Y46*%
G04 Gerber Fmt 4.6, Leading zero omitted, Abs format (unit mm)*
G04 Created by KiCad (PCBNEW 5.1.8-db9833491~88~ubuntu20.04.1) date 2021-01-29 13:44:14*
%MOMM*%
%LPD*%
G01*
G04 APERTURE LIST*
%ADD10R,0.600000X1.250000*%
%ADD11R,0.406400X1.371600*%
%ADD12R,1.295400X0.558800*%
%ADD13C,0.704800*%
%ADD14R,0.270000X0.620000*%
%ADD15R,0.620000X0.270000*%
%ADD16O,1.700000X1.700000*%
%ADD17R,1.700000X1.700000*%
%ADD18R,0.550000X1.050000*%
%ADD19O,1.000000X1.550000*%
%ADD20O,1.250000X0.950000*%
%ADD21R,0.400000X1.350000*%
G04 APERTURE END LIST*
D10*
X141100000Y-79150000D03*
X140150000Y-79150000D03*
X139200000Y-79150000D03*
X139200000Y-76650000D03*
X140150000Y-76650000D03*
X141100000Y-76650000D03*
D11*
X137740600Y-74484400D03*
X137080200Y-74484400D03*
X136419800Y-74484400D03*
X135759400Y-74484400D03*
X135759400Y-70115600D03*
X136419800Y-70115600D03*
X137080200Y-70115600D03*
X137740600Y-70115600D03*
D12*
X139421300Y-72500000D03*
X141478700Y-71550000D03*
X141478700Y-73450000D03*
G36*
G01*
X129725001Y-65325000D02*
X128474999Y-65325000D01*
G75*
G02*
X128225000Y-65075001I0J249999D01*
G01*
X128225000Y-64449999D01*
G75*
G02*
X128474999Y-64200000I249999J0D01*
G01*
X129725001Y-64200000D01*
G75*
G02*
X129975000Y-64449999I0J-249999D01*
G01*
X129975000Y-65075001D01*
G75*
G02*
X129725001Y-65325000I-249999J0D01*
G01*
G37*
G36*
G01*
X129725001Y-68250000D02*
X128474999Y-68250000D01*
G75*
G02*
X128225000Y-68000001I0J249999D01*
G01*
X128225000Y-67374999D01*
G75*
G02*
X128474999Y-67125000I249999J0D01*
G01*
X129725001Y-67125000D01*
G75*
G02*
X129975000Y-67374999I0J-249999D01*
G01*
X129975000Y-68000001D01*
G75*
G02*
X129725001Y-68250000I-249999J0D01*
G01*
G37*
G36*
G01*
X129675001Y-70625000D02*
X128424999Y-70625000D01*
G75*
G02*
X128175000Y-70375001I0J249999D01*
G01*
X128175000Y-69749999D01*
G75*
G02*
X128424999Y-69500000I249999J0D01*
G01*
X129675001Y-69500000D01*
G75*
G02*
X129925000Y-69749999I0J-249999D01*
G01*
X129925000Y-70375001D01*
G75*
G02*
X129675001Y-70625000I-249999J0D01*
G01*
G37*
G36*
G01*
X129675001Y-73550000D02*
X128424999Y-73550000D01*
G75*
G02*
X128175000Y-73300001I0J249999D01*
G01*
X128175000Y-72674999D01*
G75*
G02*
X128424999Y-72425000I249999J0D01*
G01*
X129675001Y-72425000D01*
G75*
G02*
X129925000Y-72674999I0J-249999D01*
G01*
X129925000Y-73300001D01*
G75*
G02*
X129675001Y-73550000I-249999J0D01*
G01*
G37*
D13*
X132350000Y-62045000D03*
X132350000Y-60775000D03*
X132350000Y-63315000D03*
X132350000Y-64585000D03*
D14*
X134250000Y-64305000D03*
X134750000Y-64305000D03*
X135250000Y-64305000D03*
X135750000Y-64305000D03*
X136250000Y-64305000D03*
X136750000Y-64305000D03*
X137250000Y-64305000D03*
D15*
X137805000Y-63750000D03*
X137805000Y-63250000D03*
X137805000Y-62750000D03*
X137805000Y-62250000D03*
X137805000Y-61750000D03*
X137805000Y-61250000D03*
X137805000Y-60750000D03*
D14*
X137250000Y-60195000D03*
X136750000Y-60195000D03*
X136250000Y-60195000D03*
X135750000Y-60195000D03*
X135250000Y-60195000D03*
X134750000Y-60195000D03*
X134250000Y-60195000D03*
D15*
X133695000Y-60750000D03*
X133695000Y-61250000D03*
X133695000Y-61750000D03*
X133695000Y-62250000D03*
X133695000Y-62750000D03*
X133695000Y-63250000D03*
X133695000Y-63750000D03*
G36*
G01*
X137250000Y-77206250D02*
X137250000Y-76693750D01*
G75*
G02*
X137468750Y-76475000I218750J0D01*
G01*
X137906250Y-76475000D01*
G75*
G02*
X138125000Y-76693750I0J-218750D01*
G01*
X138125000Y-77206250D01*
G75*
G02*
X137906250Y-77425000I-218750J0D01*
G01*
X137468750Y-77425000D01*
G75*
G02*
X137250000Y-77206250I0J218750D01*
G01*
G37*
G36*
G01*
X135675000Y-77206250D02*
X135675000Y-76693750D01*
G75*
G02*
X135893750Y-76475000I218750J0D01*
G01*
X136331250Y-76475000D01*
G75*
G02*
X136550000Y-76693750I0J-218750D01*
G01*
X136550000Y-77206250D01*
G75*
G02*
X136331250Y-77425000I-218750J0D01*
G01*
X135893750Y-77425000D01*
G75*
G02*
X135675000Y-77206250I0J218750D01*
G01*
G37*
D16*
X137780000Y-85700000D03*
X135240000Y-85700000D03*
D17*
X132700000Y-85700000D03*
G36*
G01*
X128843750Y-58475000D02*
X129356250Y-58475000D01*
G75*
G02*
X129575000Y-58693750I0J-218750D01*
G01*
X129575000Y-59131250D01*
G75*
G02*
X129356250Y-59350000I-218750J0D01*
G01*
X128843750Y-59350000D01*
G75*
G02*
X128625000Y-59131250I0J218750D01*
G01*
X128625000Y-58693750D01*
G75*
G02*
X128843750Y-58475000I218750J0D01*
G01*
G37*
G36*
G01*
X128843750Y-60050000D02*
X129356250Y-60050000D01*
G75*
G02*
X129575000Y-60268750I0J-218750D01*
G01*
X129575000Y-60706250D01*
G75*
G02*
X129356250Y-60925000I-218750J0D01*
G01*
X128843750Y-60925000D01*
G75*
G02*
X128625000Y-60706250I0J218750D01*
G01*
X128625000Y-60268750D01*
G75*
G02*
X128843750Y-60050000I218750J0D01*
G01*
G37*
G36*
G01*
X134906250Y-78975000D02*
X134393750Y-78975000D01*
G75*
G02*
X134175000Y-78756250I0J218750D01*
G01*
X134175000Y-78318750D01*
G75*
G02*
X134393750Y-78100000I218750J0D01*
G01*
X134906250Y-78100000D01*
G75*
G02*
X135125000Y-78318750I0J-218750D01*
G01*
X135125000Y-78756250D01*
G75*
G02*
X134906250Y-78975000I-218750J0D01*
G01*
G37*
G36*
G01*
X134906250Y-77400000D02*
X134393750Y-77400000D01*
G75*
G02*
X134175000Y-77181250I0J218750D01*
G01*
X134175000Y-76743750D01*
G75*
G02*
X134393750Y-76525000I218750J0D01*
G01*
X134906250Y-76525000D01*
G75*
G02*
X135125000Y-76743750I0J-218750D01*
G01*
X135125000Y-77181250D01*
G75*
G02*
X134906250Y-77400000I-218750J0D01*
G01*
G37*
G36*
G01*
X133431250Y-77437500D02*
X132918750Y-77437500D01*
G75*
G02*
X132700000Y-77218750I0J218750D01*
G01*
X132700000Y-76781250D01*
G75*
G02*
X132918750Y-76562500I218750J0D01*
G01*
X133431250Y-76562500D01*
G75*
G02*
X133650000Y-76781250I0J-218750D01*
G01*
X133650000Y-77218750D01*
G75*
G02*
X133431250Y-77437500I-218750J0D01*
G01*
G37*
G36*
G01*
X133431250Y-79012500D02*
X132918750Y-79012500D01*
G75*
G02*
X132700000Y-78793750I0J218750D01*
G01*
X132700000Y-78356250D01*
G75*
G02*
X132918750Y-78137500I218750J0D01*
G01*
X133431250Y-78137500D01*
G75*
G02*
X133650000Y-78356250I0J-218750D01*
G01*
X133650000Y-78793750D01*
G75*
G02*
X133431250Y-79012500I-218750J0D01*
G01*
G37*
G36*
G01*
X141425000Y-66456250D02*
X141425000Y-65943750D01*
G75*
G02*
X141643750Y-65725000I218750J0D01*
G01*
X142081250Y-65725000D01*
G75*
G02*
X142300000Y-65943750I0J-218750D01*
G01*
X142300000Y-66456250D01*
G75*
G02*
X142081250Y-66675000I-218750J0D01*
G01*
X141643750Y-66675000D01*
G75*
G02*
X141425000Y-66456250I0J218750D01*
G01*
G37*
G36*
G01*
X139850000Y-66456250D02*
X139850000Y-65943750D01*
G75*
G02*
X140068750Y-65725000I218750J0D01*
G01*
X140506250Y-65725000D01*
G75*
G02*
X140725000Y-65943750I0J-218750D01*
G01*
X140725000Y-66456250D01*
G75*
G02*
X140506250Y-66675000I-218750J0D01*
G01*
X140068750Y-66675000D01*
G75*
G02*
X139850000Y-66456250I0J218750D01*
G01*
G37*
G36*
G01*
X133250000Y-74106250D02*
X133250000Y-73593750D01*
G75*
G02*
X133468750Y-73375000I218750J0D01*
G01*
X133906250Y-73375000D01*
G75*
G02*
X134125000Y-73593750I0J-218750D01*
G01*
X134125000Y-74106250D01*
G75*
G02*
X133906250Y-74325000I-218750J0D01*
G01*
X133468750Y-74325000D01*
G75*
G02*
X133250000Y-74106250I0J218750D01*
G01*
G37*
G36*
G01*
X131675000Y-74106250D02*
X131675000Y-73593750D01*
G75*
G02*
X131893750Y-73375000I218750J0D01*
G01*
X132331250Y-73375000D01*
G75*
G02*
X132550000Y-73593750I0J-218750D01*
G01*
X132550000Y-74106250D01*
G75*
G02*
X132331250Y-74325000I-218750J0D01*
G01*
X131893750Y-74325000D01*
G75*
G02*
X131675000Y-74106250I0J218750D01*
G01*
G37*
G36*
G01*
X140800000Y-59793750D02*
X140800000Y-60306250D01*
G75*
G02*
X140581250Y-60525000I-218750J0D01*
G01*
X140143750Y-60525000D01*
G75*
G02*
X139925000Y-60306250I0J218750D01*
G01*
X139925000Y-59793750D01*
G75*
G02*
X140143750Y-59575000I218750J0D01*
G01*
X140581250Y-59575000D01*
G75*
G02*
X140800000Y-59793750I0J-218750D01*
G01*
G37*
G36*
G01*
X142375000Y-59793750D02*
X142375000Y-60306250D01*
G75*
G02*
X142156250Y-60525000I-218750J0D01*
G01*
X141718750Y-60525000D01*
G75*
G02*
X141500000Y-60306250I0J218750D01*
G01*
X141500000Y-59793750D01*
G75*
G02*
X141718750Y-59575000I218750J0D01*
G01*
X142156250Y-59575000D01*
G75*
G02*
X142375000Y-59793750I0J-218750D01*
G01*
G37*
G36*
G01*
X132875000Y-67768750D02*
X132875000Y-68281250D01*
G75*
G02*
X132656250Y-68500000I-218750J0D01*
G01*
X132218750Y-68500000D01*
G75*
G02*
X132000000Y-68281250I0J218750D01*
G01*
X132000000Y-67768750D01*
G75*
G02*
X132218750Y-67550000I218750J0D01*
G01*
X132656250Y-67550000D01*
G75*
G02*
X132875000Y-67768750I0J-218750D01*
G01*
G37*
G36*
G01*
X134450000Y-67768750D02*
X134450000Y-68281250D01*
G75*
G02*
X134231250Y-68500000I-218750J0D01*
G01*
X133793750Y-68500000D01*
G75*
G02*
X133575000Y-68281250I0J218750D01*
G01*
X133575000Y-67768750D01*
G75*
G02*
X133793750Y-67550000I218750J0D01*
G01*
X134231250Y-67550000D01*
G75*
G02*
X134450000Y-67768750I0J-218750D01*
G01*
G37*
G36*
G01*
X140256250Y-68550000D02*
X139743750Y-68550000D01*
G75*
G02*
X139525000Y-68331250I0J218750D01*
G01*
X139525000Y-67893750D01*
G75*
G02*
X139743750Y-67675000I218750J0D01*
G01*
X140256250Y-67675000D01*
G75*
G02*
X140475000Y-67893750I0J-218750D01*
G01*
X140475000Y-68331250D01*
G75*
G02*
X140256250Y-68550000I-218750J0D01*
G01*
G37*
G36*
G01*
X140256250Y-70125000D02*
X139743750Y-70125000D01*
G75*
G02*
X139525000Y-69906250I0J218750D01*
G01*
X139525000Y-69468750D01*
G75*
G02*
X139743750Y-69250000I218750J0D01*
G01*
X140256250Y-69250000D01*
G75*
G02*
X140475000Y-69468750I0J-218750D01*
G01*
X140475000Y-69906250D01*
G75*
G02*
X140256250Y-70125000I-218750J0D01*
G01*
G37*
D18*
X142000000Y-61600000D03*
X141050000Y-61600000D03*
X140100000Y-61600000D03*
X140100000Y-64200000D03*
X142000000Y-64200000D03*
X133850000Y-69650000D03*
X132900000Y-69650000D03*
X131950000Y-69650000D03*
X131950000Y-72250000D03*
X133850000Y-72250000D03*
D19*
X131750000Y-55250000D03*
X138750000Y-55250000D03*
D20*
X137750000Y-57950000D03*
X132750000Y-57950000D03*
D21*
X136550000Y-57950000D03*
X135900000Y-57950000D03*
X133950000Y-57950000D03*
X134600000Y-57950000D03*
X135250000Y-57950000D03*
M02*
