M48
; DRILL file {KiCad 6.0.0-rc1-unknown-bb2e402~84~ubuntu18.04.1} date Mon 14 Oct 2019 10:53:53 AM EDT
; FORMAT={-:-/ absolute / metric / decimal}
; #@! TF.CreationDate,2019-10-14T10:53:53-04:00
; #@! TF.GenerationSoftware,Kicad,Pcbnew,6.0.0-rc1-unknown-bb2e402~84~ubuntu18.04.1
; #@! TF.FileFunction,Plated,1,2,PTH
FMAT,2
METRIC
T1C0.300
T2C0.400
T3C0.500
T4C0.550
T5C1.000
%
G90
G05
T1
X127.675Y-75.2
X128.85Y-69.987
X129.025Y-67.55
X129.05Y-62.5
X129.05Y-65.0
X130.689Y-72.618
X132.9Y-70.85
X133.2Y-75.95
X133.95Y-56.6
X134.25Y-65.25
X134.3Y-66.7
X134.6Y-61.35
X135.677Y-68.094
X136.2Y-62.1
X136.45Y-67.15
X136.474Y-61.31
X136.532Y-63.298
X137.925Y-65.625
X137.95Y-72.5
X138.75Y-69.45
X141.05Y-62.8
X141.15Y-68.15
X132.35Y-59.525
X132.35Y-65.875
T2
X129.4Y-80.6
X132.4Y-81.2
X134.5Y-54.4
X134.8Y-62.65
X136.5Y-80.3
X137.805Y-75.854
X138.9Y-58.8
X139.775Y-83.075
X142.25Y-57.55
X142.5Y-76.1
T5
X132.7Y-85.7
X135.24Y-85.7
X137.78Y-85.7
T3
G00X131.75Y-55.575
M15
G01X131.75Y-54.925
M16
G05
G00X138.75Y-55.575
M15
G01X138.75Y-54.925
M16
G05
T4
G00X132.9Y-57.95
M15
G01X132.6Y-57.95
M16
G05
G00X137.9Y-57.95
M15
G01X137.6Y-57.95
M16
G05
T0
M30
