M48
; DRILL file {KiCad 5.1.8-db9833491~88~ubuntu20.04.1} date Fri Jan 29 13:44:16 2021
; FORMAT={-:-/ absolute / metric / decimal}
; #@! TF.CreationDate,2021-01-29T13:44:16-05:00
; #@! TF.GenerationSoftware,Kicad,Pcbnew,5.1.8-db9833491~88~ubuntu20.04.1
; #@! TF.FileFunction,Plated,1,2,PTH
FMAT,2
METRIC
T1C0.300
T2C0.400
T3C0.500
T4C0.550
T5C1.000
%
G90
G05
T1
X127.675Y-75.2
X129.05Y-62.5
X132.9Y-70.85
X133.2Y-75.95
X133.95Y-56.6
X134.25Y-65.25
X136.725Y-61.3
X137.95Y-72.5
X138.95Y-68.075
X141.05Y-62.8
X132.35Y-60.775
X132.35Y-62.045
X132.35Y-63.315
X132.35Y-64.585
T2
X129.075Y-65.125
X129.075Y-67.675
X129.075Y-70.125
X129.075Y-72.7
X137.805Y-75.854
X140.15Y-75.275
T5
X132.7Y-85.7
X135.24Y-85.7
X137.78Y-85.7
T3
G00X131.75Y-55.575
M15
G01X131.75Y-54.925
M16
G05
G00X138.75Y-55.575
M15
G01X138.75Y-54.925
M16
G05
T4
G00X132.9Y-57.95
M15
G01X132.6Y-57.95
M16
G05
G00X137.9Y-57.95
M15
G01X137.6Y-57.95
M16
G05
T0
M30
