G04 #@! TF.GenerationSoftware,KiCad,Pcbnew,5.0.0-rc2-be01b52~65~ubuntu17.10.1*
G04 #@! TF.CreationDate,2018-06-21T16:11:27-04:00*
G04 #@! TF.ProjectId,pmtcmini-h10721,706D74636D696E692D6831303732312E,rev?*
G04 #@! TF.SameCoordinates,Original*
G04 #@! TF.FileFunction,Legend,Top*
G04 #@! TF.FilePolarity,Positive*
%FSLAX46Y46*%
G04 Gerber Fmt 4.6, Leading zero omitted, Abs format (unit mm)*
G04 Created by KiCad (PCBNEW 5.0.0-rc2-be01b52~65~ubuntu17.10.1) date Thu Jun 21 16:11:27 2018*
%MOMM*%
%LPD*%
G01*
G04 APERTURE LIST*
%ADD10C,0.120000*%
%ADD11C,0.152400*%
%ADD12C,0.100000*%
%ADD13C,0.200000*%
G04 APERTURE END LIST*
D10*
G04 #@! TO.C,J2*
X143610000Y-63840000D02*
X140190000Y-63840000D01*
X140190000Y-63840000D02*
X140190000Y-72060000D01*
X140190000Y-72060000D02*
X143610000Y-72060000D01*
X143610000Y-72060000D02*
X143610000Y-63840000D01*
X140700000Y-67950000D02*
X140700000Y-64350000D01*
X140700000Y-64350000D02*
X141450000Y-64350000D01*
X141450000Y-64350000D02*
X141450000Y-64150000D01*
X141450000Y-64150000D02*
X142250000Y-64150000D01*
X142250000Y-64150000D02*
X142250000Y-64350000D01*
X142250000Y-64350000D02*
X143100000Y-64350000D01*
X143100000Y-64350000D02*
X143100000Y-67950000D01*
X140700000Y-67950000D02*
X140700000Y-71550000D01*
X140700000Y-71550000D02*
X141450000Y-71550000D01*
X141450000Y-71550000D02*
X141450000Y-71750000D01*
X141450000Y-71750000D02*
X142250000Y-71750000D01*
X142250000Y-71750000D02*
X142250000Y-71550000D01*
X142250000Y-71550000D02*
X143100000Y-71550000D01*
X143100000Y-71550000D02*
X143100000Y-67950000D01*
X139900000Y-63550000D02*
X140900000Y-63550000D01*
X139900000Y-63550000D02*
X139900000Y-64550000D01*
D11*
G04 #@! TO.C,U2*
X132173600Y-80123600D02*
X132173600Y-83476400D01*
X135526400Y-83476400D02*
X135526400Y-80123600D01*
G04 #@! TO.C,U1*
X137440400Y-80137200D02*
X136399000Y-80137200D01*
X139701000Y-81762800D02*
X139701000Y-80137200D01*
X139701000Y-80137200D02*
X138659600Y-80137200D01*
X136399000Y-80137200D02*
X136399000Y-81762800D01*
X135383000Y-82270800D02*
G75*
G02X135129000Y-82270800I-127000J0D01*
G01*
X135129000Y-82270800D02*
G75*
G02X135383000Y-82270800I127000J0D01*
G01*
D12*
G04 #@! TO.C,P1*
X128700000Y-53880000D02*
X136200000Y-53880000D01*
X136200000Y-53180000D02*
X136200000Y-58430000D01*
X128700000Y-53180000D02*
X128700000Y-58430000D01*
X136200000Y-58430000D02*
X128700000Y-58430000D01*
X128700000Y-53180000D02*
X129300000Y-53180000D01*
X129300000Y-53180000D02*
X129950000Y-53180000D01*
X129950000Y-53180000D02*
X134950000Y-53180000D01*
X134950000Y-53180000D02*
X135600000Y-53180000D01*
X135600000Y-53180000D02*
X136200000Y-53180000D01*
X129950000Y-52580000D02*
X134950000Y-52580000D01*
X136500000Y-52880000D02*
X136200000Y-53180000D01*
X136200000Y-52580000D02*
X135600000Y-53180000D01*
X136500000Y-52880000D02*
X136200000Y-52580000D01*
X128400000Y-52880000D02*
X128700000Y-53180000D01*
X129300000Y-53180000D02*
X128700000Y-52580000D01*
X128700000Y-52580000D02*
X128400000Y-52880000D01*
X134950000Y-52580000D02*
X134950000Y-53180000D01*
X129950000Y-52580000D02*
X129950000Y-53180000D01*
D13*
G04 #@! TO.C,U3*
X130450000Y-68400000D02*
X134150000Y-68400000D01*
X134150000Y-68400000D02*
X134150000Y-74900000D01*
X134150000Y-74900000D02*
X130450000Y-74900000D01*
X130450000Y-74900000D02*
X130450000Y-68400000D01*
X128625000Y-68150000D02*
X130100000Y-68150000D01*
G04 #@! TO.C,U6*
X142525000Y-56775000D02*
X142525000Y-57825000D01*
X139600000Y-58175000D02*
X142500000Y-58175000D01*
X139600000Y-59025000D02*
X139600000Y-58175000D01*
X142500000Y-59025000D02*
X139600000Y-59025000D01*
X142500000Y-58175000D02*
X142500000Y-59025000D01*
G04 #@! TO.C,U4*
X130850000Y-80625000D02*
X130850000Y-81475000D01*
X130850000Y-81475000D02*
X127950000Y-81475000D01*
X127950000Y-81475000D02*
X127950000Y-80625000D01*
X127950000Y-80625000D02*
X130850000Y-80625000D01*
X130875000Y-79225000D02*
X130875000Y-80275000D01*
G04 #@! TO.C,U5*
X141175000Y-90050000D02*
X140625000Y-90050000D01*
X140625000Y-90050000D02*
X140625000Y-87150000D01*
X140625000Y-87150000D02*
X141175000Y-87150000D01*
X141175000Y-87150000D02*
X141175000Y-90050000D01*
X142775000Y-90200000D02*
X141525000Y-90200000D01*
D10*
G04 #@! TO.C,C9*
X140855000Y-62410000D02*
X141295000Y-62410000D01*
X140855000Y-61390000D02*
X141295000Y-61390000D01*
G04 #@! TO.C,C8*
X129105000Y-83790000D02*
X129545000Y-83790000D01*
X129105000Y-84810000D02*
X129545000Y-84810000D01*
G04 #@! TO.C,C7*
X140755000Y-55860000D02*
X141195000Y-55860000D01*
X140755000Y-54840000D02*
X141195000Y-54840000D01*
G04 #@! TO.C,C5*
X129155000Y-77090000D02*
X129595000Y-77090000D01*
X129155000Y-78110000D02*
X129595000Y-78110000D01*
G04 #@! TO.C,J1*
X137360000Y-92630000D02*
X137360000Y-89970000D01*
X132220000Y-92630000D02*
X137360000Y-92630000D01*
X132220000Y-89970000D02*
X137360000Y-89970000D01*
X132220000Y-92630000D02*
X132220000Y-89970000D01*
X130950000Y-92630000D02*
X129620000Y-92630000D01*
X129620000Y-92630000D02*
X129620000Y-91300000D01*
G04 #@! TO.C,D1*
X139900000Y-73415000D02*
X137630000Y-73415000D01*
X137630000Y-73415000D02*
X137630000Y-74935000D01*
X137630000Y-74935000D02*
X139900000Y-74935000D01*
G04 #@! TO.C,J2*
D12*
X144316666Y-68183333D02*
X144816666Y-68183333D01*
X144916666Y-68216666D01*
X144983333Y-68283333D01*
X145016666Y-68383333D01*
X145016666Y-68450000D01*
X144383333Y-67883333D02*
X144350000Y-67850000D01*
X144316666Y-67783333D01*
X144316666Y-67616666D01*
X144350000Y-67550000D01*
X144383333Y-67516666D01*
X144450000Y-67483333D01*
X144516666Y-67483333D01*
X144616666Y-67516666D01*
X145016666Y-67916666D01*
X145016666Y-67483333D01*
G04 #@! TO.C,U2*
X133366666Y-82233333D02*
X133933333Y-82233333D01*
X134000000Y-82200000D01*
X134033333Y-82166666D01*
X134066666Y-82100000D01*
X134066666Y-81966666D01*
X134033333Y-81900000D01*
X134000000Y-81866666D01*
X133933333Y-81833333D01*
X133366666Y-81833333D01*
X133433333Y-81533333D02*
X133400000Y-81500000D01*
X133366666Y-81433333D01*
X133366666Y-81266666D01*
X133400000Y-81200000D01*
X133433333Y-81166666D01*
X133500000Y-81133333D01*
X133566666Y-81133333D01*
X133666666Y-81166666D01*
X134066666Y-81566666D01*
X134066666Y-81133333D01*
G04 #@! TO.C,U1*
X139016666Y-79166666D02*
X139016666Y-79733333D01*
X139050000Y-79800000D01*
X139083333Y-79833333D01*
X139150000Y-79866666D01*
X139283333Y-79866666D01*
X139350000Y-79833333D01*
X139383333Y-79800000D01*
X139416666Y-79733333D01*
X139416666Y-79166666D01*
X140116666Y-79866666D02*
X139716666Y-79866666D01*
X139916666Y-79866666D02*
X139916666Y-79166666D01*
X139850000Y-79266666D01*
X139783333Y-79333333D01*
X139716666Y-79366666D01*
G04 #@! TO.C,P1*
X131983333Y-57466666D02*
X131983333Y-56766666D01*
X132250000Y-56766666D01*
X132316666Y-56800000D01*
X132350000Y-56833333D01*
X132383333Y-56900000D01*
X132383333Y-57000000D01*
X132350000Y-57066666D01*
X132316666Y-57100000D01*
X132250000Y-57133333D01*
X131983333Y-57133333D01*
X133050000Y-57466666D02*
X132650000Y-57466666D01*
X132850000Y-57466666D02*
X132850000Y-56766666D01*
X132783333Y-56866666D01*
X132716666Y-56933333D01*
X132650000Y-56966666D01*
X131696373Y-49838556D02*
X132163040Y-49838556D01*
X131696373Y-50538556D01*
X132163040Y-50538556D01*
X132363040Y-49838556D02*
X132829706Y-50538556D01*
X132829706Y-49838556D02*
X132363040Y-50538556D01*
X133396373Y-49838556D02*
X133263040Y-49838556D01*
X133196373Y-49871890D01*
X133163040Y-49905223D01*
X133096373Y-50005223D01*
X133063040Y-50138556D01*
X133063040Y-50405223D01*
X133096373Y-50471890D01*
X133129706Y-50505223D01*
X133196373Y-50538556D01*
X133329706Y-50538556D01*
X133396373Y-50505223D01*
X133429706Y-50471890D01*
X133463040Y-50405223D01*
X133463040Y-50238556D01*
X133429706Y-50171890D01*
X133396373Y-50138556D01*
X133329706Y-50105223D01*
X133196373Y-50105223D01*
X133129706Y-50138556D01*
X133096373Y-50171890D01*
X133063040Y-50238556D01*
X133729706Y-49905223D02*
X133763040Y-49871890D01*
X133829706Y-49838556D01*
X133996373Y-49838556D01*
X134063040Y-49871890D01*
X134096373Y-49905223D01*
X134129706Y-49971890D01*
X134129706Y-50038556D01*
X134096373Y-50138556D01*
X133696373Y-50538556D01*
X134129706Y-50538556D01*
X134429706Y-50538556D02*
X134429706Y-49838556D01*
X134663040Y-50338556D01*
X134896373Y-49838556D01*
X134896373Y-50538556D01*
X135229706Y-50271890D02*
X135763040Y-50271890D01*
X136329706Y-50171890D02*
X136429706Y-50205223D01*
X136463040Y-50238556D01*
X136496373Y-50305223D01*
X136496373Y-50405223D01*
X136463040Y-50471890D01*
X136429706Y-50505223D01*
X136363040Y-50538556D01*
X136096373Y-50538556D01*
X136096373Y-49838556D01*
X136329706Y-49838556D01*
X136396373Y-49871890D01*
X136429706Y-49905223D01*
X136463040Y-49971890D01*
X136463040Y-50038556D01*
X136429706Y-50105223D01*
X136396373Y-50138556D01*
X136329706Y-50171890D01*
X136096373Y-50171890D01*
X136796373Y-50271890D02*
X137329706Y-50271890D01*
X137996373Y-49838556D02*
X137663040Y-49838556D01*
X137629706Y-50171890D01*
X137663040Y-50138556D01*
X137729706Y-50105223D01*
X137896373Y-50105223D01*
X137963040Y-50138556D01*
X137996373Y-50171890D01*
X138029706Y-50238556D01*
X138029706Y-50405223D01*
X137996373Y-50471890D01*
X137963040Y-50505223D01*
X137896373Y-50538556D01*
X137729706Y-50538556D01*
X137663040Y-50505223D01*
X137629706Y-50471890D01*
X138329706Y-50538556D02*
X138329706Y-49838556D01*
X138596373Y-49838556D01*
X138663040Y-49871890D01*
X138696373Y-49905223D01*
X138729706Y-49971890D01*
X138729706Y-50071890D01*
X138696373Y-50138556D01*
X138663040Y-50171890D01*
X138596373Y-50205223D01*
X138329706Y-50205223D01*
X139229706Y-50805223D02*
X139196373Y-50771890D01*
X139129706Y-50671890D01*
X139096373Y-50605223D01*
X139063040Y-50505223D01*
X139029706Y-50338556D01*
X139029706Y-50205223D01*
X139063040Y-50038556D01*
X139096373Y-49938556D01*
X139129706Y-49871890D01*
X139196373Y-49771890D01*
X139229706Y-49738556D01*
X139629706Y-49838556D02*
X139696373Y-49838556D01*
X139763040Y-49871890D01*
X139796373Y-49905223D01*
X139829706Y-49971890D01*
X139863040Y-50105223D01*
X139863040Y-50271890D01*
X139829706Y-50405223D01*
X139796373Y-50471890D01*
X139763040Y-50505223D01*
X139696373Y-50538556D01*
X139629706Y-50538556D01*
X139563040Y-50505223D01*
X139529706Y-50471890D01*
X139496373Y-50405223D01*
X139463040Y-50271890D01*
X139463040Y-50105223D01*
X139496373Y-49971890D01*
X139529706Y-49905223D01*
X139563040Y-49871890D01*
X139629706Y-49838556D01*
X140529706Y-50538556D02*
X140129706Y-50538556D01*
X140329706Y-50538556D02*
X140329706Y-49838556D01*
X140263040Y-49938556D01*
X140196373Y-50005223D01*
X140129706Y-50038556D01*
X140763040Y-50805223D02*
X140796373Y-50771890D01*
X140863040Y-50671890D01*
X140896373Y-50605223D01*
X140929706Y-50505223D01*
X140963040Y-50338556D01*
X140963040Y-50205223D01*
X140929706Y-50038556D01*
X140896373Y-49938556D01*
X140863040Y-49871890D01*
X140796373Y-49771890D01*
X140763040Y-49738556D01*
G04 #@! TO.C,U3*
X131766666Y-71266666D02*
X131766666Y-71833333D01*
X131800000Y-71900000D01*
X131833333Y-71933333D01*
X131900000Y-71966666D01*
X132033333Y-71966666D01*
X132100000Y-71933333D01*
X132133333Y-71900000D01*
X132166666Y-71833333D01*
X132166666Y-71266666D01*
X132433333Y-71266666D02*
X132866666Y-71266666D01*
X132633333Y-71533333D01*
X132733333Y-71533333D01*
X132800000Y-71566666D01*
X132833333Y-71600000D01*
X132866666Y-71666666D01*
X132866666Y-71833333D01*
X132833333Y-71900000D01*
X132800000Y-71933333D01*
X132733333Y-71966666D01*
X132533333Y-71966666D01*
X132466666Y-71933333D01*
X132433333Y-71900000D01*
G04 #@! TO.C,U6*
X142816666Y-59083333D02*
X143383333Y-59083333D01*
X143450000Y-59050000D01*
X143483333Y-59016666D01*
X143516666Y-58950000D01*
X143516666Y-58816666D01*
X143483333Y-58750000D01*
X143450000Y-58716666D01*
X143383333Y-58683333D01*
X142816666Y-58683333D01*
X142816666Y-58050000D02*
X142816666Y-58183333D01*
X142850000Y-58250000D01*
X142883333Y-58283333D01*
X142983333Y-58350000D01*
X143116666Y-58383333D01*
X143383333Y-58383333D01*
X143450000Y-58350000D01*
X143483333Y-58316666D01*
X143516666Y-58250000D01*
X143516666Y-58116666D01*
X143483333Y-58050000D01*
X143450000Y-58016666D01*
X143383333Y-57983333D01*
X143216666Y-57983333D01*
X143150000Y-58016666D01*
X143116666Y-58050000D01*
X143083333Y-58116666D01*
X143083333Y-58250000D01*
X143116666Y-58316666D01*
X143150000Y-58350000D01*
X143216666Y-58383333D01*
G04 #@! TO.C,U4*
X126766666Y-81533333D02*
X127333333Y-81533333D01*
X127400000Y-81500000D01*
X127433333Y-81466666D01*
X127466666Y-81400000D01*
X127466666Y-81266666D01*
X127433333Y-81200000D01*
X127400000Y-81166666D01*
X127333333Y-81133333D01*
X126766666Y-81133333D01*
X127000000Y-80500000D02*
X127466666Y-80500000D01*
X126733333Y-80666666D02*
X127233333Y-80833333D01*
X127233333Y-80400000D01*
G04 #@! TO.C,U5*
X140341666Y-90616666D02*
X140341666Y-91183333D01*
X140375000Y-91250000D01*
X140408333Y-91283333D01*
X140475000Y-91316666D01*
X140608333Y-91316666D01*
X140675000Y-91283333D01*
X140708333Y-91250000D01*
X140741666Y-91183333D01*
X140741666Y-90616666D01*
X141408333Y-90616666D02*
X141075000Y-90616666D01*
X141041666Y-90950000D01*
X141075000Y-90916666D01*
X141141666Y-90883333D01*
X141308333Y-90883333D01*
X141375000Y-90916666D01*
X141408333Y-90950000D01*
X141441666Y-91016666D01*
X141441666Y-91183333D01*
X141408333Y-91250000D01*
X141375000Y-91283333D01*
X141308333Y-91316666D01*
X141141666Y-91316666D01*
X141075000Y-91283333D01*
X141041666Y-91250000D01*
G04 #@! TO.C,C12*
X128225000Y-64000000D02*
X128191666Y-64033333D01*
X128091666Y-64066666D01*
X128025000Y-64066666D01*
X127925000Y-64033333D01*
X127858333Y-63966666D01*
X127825000Y-63900000D01*
X127791666Y-63766666D01*
X127791666Y-63666666D01*
X127825000Y-63533333D01*
X127858333Y-63466666D01*
X127925000Y-63400000D01*
X128025000Y-63366666D01*
X128091666Y-63366666D01*
X128191666Y-63400000D01*
X128225000Y-63433333D01*
X128891666Y-64066666D02*
X128491666Y-64066666D01*
X128691666Y-64066666D02*
X128691666Y-63366666D01*
X128625000Y-63466666D01*
X128558333Y-63533333D01*
X128491666Y-63566666D01*
X129158333Y-63433333D02*
X129191666Y-63400000D01*
X129258333Y-63366666D01*
X129425000Y-63366666D01*
X129491666Y-63400000D01*
X129525000Y-63433333D01*
X129558333Y-63500000D01*
X129558333Y-63566666D01*
X129525000Y-63666666D01*
X129125000Y-64066666D01*
X129558333Y-64066666D01*
G04 #@! TO.C,C11*
X128900000Y-88650000D02*
X128866666Y-88683333D01*
X128766666Y-88716666D01*
X128700000Y-88716666D01*
X128600000Y-88683333D01*
X128533333Y-88616666D01*
X128500000Y-88550000D01*
X128466666Y-88416666D01*
X128466666Y-88316666D01*
X128500000Y-88183333D01*
X128533333Y-88116666D01*
X128600000Y-88050000D01*
X128700000Y-88016666D01*
X128766666Y-88016666D01*
X128866666Y-88050000D01*
X128900000Y-88083333D01*
X129566666Y-88716666D02*
X129166666Y-88716666D01*
X129366666Y-88716666D02*
X129366666Y-88016666D01*
X129300000Y-88116666D01*
X129233333Y-88183333D01*
X129166666Y-88216666D01*
X130233333Y-88716666D02*
X129833333Y-88716666D01*
X130033333Y-88716666D02*
X130033333Y-88016666D01*
X129966666Y-88116666D01*
X129900000Y-88183333D01*
X129833333Y-88216666D01*
G04 #@! TO.C,C10*
X136325000Y-63900000D02*
X136291666Y-63933333D01*
X136191666Y-63966666D01*
X136125000Y-63966666D01*
X136025000Y-63933333D01*
X135958333Y-63866666D01*
X135925000Y-63800000D01*
X135891666Y-63666666D01*
X135891666Y-63566666D01*
X135925000Y-63433333D01*
X135958333Y-63366666D01*
X136025000Y-63300000D01*
X136125000Y-63266666D01*
X136191666Y-63266666D01*
X136291666Y-63300000D01*
X136325000Y-63333333D01*
X136991666Y-63966666D02*
X136591666Y-63966666D01*
X136791666Y-63966666D02*
X136791666Y-63266666D01*
X136725000Y-63366666D01*
X136658333Y-63433333D01*
X136591666Y-63466666D01*
X137425000Y-63266666D02*
X137491666Y-63266666D01*
X137558333Y-63300000D01*
X137591666Y-63333333D01*
X137625000Y-63400000D01*
X137658333Y-63533333D01*
X137658333Y-63700000D01*
X137625000Y-63833333D01*
X137591666Y-63900000D01*
X137558333Y-63933333D01*
X137491666Y-63966666D01*
X137425000Y-63966666D01*
X137358333Y-63933333D01*
X137325000Y-63900000D01*
X137291666Y-63833333D01*
X137258333Y-63700000D01*
X137258333Y-63533333D01*
X137291666Y-63400000D01*
X137325000Y-63333333D01*
X137358333Y-63300000D01*
X137425000Y-63266666D01*
G04 #@! TO.C,C6*
X138150000Y-84966666D02*
X138183333Y-85000000D01*
X138216666Y-85100000D01*
X138216666Y-85166666D01*
X138183333Y-85266666D01*
X138116666Y-85333333D01*
X138050000Y-85366666D01*
X137916666Y-85400000D01*
X137816666Y-85400000D01*
X137683333Y-85366666D01*
X137616666Y-85333333D01*
X137550000Y-85266666D01*
X137516666Y-85166666D01*
X137516666Y-85100000D01*
X137550000Y-85000000D01*
X137583333Y-84966666D01*
X137516666Y-84366666D02*
X137516666Y-84500000D01*
X137550000Y-84566666D01*
X137583333Y-84600000D01*
X137683333Y-84666666D01*
X137816666Y-84700000D01*
X138083333Y-84700000D01*
X138150000Y-84666666D01*
X138183333Y-84633333D01*
X138216666Y-84566666D01*
X138216666Y-84433333D01*
X138183333Y-84366666D01*
X138150000Y-84333333D01*
X138083333Y-84300000D01*
X137916666Y-84300000D01*
X137850000Y-84333333D01*
X137816666Y-84366666D01*
X137783333Y-84433333D01*
X137783333Y-84566666D01*
X137816666Y-84633333D01*
X137850000Y-84666666D01*
X137916666Y-84700000D01*
G04 #@! TO.C,C4*
X137858333Y-69150000D02*
X137825000Y-69183333D01*
X137725000Y-69216666D01*
X137658333Y-69216666D01*
X137558333Y-69183333D01*
X137491666Y-69116666D01*
X137458333Y-69050000D01*
X137425000Y-68916666D01*
X137425000Y-68816666D01*
X137458333Y-68683333D01*
X137491666Y-68616666D01*
X137558333Y-68550000D01*
X137658333Y-68516666D01*
X137725000Y-68516666D01*
X137825000Y-68550000D01*
X137858333Y-68583333D01*
X138458333Y-68750000D02*
X138458333Y-69216666D01*
X138291666Y-68483333D02*
X138125000Y-68983333D01*
X138558333Y-68983333D01*
G04 #@! TO.C,C3*
X126433333Y-72775000D02*
X126400000Y-72808333D01*
X126300000Y-72841666D01*
X126233333Y-72841666D01*
X126133333Y-72808333D01*
X126066666Y-72741666D01*
X126033333Y-72675000D01*
X126000000Y-72541666D01*
X126000000Y-72441666D01*
X126033333Y-72308333D01*
X126066666Y-72241666D01*
X126133333Y-72175000D01*
X126233333Y-72141666D01*
X126300000Y-72141666D01*
X126400000Y-72175000D01*
X126433333Y-72208333D01*
X126666666Y-72141666D02*
X127100000Y-72141666D01*
X126866666Y-72408333D01*
X126966666Y-72408333D01*
X127033333Y-72441666D01*
X127066666Y-72475000D01*
X127100000Y-72541666D01*
X127100000Y-72708333D01*
X127066666Y-72775000D01*
X127033333Y-72808333D01*
X126966666Y-72841666D01*
X126766666Y-72841666D01*
X126700000Y-72808333D01*
X126666666Y-72775000D01*
G04 #@! TO.C,C1*
X137233333Y-77650000D02*
X137200000Y-77683333D01*
X137100000Y-77716666D01*
X137033333Y-77716666D01*
X136933333Y-77683333D01*
X136866666Y-77616666D01*
X136833333Y-77550000D01*
X136800000Y-77416666D01*
X136800000Y-77316666D01*
X136833333Y-77183333D01*
X136866666Y-77116666D01*
X136933333Y-77050000D01*
X137033333Y-77016666D01*
X137100000Y-77016666D01*
X137200000Y-77050000D01*
X137233333Y-77083333D01*
X137900000Y-77716666D02*
X137500000Y-77716666D01*
X137700000Y-77716666D02*
X137700000Y-77016666D01*
X137633333Y-77116666D01*
X137566666Y-77183333D01*
X137500000Y-77216666D01*
G04 #@! TO.C,C2*
X137658333Y-72775000D02*
X137625000Y-72808333D01*
X137525000Y-72841666D01*
X137458333Y-72841666D01*
X137358333Y-72808333D01*
X137291666Y-72741666D01*
X137258333Y-72675000D01*
X137225000Y-72541666D01*
X137225000Y-72441666D01*
X137258333Y-72308333D01*
X137291666Y-72241666D01*
X137358333Y-72175000D01*
X137458333Y-72141666D01*
X137525000Y-72141666D01*
X137625000Y-72175000D01*
X137658333Y-72208333D01*
X137925000Y-72208333D02*
X137958333Y-72175000D01*
X138025000Y-72141666D01*
X138191666Y-72141666D01*
X138258333Y-72175000D01*
X138291666Y-72208333D01*
X138325000Y-72275000D01*
X138325000Y-72341666D01*
X138291666Y-72441666D01*
X137891666Y-72841666D01*
X138325000Y-72841666D01*
G04 #@! TO.C,C9*
X143083333Y-62225000D02*
X143050000Y-62258333D01*
X142950000Y-62291666D01*
X142883333Y-62291666D01*
X142783333Y-62258333D01*
X142716666Y-62191666D01*
X142683333Y-62125000D01*
X142650000Y-61991666D01*
X142650000Y-61891666D01*
X142683333Y-61758333D01*
X142716666Y-61691666D01*
X142783333Y-61625000D01*
X142883333Y-61591666D01*
X142950000Y-61591666D01*
X143050000Y-61625000D01*
X143083333Y-61658333D01*
X143416666Y-62291666D02*
X143550000Y-62291666D01*
X143616666Y-62258333D01*
X143650000Y-62225000D01*
X143716666Y-62125000D01*
X143750000Y-61991666D01*
X143750000Y-61725000D01*
X143716666Y-61658333D01*
X143683333Y-61625000D01*
X143616666Y-61591666D01*
X143483333Y-61591666D01*
X143416666Y-61625000D01*
X143383333Y-61658333D01*
X143350000Y-61725000D01*
X143350000Y-61891666D01*
X143383333Y-61958333D01*
X143416666Y-61991666D01*
X143483333Y-62025000D01*
X143616666Y-62025000D01*
X143683333Y-61991666D01*
X143716666Y-61958333D01*
X143750000Y-61891666D01*
G04 #@! TO.C,C8*
X126933333Y-84600000D02*
X126900000Y-84633333D01*
X126800000Y-84666666D01*
X126733333Y-84666666D01*
X126633333Y-84633333D01*
X126566666Y-84566666D01*
X126533333Y-84500000D01*
X126500000Y-84366666D01*
X126500000Y-84266666D01*
X126533333Y-84133333D01*
X126566666Y-84066666D01*
X126633333Y-84000000D01*
X126733333Y-83966666D01*
X126800000Y-83966666D01*
X126900000Y-84000000D01*
X126933333Y-84033333D01*
X127333333Y-84266666D02*
X127266666Y-84233333D01*
X127233333Y-84200000D01*
X127200000Y-84133333D01*
X127200000Y-84100000D01*
X127233333Y-84033333D01*
X127266666Y-84000000D01*
X127333333Y-83966666D01*
X127466666Y-83966666D01*
X127533333Y-84000000D01*
X127566666Y-84033333D01*
X127600000Y-84100000D01*
X127600000Y-84133333D01*
X127566666Y-84200000D01*
X127533333Y-84233333D01*
X127466666Y-84266666D01*
X127333333Y-84266666D01*
X127266666Y-84300000D01*
X127233333Y-84333333D01*
X127200000Y-84400000D01*
X127200000Y-84533333D01*
X127233333Y-84600000D01*
X127266666Y-84633333D01*
X127333333Y-84666666D01*
X127466666Y-84666666D01*
X127533333Y-84633333D01*
X127566666Y-84600000D01*
X127600000Y-84533333D01*
X127600000Y-84400000D01*
X127566666Y-84333333D01*
X127533333Y-84300000D01*
X127466666Y-84266666D01*
G04 #@! TO.C,C7*
X140883333Y-54350000D02*
X140850000Y-54383333D01*
X140750000Y-54416666D01*
X140683333Y-54416666D01*
X140583333Y-54383333D01*
X140516666Y-54316666D01*
X140483333Y-54250000D01*
X140450000Y-54116666D01*
X140450000Y-54016666D01*
X140483333Y-53883333D01*
X140516666Y-53816666D01*
X140583333Y-53750000D01*
X140683333Y-53716666D01*
X140750000Y-53716666D01*
X140850000Y-53750000D01*
X140883333Y-53783333D01*
X141116666Y-53716666D02*
X141583333Y-53716666D01*
X141283333Y-54416666D01*
G04 #@! TO.C,C5*
X126933333Y-77900000D02*
X126900000Y-77933333D01*
X126800000Y-77966666D01*
X126733333Y-77966666D01*
X126633333Y-77933333D01*
X126566666Y-77866666D01*
X126533333Y-77800000D01*
X126500000Y-77666666D01*
X126500000Y-77566666D01*
X126533333Y-77433333D01*
X126566666Y-77366666D01*
X126633333Y-77300000D01*
X126733333Y-77266666D01*
X126800000Y-77266666D01*
X126900000Y-77300000D01*
X126933333Y-77333333D01*
X127566666Y-77266666D02*
X127233333Y-77266666D01*
X127200000Y-77600000D01*
X127233333Y-77566666D01*
X127300000Y-77533333D01*
X127466666Y-77533333D01*
X127533333Y-77566666D01*
X127566666Y-77600000D01*
X127600000Y-77666666D01*
X127600000Y-77833333D01*
X127566666Y-77900000D01*
X127533333Y-77933333D01*
X127466666Y-77966666D01*
X127300000Y-77966666D01*
X127233333Y-77933333D01*
X127200000Y-77900000D01*
G04 #@! TO.C,J1*
X128236666Y-91533333D02*
X128736666Y-91533333D01*
X128836666Y-91566666D01*
X128903333Y-91633333D01*
X128936666Y-91733333D01*
X128936666Y-91800000D01*
X128936666Y-90833333D02*
X128936666Y-91233333D01*
X128936666Y-91033333D02*
X128236666Y-91033333D01*
X128336666Y-91100000D01*
X128403333Y-91166666D01*
X128436666Y-91233333D01*
G04 #@! TO.C,D1*
X140958333Y-74441666D02*
X140958333Y-73741666D01*
X141125000Y-73741666D01*
X141225000Y-73775000D01*
X141291666Y-73841666D01*
X141325000Y-73908333D01*
X141358333Y-74041666D01*
X141358333Y-74141666D01*
X141325000Y-74275000D01*
X141291666Y-74341666D01*
X141225000Y-74408333D01*
X141125000Y-74441666D01*
X140958333Y-74441666D01*
X142025000Y-74441666D02*
X141625000Y-74441666D01*
X141825000Y-74441666D02*
X141825000Y-73741666D01*
X141758333Y-73841666D01*
X141691666Y-73908333D01*
X141625000Y-73941666D01*
G04 #@! TO.C,R7*
X136916666Y-88254166D02*
X136583333Y-88487500D01*
X136916666Y-88654166D02*
X136216666Y-88654166D01*
X136216666Y-88387500D01*
X136250000Y-88320833D01*
X136283333Y-88287500D01*
X136350000Y-88254166D01*
X136450000Y-88254166D01*
X136516666Y-88287500D01*
X136550000Y-88320833D01*
X136583333Y-88387500D01*
X136583333Y-88654166D01*
X136216666Y-88020833D02*
X136216666Y-87554166D01*
X136916666Y-87854166D01*
G04 #@! TO.C,R1*
X126341666Y-69166666D02*
X126008333Y-69400000D01*
X126341666Y-69566666D02*
X125641666Y-69566666D01*
X125641666Y-69300000D01*
X125675000Y-69233333D01*
X125708333Y-69200000D01*
X125775000Y-69166666D01*
X125875000Y-69166666D01*
X125941666Y-69200000D01*
X125975000Y-69233333D01*
X126008333Y-69300000D01*
X126008333Y-69566666D01*
X126341666Y-68500000D02*
X126341666Y-68900000D01*
X126341666Y-68700000D02*
X125641666Y-68700000D01*
X125741666Y-68766666D01*
X125808333Y-68833333D01*
X125841666Y-68900000D01*
G04 #@! TO.C,R2*
X126316666Y-67266666D02*
X125983333Y-67500000D01*
X126316666Y-67666666D02*
X125616666Y-67666666D01*
X125616666Y-67400000D01*
X125650000Y-67333333D01*
X125683333Y-67300000D01*
X125750000Y-67266666D01*
X125850000Y-67266666D01*
X125916666Y-67300000D01*
X125950000Y-67333333D01*
X125983333Y-67400000D01*
X125983333Y-67666666D01*
X125683333Y-67000000D02*
X125650000Y-66966666D01*
X125616666Y-66900000D01*
X125616666Y-66733333D01*
X125650000Y-66666666D01*
X125683333Y-66633333D01*
X125750000Y-66600000D01*
X125816666Y-66600000D01*
X125916666Y-66633333D01*
X126316666Y-67033333D01*
X126316666Y-66600000D01*
G04 #@! TO.C,R3*
X141233333Y-73066666D02*
X141000000Y-72733333D01*
X140833333Y-73066666D02*
X140833333Y-72366666D01*
X141100000Y-72366666D01*
X141166666Y-72400000D01*
X141200000Y-72433333D01*
X141233333Y-72500000D01*
X141233333Y-72600000D01*
X141200000Y-72666666D01*
X141166666Y-72700000D01*
X141100000Y-72733333D01*
X140833333Y-72733333D01*
X141466666Y-72366666D02*
X141900000Y-72366666D01*
X141666666Y-72633333D01*
X141766666Y-72633333D01*
X141833333Y-72666666D01*
X141866666Y-72700000D01*
X141900000Y-72766666D01*
X141900000Y-72933333D01*
X141866666Y-73000000D01*
X141833333Y-73033333D01*
X141766666Y-73066666D01*
X141566666Y-73066666D01*
X141500000Y-73033333D01*
X141466666Y-73000000D01*
G04 #@! TO.C,R4*
X128858333Y-67241666D02*
X128625000Y-66908333D01*
X128458333Y-67241666D02*
X128458333Y-66541666D01*
X128725000Y-66541666D01*
X128791666Y-66575000D01*
X128825000Y-66608333D01*
X128858333Y-66675000D01*
X128858333Y-66775000D01*
X128825000Y-66841666D01*
X128791666Y-66875000D01*
X128725000Y-66908333D01*
X128458333Y-66908333D01*
X129458333Y-66775000D02*
X129458333Y-67241666D01*
X129291666Y-66508333D02*
X129125000Y-67008333D01*
X129558333Y-67008333D01*
G04 #@! TO.C,R5*
X131191666Y-65691666D02*
X130858333Y-65925000D01*
X131191666Y-66091666D02*
X130491666Y-66091666D01*
X130491666Y-65825000D01*
X130525000Y-65758333D01*
X130558333Y-65725000D01*
X130625000Y-65691666D01*
X130725000Y-65691666D01*
X130791666Y-65725000D01*
X130825000Y-65758333D01*
X130858333Y-65825000D01*
X130858333Y-66091666D01*
X130491666Y-65058333D02*
X130491666Y-65391666D01*
X130825000Y-65425000D01*
X130791666Y-65391666D01*
X130758333Y-65325000D01*
X130758333Y-65158333D01*
X130791666Y-65091666D01*
X130825000Y-65058333D01*
X130891666Y-65025000D01*
X131058333Y-65025000D01*
X131125000Y-65058333D01*
X131158333Y-65091666D01*
X131191666Y-65158333D01*
X131191666Y-65325000D01*
X131158333Y-65391666D01*
X131125000Y-65425000D01*
G04 #@! TO.C,R6*
X135166666Y-65641666D02*
X134833333Y-65875000D01*
X135166666Y-66041666D02*
X134466666Y-66041666D01*
X134466666Y-65775000D01*
X134500000Y-65708333D01*
X134533333Y-65675000D01*
X134600000Y-65641666D01*
X134700000Y-65641666D01*
X134766666Y-65675000D01*
X134800000Y-65708333D01*
X134833333Y-65775000D01*
X134833333Y-66041666D01*
X134466666Y-65041666D02*
X134466666Y-65175000D01*
X134500000Y-65241666D01*
X134533333Y-65275000D01*
X134633333Y-65341666D01*
X134766666Y-65375000D01*
X135033333Y-65375000D01*
X135100000Y-65341666D01*
X135133333Y-65308333D01*
X135166666Y-65241666D01*
X135166666Y-65108333D01*
X135133333Y-65041666D01*
X135100000Y-65008333D01*
X135033333Y-64975000D01*
X134866666Y-64975000D01*
X134800000Y-65008333D01*
X134766666Y-65041666D01*
X134733333Y-65108333D01*
X134733333Y-65241666D01*
X134766666Y-65308333D01*
X134800000Y-65341666D01*
X134866666Y-65375000D01*
G04 #@! TD*
M02*
