M48
;DRILL file {KiCad 5.0.0-rc2-be01b52~65~ubuntu17.10.1} date Thu Jun 21 16:12:41 2018
;FORMAT={-:-/ absolute / inch / decimal}
FMAT,2
INCH,TZ
T1C0.0157
T2C0.0197
T3C0.0394
%
G90
G05
M72
T1
X4.9695Y-2.7667
X5.0945Y-3.0049
X5.1004Y-2.2146
X5.1004Y-2.311
X5.1024Y-2.5079
X5.122Y-2.3602
X5.1535Y-3.437
X5.1565Y-2.6368
X5.1585Y-2.7234
X5.1762Y-2.8435
X5.1988Y-2.9823
X5.2096Y-2.7844
X5.212Y-3.372
X5.2283Y-2.7156
X5.2598Y-2.8346
X5.2707Y-2.7594
X5.3022Y-2.6417
X5.3091Y-2.2402
X5.3287Y-3.3642
X5.3504Y-2.3278
X5.3504Y-2.5059
X5.3524Y-2.9823
X5.376Y-3.1181
X5.3799Y-2.7569
X5.4774Y-2.687
X5.4843Y-2.7815
X5.5472Y-3.4882
X5.5965Y-2.4911
X5.6319Y-2.1791
T2
X5.5689Y-2.5768
X5.5689Y-2.626
X5.5689Y-2.6752
X5.5689Y-2.7244
X5.5689Y-2.7736
T3
X5.1555Y-3.5945
X5.2555Y-3.5945
X5.3555Y-3.5945
T0
M30
