G04 #@! TF.GenerationSoftware,KiCad,Pcbnew,5.0.0-rc2-be01b52~65~ubuntu17.10.1*
G04 #@! TF.CreationDate,2018-06-21T16:11:27-04:00*
G04 #@! TF.ProjectId,pmtcmini-h10721,706D74636D696E692D6831303732312E,rev?*
G04 #@! TF.SameCoordinates,Original*
G04 #@! TF.FileFunction,Legend,Bot*
G04 #@! TF.FilePolarity,Positive*
%FSLAX46Y46*%
G04 Gerber Fmt 4.6, Leading zero omitted, Abs format (unit mm)*
G04 Created by KiCad (PCBNEW 5.0.0-rc2-be01b52~65~ubuntu17.10.1) date Thu Jun 21 16:11:27 2018*
%MOMM*%
%LPD*%
G01*
G04 APERTURE LIST*
%ADD10C,0.300000*%
G04 APERTURE END LIST*
D10*
X127203571Y-63192857D02*
X125703571Y-63192857D01*
X125703571Y-63764285D01*
X125775000Y-63907142D01*
X125846428Y-63978571D01*
X125989285Y-64050000D01*
X126203571Y-64050000D01*
X126346428Y-63978571D01*
X126417857Y-63907142D01*
X126489285Y-63764285D01*
X126489285Y-63192857D01*
X127203571Y-64692857D02*
X125703571Y-64692857D01*
X126775000Y-65192857D01*
X125703571Y-65692857D01*
X127203571Y-65692857D01*
X125703571Y-66192857D02*
X125703571Y-67050000D01*
X127203571Y-66621428D02*
X125703571Y-66621428D01*
X127060714Y-68407142D02*
X127132142Y-68335714D01*
X127203571Y-68121428D01*
X127203571Y-67978571D01*
X127132142Y-67764285D01*
X126989285Y-67621428D01*
X126846428Y-67550000D01*
X126560714Y-67478571D01*
X126346428Y-67478571D01*
X126060714Y-67550000D01*
X125917857Y-67621428D01*
X125775000Y-67764285D01*
X125703571Y-67978571D01*
X125703571Y-68121428D01*
X125775000Y-68335714D01*
X125846428Y-68407142D01*
X127203571Y-69050000D02*
X125703571Y-69050000D01*
X126775000Y-69550000D01*
X125703571Y-70050000D01*
X127203571Y-70050000D01*
X127203571Y-70764285D02*
X126203571Y-70764285D01*
X125703571Y-70764285D02*
X125775000Y-70692857D01*
X125846428Y-70764285D01*
X125775000Y-70835714D01*
X125703571Y-70764285D01*
X125846428Y-70764285D01*
X126203571Y-71478571D02*
X127203571Y-71478571D01*
X126346428Y-71478571D02*
X126275000Y-71550000D01*
X126203571Y-71692857D01*
X126203571Y-71907142D01*
X126275000Y-72050000D01*
X126417857Y-72121428D01*
X127203571Y-72121428D01*
X127203571Y-72835714D02*
X126203571Y-72835714D01*
X125703571Y-72835714D02*
X125775000Y-72764285D01*
X125846428Y-72835714D01*
X125775000Y-72907142D01*
X125703571Y-72835714D01*
X125846428Y-72835714D01*
X126632142Y-73550000D02*
X126632142Y-74692857D01*
X127203571Y-75407142D02*
X125703571Y-75407142D01*
X126417857Y-75407142D02*
X126417857Y-76264285D01*
X127203571Y-76264285D02*
X125703571Y-76264285D01*
X127203571Y-77764285D02*
X127203571Y-76907142D01*
X127203571Y-77335714D02*
X125703571Y-77335714D01*
X125917857Y-77192857D01*
X126060714Y-77050000D01*
X126132142Y-76907142D01*
X125703571Y-78692857D02*
X125703571Y-78835714D01*
X125775000Y-78978571D01*
X125846428Y-79050000D01*
X125989285Y-79121428D01*
X126275000Y-79192857D01*
X126632142Y-79192857D01*
X126917857Y-79121428D01*
X127060714Y-79050000D01*
X127132142Y-78978571D01*
X127203571Y-78835714D01*
X127203571Y-78692857D01*
X127132142Y-78550000D01*
X127060714Y-78478571D01*
X126917857Y-78407142D01*
X126632142Y-78335714D01*
X126275000Y-78335714D01*
X125989285Y-78407142D01*
X125846428Y-78478571D01*
X125775000Y-78550000D01*
X125703571Y-78692857D01*
X125703571Y-79692857D02*
X125703571Y-80692857D01*
X127203571Y-80050000D01*
X125846428Y-81192857D02*
X125775000Y-81264285D01*
X125703571Y-81407142D01*
X125703571Y-81764285D01*
X125775000Y-81907142D01*
X125846428Y-81978571D01*
X125989285Y-82050000D01*
X126132142Y-82050000D01*
X126346428Y-81978571D01*
X127203571Y-81121428D01*
X127203571Y-82050000D01*
X127203571Y-83478571D02*
X127203571Y-82621428D01*
X127203571Y-83050000D02*
X125703571Y-83050000D01*
X125917857Y-82907142D01*
X126060714Y-82764285D01*
X126132142Y-82621428D01*
X127203571Y-86121428D02*
X126489285Y-85621428D01*
X127203571Y-85264285D02*
X125703571Y-85264285D01*
X125703571Y-85835714D01*
X125775000Y-85978571D01*
X125846428Y-86050000D01*
X125989285Y-86121428D01*
X126203571Y-86121428D01*
X126346428Y-86050000D01*
X126417857Y-85978571D01*
X126489285Y-85835714D01*
X126489285Y-85264285D01*
X127132142Y-87335714D02*
X127203571Y-87192857D01*
X127203571Y-86907142D01*
X127132142Y-86764285D01*
X126989285Y-86692857D01*
X126417857Y-86692857D01*
X126275000Y-86764285D01*
X126203571Y-86907142D01*
X126203571Y-87192857D01*
X126275000Y-87335714D01*
X126417857Y-87407142D01*
X126560714Y-87407142D01*
X126703571Y-86692857D01*
X126203571Y-87907142D02*
X127203571Y-88264285D01*
X126203571Y-88621428D01*
X126775000Y-90264285D02*
X126775000Y-90978571D01*
X127203571Y-90121428D02*
X125703571Y-90621428D01*
X127203571Y-91121428D01*
X128967857Y-67585714D02*
X128967857Y-68085714D01*
X129753571Y-68300000D02*
X129753571Y-67585714D01*
X128253571Y-67585714D01*
X128253571Y-68300000D01*
X129753571Y-68942857D02*
X128253571Y-68942857D01*
X128825000Y-68942857D02*
X128753571Y-69085714D01*
X128753571Y-69371428D01*
X128825000Y-69514285D01*
X128896428Y-69585714D01*
X129039285Y-69657142D01*
X129467857Y-69657142D01*
X129610714Y-69585714D01*
X129682142Y-69514285D01*
X129753571Y-69371428D01*
X129753571Y-69085714D01*
X129682142Y-68942857D01*
X129682142Y-70871428D02*
X129753571Y-70728571D01*
X129753571Y-70442857D01*
X129682142Y-70300000D01*
X129539285Y-70228571D01*
X128967857Y-70228571D01*
X128825000Y-70300000D01*
X128753571Y-70442857D01*
X128753571Y-70728571D01*
X128825000Y-70871428D01*
X128967857Y-70942857D01*
X129110714Y-70942857D01*
X129253571Y-70228571D01*
X128753571Y-71585714D02*
X129753571Y-71585714D01*
X128896428Y-71585714D02*
X128825000Y-71657142D01*
X128753571Y-71800000D01*
X128753571Y-72014285D01*
X128825000Y-72157142D01*
X128967857Y-72228571D01*
X129753571Y-72228571D01*
X128253571Y-74371428D02*
X128253571Y-74657142D01*
X128325000Y-74800000D01*
X128467857Y-74942857D01*
X128753571Y-75014285D01*
X129253571Y-75014285D01*
X129539285Y-74942857D01*
X129682142Y-74800000D01*
X129753571Y-74657142D01*
X129753571Y-74371428D01*
X129682142Y-74228571D01*
X129539285Y-74085714D01*
X129253571Y-74014285D01*
X128753571Y-74014285D01*
X128467857Y-74085714D01*
X128325000Y-74228571D01*
X128253571Y-74371428D01*
X129753571Y-75871428D02*
X129682142Y-75728571D01*
X129539285Y-75657142D01*
X128253571Y-75657142D01*
X129682142Y-76371428D02*
X129753571Y-76514285D01*
X129753571Y-76800000D01*
X129682142Y-76942857D01*
X129539285Y-77014285D01*
X129467857Y-77014285D01*
X129325000Y-76942857D01*
X129253571Y-76800000D01*
X129253571Y-76585714D01*
X129182142Y-76442857D01*
X129039285Y-76371428D01*
X128967857Y-76371428D01*
X128825000Y-76442857D01*
X128753571Y-76585714D01*
X128753571Y-76800000D01*
X128825000Y-76942857D01*
X129753571Y-77871428D02*
X129682142Y-77728571D01*
X129610714Y-77657142D01*
X129467857Y-77585714D01*
X129039285Y-77585714D01*
X128896428Y-77657142D01*
X128825000Y-77728571D01*
X128753571Y-77871428D01*
X128753571Y-78085714D01*
X128825000Y-78228571D01*
X128896428Y-78300000D01*
X129039285Y-78371428D01*
X129467857Y-78371428D01*
X129610714Y-78300000D01*
X129682142Y-78228571D01*
X129753571Y-78085714D01*
X129753571Y-77871428D01*
X128753571Y-79014285D02*
X129753571Y-79014285D01*
X128896428Y-79014285D02*
X128825000Y-79085714D01*
X128753571Y-79228571D01*
X128753571Y-79442857D01*
X128825000Y-79585714D01*
X128967857Y-79657142D01*
X129753571Y-79657142D01*
X128396428Y-81442857D02*
X128325000Y-81514285D01*
X128253571Y-81657142D01*
X128253571Y-82014285D01*
X128325000Y-82157142D01*
X128396428Y-82228571D01*
X128539285Y-82300000D01*
X128682142Y-82300000D01*
X128896428Y-82228571D01*
X129753571Y-81371428D01*
X129753571Y-82300000D01*
X128253571Y-83228571D02*
X128253571Y-83371428D01*
X128325000Y-83514285D01*
X128396428Y-83585714D01*
X128539285Y-83657142D01*
X128825000Y-83728571D01*
X129182142Y-83728571D01*
X129467857Y-83657142D01*
X129610714Y-83585714D01*
X129682142Y-83514285D01*
X129753571Y-83371428D01*
X129753571Y-83228571D01*
X129682142Y-83085714D01*
X129610714Y-83014285D01*
X129467857Y-82942857D01*
X129182142Y-82871428D01*
X128825000Y-82871428D01*
X128539285Y-82942857D01*
X128396428Y-83014285D01*
X128325000Y-83085714D01*
X128253571Y-83228571D01*
X129753571Y-85157142D02*
X129753571Y-84300000D01*
X129753571Y-84728571D02*
X128253571Y-84728571D01*
X128467857Y-84585714D01*
X128610714Y-84442857D01*
X128682142Y-84300000D01*
X128896428Y-86014285D02*
X128825000Y-85871428D01*
X128753571Y-85800000D01*
X128610714Y-85728571D01*
X128539285Y-85728571D01*
X128396428Y-85800000D01*
X128325000Y-85871428D01*
X128253571Y-86014285D01*
X128253571Y-86300000D01*
X128325000Y-86442857D01*
X128396428Y-86514285D01*
X128539285Y-86585714D01*
X128610714Y-86585714D01*
X128753571Y-86514285D01*
X128825000Y-86442857D01*
X128896428Y-86300000D01*
X128896428Y-86014285D01*
X128967857Y-85871428D01*
X129039285Y-85800000D01*
X129182142Y-85728571D01*
X129467857Y-85728571D01*
X129610714Y-85800000D01*
X129682142Y-85871428D01*
X129753571Y-86014285D01*
X129753571Y-86300000D01*
X129682142Y-86442857D01*
X129610714Y-86514285D01*
X129467857Y-86585714D01*
X129182142Y-86585714D01*
X129039285Y-86514285D01*
X128967857Y-86442857D01*
X128896428Y-86300000D01*
M02*
