G04 #@! TF.GenerationSoftware,KiCad,Pcbnew,5.0.0-rc2-be01b52~65~ubuntu17.10.1*
G04 #@! TF.CreationDate,2018-06-21T16:11:27-04:00*
G04 #@! TF.ProjectId,pmtcmini-h10721,706D74636D696E692D6831303732312E,rev?*
G04 #@! TF.SameCoordinates,Original*
G04 #@! TF.FileFunction,Copper,L2,Bot,Signal*
G04 #@! TF.FilePolarity,Positive*
%FSLAX46Y46*%
G04 Gerber Fmt 4.6, Leading zero omitted, Abs format (unit mm)*
G04 Created by KiCad (PCBNEW 5.0.0-rc2-be01b52~65~ubuntu17.10.1) date Thu Jun 21 16:11:27 2018*
%MOMM*%
%LPD*%
G01*
G04 APERTURE LIST*
G04 #@! TA.AperFunction,ComponentPad*
%ADD10R,1.300000X0.800000*%
G04 #@! TD*
G04 #@! TA.AperFunction,ComponentPad*
%ADD11O,1.300000X0.800000*%
G04 #@! TD*
G04 #@! TA.AperFunction,ComponentPad*
%ADD12R,1.700000X1.700000*%
G04 #@! TD*
G04 #@! TA.AperFunction,ComponentPad*
%ADD13O,1.700000X1.700000*%
G04 #@! TD*
G04 #@! TA.AperFunction,ViaPad*
%ADD14C,0.800000*%
G04 #@! TD*
G04 #@! TA.AperFunction,Conductor*
%ADD15C,0.250000*%
G04 #@! TD*
G04 #@! TA.AperFunction,Conductor*
%ADD16C,0.500000*%
G04 #@! TD*
G04 #@! TA.AperFunction,Conductor*
%ADD17C,0.254000*%
G04 #@! TD*
G04 APERTURE END LIST*
D10*
G04 #@! TO.P,J2,1*
G04 #@! TO.N,+3V3*
X141450000Y-65450000D03*
D11*
G04 #@! TO.P,J2,2*
G04 #@! TO.N,/SWDIO*
X141450000Y-66700000D03*
G04 #@! TO.P,J2,3*
G04 #@! TO.N,/SWCLK*
X141450000Y-67950000D03*
G04 #@! TO.P,J2,4*
G04 #@! TO.N,/RESET*
X141450000Y-69200000D03*
G04 #@! TO.P,J2,5*
G04 #@! TO.N,GND*
X141450000Y-70450000D03*
G04 #@! TD*
D12*
G04 #@! TO.P,J1,1*
G04 #@! TO.N,GND*
X130950000Y-91300000D03*
D13*
G04 #@! TO.P,J1,2*
G04 #@! TO.N,/PMT_ADJ*
X133490000Y-91300000D03*
G04 #@! TO.P,J1,3*
G04 #@! TO.N,/PMT_VDD*
X136030000Y-91300000D03*
G04 #@! TD*
D14*
G04 #@! TO.N,Net-(R4-Pad1)*
X133875000Y-70089597D03*
X132800000Y-68975000D03*
G04 #@! TO.N,GND*
X140900000Y-88600000D03*
X143050000Y-55350000D03*
X130900000Y-87300000D03*
X139300000Y-70650000D03*
X129600000Y-63700000D03*
X135900000Y-63650000D03*
X133600000Y-72000000D03*
X126225000Y-70275000D03*
X130100000Y-59950000D03*
X129400000Y-76325000D03*
G04 #@! TO.N,+3V3*
X129550000Y-56250000D03*
X129550000Y-58700000D03*
X135900000Y-59125000D03*
X134850000Y-56900000D03*
X131475000Y-72225000D03*
X131025000Y-69175000D03*
X130975000Y-66975000D03*
X134675000Y-67100000D03*
G04 #@! TO.N,GND*
X142150000Y-63275000D03*
G04 #@! TO.N,/SWDIO*
X139125000Y-68250000D03*
G04 #@! TO.N,/RESET*
X132325000Y-70725000D03*
X136650000Y-70025000D03*
G04 #@! TO.N,GNDA*
X135350000Y-85450000D03*
X136550000Y-79200000D03*
X132385000Y-85650000D03*
G04 #@! TO.N,/PMT_EN*
X132050000Y-75750000D03*
X135950000Y-75750000D03*
G04 #@! TD*
D15*
G04 #@! TO.N,Net-(R4-Pad1)*
X133875000Y-70089597D02*
X133875000Y-70050000D01*
X133875000Y-70050000D02*
X132800000Y-68975000D01*
D16*
G04 #@! TO.N,+3V3*
X129550000Y-58700000D02*
X129550000Y-56250000D01*
X135900000Y-57950000D02*
X134850000Y-56900000D01*
X135900000Y-59125000D02*
X135900000Y-57950000D01*
X134550000Y-66975000D02*
X134675000Y-67100000D01*
X130975000Y-66975000D02*
X134550000Y-66975000D01*
X131025000Y-71775000D02*
X131475000Y-72225000D01*
X131025000Y-69175000D02*
X131025000Y-71775000D01*
D15*
G04 #@! TO.N,/SWDIO*
X140750000Y-66700000D02*
X141450000Y-66700000D01*
X140675000Y-66700000D02*
X140750000Y-66700000D01*
X139125000Y-68250000D02*
X140675000Y-66700000D01*
G04 #@! TO.N,/RESET*
X141450000Y-69200000D02*
X141200000Y-69200000D01*
X135550001Y-71124999D02*
X136650000Y-70025000D01*
X132325000Y-70725000D02*
X132724999Y-71124999D01*
X132724999Y-71124999D02*
X135550001Y-71124999D01*
G04 #@! TO.N,/PMT_EN*
X132050000Y-75750000D02*
X135950000Y-75750000D01*
G04 #@! TD*
D17*
G04 #@! TO.N,GNDA*
G36*
X139973000Y-86273000D02*
X134750000Y-86273000D01*
X134701399Y-86282667D01*
X134660197Y-86310197D01*
X134632667Y-86351399D01*
X134623000Y-86400000D01*
X134623000Y-90962877D01*
X134598709Y-90840758D01*
X134338569Y-90451431D01*
X133949242Y-90191291D01*
X133605920Y-90123000D01*
X133374080Y-90123000D01*
X133030758Y-90191291D01*
X132641431Y-90451431D01*
X132427000Y-90772350D01*
X132427000Y-86400000D01*
X132417333Y-86351399D01*
X132389803Y-86310197D01*
X132348601Y-86282667D01*
X132300000Y-86273000D01*
X131227000Y-86273000D01*
X131227000Y-76727000D01*
X139973000Y-76727000D01*
X139973000Y-86273000D01*
X139973000Y-86273000D01*
G37*
X139973000Y-86273000D02*
X134750000Y-86273000D01*
X134701399Y-86282667D01*
X134660197Y-86310197D01*
X134632667Y-86351399D01*
X134623000Y-86400000D01*
X134623000Y-90962877D01*
X134598709Y-90840758D01*
X134338569Y-90451431D01*
X133949242Y-90191291D01*
X133605920Y-90123000D01*
X133374080Y-90123000D01*
X133030758Y-90191291D01*
X132641431Y-90451431D01*
X132427000Y-90772350D01*
X132427000Y-86400000D01*
X132417333Y-86351399D01*
X132389803Y-86310197D01*
X132348601Y-86282667D01*
X132300000Y-86273000D01*
X131227000Y-86273000D01*
X131227000Y-76727000D01*
X139973000Y-76727000D01*
X139973000Y-86273000D01*
G04 #@! TO.N,GND*
G36*
X143748001Y-92298000D02*
X136654930Y-92298000D01*
X136878569Y-92148569D01*
X137138709Y-91759242D01*
X137230058Y-91300000D01*
X137138709Y-90840758D01*
X136878569Y-90451431D01*
X136489242Y-90191291D01*
X136145920Y-90123000D01*
X135914080Y-90123000D01*
X135570758Y-90191291D01*
X135181431Y-90451431D01*
X135077000Y-90607723D01*
X135077000Y-86727000D01*
X140100000Y-86727000D01*
X140225137Y-86702109D01*
X140331224Y-86631224D01*
X140402109Y-86525137D01*
X140427000Y-86400000D01*
X140427000Y-76600000D01*
X140402109Y-76474863D01*
X140331224Y-76368776D01*
X140225137Y-76297891D01*
X140100000Y-76273000D01*
X136455134Y-76273000D01*
X136566321Y-76161813D01*
X136677000Y-75894609D01*
X136677000Y-75605391D01*
X136566321Y-75338187D01*
X136361813Y-75133679D01*
X136094609Y-75023000D01*
X135805391Y-75023000D01*
X135538187Y-75133679D01*
X135373866Y-75298000D01*
X132626134Y-75298000D01*
X132461813Y-75133679D01*
X132194609Y-75023000D01*
X131905391Y-75023000D01*
X131638187Y-75133679D01*
X131433679Y-75338187D01*
X131323000Y-75605391D01*
X131323000Y-75894609D01*
X131433679Y-76161813D01*
X131544866Y-76273000D01*
X131100000Y-76273000D01*
X130974863Y-76297891D01*
X130868776Y-76368776D01*
X130797891Y-76474863D01*
X130773000Y-76600000D01*
X130773000Y-86400000D01*
X130797891Y-86525137D01*
X130868776Y-86631224D01*
X130974863Y-86702109D01*
X131100000Y-86727000D01*
X131973000Y-86727000D01*
X131973000Y-89834340D01*
X131926310Y-89815000D01*
X131235750Y-89815000D01*
X131077000Y-89973750D01*
X131077000Y-91173000D01*
X131097000Y-91173000D01*
X131097000Y-91427000D01*
X131077000Y-91427000D01*
X131077000Y-91447000D01*
X130823000Y-91447000D01*
X130823000Y-91427000D01*
X129623750Y-91427000D01*
X129465000Y-91585750D01*
X129465000Y-92276309D01*
X129473985Y-92298000D01*
X125127000Y-92298000D01*
X125127000Y-90323691D01*
X129465000Y-90323691D01*
X129465000Y-91014250D01*
X129623750Y-91173000D01*
X130823000Y-91173000D01*
X130823000Y-89973750D01*
X130664250Y-89815000D01*
X129973690Y-89815000D01*
X129740301Y-89911673D01*
X129561673Y-90090302D01*
X129465000Y-90323691D01*
X125127000Y-90323691D01*
X125127000Y-69030391D01*
X130298000Y-69030391D01*
X130298000Y-69319609D01*
X130408679Y-69586813D01*
X130448000Y-69626134D01*
X130448001Y-71718167D01*
X130436696Y-71775000D01*
X130453044Y-71857183D01*
X130481479Y-72000134D01*
X130609007Y-72190994D01*
X130657186Y-72223186D01*
X130748000Y-72314000D01*
X130748000Y-72369609D01*
X130858679Y-72636813D01*
X131063187Y-72841321D01*
X131330391Y-72952000D01*
X131619609Y-72952000D01*
X131886813Y-72841321D01*
X132091321Y-72636813D01*
X132202000Y-72369609D01*
X132202000Y-72080391D01*
X132091321Y-71813187D01*
X131886813Y-71608679D01*
X131619609Y-71498000D01*
X131602000Y-71498000D01*
X131602000Y-70879266D01*
X131708679Y-71136813D01*
X131913187Y-71341321D01*
X132180391Y-71452000D01*
X132400812Y-71452000D01*
X132436865Y-71476090D01*
X132548637Y-71550774D01*
X132724998Y-71585854D01*
X132769516Y-71576999D01*
X135505483Y-71576999D01*
X135550001Y-71585854D01*
X135594519Y-71576999D01*
X135726363Y-71550774D01*
X135875875Y-71450873D01*
X135901094Y-71413130D01*
X136562224Y-70752000D01*
X136794609Y-70752000D01*
X136832939Y-70736123D01*
X140205334Y-70736123D01*
X140215013Y-70812969D01*
X140428893Y-71162278D01*
X140760167Y-71403149D01*
X141158402Y-71498912D01*
X141323000Y-71333756D01*
X141323000Y-70577000D01*
X141577000Y-70577000D01*
X141577000Y-71333756D01*
X141741598Y-71498912D01*
X142139833Y-71403149D01*
X142471107Y-71162278D01*
X142684987Y-70812969D01*
X142694666Y-70736123D01*
X142566998Y-70577000D01*
X141577000Y-70577000D01*
X141323000Y-70577000D01*
X140333002Y-70577000D01*
X140205334Y-70736123D01*
X136832939Y-70736123D01*
X137061813Y-70641321D01*
X137266321Y-70436813D01*
X137377000Y-70169609D01*
X137377000Y-69880391D01*
X137266321Y-69613187D01*
X137061813Y-69408679D01*
X136794609Y-69298000D01*
X136505391Y-69298000D01*
X136238187Y-69408679D01*
X136033679Y-69613187D01*
X135923000Y-69880391D01*
X135923000Y-70112776D01*
X135362777Y-70672999D01*
X134319732Y-70672999D01*
X134491321Y-70501410D01*
X134602000Y-70234206D01*
X134602000Y-69944988D01*
X134491321Y-69677784D01*
X134286813Y-69473276D01*
X134019609Y-69362597D01*
X133826821Y-69362597D01*
X133527000Y-69062776D01*
X133527000Y-68830391D01*
X133416321Y-68563187D01*
X133211813Y-68358679D01*
X132944609Y-68248000D01*
X132655391Y-68248000D01*
X132388187Y-68358679D01*
X132183679Y-68563187D01*
X132073000Y-68830391D01*
X132073000Y-69119609D01*
X132183679Y-69386813D01*
X132388187Y-69591321D01*
X132655391Y-69702000D01*
X132887776Y-69702000D01*
X133148000Y-69962224D01*
X133148000Y-70234206D01*
X133258679Y-70501410D01*
X133430268Y-70672999D01*
X133052000Y-70672999D01*
X133052000Y-70580391D01*
X132941321Y-70313187D01*
X132736813Y-70108679D01*
X132469609Y-69998000D01*
X132180391Y-69998000D01*
X131913187Y-70108679D01*
X131708679Y-70313187D01*
X131602000Y-70570734D01*
X131602000Y-69626134D01*
X131641321Y-69586813D01*
X131752000Y-69319609D01*
X131752000Y-69030391D01*
X131641321Y-68763187D01*
X131436813Y-68558679D01*
X131169609Y-68448000D01*
X130880391Y-68448000D01*
X130613187Y-68558679D01*
X130408679Y-68763187D01*
X130298000Y-69030391D01*
X125127000Y-69030391D01*
X125127000Y-68105391D01*
X138398000Y-68105391D01*
X138398000Y-68394609D01*
X138508679Y-68661813D01*
X138713187Y-68866321D01*
X138980391Y-68977000D01*
X139269609Y-68977000D01*
X139536813Y-68866321D01*
X139741321Y-68661813D01*
X139852000Y-68394609D01*
X139852000Y-68162224D01*
X140744336Y-67269889D01*
X140826815Y-67325000D01*
X140675863Y-67425863D01*
X140515182Y-67666339D01*
X140458758Y-67950000D01*
X140515182Y-68233661D01*
X140675863Y-68474137D01*
X140826815Y-68575000D01*
X140675863Y-68675863D01*
X140515182Y-68916339D01*
X140458758Y-69200000D01*
X140515182Y-69483661D01*
X140601218Y-69612423D01*
X140428893Y-69737722D01*
X140215013Y-70087031D01*
X140205334Y-70163877D01*
X140333002Y-70323000D01*
X141323000Y-70323000D01*
X141323000Y-70303000D01*
X141577000Y-70303000D01*
X141577000Y-70323000D01*
X142566998Y-70323000D01*
X142694666Y-70163877D01*
X142684987Y-70087031D01*
X142471107Y-69737722D01*
X142298782Y-69612423D01*
X142384818Y-69483661D01*
X142441242Y-69200000D01*
X142384818Y-68916339D01*
X142224137Y-68675863D01*
X142073185Y-68575000D01*
X142224137Y-68474137D01*
X142384818Y-68233661D01*
X142441242Y-67950000D01*
X142384818Y-67666339D01*
X142224137Y-67425863D01*
X142073185Y-67325000D01*
X142224137Y-67224137D01*
X142384818Y-66983661D01*
X142441242Y-66700000D01*
X142384818Y-66416339D01*
X142224137Y-66175863D01*
X142204359Y-66162648D01*
X142227589Y-66158027D01*
X142335754Y-66085754D01*
X142408027Y-65977589D01*
X142433406Y-65850000D01*
X142433406Y-65050000D01*
X142408027Y-64922411D01*
X142335754Y-64814246D01*
X142227589Y-64741973D01*
X142100000Y-64716594D01*
X140800000Y-64716594D01*
X140672411Y-64741973D01*
X140564246Y-64814246D01*
X140491973Y-64922411D01*
X140466594Y-65050000D01*
X140466594Y-65850000D01*
X140491973Y-65977589D01*
X140564246Y-66085754D01*
X140672411Y-66158027D01*
X140695641Y-66162648D01*
X140675863Y-66175863D01*
X140627231Y-66248647D01*
X140498638Y-66274225D01*
X140349126Y-66374126D01*
X140323909Y-66411867D01*
X139212776Y-67523000D01*
X138980391Y-67523000D01*
X138713187Y-67633679D01*
X138508679Y-67838187D01*
X138398000Y-68105391D01*
X125127000Y-68105391D01*
X125127000Y-66830391D01*
X130248000Y-66830391D01*
X130248000Y-67119609D01*
X130358679Y-67386813D01*
X130563187Y-67591321D01*
X130830391Y-67702000D01*
X131119609Y-67702000D01*
X131386813Y-67591321D01*
X131426134Y-67552000D01*
X134098866Y-67552000D01*
X134263187Y-67716321D01*
X134530391Y-67827000D01*
X134819609Y-67827000D01*
X135086813Y-67716321D01*
X135291321Y-67511813D01*
X135402000Y-67244609D01*
X135402000Y-66955391D01*
X135291321Y-66688187D01*
X135086813Y-66483679D01*
X134819609Y-66373000D01*
X134530391Y-66373000D01*
X134470035Y-66398000D01*
X131426134Y-66398000D01*
X131386813Y-66358679D01*
X131119609Y-66248000D01*
X130830391Y-66248000D01*
X130563187Y-66358679D01*
X130358679Y-66563187D01*
X130248000Y-66830391D01*
X125127000Y-66830391D01*
X125127000Y-56105391D01*
X128823000Y-56105391D01*
X128823000Y-56394609D01*
X128933679Y-56661813D01*
X128973001Y-56701135D01*
X128973000Y-58248866D01*
X128933679Y-58288187D01*
X128823000Y-58555391D01*
X128823000Y-58844609D01*
X128933679Y-59111813D01*
X129138187Y-59316321D01*
X129405391Y-59427000D01*
X129694609Y-59427000D01*
X129961813Y-59316321D01*
X130166321Y-59111813D01*
X130277000Y-58844609D01*
X130277000Y-58555391D01*
X130166321Y-58288187D01*
X130127000Y-58248866D01*
X130127000Y-56755391D01*
X134123000Y-56755391D01*
X134123000Y-57044609D01*
X134233679Y-57311813D01*
X134438187Y-57516321D01*
X134705391Y-57627000D01*
X134761000Y-57627000D01*
X135323001Y-58189002D01*
X135323000Y-58673866D01*
X135283679Y-58713187D01*
X135173000Y-58980391D01*
X135173000Y-59269609D01*
X135283679Y-59536813D01*
X135488187Y-59741321D01*
X135755391Y-59852000D01*
X136044609Y-59852000D01*
X136311813Y-59741321D01*
X136516321Y-59536813D01*
X136627000Y-59269609D01*
X136627000Y-58980391D01*
X136516321Y-58713187D01*
X136477000Y-58673866D01*
X136477000Y-58006827D01*
X136488304Y-57949999D01*
X136477000Y-57893171D01*
X136443522Y-57724866D01*
X136315994Y-57534006D01*
X136267815Y-57501814D01*
X135577000Y-56811000D01*
X135577000Y-56755391D01*
X135466321Y-56488187D01*
X135261813Y-56283679D01*
X134994609Y-56173000D01*
X134705391Y-56173000D01*
X134438187Y-56283679D01*
X134233679Y-56488187D01*
X134123000Y-56755391D01*
X130127000Y-56755391D01*
X130127000Y-56701134D01*
X130166321Y-56661813D01*
X130277000Y-56394609D01*
X130277000Y-56105391D01*
X130166321Y-55838187D01*
X129961813Y-55633679D01*
X129694609Y-55523000D01*
X129405391Y-55523000D01*
X129138187Y-55633679D01*
X128933679Y-55838187D01*
X128823000Y-56105391D01*
X125127000Y-56105391D01*
X125127000Y-54002000D01*
X143748000Y-54002000D01*
X143748001Y-92298000D01*
X143748001Y-92298000D01*
G37*
X143748001Y-92298000D02*
X136654930Y-92298000D01*
X136878569Y-92148569D01*
X137138709Y-91759242D01*
X137230058Y-91300000D01*
X137138709Y-90840758D01*
X136878569Y-90451431D01*
X136489242Y-90191291D01*
X136145920Y-90123000D01*
X135914080Y-90123000D01*
X135570758Y-90191291D01*
X135181431Y-90451431D01*
X135077000Y-90607723D01*
X135077000Y-86727000D01*
X140100000Y-86727000D01*
X140225137Y-86702109D01*
X140331224Y-86631224D01*
X140402109Y-86525137D01*
X140427000Y-86400000D01*
X140427000Y-76600000D01*
X140402109Y-76474863D01*
X140331224Y-76368776D01*
X140225137Y-76297891D01*
X140100000Y-76273000D01*
X136455134Y-76273000D01*
X136566321Y-76161813D01*
X136677000Y-75894609D01*
X136677000Y-75605391D01*
X136566321Y-75338187D01*
X136361813Y-75133679D01*
X136094609Y-75023000D01*
X135805391Y-75023000D01*
X135538187Y-75133679D01*
X135373866Y-75298000D01*
X132626134Y-75298000D01*
X132461813Y-75133679D01*
X132194609Y-75023000D01*
X131905391Y-75023000D01*
X131638187Y-75133679D01*
X131433679Y-75338187D01*
X131323000Y-75605391D01*
X131323000Y-75894609D01*
X131433679Y-76161813D01*
X131544866Y-76273000D01*
X131100000Y-76273000D01*
X130974863Y-76297891D01*
X130868776Y-76368776D01*
X130797891Y-76474863D01*
X130773000Y-76600000D01*
X130773000Y-86400000D01*
X130797891Y-86525137D01*
X130868776Y-86631224D01*
X130974863Y-86702109D01*
X131100000Y-86727000D01*
X131973000Y-86727000D01*
X131973000Y-89834340D01*
X131926310Y-89815000D01*
X131235750Y-89815000D01*
X131077000Y-89973750D01*
X131077000Y-91173000D01*
X131097000Y-91173000D01*
X131097000Y-91427000D01*
X131077000Y-91427000D01*
X131077000Y-91447000D01*
X130823000Y-91447000D01*
X130823000Y-91427000D01*
X129623750Y-91427000D01*
X129465000Y-91585750D01*
X129465000Y-92276309D01*
X129473985Y-92298000D01*
X125127000Y-92298000D01*
X125127000Y-90323691D01*
X129465000Y-90323691D01*
X129465000Y-91014250D01*
X129623750Y-91173000D01*
X130823000Y-91173000D01*
X130823000Y-89973750D01*
X130664250Y-89815000D01*
X129973690Y-89815000D01*
X129740301Y-89911673D01*
X129561673Y-90090302D01*
X129465000Y-90323691D01*
X125127000Y-90323691D01*
X125127000Y-69030391D01*
X130298000Y-69030391D01*
X130298000Y-69319609D01*
X130408679Y-69586813D01*
X130448000Y-69626134D01*
X130448001Y-71718167D01*
X130436696Y-71775000D01*
X130453044Y-71857183D01*
X130481479Y-72000134D01*
X130609007Y-72190994D01*
X130657186Y-72223186D01*
X130748000Y-72314000D01*
X130748000Y-72369609D01*
X130858679Y-72636813D01*
X131063187Y-72841321D01*
X131330391Y-72952000D01*
X131619609Y-72952000D01*
X131886813Y-72841321D01*
X132091321Y-72636813D01*
X132202000Y-72369609D01*
X132202000Y-72080391D01*
X132091321Y-71813187D01*
X131886813Y-71608679D01*
X131619609Y-71498000D01*
X131602000Y-71498000D01*
X131602000Y-70879266D01*
X131708679Y-71136813D01*
X131913187Y-71341321D01*
X132180391Y-71452000D01*
X132400812Y-71452000D01*
X132436865Y-71476090D01*
X132548637Y-71550774D01*
X132724998Y-71585854D01*
X132769516Y-71576999D01*
X135505483Y-71576999D01*
X135550001Y-71585854D01*
X135594519Y-71576999D01*
X135726363Y-71550774D01*
X135875875Y-71450873D01*
X135901094Y-71413130D01*
X136562224Y-70752000D01*
X136794609Y-70752000D01*
X136832939Y-70736123D01*
X140205334Y-70736123D01*
X140215013Y-70812969D01*
X140428893Y-71162278D01*
X140760167Y-71403149D01*
X141158402Y-71498912D01*
X141323000Y-71333756D01*
X141323000Y-70577000D01*
X141577000Y-70577000D01*
X141577000Y-71333756D01*
X141741598Y-71498912D01*
X142139833Y-71403149D01*
X142471107Y-71162278D01*
X142684987Y-70812969D01*
X142694666Y-70736123D01*
X142566998Y-70577000D01*
X141577000Y-70577000D01*
X141323000Y-70577000D01*
X140333002Y-70577000D01*
X140205334Y-70736123D01*
X136832939Y-70736123D01*
X137061813Y-70641321D01*
X137266321Y-70436813D01*
X137377000Y-70169609D01*
X137377000Y-69880391D01*
X137266321Y-69613187D01*
X137061813Y-69408679D01*
X136794609Y-69298000D01*
X136505391Y-69298000D01*
X136238187Y-69408679D01*
X136033679Y-69613187D01*
X135923000Y-69880391D01*
X135923000Y-70112776D01*
X135362777Y-70672999D01*
X134319732Y-70672999D01*
X134491321Y-70501410D01*
X134602000Y-70234206D01*
X134602000Y-69944988D01*
X134491321Y-69677784D01*
X134286813Y-69473276D01*
X134019609Y-69362597D01*
X133826821Y-69362597D01*
X133527000Y-69062776D01*
X133527000Y-68830391D01*
X133416321Y-68563187D01*
X133211813Y-68358679D01*
X132944609Y-68248000D01*
X132655391Y-68248000D01*
X132388187Y-68358679D01*
X132183679Y-68563187D01*
X132073000Y-68830391D01*
X132073000Y-69119609D01*
X132183679Y-69386813D01*
X132388187Y-69591321D01*
X132655391Y-69702000D01*
X132887776Y-69702000D01*
X133148000Y-69962224D01*
X133148000Y-70234206D01*
X133258679Y-70501410D01*
X133430268Y-70672999D01*
X133052000Y-70672999D01*
X133052000Y-70580391D01*
X132941321Y-70313187D01*
X132736813Y-70108679D01*
X132469609Y-69998000D01*
X132180391Y-69998000D01*
X131913187Y-70108679D01*
X131708679Y-70313187D01*
X131602000Y-70570734D01*
X131602000Y-69626134D01*
X131641321Y-69586813D01*
X131752000Y-69319609D01*
X131752000Y-69030391D01*
X131641321Y-68763187D01*
X131436813Y-68558679D01*
X131169609Y-68448000D01*
X130880391Y-68448000D01*
X130613187Y-68558679D01*
X130408679Y-68763187D01*
X130298000Y-69030391D01*
X125127000Y-69030391D01*
X125127000Y-68105391D01*
X138398000Y-68105391D01*
X138398000Y-68394609D01*
X138508679Y-68661813D01*
X138713187Y-68866321D01*
X138980391Y-68977000D01*
X139269609Y-68977000D01*
X139536813Y-68866321D01*
X139741321Y-68661813D01*
X139852000Y-68394609D01*
X139852000Y-68162224D01*
X140744336Y-67269889D01*
X140826815Y-67325000D01*
X140675863Y-67425863D01*
X140515182Y-67666339D01*
X140458758Y-67950000D01*
X140515182Y-68233661D01*
X140675863Y-68474137D01*
X140826815Y-68575000D01*
X140675863Y-68675863D01*
X140515182Y-68916339D01*
X140458758Y-69200000D01*
X140515182Y-69483661D01*
X140601218Y-69612423D01*
X140428893Y-69737722D01*
X140215013Y-70087031D01*
X140205334Y-70163877D01*
X140333002Y-70323000D01*
X141323000Y-70323000D01*
X141323000Y-70303000D01*
X141577000Y-70303000D01*
X141577000Y-70323000D01*
X142566998Y-70323000D01*
X142694666Y-70163877D01*
X142684987Y-70087031D01*
X142471107Y-69737722D01*
X142298782Y-69612423D01*
X142384818Y-69483661D01*
X142441242Y-69200000D01*
X142384818Y-68916339D01*
X142224137Y-68675863D01*
X142073185Y-68575000D01*
X142224137Y-68474137D01*
X142384818Y-68233661D01*
X142441242Y-67950000D01*
X142384818Y-67666339D01*
X142224137Y-67425863D01*
X142073185Y-67325000D01*
X142224137Y-67224137D01*
X142384818Y-66983661D01*
X142441242Y-66700000D01*
X142384818Y-66416339D01*
X142224137Y-66175863D01*
X142204359Y-66162648D01*
X142227589Y-66158027D01*
X142335754Y-66085754D01*
X142408027Y-65977589D01*
X142433406Y-65850000D01*
X142433406Y-65050000D01*
X142408027Y-64922411D01*
X142335754Y-64814246D01*
X142227589Y-64741973D01*
X142100000Y-64716594D01*
X140800000Y-64716594D01*
X140672411Y-64741973D01*
X140564246Y-64814246D01*
X140491973Y-64922411D01*
X140466594Y-65050000D01*
X140466594Y-65850000D01*
X140491973Y-65977589D01*
X140564246Y-66085754D01*
X140672411Y-66158027D01*
X140695641Y-66162648D01*
X140675863Y-66175863D01*
X140627231Y-66248647D01*
X140498638Y-66274225D01*
X140349126Y-66374126D01*
X140323909Y-66411867D01*
X139212776Y-67523000D01*
X138980391Y-67523000D01*
X138713187Y-67633679D01*
X138508679Y-67838187D01*
X138398000Y-68105391D01*
X125127000Y-68105391D01*
X125127000Y-66830391D01*
X130248000Y-66830391D01*
X130248000Y-67119609D01*
X130358679Y-67386813D01*
X130563187Y-67591321D01*
X130830391Y-67702000D01*
X131119609Y-67702000D01*
X131386813Y-67591321D01*
X131426134Y-67552000D01*
X134098866Y-67552000D01*
X134263187Y-67716321D01*
X134530391Y-67827000D01*
X134819609Y-67827000D01*
X135086813Y-67716321D01*
X135291321Y-67511813D01*
X135402000Y-67244609D01*
X135402000Y-66955391D01*
X135291321Y-66688187D01*
X135086813Y-66483679D01*
X134819609Y-66373000D01*
X134530391Y-66373000D01*
X134470035Y-66398000D01*
X131426134Y-66398000D01*
X131386813Y-66358679D01*
X131119609Y-66248000D01*
X130830391Y-66248000D01*
X130563187Y-66358679D01*
X130358679Y-66563187D01*
X130248000Y-66830391D01*
X125127000Y-66830391D01*
X125127000Y-56105391D01*
X128823000Y-56105391D01*
X128823000Y-56394609D01*
X128933679Y-56661813D01*
X128973001Y-56701135D01*
X128973000Y-58248866D01*
X128933679Y-58288187D01*
X128823000Y-58555391D01*
X128823000Y-58844609D01*
X128933679Y-59111813D01*
X129138187Y-59316321D01*
X129405391Y-59427000D01*
X129694609Y-59427000D01*
X129961813Y-59316321D01*
X130166321Y-59111813D01*
X130277000Y-58844609D01*
X130277000Y-58555391D01*
X130166321Y-58288187D01*
X130127000Y-58248866D01*
X130127000Y-56755391D01*
X134123000Y-56755391D01*
X134123000Y-57044609D01*
X134233679Y-57311813D01*
X134438187Y-57516321D01*
X134705391Y-57627000D01*
X134761000Y-57627000D01*
X135323001Y-58189002D01*
X135323000Y-58673866D01*
X135283679Y-58713187D01*
X135173000Y-58980391D01*
X135173000Y-59269609D01*
X135283679Y-59536813D01*
X135488187Y-59741321D01*
X135755391Y-59852000D01*
X136044609Y-59852000D01*
X136311813Y-59741321D01*
X136516321Y-59536813D01*
X136627000Y-59269609D01*
X136627000Y-58980391D01*
X136516321Y-58713187D01*
X136477000Y-58673866D01*
X136477000Y-58006827D01*
X136488304Y-57949999D01*
X136477000Y-57893171D01*
X136443522Y-57724866D01*
X136315994Y-57534006D01*
X136267815Y-57501814D01*
X135577000Y-56811000D01*
X135577000Y-56755391D01*
X135466321Y-56488187D01*
X135261813Y-56283679D01*
X134994609Y-56173000D01*
X134705391Y-56173000D01*
X134438187Y-56283679D01*
X134233679Y-56488187D01*
X134123000Y-56755391D01*
X130127000Y-56755391D01*
X130127000Y-56701134D01*
X130166321Y-56661813D01*
X130277000Y-56394609D01*
X130277000Y-56105391D01*
X130166321Y-55838187D01*
X129961813Y-55633679D01*
X129694609Y-55523000D01*
X129405391Y-55523000D01*
X129138187Y-55633679D01*
X128933679Y-55838187D01*
X128823000Y-56105391D01*
X125127000Y-56105391D01*
X125127000Y-54002000D01*
X143748000Y-54002000D01*
X143748001Y-92298000D01*
G04 #@! TD*
M02*
