G04 #@! TF.GenerationSoftware,KiCad,Pcbnew,5.0.0-rc2-be01b52~65~ubuntu17.10.1*
G04 #@! TF.CreationDate,2018-06-21T16:11:27-04:00*
G04 #@! TF.ProjectId,pmtcmini-h10721,706D74636D696E692D6831303732312E,rev?*
G04 #@! TF.SameCoordinates,Original*
G04 #@! TF.FileFunction,Copper,L1,Top,Signal*
G04 #@! TF.FilePolarity,Positive*
%FSLAX46Y46*%
G04 Gerber Fmt 4.6, Leading zero omitted, Abs format (unit mm)*
G04 Created by KiCad (PCBNEW 5.0.0-rc2-be01b52~65~ubuntu17.10.1) date Thu Jun 21 16:11:27 2018*
%MOMM*%
%LPD*%
G01*
G04 APERTURE LIST*
G04 #@! TA.AperFunction,ComponentPad*
%ADD10R,1.300000X0.800000*%
G04 #@! TD*
G04 #@! TA.AperFunction,ComponentPad*
%ADD11O,1.300000X0.800000*%
G04 #@! TD*
G04 #@! TA.AperFunction,SMDPad,CuDef*
%ADD12R,0.406400X1.371600*%
G04 #@! TD*
G04 #@! TA.AperFunction,SMDPad,CuDef*
%ADD13R,0.558800X1.295400*%
G04 #@! TD*
G04 #@! TA.AperFunction,SMDPad,CuDef*
%ADD14R,2.000000X1.500000*%
G04 #@! TD*
G04 #@! TA.AperFunction,SMDPad,CuDef*
%ADD15R,1.600000X2.400000*%
G04 #@! TD*
G04 #@! TA.AperFunction,SMDPad,CuDef*
%ADD16R,0.400000X1.050000*%
G04 #@! TD*
G04 #@! TA.AperFunction,SMDPad,CuDef*
%ADD17R,1.475000X0.450000*%
G04 #@! TD*
G04 #@! TA.AperFunction,SMDPad,CuDef*
%ADD18R,0.550000X1.050000*%
G04 #@! TD*
G04 #@! TA.AperFunction,SMDPad,CuDef*
%ADD19R,1.250000X0.600000*%
G04 #@! TD*
G04 #@! TA.AperFunction,SMDPad,CuDef*
%ADD20R,0.575000X0.650000*%
G04 #@! TD*
G04 #@! TA.AperFunction,SMDPad,CuDef*
%ADD21R,0.650000X0.575000*%
G04 #@! TD*
G04 #@! TA.AperFunction,SMDPad,CuDef*
%ADD22R,0.670000X1.000000*%
G04 #@! TD*
G04 #@! TA.AperFunction,ComponentPad*
%ADD23R,1.700000X1.700000*%
G04 #@! TD*
G04 #@! TA.AperFunction,ComponentPad*
%ADD24O,1.700000X1.700000*%
G04 #@! TD*
G04 #@! TA.AperFunction,ViaPad*
%ADD25C,0.800000*%
G04 #@! TD*
G04 #@! TA.AperFunction,Conductor*
%ADD26C,0.250000*%
G04 #@! TD*
G04 #@! TA.AperFunction,Conductor*
%ADD27C,0.500000*%
G04 #@! TD*
G04 #@! TA.AperFunction,Conductor*
%ADD28C,0.254000*%
G04 #@! TD*
G04 APERTURE END LIST*
D10*
G04 #@! TO.P,J2,1*
G04 #@! TO.N,+3V3*
X141450000Y-65450000D03*
D11*
G04 #@! TO.P,J2,2*
G04 #@! TO.N,/SWDIO*
X141450000Y-66700000D03*
G04 #@! TO.P,J2,3*
G04 #@! TO.N,/SWCLK*
X141450000Y-67950000D03*
G04 #@! TO.P,J2,4*
G04 #@! TO.N,/RESET*
X141450000Y-69200000D03*
G04 #@! TO.P,J2,5*
G04 #@! TO.N,GND*
X141450000Y-70450000D03*
G04 #@! TD*
D12*
G04 #@! TO.P,U2,1*
G04 #@! TO.N,Net-(C1-Pad1)*
X134840600Y-79615600D03*
G04 #@! TO.P,U2,2*
G04 #@! TO.N,/\005CCS*
X134180200Y-79615600D03*
G04 #@! TO.P,U2,3*
G04 #@! TO.N,/SCLK*
X133519800Y-79615600D03*
G04 #@! TO.P,U2,4*
G04 #@! TO.N,/MOSI*
X132859400Y-79615600D03*
G04 #@! TO.P,U2,5*
G04 #@! TO.N,+3.3VA*
X132859400Y-83984400D03*
G04 #@! TO.P,U2,6*
G04 #@! TO.N,/PMT_ADJ*
X133519800Y-83984400D03*
G04 #@! TO.P,U2,7*
G04 #@! TO.N,+3.3VA*
X134180200Y-83984400D03*
G04 #@! TO.P,U2,8*
G04 #@! TO.N,GNDA*
X134840600Y-83984400D03*
G04 #@! TD*
D13*
G04 #@! TO.P,U1,1*
G04 #@! TO.N,+3.3VA*
X137100000Y-81978700D03*
G04 #@! TO.P,U1,2*
G04 #@! TO.N,Net-(C1-Pad1)*
X139000000Y-81978700D03*
G04 #@! TO.P,U1,3*
G04 #@! TO.N,GNDA*
X138050000Y-79921300D03*
G04 #@! TD*
D14*
G04 #@! TO.P,P1,S4*
G04 #@! TO.N,N/C*
X134800000Y-61730000D03*
G04 #@! TO.P,P1,S5*
X130100000Y-61730000D03*
D15*
G04 #@! TO.P,P1,S2*
X137650000Y-55330000D03*
G04 #@! TO.P,P1,S1*
X127250000Y-55330000D03*
D16*
G04 #@! TO.P,P1,1*
G04 #@! TO.N,VBUS*
X133750000Y-59955000D03*
G04 #@! TO.P,P1,2*
G04 #@! TO.N,/USBM*
X133100000Y-59955000D03*
G04 #@! TO.P,P1,3*
G04 #@! TO.N,/USBP*
X132450000Y-59955000D03*
G04 #@! TO.P,P1,4*
G04 #@! TO.N,Net-(P1-Pad4)*
X131800000Y-59955000D03*
G04 #@! TO.P,P1,5*
G04 #@! TO.N,GND*
X131150000Y-59955000D03*
D15*
G04 #@! TO.P,P1,S3*
G04 #@! TO.N,N/C*
X137650000Y-59630000D03*
G04 #@! TO.P,P1,S6*
X127250000Y-59630000D03*
G04 #@! TD*
D17*
G04 #@! TO.P,U3,1*
G04 #@! TO.N,Net-(R1-Pad1)*
X129362000Y-68725000D03*
G04 #@! TO.P,U3,2*
G04 #@! TO.N,Net-(U3-Pad2)*
X129362000Y-69375000D03*
G04 #@! TO.P,U3,3*
G04 #@! TO.N,Net-(U3-Pad3)*
X129362000Y-70025000D03*
G04 #@! TO.P,U3,4*
G04 #@! TO.N,/RESET*
X129362000Y-70675000D03*
G04 #@! TO.P,U3,5*
G04 #@! TO.N,+3V3*
X129362000Y-71325000D03*
G04 #@! TO.P,U3,6*
G04 #@! TO.N,Net-(U3-Pad6)*
X129362000Y-71975000D03*
G04 #@! TO.P,U3,7*
G04 #@! TO.N,/PMT_EN*
X129362000Y-72625000D03*
G04 #@! TO.P,U3,8*
G04 #@! TO.N,Net-(U3-Pad8)*
X129362000Y-73275000D03*
G04 #@! TO.P,U3,9*
G04 #@! TO.N,Net-(U3-Pad9)*
X129362000Y-73925000D03*
G04 #@! TO.P,U3,10*
G04 #@! TO.N,/\005CCS*
X129362000Y-74575000D03*
G04 #@! TO.P,U3,11*
G04 #@! TO.N,/SCLK*
X135238000Y-74575000D03*
G04 #@! TO.P,U3,12*
G04 #@! TO.N,Net-(U3-Pad12)*
X135238000Y-73925000D03*
G04 #@! TO.P,U3,13*
G04 #@! TO.N,/MOSI*
X135238000Y-73275000D03*
G04 #@! TO.P,U3,14*
G04 #@! TO.N,/LED*
X135238000Y-72625000D03*
G04 #@! TO.P,U3,15*
G04 #@! TO.N,GND*
X135238000Y-71975000D03*
G04 #@! TO.P,U3,16*
G04 #@! TO.N,+3V3*
X135238000Y-71325000D03*
G04 #@! TO.P,U3,17*
G04 #@! TO.N,Net-(R6-Pad2)*
X135238000Y-70675000D03*
G04 #@! TO.P,U3,18*
G04 #@! TO.N,Net-(R4-Pad1)*
X135238000Y-70025000D03*
G04 #@! TO.P,U3,19*
G04 #@! TO.N,/SWDIO*
X135238000Y-69375000D03*
G04 #@! TO.P,U3,20*
G04 #@! TO.N,/SWCLK*
X135238000Y-68725000D03*
G04 #@! TD*
D18*
G04 #@! TO.P,U6,5*
G04 #@! TO.N,+3V3*
X142000000Y-59900000D03*
G04 #@! TO.P,U6,4*
X140100000Y-59900000D03*
G04 #@! TO.P,U6,3*
G04 #@! TO.N,VBUS*
X140100000Y-57300000D03*
G04 #@! TO.P,U6,2*
G04 #@! TO.N,GND*
X141050000Y-57300000D03*
G04 #@! TO.P,U6,1*
G04 #@! TO.N,VBUS*
X142000000Y-57300000D03*
G04 #@! TD*
G04 #@! TO.P,U4,1*
G04 #@! TO.N,VBUS*
X130350000Y-79750000D03*
G04 #@! TO.P,U4,2*
G04 #@! TO.N,GND*
X129400000Y-79750000D03*
G04 #@! TO.P,U4,3*
G04 #@! TO.N,VBUS*
X128450000Y-79750000D03*
G04 #@! TO.P,U4,4*
G04 #@! TO.N,+3.3VA*
X128450000Y-82350000D03*
G04 #@! TO.P,U4,5*
X130350000Y-82350000D03*
G04 #@! TD*
D19*
G04 #@! TO.P,U5,1*
G04 #@! TO.N,+3V3*
X142150000Y-89550000D03*
G04 #@! TO.P,U5,2*
G04 #@! TO.N,GND*
X142150000Y-88600000D03*
G04 #@! TO.P,U5,3*
G04 #@! TO.N,/PMT_EN*
X142150000Y-87650000D03*
G04 #@! TO.P,U5,4*
G04 #@! TO.N,Net-(U5-Pad4)*
X139650000Y-87650000D03*
G04 #@! TO.P,U5,5*
G04 #@! TO.N,Net-(R7-Pad1)*
X139650000Y-88600000D03*
G04 #@! TO.P,U5,6*
G04 #@! TO.N,/PMT_VDD*
X139650000Y-89550000D03*
G04 #@! TD*
D20*
G04 #@! TO.P,C12,2*
G04 #@! TO.N,GND*
X130650000Y-63650000D03*
G04 #@! TO.P,C12,1*
G04 #@! TO.N,/USBP*
X131425000Y-63650000D03*
G04 #@! TD*
G04 #@! TO.P,C11,1*
G04 #@! TO.N,/PMT_ADJ*
X131687500Y-88400000D03*
G04 #@! TO.P,C11,2*
G04 #@! TO.N,GND*
X130912500Y-88400000D03*
G04 #@! TD*
G04 #@! TO.P,C10,2*
G04 #@! TO.N,GND*
X134887500Y-63650000D03*
G04 #@! TO.P,C10,1*
G04 #@! TO.N,/USBM*
X134112500Y-63650000D03*
G04 #@! TD*
D21*
G04 #@! TO.P,C6,1*
G04 #@! TO.N,+3.3VA*
X136750000Y-84462500D03*
G04 #@! TO.P,C6,2*
G04 #@! TO.N,GNDA*
X136750000Y-85237500D03*
G04 #@! TD*
D20*
G04 #@! TO.P,C4,2*
G04 #@! TO.N,GND*
X138350000Y-69950000D03*
G04 #@! TO.P,C4,1*
G04 #@! TO.N,+3V3*
X137575000Y-69950000D03*
G04 #@! TD*
G04 #@! TO.P,C3,1*
G04 #@! TO.N,+3V3*
X127037500Y-71300000D03*
G04 #@! TO.P,C3,2*
G04 #@! TO.N,GND*
X126262500Y-71300000D03*
G04 #@! TD*
G04 #@! TO.P,C1,2*
G04 #@! TO.N,GNDA*
X135837500Y-77450000D03*
G04 #@! TO.P,C1,1*
G04 #@! TO.N,Net-(C1-Pad1)*
X135062500Y-77450000D03*
G04 #@! TD*
G04 #@! TO.P,C2,1*
G04 #@! TO.N,+3V3*
X137562500Y-71350000D03*
G04 #@! TO.P,C2,2*
G04 #@! TO.N,GND*
X138337500Y-71350000D03*
G04 #@! TD*
D22*
G04 #@! TO.P,C9,2*
G04 #@! TO.N,GND*
X141950000Y-61900000D03*
G04 #@! TO.P,C9,1*
G04 #@! TO.N,+3V3*
X140200000Y-61900000D03*
G04 #@! TD*
G04 #@! TO.P,C8,1*
G04 #@! TO.N,+3.3VA*
X128450000Y-84300000D03*
G04 #@! TO.P,C8,2*
G04 #@! TO.N,GNDA*
X130200000Y-84300000D03*
G04 #@! TD*
G04 #@! TO.P,C7,2*
G04 #@! TO.N,GND*
X141850000Y-55350000D03*
G04 #@! TO.P,C7,1*
G04 #@! TO.N,VBUS*
X140100000Y-55350000D03*
G04 #@! TD*
G04 #@! TO.P,C5,1*
G04 #@! TO.N,VBUS*
X128500000Y-77600000D03*
G04 #@! TO.P,C5,2*
G04 #@! TO.N,GND*
X130250000Y-77600000D03*
G04 #@! TD*
D23*
G04 #@! TO.P,J1,1*
G04 #@! TO.N,GND*
X130950000Y-91300000D03*
D24*
G04 #@! TO.P,J1,2*
G04 #@! TO.N,/PMT_ADJ*
X133490000Y-91300000D03*
G04 #@! TO.P,J1,3*
G04 #@! TO.N,/PMT_VDD*
X136030000Y-91300000D03*
G04 #@! TD*
D22*
G04 #@! TO.P,D1,1*
G04 #@! TO.N,/LED*
X138225000Y-74175000D03*
G04 #@! TO.P,D1,2*
G04 #@! TO.N,Net-(D1-Pad2)*
X139975000Y-74175000D03*
G04 #@! TD*
D21*
G04 #@! TO.P,R7,1*
G04 #@! TO.N,Net-(R7-Pad1)*
X137800000Y-87800000D03*
G04 #@! TO.P,R7,2*
G04 #@! TO.N,/PMT_VDD*
X137800000Y-88575000D03*
G04 #@! TD*
G04 #@! TO.P,R1,2*
G04 #@! TO.N,GND*
X127075000Y-69450000D03*
G04 #@! TO.P,R1,1*
G04 #@! TO.N,Net-(R1-Pad1)*
X127075000Y-68675000D03*
G04 #@! TD*
G04 #@! TO.P,R2,1*
G04 #@! TO.N,Net-(R1-Pad1)*
X127150000Y-67487500D03*
G04 #@! TO.P,R2,2*
G04 #@! TO.N,+3V3*
X127150000Y-66712500D03*
G04 #@! TD*
D20*
G04 #@! TO.P,R3,2*
G04 #@! TO.N,Net-(D1-Pad2)*
X140062500Y-72725000D03*
G04 #@! TO.P,R3,1*
G04 #@! TO.N,+3V3*
X139287500Y-72725000D03*
G04 #@! TD*
G04 #@! TO.P,R4,1*
G04 #@! TO.N,Net-(R4-Pad1)*
X129387500Y-65900000D03*
G04 #@! TO.P,R4,2*
G04 #@! TO.N,+3V3*
X128612500Y-65900000D03*
G04 #@! TD*
D21*
G04 #@! TO.P,R5,2*
G04 #@! TO.N,Net-(R4-Pad1)*
X132000000Y-65937500D03*
G04 #@! TO.P,R5,1*
G04 #@! TO.N,/USBP*
X132000000Y-65162500D03*
G04 #@! TD*
G04 #@! TO.P,R6,1*
G04 #@! TO.N,/USBM*
X133550000Y-65162500D03*
G04 #@! TO.P,R6,2*
G04 #@! TO.N,Net-(R6-Pad2)*
X133550000Y-65937500D03*
G04 #@! TD*
D25*
G04 #@! TO.N,Net-(R4-Pad1)*
X133875000Y-70089597D03*
X132800000Y-68975000D03*
G04 #@! TO.N,GND*
X140900000Y-88600000D03*
X143050000Y-55350000D03*
X130900000Y-87300000D03*
X139300000Y-70650000D03*
X129600000Y-63700000D03*
X135900000Y-63650000D03*
X133600000Y-72000000D03*
X126225000Y-70275000D03*
X130100000Y-59950000D03*
X129400000Y-76325000D03*
G04 #@! TO.N,+3V3*
X129550000Y-56250000D03*
X129550000Y-58700000D03*
X135900000Y-59125000D03*
X134850000Y-56900000D03*
X131475000Y-72225000D03*
X131025000Y-69175000D03*
X130975000Y-66975000D03*
X134675000Y-67100000D03*
G04 #@! TO.N,GND*
X142150000Y-63275000D03*
G04 #@! TO.N,/SWDIO*
X139125000Y-68250000D03*
G04 #@! TO.N,/RESET*
X132325000Y-70725000D03*
X136650000Y-70025000D03*
G04 #@! TO.N,GNDA*
X135350000Y-85450000D03*
X136550000Y-79200000D03*
X132385000Y-85650000D03*
G04 #@! TO.N,/PMT_EN*
X132050000Y-75750000D03*
X135950000Y-75750000D03*
G04 #@! TD*
D26*
G04 #@! TO.N,/USBM*
X134112500Y-63650000D02*
X133575000Y-63650000D01*
X133100000Y-59955000D02*
X133100000Y-63650000D01*
X133575000Y-63650000D02*
X133100000Y-63650000D01*
X133100000Y-63650000D02*
X133100000Y-64350000D01*
X133275000Y-64350000D02*
X133100000Y-64350000D01*
X133550000Y-64625000D02*
X133275000Y-64350000D01*
X133550000Y-65162500D02*
X133550000Y-64625000D01*
G04 #@! TO.N,Net-(R6-Pad2)*
X133550000Y-65937500D02*
X133550000Y-69375000D01*
X133550000Y-69375000D02*
X133150000Y-69775000D01*
X133439598Y-70814598D02*
X133150000Y-70525000D01*
X134223001Y-70814598D02*
X133439598Y-70814598D01*
X134362599Y-70675000D02*
X134223001Y-70814598D01*
X135238000Y-70675000D02*
X134362599Y-70675000D01*
X133150000Y-69775000D02*
X133150000Y-70525000D01*
G04 #@! TO.N,Net-(R4-Pad1)*
X131962500Y-65900000D02*
X132000000Y-65937500D01*
X129387500Y-65900000D02*
X131962500Y-65900000D01*
X135238000Y-70025000D02*
X133939597Y-70025000D01*
X133939597Y-70025000D02*
X133875000Y-70089597D01*
X132000000Y-68175000D02*
X132000000Y-65937500D01*
X132800000Y-68975000D02*
X132000000Y-68175000D01*
G04 #@! TO.N,/USBP*
X132400000Y-63650000D02*
X132450000Y-63700000D01*
X131425000Y-63650000D02*
X132400000Y-63650000D01*
X132450000Y-59955000D02*
X132450000Y-63700000D01*
X132450000Y-63700000D02*
X132450000Y-64250000D01*
X132375000Y-64250000D02*
X132450000Y-64250000D01*
X132000000Y-64625000D02*
X132375000Y-64250000D01*
X132000000Y-65162500D02*
X132000000Y-64625000D01*
D27*
G04 #@! TO.N,+3.3VA*
X130325000Y-82375000D02*
X130350000Y-82350000D01*
X128450000Y-82350000D02*
X130350000Y-82350000D01*
X128450000Y-82350000D02*
X128450000Y-84300000D01*
X130350000Y-82350000D02*
X131225000Y-82350000D01*
X134180200Y-82798600D02*
X133981600Y-82600000D01*
X134180200Y-83984400D02*
X134180200Y-82798600D01*
X132859400Y-82798600D02*
X132859400Y-83984400D01*
X133058000Y-82600000D02*
X132859400Y-82798600D01*
X133981600Y-82600000D02*
X133058000Y-82600000D01*
X131475000Y-82600000D02*
X131225000Y-82350000D01*
X133058000Y-82600000D02*
X131475000Y-82600000D01*
X133981600Y-82600000D02*
X134602900Y-81978700D01*
X135650000Y-83400000D02*
X135650000Y-81978700D01*
X136750000Y-84462500D02*
X136712500Y-84462500D01*
X134602900Y-81978700D02*
X135650000Y-81978700D01*
X136712500Y-84462500D02*
X135650000Y-83400000D01*
X135650000Y-81978700D02*
X137100000Y-81978700D01*
D26*
G04 #@! TO.N,Net-(D1-Pad2)*
X139975000Y-74175000D02*
X140287500Y-74175000D01*
X139975000Y-72812500D02*
X140062500Y-72725000D01*
X139975000Y-74175000D02*
X139975000Y-72812500D01*
D27*
G04 #@! TO.N,+3V3*
X140050000Y-59950000D02*
X140100000Y-59900000D01*
X140100000Y-59900000D02*
X142000000Y-59900000D01*
D26*
X127062500Y-71325000D02*
X127037500Y-71300000D01*
X129362000Y-71325000D02*
X127062500Y-71325000D01*
X137537500Y-71325000D02*
X137562500Y-71350000D01*
X135238000Y-71325000D02*
X137537500Y-71325000D01*
X137562500Y-69962500D02*
X137575000Y-69950000D01*
X137562500Y-71350000D02*
X137562500Y-69962500D01*
G04 #@! TO.N,Net-(R1-Pad1)*
X129312000Y-68775000D02*
X129362000Y-68725000D01*
X127412500Y-68762500D02*
X127400000Y-68775000D01*
D27*
G04 #@! TO.N,GND*
X142150000Y-88600000D02*
X140900000Y-88600000D01*
X141050000Y-56150000D02*
X141850000Y-55350000D01*
X141050000Y-57300000D02*
X141050000Y-56150000D01*
D26*
X130912500Y-88400000D02*
X130912500Y-87312500D01*
X130912500Y-87312500D02*
X130900000Y-87300000D01*
X138350000Y-71337500D02*
X138337500Y-71350000D01*
X138350000Y-70650000D02*
X139300000Y-70650000D01*
X138350000Y-70650000D02*
X138350000Y-71337500D01*
X138350000Y-69950000D02*
X138350000Y-70650000D01*
X130650000Y-63650000D02*
X129650000Y-63650000D01*
X129650000Y-63650000D02*
X129600000Y-63700000D01*
X134887500Y-63650000D02*
X135900000Y-63650000D01*
X135238000Y-71975000D02*
X133625000Y-71975000D01*
X133625000Y-71975000D02*
X133600000Y-72000000D01*
X126262500Y-71300000D02*
X126262500Y-70312500D01*
X126262500Y-70312500D02*
X126225000Y-70275000D01*
D27*
X131150000Y-59955000D02*
X130105000Y-59955000D01*
X130105000Y-59955000D02*
X130100000Y-59950000D01*
X129400000Y-78450000D02*
X130250000Y-77600000D01*
X129400000Y-79750000D02*
X129400000Y-78450000D01*
X130250000Y-77600000D02*
X130250000Y-77175000D01*
X130250000Y-77175000D02*
X129400000Y-76325000D01*
G04 #@! TO.N,+3V3*
X138463186Y-72725000D02*
X137562500Y-71824314D01*
X137562500Y-71824314D02*
X137562500Y-71350000D01*
X139287500Y-72725000D02*
X138463186Y-72725000D01*
D26*
G04 #@! TO.N,Net-(R1-Pad1)*
X129312000Y-68675000D02*
X129362000Y-68725000D01*
X127075000Y-68675000D02*
X129312000Y-68675000D01*
X127075000Y-67562500D02*
X127150000Y-67487500D01*
X127075000Y-68675000D02*
X127075000Y-67562500D01*
G04 #@! TO.N,GND*
X127050000Y-69450000D02*
X126225000Y-70275000D01*
X127075000Y-69450000D02*
X127050000Y-69450000D01*
D27*
X141950000Y-61900000D02*
X141950000Y-63075000D01*
X141950000Y-63075000D02*
X142150000Y-63275000D01*
X141850000Y-55350000D02*
X143050000Y-55350000D01*
D26*
G04 #@! TO.N,Net-(R7-Pad1)*
X139175000Y-88600000D02*
X139650000Y-88600000D01*
X138375000Y-87800000D02*
X139175000Y-88600000D01*
X137800000Y-87800000D02*
X138375000Y-87800000D01*
G04 #@! TO.N,/PMT_VDD*
X137062500Y-90267500D02*
X136030000Y-91300000D01*
D27*
X137780000Y-89550000D02*
X136030000Y-91300000D01*
X139650000Y-89550000D02*
X137780000Y-89550000D01*
D26*
X137780000Y-89132500D02*
X137780000Y-89550000D01*
X137800000Y-89112500D02*
X137780000Y-89132500D01*
X137800000Y-88575000D02*
X137800000Y-89112500D01*
G04 #@! TO.N,/LED*
X138225000Y-73300000D02*
X138225000Y-74175000D01*
X135238000Y-72625000D02*
X137550000Y-72625000D01*
X137550000Y-72625000D02*
X138225000Y-73300000D01*
G04 #@! TO.N,/PMT_ADJ*
X133519800Y-91270200D02*
X133490000Y-91300000D01*
X131687500Y-88400000D02*
X133519800Y-88400000D01*
X133519800Y-83984400D02*
X133519800Y-88400000D01*
X133519800Y-88400000D02*
X133519800Y-91270200D01*
G04 #@! TO.N,/SWDIO*
X139125000Y-68125000D02*
X139125000Y-68250000D01*
X136225500Y-69375000D02*
X135238000Y-69375000D01*
X139125000Y-68250000D02*
X137350500Y-68250000D01*
X137350500Y-68250000D02*
X136225500Y-69375000D01*
G04 #@! TO.N,/SWCLK*
X137425500Y-67525000D02*
X136225500Y-68725000D01*
X140124998Y-67525000D02*
X137425500Y-67525000D01*
X136225500Y-68725000D02*
X135238000Y-68725000D01*
X141450000Y-67950000D02*
X140550000Y-67950000D01*
X140550000Y-67950000D02*
X140124998Y-67525000D01*
G04 #@! TO.N,/RESET*
X129362000Y-70675000D02*
X132275000Y-70675000D01*
X132275000Y-70675000D02*
X132325000Y-70725000D01*
X140550000Y-69200000D02*
X141450000Y-69200000D01*
X137127498Y-69200000D02*
X140550000Y-69200000D01*
X136650000Y-69677498D02*
X137127498Y-69200000D01*
X136650000Y-70025000D02*
X136650000Y-69677498D01*
D27*
G04 #@! TO.N,VBUS*
X128500000Y-79700000D02*
X128450000Y-79750000D01*
X128500000Y-77600000D02*
X128500000Y-79700000D01*
X130035001Y-80725001D02*
X130350000Y-80410002D01*
X128764999Y-80725001D02*
X130035001Y-80725001D01*
X128450000Y-80410002D02*
X128764999Y-80725001D01*
X130350000Y-80410002D02*
X130350000Y-79750000D01*
X128450000Y-79750000D02*
X128450000Y-80410002D01*
G04 #@! TO.N,GNDA*
X136750000Y-85237500D02*
X135562500Y-85237500D01*
X135562500Y-85237500D02*
X135350000Y-85450000D01*
X134880210Y-84274353D02*
X134880210Y-83984400D01*
X134880210Y-84414525D02*
X134880210Y-84274353D01*
X135350000Y-84884315D02*
X134880210Y-84414525D01*
X135350000Y-85450000D02*
X135350000Y-84884315D01*
X138050000Y-79921300D02*
X137271300Y-79921300D01*
X137271300Y-79921300D02*
X136550000Y-79200000D01*
X136550000Y-78162500D02*
X135837500Y-77450000D01*
X136550000Y-79200000D02*
X136550000Y-78162500D01*
X131035000Y-84300000D02*
X132385000Y-85650000D01*
X130200000Y-84300000D02*
X131035000Y-84300000D01*
D26*
G04 #@! TO.N,Net-(C1-Pad1)*
X134840600Y-77671900D02*
X135062500Y-77450000D01*
X134840600Y-79615600D02*
X134840600Y-77671900D01*
X139000000Y-81610400D02*
X139000000Y-81978700D01*
X136684199Y-81005999D02*
X138395599Y-81005999D01*
X135293800Y-79615600D02*
X136684199Y-81005999D01*
X138395599Y-81005999D02*
X139000000Y-81610400D01*
X134840600Y-79615600D02*
X135293800Y-79615600D01*
G04 #@! TO.N,/PMT_EN*
X129362000Y-72625000D02*
X130349500Y-72625000D01*
X130349500Y-72625000D02*
X132050000Y-74325500D01*
X132050000Y-74325500D02*
X132050000Y-75750000D01*
X135950000Y-75750000D02*
X140500000Y-75750000D01*
X140500000Y-75750000D02*
X140950000Y-76200000D01*
X140950000Y-76200000D02*
X140950000Y-85650000D01*
X142150000Y-86850000D02*
X142150000Y-87650000D01*
X140950000Y-85650000D02*
X142150000Y-86850000D01*
G04 #@! TO.N,/\005CCS*
X134180200Y-80551400D02*
X133881600Y-80850000D01*
X134180200Y-79615600D02*
X134180200Y-80551400D01*
X132619798Y-80850000D02*
X131900000Y-80130202D01*
X133881600Y-80850000D02*
X132619798Y-80850000D01*
X129362000Y-75050000D02*
X129362000Y-74575000D01*
X131900000Y-77588000D02*
X129362000Y-75050000D01*
X131900000Y-80130202D02*
X131900000Y-77588000D01*
G04 #@! TO.N,/SCLK*
X133519800Y-78679800D02*
X133519800Y-79615600D01*
X133519800Y-76768200D02*
X133519800Y-78679800D01*
X135238000Y-75050000D02*
X133519800Y-76768200D01*
X135238000Y-74575000D02*
X135238000Y-75050000D01*
G04 #@! TO.N,/MOSI*
X134250500Y-73275000D02*
X135238000Y-73275000D01*
X132859400Y-74666100D02*
X134250500Y-73275000D01*
X132859400Y-79615600D02*
X132859400Y-74666100D01*
D27*
G04 #@! TO.N,VBUS*
X140100000Y-55350000D02*
X140100000Y-57300000D01*
X140100000Y-58325000D02*
X140275000Y-58500000D01*
X140100000Y-57300000D02*
X140100000Y-58325000D01*
X141825000Y-58500000D02*
X142000000Y-58325000D01*
X142000000Y-58325000D02*
X142000000Y-57300000D01*
X140275000Y-58500000D02*
X141825000Y-58500000D01*
X140100000Y-57300000D02*
X136080000Y-57300000D01*
X133750000Y-59630000D02*
X134530000Y-58850000D01*
X133750000Y-59955000D02*
X133750000Y-59630000D01*
X136080000Y-57300000D02*
X134530000Y-58850000D01*
X134530000Y-58850000D02*
X133980000Y-59400000D01*
X128500000Y-77435000D02*
X125350000Y-74285000D01*
X128500000Y-77600000D02*
X128500000Y-77435000D01*
X125350000Y-58719998D02*
X126569998Y-57500000D01*
X125350000Y-74285000D02*
X125350000Y-58719998D01*
X133750000Y-58930000D02*
X133750000Y-59955000D01*
X132320000Y-57500000D02*
X133750000Y-58930000D01*
X126569998Y-57500000D02*
X132320000Y-57500000D01*
G04 #@! TD*
D28*
G04 #@! TO.N,+3V3*
G36*
X143748001Y-92298000D02*
X136654930Y-92298000D01*
X136878569Y-92148569D01*
X137138709Y-91759242D01*
X137230058Y-91300000D01*
X137166339Y-90979662D01*
X138019001Y-90127000D01*
X138850975Y-90127000D01*
X138897411Y-90158027D01*
X139025000Y-90183406D01*
X140275000Y-90183406D01*
X140402589Y-90158027D01*
X140510754Y-90085754D01*
X140583027Y-89977589D01*
X140608406Y-89850000D01*
X140608406Y-89835750D01*
X140890000Y-89835750D01*
X140890000Y-89976309D01*
X140986673Y-90209698D01*
X141165301Y-90388327D01*
X141398690Y-90485000D01*
X141864250Y-90485000D01*
X142023000Y-90326250D01*
X142023000Y-89677000D01*
X142277000Y-89677000D01*
X142277000Y-90326250D01*
X142435750Y-90485000D01*
X142901310Y-90485000D01*
X143134699Y-90388327D01*
X143313327Y-90209698D01*
X143410000Y-89976309D01*
X143410000Y-89835750D01*
X143251250Y-89677000D01*
X142277000Y-89677000D01*
X142023000Y-89677000D01*
X141048750Y-89677000D01*
X140890000Y-89835750D01*
X140608406Y-89835750D01*
X140608406Y-89266117D01*
X140755391Y-89327000D01*
X140952750Y-89327000D01*
X141048750Y-89423000D01*
X142023000Y-89423000D01*
X142023000Y-89403000D01*
X142277000Y-89403000D01*
X142277000Y-89423000D01*
X143251250Y-89423000D01*
X143410000Y-89264250D01*
X143410000Y-89123691D01*
X143313327Y-88890302D01*
X143134699Y-88711673D01*
X143108406Y-88700782D01*
X143108406Y-88300000D01*
X143083027Y-88172411D01*
X143051348Y-88125000D01*
X143083027Y-88077589D01*
X143108406Y-87950000D01*
X143108406Y-87350000D01*
X143083027Y-87222411D01*
X143010754Y-87114246D01*
X142902589Y-87041973D01*
X142775000Y-87016594D01*
X142602000Y-87016594D01*
X142602000Y-86894516D01*
X142610855Y-86849999D01*
X142602000Y-86805482D01*
X142575775Y-86673638D01*
X142475874Y-86524126D01*
X142438134Y-86498909D01*
X141402000Y-85462776D01*
X141402000Y-76244517D01*
X141410855Y-76199999D01*
X141375775Y-76023638D01*
X141301091Y-75911866D01*
X141275874Y-75874126D01*
X141238134Y-75848909D01*
X140851093Y-75461869D01*
X140825874Y-75424126D01*
X140676362Y-75324225D01*
X140544518Y-75298000D01*
X140500000Y-75289145D01*
X140455482Y-75298000D01*
X136526134Y-75298000D01*
X136361813Y-75133679D01*
X136178399Y-75057707D01*
X136211254Y-75035754D01*
X136283527Y-74927589D01*
X136308906Y-74800000D01*
X136308906Y-74350000D01*
X136289015Y-74250000D01*
X136308906Y-74150000D01*
X136308906Y-73700000D01*
X136289015Y-73600000D01*
X136308906Y-73500000D01*
X136308906Y-73077000D01*
X137362776Y-73077000D01*
X137696673Y-73410898D01*
X137654246Y-73439246D01*
X137581973Y-73547411D01*
X137556594Y-73675000D01*
X137556594Y-74675000D01*
X137581973Y-74802589D01*
X137654246Y-74910754D01*
X137762411Y-74983027D01*
X137890000Y-75008406D01*
X138560000Y-75008406D01*
X138687589Y-74983027D01*
X138795754Y-74910754D01*
X138868027Y-74802589D01*
X138893406Y-74675000D01*
X138893406Y-73685000D01*
X139001750Y-73685000D01*
X139011750Y-73675000D01*
X139306594Y-73675000D01*
X139306594Y-74675000D01*
X139331973Y-74802589D01*
X139404246Y-74910754D01*
X139512411Y-74983027D01*
X139640000Y-75008406D01*
X140310000Y-75008406D01*
X140437589Y-74983027D01*
X140545754Y-74910754D01*
X140618027Y-74802589D01*
X140643406Y-74675000D01*
X140643406Y-74455928D01*
X140713275Y-74351362D01*
X140748355Y-74175000D01*
X140713275Y-73998638D01*
X140643406Y-73894072D01*
X140643406Y-73675000D01*
X140618027Y-73547411D01*
X140545754Y-73439246D01*
X140437589Y-73366973D01*
X140435102Y-73366478D01*
X140477589Y-73358027D01*
X140585754Y-73285754D01*
X140658027Y-73177589D01*
X140683406Y-73050000D01*
X140683406Y-72400000D01*
X140658027Y-72272411D01*
X140585754Y-72164246D01*
X140477589Y-72091973D01*
X140350000Y-72066594D01*
X140124218Y-72066594D01*
X140113327Y-72040301D01*
X139934698Y-71861673D01*
X139701309Y-71765000D01*
X139573250Y-71765000D01*
X139414500Y-71923750D01*
X139414500Y-72598000D01*
X139434500Y-72598000D01*
X139434500Y-72852000D01*
X139414500Y-72852000D01*
X139414500Y-73432395D01*
X139404246Y-73439246D01*
X139331973Y-73547411D01*
X139306594Y-73675000D01*
X139011750Y-73675000D01*
X139160500Y-73526250D01*
X139160500Y-72852000D01*
X138523750Y-72852000D01*
X138469987Y-72905763D01*
X137901093Y-72336869D01*
X137883140Y-72310000D01*
X137976309Y-72310000D01*
X138209698Y-72213327D01*
X138388327Y-72034699D01*
X138399218Y-72008406D01*
X138493568Y-72008406D01*
X138461673Y-72040301D01*
X138365000Y-72273690D01*
X138365000Y-72439250D01*
X138523750Y-72598000D01*
X139160500Y-72598000D01*
X139160500Y-71923750D01*
X139001750Y-71765000D01*
X138940504Y-71765000D01*
X138958406Y-71675000D01*
X138958406Y-71295407D01*
X139155391Y-71377000D01*
X139444609Y-71377000D01*
X139711813Y-71266321D01*
X139916321Y-71061813D01*
X140027000Y-70794609D01*
X140027000Y-70505391D01*
X139916321Y-70238187D01*
X139711813Y-70033679D01*
X139444609Y-69923000D01*
X139155391Y-69923000D01*
X138970906Y-69999416D01*
X138970906Y-69652000D01*
X140627663Y-69652000D01*
X140675863Y-69724137D01*
X140826815Y-69825000D01*
X140675863Y-69925863D01*
X140515182Y-70166339D01*
X140458758Y-70450000D01*
X140515182Y-70733661D01*
X140675863Y-70974137D01*
X140916339Y-71134818D01*
X141128401Y-71177000D01*
X141771599Y-71177000D01*
X141983661Y-71134818D01*
X142224137Y-70974137D01*
X142384818Y-70733661D01*
X142441242Y-70450000D01*
X142384818Y-70166339D01*
X142224137Y-69925863D01*
X142073185Y-69825000D01*
X142224137Y-69724137D01*
X142384818Y-69483661D01*
X142441242Y-69200000D01*
X142384818Y-68916339D01*
X142224137Y-68675863D01*
X142073185Y-68575000D01*
X142224137Y-68474137D01*
X142384818Y-68233661D01*
X142441242Y-67950000D01*
X142384818Y-67666339D01*
X142224137Y-67425863D01*
X142073185Y-67325000D01*
X142224137Y-67224137D01*
X142384818Y-66983661D01*
X142441242Y-66700000D01*
X142385370Y-66419115D01*
X142459699Y-66388327D01*
X142638327Y-66209698D01*
X142735000Y-65976309D01*
X142735000Y-65735750D01*
X142576250Y-65577000D01*
X141577000Y-65577000D01*
X141577000Y-65597000D01*
X141323000Y-65597000D01*
X141323000Y-65577000D01*
X140323750Y-65577000D01*
X140165000Y-65735750D01*
X140165000Y-65976309D01*
X140261673Y-66209698D01*
X140440301Y-66388327D01*
X140514630Y-66419115D01*
X140458758Y-66700000D01*
X140515182Y-66983661D01*
X140675863Y-67224137D01*
X140826815Y-67325000D01*
X140675863Y-67425863D01*
X140671546Y-67432323D01*
X140476092Y-67236871D01*
X140450872Y-67199126D01*
X140301360Y-67099225D01*
X140169516Y-67073000D01*
X140169515Y-67073000D01*
X140124997Y-67064145D01*
X140080481Y-67073000D01*
X137470016Y-67073000D01*
X137425499Y-67064145D01*
X137380983Y-67073000D01*
X137380982Y-67073000D01*
X137249138Y-67099225D01*
X137099626Y-67199126D01*
X137074409Y-67236867D01*
X136112808Y-68198467D01*
X136103089Y-68191973D01*
X135975500Y-68166594D01*
X134500500Y-68166594D01*
X134372911Y-68191973D01*
X134264746Y-68264246D01*
X134192473Y-68372411D01*
X134167094Y-68500000D01*
X134167094Y-68950000D01*
X134186985Y-69050000D01*
X134167094Y-69150000D01*
X134167094Y-69423687D01*
X134019609Y-69362597D01*
X134008388Y-69362597D01*
X134002000Y-69330484D01*
X134002000Y-66533144D01*
X134002589Y-66533027D01*
X134110754Y-66460754D01*
X134183027Y-66352589D01*
X134208406Y-66225000D01*
X134208406Y-65650000D01*
X134188515Y-65550000D01*
X134208406Y-65450000D01*
X134208406Y-64923691D01*
X140165000Y-64923691D01*
X140165000Y-65164250D01*
X140323750Y-65323000D01*
X141323000Y-65323000D01*
X141323000Y-64573750D01*
X141577000Y-64573750D01*
X141577000Y-65323000D01*
X142576250Y-65323000D01*
X142735000Y-65164250D01*
X142735000Y-64923691D01*
X142638327Y-64690302D01*
X142459699Y-64511673D01*
X142226310Y-64415000D01*
X141735750Y-64415000D01*
X141577000Y-64573750D01*
X141323000Y-64573750D01*
X141164250Y-64415000D01*
X140673690Y-64415000D01*
X140440301Y-64511673D01*
X140261673Y-64690302D01*
X140165000Y-64923691D01*
X134208406Y-64923691D01*
X134208406Y-64875000D01*
X134183027Y-64747411D01*
X134110754Y-64639246D01*
X134002589Y-64566973D01*
X133999178Y-64566294D01*
X133975775Y-64448638D01*
X133961317Y-64427000D01*
X133882075Y-64308406D01*
X134400000Y-64308406D01*
X134500000Y-64288515D01*
X134600000Y-64308406D01*
X135175000Y-64308406D01*
X135302589Y-64283027D01*
X135410754Y-64210754D01*
X135419512Y-64197646D01*
X135488187Y-64266321D01*
X135755391Y-64377000D01*
X136044609Y-64377000D01*
X136311813Y-64266321D01*
X136516321Y-64061813D01*
X136627000Y-63794609D01*
X136627000Y-63505391D01*
X136516321Y-63238187D01*
X136311813Y-63033679D01*
X136044609Y-62923000D01*
X135755391Y-62923000D01*
X135488187Y-63033679D01*
X135419512Y-63102354D01*
X135410754Y-63089246D01*
X135302589Y-63016973D01*
X135175000Y-62991594D01*
X134600000Y-62991594D01*
X134500000Y-63011485D01*
X134400000Y-62991594D01*
X133825000Y-62991594D01*
X133697411Y-63016973D01*
X133589246Y-63089246D01*
X133552000Y-63144989D01*
X133552000Y-62697426D01*
X133564246Y-62715754D01*
X133672411Y-62788027D01*
X133800000Y-62813406D01*
X135800000Y-62813406D01*
X135927589Y-62788027D01*
X136035754Y-62715754D01*
X136108027Y-62607589D01*
X136133406Y-62480000D01*
X136133406Y-62185750D01*
X139230000Y-62185750D01*
X139230000Y-62526310D01*
X139326673Y-62759699D01*
X139505302Y-62938327D01*
X139738691Y-63035000D01*
X139914250Y-63035000D01*
X140073000Y-62876250D01*
X140073000Y-62027000D01*
X140327000Y-62027000D01*
X140327000Y-62876250D01*
X140485750Y-63035000D01*
X140661309Y-63035000D01*
X140894698Y-62938327D01*
X141073327Y-62759699D01*
X141170000Y-62526310D01*
X141170000Y-62185750D01*
X141011250Y-62027000D01*
X140327000Y-62027000D01*
X140073000Y-62027000D01*
X139388750Y-62027000D01*
X139230000Y-62185750D01*
X136133406Y-62185750D01*
X136133406Y-60980000D01*
X136108027Y-60852411D01*
X136035754Y-60744246D01*
X135927589Y-60671973D01*
X135800000Y-60646594D01*
X134231965Y-60646594D01*
X134258027Y-60607589D01*
X134283406Y-60480000D01*
X134283406Y-60195274D01*
X134293522Y-60180134D01*
X134327000Y-60011829D01*
X134327000Y-59869000D01*
X134978185Y-59217817D01*
X134978189Y-59217811D01*
X135766000Y-58430000D01*
X136516594Y-58430000D01*
X136516594Y-60830000D01*
X136541973Y-60957589D01*
X136614246Y-61065754D01*
X136722411Y-61138027D01*
X136850000Y-61163406D01*
X138450000Y-61163406D01*
X138577589Y-61138027D01*
X138685754Y-61065754D01*
X138758027Y-60957589D01*
X138783406Y-60830000D01*
X138783406Y-60185750D01*
X139190000Y-60185750D01*
X139190000Y-60551310D01*
X139286673Y-60784699D01*
X139434475Y-60932500D01*
X139326673Y-61040301D01*
X139230000Y-61273690D01*
X139230000Y-61614250D01*
X139388750Y-61773000D01*
X140073000Y-61773000D01*
X140073000Y-60923750D01*
X139973000Y-60823750D01*
X139973000Y-60027000D01*
X140227000Y-60027000D01*
X140227000Y-60901250D01*
X140327000Y-61001250D01*
X140327000Y-61773000D01*
X141011250Y-61773000D01*
X141170000Y-61614250D01*
X141170000Y-61400000D01*
X141281594Y-61400000D01*
X141281594Y-62400000D01*
X141306973Y-62527589D01*
X141373001Y-62626407D01*
X141373001Y-63018168D01*
X141361696Y-63075000D01*
X141404103Y-63288187D01*
X141406479Y-63300134D01*
X141423000Y-63324860D01*
X141423000Y-63419609D01*
X141533679Y-63686813D01*
X141738187Y-63891321D01*
X142005391Y-64002000D01*
X142294609Y-64002000D01*
X142561813Y-63891321D01*
X142766321Y-63686813D01*
X142877000Y-63419609D01*
X142877000Y-63130391D01*
X142766321Y-62863187D01*
X142561813Y-62658679D01*
X142527000Y-62644259D01*
X142527000Y-62626406D01*
X142593027Y-62527589D01*
X142618406Y-62400000D01*
X142618406Y-61400000D01*
X142593027Y-61272411D01*
X142520754Y-61164246D01*
X142412589Y-61091973D01*
X142285000Y-61066594D01*
X141615000Y-61066594D01*
X141487411Y-61091973D01*
X141379246Y-61164246D01*
X141306973Y-61272411D01*
X141281594Y-61400000D01*
X141170000Y-61400000D01*
X141170000Y-61273690D01*
X141073327Y-61040301D01*
X140894698Y-60861673D01*
X140853442Y-60844584D01*
X140913327Y-60784699D01*
X141010000Y-60551310D01*
X141010000Y-60185750D01*
X141090000Y-60185750D01*
X141090000Y-60551310D01*
X141186673Y-60784699D01*
X141365302Y-60963327D01*
X141598691Y-61060000D01*
X141714250Y-61060000D01*
X141873000Y-60901250D01*
X141873000Y-60027000D01*
X142127000Y-60027000D01*
X142127000Y-60901250D01*
X142285750Y-61060000D01*
X142401309Y-61060000D01*
X142634698Y-60963327D01*
X142813327Y-60784699D01*
X142910000Y-60551310D01*
X142910000Y-60185750D01*
X142751250Y-60027000D01*
X142127000Y-60027000D01*
X141873000Y-60027000D01*
X141248750Y-60027000D01*
X141090000Y-60185750D01*
X141010000Y-60185750D01*
X140851250Y-60027000D01*
X140227000Y-60027000D01*
X139973000Y-60027000D01*
X139348750Y-60027000D01*
X139190000Y-60185750D01*
X138783406Y-60185750D01*
X138783406Y-58430000D01*
X138758027Y-58302411D01*
X138685754Y-58194246D01*
X138577589Y-58121973D01*
X138450000Y-58096594D01*
X136850000Y-58096594D01*
X136722411Y-58121973D01*
X136614246Y-58194246D01*
X136541973Y-58302411D01*
X136516594Y-58430000D01*
X135766000Y-58430000D01*
X136319001Y-57877000D01*
X139501937Y-57877000D01*
X139516973Y-57952589D01*
X139523001Y-57961610D01*
X139523001Y-58268168D01*
X139511696Y-58325000D01*
X139549293Y-58514006D01*
X139556479Y-58550134D01*
X139684007Y-58740994D01*
X139688708Y-58744135D01*
X139465302Y-58836673D01*
X139286673Y-59015301D01*
X139190000Y-59248690D01*
X139190000Y-59614250D01*
X139348750Y-59773000D01*
X139973000Y-59773000D01*
X139973000Y-59753000D01*
X140227000Y-59753000D01*
X140227000Y-59773000D01*
X140851250Y-59773000D01*
X141010000Y-59614250D01*
X141010000Y-59248690D01*
X140938884Y-59077000D01*
X141161116Y-59077000D01*
X141090000Y-59248690D01*
X141090000Y-59614250D01*
X141248750Y-59773000D01*
X141873000Y-59773000D01*
X141873000Y-59753000D01*
X142127000Y-59753000D01*
X142127000Y-59773000D01*
X142751250Y-59773000D01*
X142910000Y-59614250D01*
X142910000Y-59248690D01*
X142813327Y-59015301D01*
X142634698Y-58836673D01*
X142411293Y-58744135D01*
X142415994Y-58740994D01*
X142543522Y-58550134D01*
X142577000Y-58381829D01*
X142577000Y-58381828D01*
X142588304Y-58325001D01*
X142577000Y-58268173D01*
X142577000Y-57961609D01*
X142583027Y-57952589D01*
X142608406Y-57825000D01*
X142608406Y-56775000D01*
X142583027Y-56647411D01*
X142510754Y-56539246D01*
X142402589Y-56466973D01*
X142275000Y-56441594D01*
X141725000Y-56441594D01*
X141627000Y-56461087D01*
X141627000Y-56389000D01*
X141832594Y-56183406D01*
X142185000Y-56183406D01*
X142312589Y-56158027D01*
X142420754Y-56085754D01*
X142493027Y-55977589D01*
X142503090Y-55927000D01*
X142598866Y-55927000D01*
X142638187Y-55966321D01*
X142905391Y-56077000D01*
X143194609Y-56077000D01*
X143461813Y-55966321D01*
X143666321Y-55761813D01*
X143748000Y-55564621D01*
X143748001Y-92298000D01*
X143748001Y-92298000D01*
G37*
X143748001Y-92298000D02*
X136654930Y-92298000D01*
X136878569Y-92148569D01*
X137138709Y-91759242D01*
X137230058Y-91300000D01*
X137166339Y-90979662D01*
X138019001Y-90127000D01*
X138850975Y-90127000D01*
X138897411Y-90158027D01*
X139025000Y-90183406D01*
X140275000Y-90183406D01*
X140402589Y-90158027D01*
X140510754Y-90085754D01*
X140583027Y-89977589D01*
X140608406Y-89850000D01*
X140608406Y-89835750D01*
X140890000Y-89835750D01*
X140890000Y-89976309D01*
X140986673Y-90209698D01*
X141165301Y-90388327D01*
X141398690Y-90485000D01*
X141864250Y-90485000D01*
X142023000Y-90326250D01*
X142023000Y-89677000D01*
X142277000Y-89677000D01*
X142277000Y-90326250D01*
X142435750Y-90485000D01*
X142901310Y-90485000D01*
X143134699Y-90388327D01*
X143313327Y-90209698D01*
X143410000Y-89976309D01*
X143410000Y-89835750D01*
X143251250Y-89677000D01*
X142277000Y-89677000D01*
X142023000Y-89677000D01*
X141048750Y-89677000D01*
X140890000Y-89835750D01*
X140608406Y-89835750D01*
X140608406Y-89266117D01*
X140755391Y-89327000D01*
X140952750Y-89327000D01*
X141048750Y-89423000D01*
X142023000Y-89423000D01*
X142023000Y-89403000D01*
X142277000Y-89403000D01*
X142277000Y-89423000D01*
X143251250Y-89423000D01*
X143410000Y-89264250D01*
X143410000Y-89123691D01*
X143313327Y-88890302D01*
X143134699Y-88711673D01*
X143108406Y-88700782D01*
X143108406Y-88300000D01*
X143083027Y-88172411D01*
X143051348Y-88125000D01*
X143083027Y-88077589D01*
X143108406Y-87950000D01*
X143108406Y-87350000D01*
X143083027Y-87222411D01*
X143010754Y-87114246D01*
X142902589Y-87041973D01*
X142775000Y-87016594D01*
X142602000Y-87016594D01*
X142602000Y-86894516D01*
X142610855Y-86849999D01*
X142602000Y-86805482D01*
X142575775Y-86673638D01*
X142475874Y-86524126D01*
X142438134Y-86498909D01*
X141402000Y-85462776D01*
X141402000Y-76244517D01*
X141410855Y-76199999D01*
X141375775Y-76023638D01*
X141301091Y-75911866D01*
X141275874Y-75874126D01*
X141238134Y-75848909D01*
X140851093Y-75461869D01*
X140825874Y-75424126D01*
X140676362Y-75324225D01*
X140544518Y-75298000D01*
X140500000Y-75289145D01*
X140455482Y-75298000D01*
X136526134Y-75298000D01*
X136361813Y-75133679D01*
X136178399Y-75057707D01*
X136211254Y-75035754D01*
X136283527Y-74927589D01*
X136308906Y-74800000D01*
X136308906Y-74350000D01*
X136289015Y-74250000D01*
X136308906Y-74150000D01*
X136308906Y-73700000D01*
X136289015Y-73600000D01*
X136308906Y-73500000D01*
X136308906Y-73077000D01*
X137362776Y-73077000D01*
X137696673Y-73410898D01*
X137654246Y-73439246D01*
X137581973Y-73547411D01*
X137556594Y-73675000D01*
X137556594Y-74675000D01*
X137581973Y-74802589D01*
X137654246Y-74910754D01*
X137762411Y-74983027D01*
X137890000Y-75008406D01*
X138560000Y-75008406D01*
X138687589Y-74983027D01*
X138795754Y-74910754D01*
X138868027Y-74802589D01*
X138893406Y-74675000D01*
X138893406Y-73685000D01*
X139001750Y-73685000D01*
X139011750Y-73675000D01*
X139306594Y-73675000D01*
X139306594Y-74675000D01*
X139331973Y-74802589D01*
X139404246Y-74910754D01*
X139512411Y-74983027D01*
X139640000Y-75008406D01*
X140310000Y-75008406D01*
X140437589Y-74983027D01*
X140545754Y-74910754D01*
X140618027Y-74802589D01*
X140643406Y-74675000D01*
X140643406Y-74455928D01*
X140713275Y-74351362D01*
X140748355Y-74175000D01*
X140713275Y-73998638D01*
X140643406Y-73894072D01*
X140643406Y-73675000D01*
X140618027Y-73547411D01*
X140545754Y-73439246D01*
X140437589Y-73366973D01*
X140435102Y-73366478D01*
X140477589Y-73358027D01*
X140585754Y-73285754D01*
X140658027Y-73177589D01*
X140683406Y-73050000D01*
X140683406Y-72400000D01*
X140658027Y-72272411D01*
X140585754Y-72164246D01*
X140477589Y-72091973D01*
X140350000Y-72066594D01*
X140124218Y-72066594D01*
X140113327Y-72040301D01*
X139934698Y-71861673D01*
X139701309Y-71765000D01*
X139573250Y-71765000D01*
X139414500Y-71923750D01*
X139414500Y-72598000D01*
X139434500Y-72598000D01*
X139434500Y-72852000D01*
X139414500Y-72852000D01*
X139414500Y-73432395D01*
X139404246Y-73439246D01*
X139331973Y-73547411D01*
X139306594Y-73675000D01*
X139011750Y-73675000D01*
X139160500Y-73526250D01*
X139160500Y-72852000D01*
X138523750Y-72852000D01*
X138469987Y-72905763D01*
X137901093Y-72336869D01*
X137883140Y-72310000D01*
X137976309Y-72310000D01*
X138209698Y-72213327D01*
X138388327Y-72034699D01*
X138399218Y-72008406D01*
X138493568Y-72008406D01*
X138461673Y-72040301D01*
X138365000Y-72273690D01*
X138365000Y-72439250D01*
X138523750Y-72598000D01*
X139160500Y-72598000D01*
X139160500Y-71923750D01*
X139001750Y-71765000D01*
X138940504Y-71765000D01*
X138958406Y-71675000D01*
X138958406Y-71295407D01*
X139155391Y-71377000D01*
X139444609Y-71377000D01*
X139711813Y-71266321D01*
X139916321Y-71061813D01*
X140027000Y-70794609D01*
X140027000Y-70505391D01*
X139916321Y-70238187D01*
X139711813Y-70033679D01*
X139444609Y-69923000D01*
X139155391Y-69923000D01*
X138970906Y-69999416D01*
X138970906Y-69652000D01*
X140627663Y-69652000D01*
X140675863Y-69724137D01*
X140826815Y-69825000D01*
X140675863Y-69925863D01*
X140515182Y-70166339D01*
X140458758Y-70450000D01*
X140515182Y-70733661D01*
X140675863Y-70974137D01*
X140916339Y-71134818D01*
X141128401Y-71177000D01*
X141771599Y-71177000D01*
X141983661Y-71134818D01*
X142224137Y-70974137D01*
X142384818Y-70733661D01*
X142441242Y-70450000D01*
X142384818Y-70166339D01*
X142224137Y-69925863D01*
X142073185Y-69825000D01*
X142224137Y-69724137D01*
X142384818Y-69483661D01*
X142441242Y-69200000D01*
X142384818Y-68916339D01*
X142224137Y-68675863D01*
X142073185Y-68575000D01*
X142224137Y-68474137D01*
X142384818Y-68233661D01*
X142441242Y-67950000D01*
X142384818Y-67666339D01*
X142224137Y-67425863D01*
X142073185Y-67325000D01*
X142224137Y-67224137D01*
X142384818Y-66983661D01*
X142441242Y-66700000D01*
X142385370Y-66419115D01*
X142459699Y-66388327D01*
X142638327Y-66209698D01*
X142735000Y-65976309D01*
X142735000Y-65735750D01*
X142576250Y-65577000D01*
X141577000Y-65577000D01*
X141577000Y-65597000D01*
X141323000Y-65597000D01*
X141323000Y-65577000D01*
X140323750Y-65577000D01*
X140165000Y-65735750D01*
X140165000Y-65976309D01*
X140261673Y-66209698D01*
X140440301Y-66388327D01*
X140514630Y-66419115D01*
X140458758Y-66700000D01*
X140515182Y-66983661D01*
X140675863Y-67224137D01*
X140826815Y-67325000D01*
X140675863Y-67425863D01*
X140671546Y-67432323D01*
X140476092Y-67236871D01*
X140450872Y-67199126D01*
X140301360Y-67099225D01*
X140169516Y-67073000D01*
X140169515Y-67073000D01*
X140124997Y-67064145D01*
X140080481Y-67073000D01*
X137470016Y-67073000D01*
X137425499Y-67064145D01*
X137380983Y-67073000D01*
X137380982Y-67073000D01*
X137249138Y-67099225D01*
X137099626Y-67199126D01*
X137074409Y-67236867D01*
X136112808Y-68198467D01*
X136103089Y-68191973D01*
X135975500Y-68166594D01*
X134500500Y-68166594D01*
X134372911Y-68191973D01*
X134264746Y-68264246D01*
X134192473Y-68372411D01*
X134167094Y-68500000D01*
X134167094Y-68950000D01*
X134186985Y-69050000D01*
X134167094Y-69150000D01*
X134167094Y-69423687D01*
X134019609Y-69362597D01*
X134008388Y-69362597D01*
X134002000Y-69330484D01*
X134002000Y-66533144D01*
X134002589Y-66533027D01*
X134110754Y-66460754D01*
X134183027Y-66352589D01*
X134208406Y-66225000D01*
X134208406Y-65650000D01*
X134188515Y-65550000D01*
X134208406Y-65450000D01*
X134208406Y-64923691D01*
X140165000Y-64923691D01*
X140165000Y-65164250D01*
X140323750Y-65323000D01*
X141323000Y-65323000D01*
X141323000Y-64573750D01*
X141577000Y-64573750D01*
X141577000Y-65323000D01*
X142576250Y-65323000D01*
X142735000Y-65164250D01*
X142735000Y-64923691D01*
X142638327Y-64690302D01*
X142459699Y-64511673D01*
X142226310Y-64415000D01*
X141735750Y-64415000D01*
X141577000Y-64573750D01*
X141323000Y-64573750D01*
X141164250Y-64415000D01*
X140673690Y-64415000D01*
X140440301Y-64511673D01*
X140261673Y-64690302D01*
X140165000Y-64923691D01*
X134208406Y-64923691D01*
X134208406Y-64875000D01*
X134183027Y-64747411D01*
X134110754Y-64639246D01*
X134002589Y-64566973D01*
X133999178Y-64566294D01*
X133975775Y-64448638D01*
X133961317Y-64427000D01*
X133882075Y-64308406D01*
X134400000Y-64308406D01*
X134500000Y-64288515D01*
X134600000Y-64308406D01*
X135175000Y-64308406D01*
X135302589Y-64283027D01*
X135410754Y-64210754D01*
X135419512Y-64197646D01*
X135488187Y-64266321D01*
X135755391Y-64377000D01*
X136044609Y-64377000D01*
X136311813Y-64266321D01*
X136516321Y-64061813D01*
X136627000Y-63794609D01*
X136627000Y-63505391D01*
X136516321Y-63238187D01*
X136311813Y-63033679D01*
X136044609Y-62923000D01*
X135755391Y-62923000D01*
X135488187Y-63033679D01*
X135419512Y-63102354D01*
X135410754Y-63089246D01*
X135302589Y-63016973D01*
X135175000Y-62991594D01*
X134600000Y-62991594D01*
X134500000Y-63011485D01*
X134400000Y-62991594D01*
X133825000Y-62991594D01*
X133697411Y-63016973D01*
X133589246Y-63089246D01*
X133552000Y-63144989D01*
X133552000Y-62697426D01*
X133564246Y-62715754D01*
X133672411Y-62788027D01*
X133800000Y-62813406D01*
X135800000Y-62813406D01*
X135927589Y-62788027D01*
X136035754Y-62715754D01*
X136108027Y-62607589D01*
X136133406Y-62480000D01*
X136133406Y-62185750D01*
X139230000Y-62185750D01*
X139230000Y-62526310D01*
X139326673Y-62759699D01*
X139505302Y-62938327D01*
X139738691Y-63035000D01*
X139914250Y-63035000D01*
X140073000Y-62876250D01*
X140073000Y-62027000D01*
X140327000Y-62027000D01*
X140327000Y-62876250D01*
X140485750Y-63035000D01*
X140661309Y-63035000D01*
X140894698Y-62938327D01*
X141073327Y-62759699D01*
X141170000Y-62526310D01*
X141170000Y-62185750D01*
X141011250Y-62027000D01*
X140327000Y-62027000D01*
X140073000Y-62027000D01*
X139388750Y-62027000D01*
X139230000Y-62185750D01*
X136133406Y-62185750D01*
X136133406Y-60980000D01*
X136108027Y-60852411D01*
X136035754Y-60744246D01*
X135927589Y-60671973D01*
X135800000Y-60646594D01*
X134231965Y-60646594D01*
X134258027Y-60607589D01*
X134283406Y-60480000D01*
X134283406Y-60195274D01*
X134293522Y-60180134D01*
X134327000Y-60011829D01*
X134327000Y-59869000D01*
X134978185Y-59217817D01*
X134978189Y-59217811D01*
X135766000Y-58430000D01*
X136516594Y-58430000D01*
X136516594Y-60830000D01*
X136541973Y-60957589D01*
X136614246Y-61065754D01*
X136722411Y-61138027D01*
X136850000Y-61163406D01*
X138450000Y-61163406D01*
X138577589Y-61138027D01*
X138685754Y-61065754D01*
X138758027Y-60957589D01*
X138783406Y-60830000D01*
X138783406Y-60185750D01*
X139190000Y-60185750D01*
X139190000Y-60551310D01*
X139286673Y-60784699D01*
X139434475Y-60932500D01*
X139326673Y-61040301D01*
X139230000Y-61273690D01*
X139230000Y-61614250D01*
X139388750Y-61773000D01*
X140073000Y-61773000D01*
X140073000Y-60923750D01*
X139973000Y-60823750D01*
X139973000Y-60027000D01*
X140227000Y-60027000D01*
X140227000Y-60901250D01*
X140327000Y-61001250D01*
X140327000Y-61773000D01*
X141011250Y-61773000D01*
X141170000Y-61614250D01*
X141170000Y-61400000D01*
X141281594Y-61400000D01*
X141281594Y-62400000D01*
X141306973Y-62527589D01*
X141373001Y-62626407D01*
X141373001Y-63018168D01*
X141361696Y-63075000D01*
X141404103Y-63288187D01*
X141406479Y-63300134D01*
X141423000Y-63324860D01*
X141423000Y-63419609D01*
X141533679Y-63686813D01*
X141738187Y-63891321D01*
X142005391Y-64002000D01*
X142294609Y-64002000D01*
X142561813Y-63891321D01*
X142766321Y-63686813D01*
X142877000Y-63419609D01*
X142877000Y-63130391D01*
X142766321Y-62863187D01*
X142561813Y-62658679D01*
X142527000Y-62644259D01*
X142527000Y-62626406D01*
X142593027Y-62527589D01*
X142618406Y-62400000D01*
X142618406Y-61400000D01*
X142593027Y-61272411D01*
X142520754Y-61164246D01*
X142412589Y-61091973D01*
X142285000Y-61066594D01*
X141615000Y-61066594D01*
X141487411Y-61091973D01*
X141379246Y-61164246D01*
X141306973Y-61272411D01*
X141281594Y-61400000D01*
X141170000Y-61400000D01*
X141170000Y-61273690D01*
X141073327Y-61040301D01*
X140894698Y-60861673D01*
X140853442Y-60844584D01*
X140913327Y-60784699D01*
X141010000Y-60551310D01*
X141010000Y-60185750D01*
X141090000Y-60185750D01*
X141090000Y-60551310D01*
X141186673Y-60784699D01*
X141365302Y-60963327D01*
X141598691Y-61060000D01*
X141714250Y-61060000D01*
X141873000Y-60901250D01*
X141873000Y-60027000D01*
X142127000Y-60027000D01*
X142127000Y-60901250D01*
X142285750Y-61060000D01*
X142401309Y-61060000D01*
X142634698Y-60963327D01*
X142813327Y-60784699D01*
X142910000Y-60551310D01*
X142910000Y-60185750D01*
X142751250Y-60027000D01*
X142127000Y-60027000D01*
X141873000Y-60027000D01*
X141248750Y-60027000D01*
X141090000Y-60185750D01*
X141010000Y-60185750D01*
X140851250Y-60027000D01*
X140227000Y-60027000D01*
X139973000Y-60027000D01*
X139348750Y-60027000D01*
X139190000Y-60185750D01*
X138783406Y-60185750D01*
X138783406Y-58430000D01*
X138758027Y-58302411D01*
X138685754Y-58194246D01*
X138577589Y-58121973D01*
X138450000Y-58096594D01*
X136850000Y-58096594D01*
X136722411Y-58121973D01*
X136614246Y-58194246D01*
X136541973Y-58302411D01*
X136516594Y-58430000D01*
X135766000Y-58430000D01*
X136319001Y-57877000D01*
X139501937Y-57877000D01*
X139516973Y-57952589D01*
X139523001Y-57961610D01*
X139523001Y-58268168D01*
X139511696Y-58325000D01*
X139549293Y-58514006D01*
X139556479Y-58550134D01*
X139684007Y-58740994D01*
X139688708Y-58744135D01*
X139465302Y-58836673D01*
X139286673Y-59015301D01*
X139190000Y-59248690D01*
X139190000Y-59614250D01*
X139348750Y-59773000D01*
X139973000Y-59773000D01*
X139973000Y-59753000D01*
X140227000Y-59753000D01*
X140227000Y-59773000D01*
X140851250Y-59773000D01*
X141010000Y-59614250D01*
X141010000Y-59248690D01*
X140938884Y-59077000D01*
X141161116Y-59077000D01*
X141090000Y-59248690D01*
X141090000Y-59614250D01*
X141248750Y-59773000D01*
X141873000Y-59773000D01*
X141873000Y-59753000D01*
X142127000Y-59753000D01*
X142127000Y-59773000D01*
X142751250Y-59773000D01*
X142910000Y-59614250D01*
X142910000Y-59248690D01*
X142813327Y-59015301D01*
X142634698Y-58836673D01*
X142411293Y-58744135D01*
X142415994Y-58740994D01*
X142543522Y-58550134D01*
X142577000Y-58381829D01*
X142577000Y-58381828D01*
X142588304Y-58325001D01*
X142577000Y-58268173D01*
X142577000Y-57961609D01*
X142583027Y-57952589D01*
X142608406Y-57825000D01*
X142608406Y-56775000D01*
X142583027Y-56647411D01*
X142510754Y-56539246D01*
X142402589Y-56466973D01*
X142275000Y-56441594D01*
X141725000Y-56441594D01*
X141627000Y-56461087D01*
X141627000Y-56389000D01*
X141832594Y-56183406D01*
X142185000Y-56183406D01*
X142312589Y-56158027D01*
X142420754Y-56085754D01*
X142493027Y-55977589D01*
X142503090Y-55927000D01*
X142598866Y-55927000D01*
X142638187Y-55966321D01*
X142905391Y-56077000D01*
X143194609Y-56077000D01*
X143461813Y-55966321D01*
X143666321Y-55761813D01*
X143748000Y-55564621D01*
X143748001Y-92298000D01*
G36*
X128291094Y-69150000D02*
X128291094Y-69600000D01*
X128310985Y-69700000D01*
X128291094Y-69800000D01*
X128291094Y-70250000D01*
X128310985Y-70350000D01*
X128291094Y-70450000D01*
X128291094Y-70550782D01*
X128264801Y-70561673D01*
X128086173Y-70740302D01*
X127989500Y-70973691D01*
X127989500Y-71053750D01*
X128148250Y-71212500D01*
X128519398Y-71212500D01*
X128624500Y-71233406D01*
X130099500Y-71233406D01*
X130204602Y-71212500D01*
X130575750Y-71212500D01*
X130661250Y-71127000D01*
X131704614Y-71127000D01*
X131708679Y-71136813D01*
X131913187Y-71341321D01*
X132180391Y-71452000D01*
X132469609Y-71452000D01*
X132736813Y-71341321D01*
X132941321Y-71136813D01*
X132994413Y-71008637D01*
X133088505Y-71102729D01*
X133113724Y-71140472D01*
X133263236Y-71240373D01*
X133395080Y-71266598D01*
X133395081Y-71266598D01*
X133439597Y-71275453D01*
X133484114Y-71266598D01*
X133865500Y-71266598D01*
X133865500Y-71323074D01*
X133744609Y-71273000D01*
X133455391Y-71273000D01*
X133188187Y-71383679D01*
X132983679Y-71588187D01*
X132873000Y-71855391D01*
X132873000Y-72144609D01*
X132983679Y-72411813D01*
X133188187Y-72616321D01*
X133455391Y-72727000D01*
X133744609Y-72727000D01*
X134011813Y-72616321D01*
X134167094Y-72461040D01*
X134167094Y-72830735D01*
X134074138Y-72849225D01*
X133924626Y-72949126D01*
X133899407Y-72986869D01*
X132571267Y-74315009D01*
X132533527Y-74340226D01*
X132508310Y-74377966D01*
X132508309Y-74377967D01*
X132502000Y-74387409D01*
X132502000Y-74370017D01*
X132510855Y-74325499D01*
X132475775Y-74149138D01*
X132401091Y-74037366D01*
X132375874Y-73999626D01*
X132338134Y-73974409D01*
X130700593Y-72336869D01*
X130675374Y-72299126D01*
X130525862Y-72199225D01*
X130432906Y-72180735D01*
X130432906Y-72099218D01*
X130459199Y-72088327D01*
X130637827Y-71909698D01*
X130734500Y-71676309D01*
X130734500Y-71596250D01*
X130575750Y-71437500D01*
X130204602Y-71437500D01*
X130099500Y-71416594D01*
X128624500Y-71416594D01*
X128519398Y-71437500D01*
X128148250Y-71437500D01*
X127989500Y-71596250D01*
X127989500Y-71676309D01*
X128086173Y-71909698D01*
X128264801Y-72088327D01*
X128291094Y-72099218D01*
X128291094Y-72200000D01*
X128310985Y-72300000D01*
X128291094Y-72400000D01*
X128291094Y-72850000D01*
X128310985Y-72950000D01*
X128291094Y-73050000D01*
X128291094Y-73500000D01*
X128310985Y-73600000D01*
X128291094Y-73700000D01*
X128291094Y-74150000D01*
X128310985Y-74250000D01*
X128291094Y-74350000D01*
X128291094Y-74800000D01*
X128316473Y-74927589D01*
X128388746Y-75035754D01*
X128496911Y-75108027D01*
X128624500Y-75133406D01*
X128917735Y-75133406D01*
X128936225Y-75226361D01*
X129036126Y-75375874D01*
X129073869Y-75401093D01*
X129270776Y-75598000D01*
X129255391Y-75598000D01*
X128988187Y-75708679D01*
X128783679Y-75913187D01*
X128673000Y-76180391D01*
X128673000Y-76469609D01*
X128783679Y-76736813D01*
X128813460Y-76766594D01*
X128647595Y-76766594D01*
X125927000Y-74046000D01*
X125927000Y-71948858D01*
X125975000Y-71958406D01*
X126200782Y-71958406D01*
X126211673Y-71984699D01*
X126390302Y-72163327D01*
X126623691Y-72260000D01*
X126751750Y-72260000D01*
X126910500Y-72101250D01*
X126910500Y-71427000D01*
X127164500Y-71427000D01*
X127164500Y-72101250D01*
X127323250Y-72260000D01*
X127451309Y-72260000D01*
X127684698Y-72163327D01*
X127863327Y-71984699D01*
X127960000Y-71751310D01*
X127960000Y-71585750D01*
X127801250Y-71427000D01*
X127164500Y-71427000D01*
X126910500Y-71427000D01*
X126890500Y-71427000D01*
X126890500Y-71173000D01*
X126910500Y-71173000D01*
X126910500Y-70519799D01*
X126919218Y-70498750D01*
X127164500Y-70498750D01*
X127164500Y-71173000D01*
X127801250Y-71173000D01*
X127960000Y-71014250D01*
X127960000Y-70848690D01*
X127863327Y-70615301D01*
X127684698Y-70436673D01*
X127451309Y-70340000D01*
X127323250Y-70340000D01*
X127164500Y-70498750D01*
X126919218Y-70498750D01*
X126952000Y-70419609D01*
X126952000Y-70187224D01*
X127068319Y-70070906D01*
X127400000Y-70070906D01*
X127527589Y-70045527D01*
X127635754Y-69973254D01*
X127708027Y-69865089D01*
X127733406Y-69737500D01*
X127733406Y-69162500D01*
X127726345Y-69127000D01*
X128295669Y-69127000D01*
X128291094Y-69150000D01*
X128291094Y-69150000D01*
G37*
X128291094Y-69150000D02*
X128291094Y-69600000D01*
X128310985Y-69700000D01*
X128291094Y-69800000D01*
X128291094Y-70250000D01*
X128310985Y-70350000D01*
X128291094Y-70450000D01*
X128291094Y-70550782D01*
X128264801Y-70561673D01*
X128086173Y-70740302D01*
X127989500Y-70973691D01*
X127989500Y-71053750D01*
X128148250Y-71212500D01*
X128519398Y-71212500D01*
X128624500Y-71233406D01*
X130099500Y-71233406D01*
X130204602Y-71212500D01*
X130575750Y-71212500D01*
X130661250Y-71127000D01*
X131704614Y-71127000D01*
X131708679Y-71136813D01*
X131913187Y-71341321D01*
X132180391Y-71452000D01*
X132469609Y-71452000D01*
X132736813Y-71341321D01*
X132941321Y-71136813D01*
X132994413Y-71008637D01*
X133088505Y-71102729D01*
X133113724Y-71140472D01*
X133263236Y-71240373D01*
X133395080Y-71266598D01*
X133395081Y-71266598D01*
X133439597Y-71275453D01*
X133484114Y-71266598D01*
X133865500Y-71266598D01*
X133865500Y-71323074D01*
X133744609Y-71273000D01*
X133455391Y-71273000D01*
X133188187Y-71383679D01*
X132983679Y-71588187D01*
X132873000Y-71855391D01*
X132873000Y-72144609D01*
X132983679Y-72411813D01*
X133188187Y-72616321D01*
X133455391Y-72727000D01*
X133744609Y-72727000D01*
X134011813Y-72616321D01*
X134167094Y-72461040D01*
X134167094Y-72830735D01*
X134074138Y-72849225D01*
X133924626Y-72949126D01*
X133899407Y-72986869D01*
X132571267Y-74315009D01*
X132533527Y-74340226D01*
X132508310Y-74377966D01*
X132508309Y-74377967D01*
X132502000Y-74387409D01*
X132502000Y-74370017D01*
X132510855Y-74325499D01*
X132475775Y-74149138D01*
X132401091Y-74037366D01*
X132375874Y-73999626D01*
X132338134Y-73974409D01*
X130700593Y-72336869D01*
X130675374Y-72299126D01*
X130525862Y-72199225D01*
X130432906Y-72180735D01*
X130432906Y-72099218D01*
X130459199Y-72088327D01*
X130637827Y-71909698D01*
X130734500Y-71676309D01*
X130734500Y-71596250D01*
X130575750Y-71437500D01*
X130204602Y-71437500D01*
X130099500Y-71416594D01*
X128624500Y-71416594D01*
X128519398Y-71437500D01*
X128148250Y-71437500D01*
X127989500Y-71596250D01*
X127989500Y-71676309D01*
X128086173Y-71909698D01*
X128264801Y-72088327D01*
X128291094Y-72099218D01*
X128291094Y-72200000D01*
X128310985Y-72300000D01*
X128291094Y-72400000D01*
X128291094Y-72850000D01*
X128310985Y-72950000D01*
X128291094Y-73050000D01*
X128291094Y-73500000D01*
X128310985Y-73600000D01*
X128291094Y-73700000D01*
X128291094Y-74150000D01*
X128310985Y-74250000D01*
X128291094Y-74350000D01*
X128291094Y-74800000D01*
X128316473Y-74927589D01*
X128388746Y-75035754D01*
X128496911Y-75108027D01*
X128624500Y-75133406D01*
X128917735Y-75133406D01*
X128936225Y-75226361D01*
X129036126Y-75375874D01*
X129073869Y-75401093D01*
X129270776Y-75598000D01*
X129255391Y-75598000D01*
X128988187Y-75708679D01*
X128783679Y-75913187D01*
X128673000Y-76180391D01*
X128673000Y-76469609D01*
X128783679Y-76736813D01*
X128813460Y-76766594D01*
X128647595Y-76766594D01*
X125927000Y-74046000D01*
X125927000Y-71948858D01*
X125975000Y-71958406D01*
X126200782Y-71958406D01*
X126211673Y-71984699D01*
X126390302Y-72163327D01*
X126623691Y-72260000D01*
X126751750Y-72260000D01*
X126910500Y-72101250D01*
X126910500Y-71427000D01*
X127164500Y-71427000D01*
X127164500Y-72101250D01*
X127323250Y-72260000D01*
X127451309Y-72260000D01*
X127684698Y-72163327D01*
X127863327Y-71984699D01*
X127960000Y-71751310D01*
X127960000Y-71585750D01*
X127801250Y-71427000D01*
X127164500Y-71427000D01*
X126910500Y-71427000D01*
X126890500Y-71427000D01*
X126890500Y-71173000D01*
X126910500Y-71173000D01*
X126910500Y-70519799D01*
X126919218Y-70498750D01*
X127164500Y-70498750D01*
X127164500Y-71173000D01*
X127801250Y-71173000D01*
X127960000Y-71014250D01*
X127960000Y-70848690D01*
X127863327Y-70615301D01*
X127684698Y-70436673D01*
X127451309Y-70340000D01*
X127323250Y-70340000D01*
X127164500Y-70498750D01*
X126919218Y-70498750D01*
X126952000Y-70419609D01*
X126952000Y-70187224D01*
X127068319Y-70070906D01*
X127400000Y-70070906D01*
X127527589Y-70045527D01*
X127635754Y-69973254D01*
X127708027Y-69865089D01*
X127733406Y-69737500D01*
X127733406Y-69162500D01*
X127726345Y-69127000D01*
X128295669Y-69127000D01*
X128291094Y-69150000D01*
G36*
X137702000Y-69823000D02*
X137722000Y-69823000D01*
X137722000Y-70077000D01*
X137702000Y-70077000D01*
X137702000Y-70536250D01*
X137689500Y-70548750D01*
X137689500Y-71223000D01*
X137709500Y-71223000D01*
X137709500Y-71477000D01*
X137689500Y-71477000D01*
X137689500Y-71497000D01*
X137435500Y-71497000D01*
X137435500Y-71477000D01*
X136798750Y-71477000D01*
X136640000Y-71635750D01*
X136640000Y-71801310D01*
X136736673Y-72034699D01*
X136874975Y-72173000D01*
X136308906Y-72173000D01*
X136308906Y-72099218D01*
X136335199Y-72088327D01*
X136513827Y-71909698D01*
X136610500Y-71676309D01*
X136610500Y-71596250D01*
X136451750Y-71437500D01*
X136080602Y-71437500D01*
X135975500Y-71416594D01*
X135091000Y-71416594D01*
X135091000Y-71233406D01*
X135975500Y-71233406D01*
X136080602Y-71212500D01*
X136451750Y-71212500D01*
X136610500Y-71053750D01*
X136610500Y-70973691D01*
X136518672Y-70752000D01*
X136700761Y-70752000D01*
X136640000Y-70898690D01*
X136640000Y-71064250D01*
X136798750Y-71223000D01*
X137435500Y-71223000D01*
X137435500Y-70763750D01*
X137448000Y-70751250D01*
X137448000Y-70077000D01*
X137428000Y-70077000D01*
X137428000Y-69823000D01*
X137448000Y-69823000D01*
X137448000Y-69803000D01*
X137702000Y-69803000D01*
X137702000Y-69823000D01*
X137702000Y-69823000D01*
G37*
X137702000Y-69823000D02*
X137722000Y-69823000D01*
X137722000Y-70077000D01*
X137702000Y-70077000D01*
X137702000Y-70536250D01*
X137689500Y-70548750D01*
X137689500Y-71223000D01*
X137709500Y-71223000D01*
X137709500Y-71477000D01*
X137689500Y-71477000D01*
X137689500Y-71497000D01*
X137435500Y-71497000D01*
X137435500Y-71477000D01*
X136798750Y-71477000D01*
X136640000Y-71635750D01*
X136640000Y-71801310D01*
X136736673Y-72034699D01*
X136874975Y-72173000D01*
X136308906Y-72173000D01*
X136308906Y-72099218D01*
X136335199Y-72088327D01*
X136513827Y-71909698D01*
X136610500Y-71676309D01*
X136610500Y-71596250D01*
X136451750Y-71437500D01*
X136080602Y-71437500D01*
X135975500Y-71416594D01*
X135091000Y-71416594D01*
X135091000Y-71233406D01*
X135975500Y-71233406D01*
X136080602Y-71212500D01*
X136451750Y-71212500D01*
X136610500Y-71053750D01*
X136610500Y-70973691D01*
X136518672Y-70752000D01*
X136700761Y-70752000D01*
X136640000Y-70898690D01*
X136640000Y-71064250D01*
X136798750Y-71223000D01*
X137435500Y-71223000D01*
X137435500Y-70763750D01*
X137448000Y-70751250D01*
X137448000Y-70077000D01*
X137428000Y-70077000D01*
X137428000Y-69823000D01*
X137448000Y-69823000D01*
X137448000Y-69803000D01*
X137702000Y-69803000D01*
X137702000Y-69823000D01*
G36*
X133100593Y-59096594D02*
X132900000Y-59096594D01*
X132775000Y-59121458D01*
X132650000Y-59096594D01*
X132250000Y-59096594D01*
X132125000Y-59121458D01*
X132000000Y-59096594D01*
X131600000Y-59096594D01*
X131475000Y-59121458D01*
X131350000Y-59096594D01*
X130950000Y-59096594D01*
X130822411Y-59121973D01*
X130714246Y-59194246D01*
X130641973Y-59302411D01*
X130626937Y-59378000D01*
X130556134Y-59378000D01*
X130511813Y-59333679D01*
X130244609Y-59223000D01*
X129955391Y-59223000D01*
X129688187Y-59333679D01*
X129483679Y-59538187D01*
X129373000Y-59805391D01*
X129373000Y-60094609D01*
X129483679Y-60361813D01*
X129688187Y-60566321D01*
X129881984Y-60646594D01*
X129100000Y-60646594D01*
X128972411Y-60671973D01*
X128864246Y-60744246D01*
X128791973Y-60852411D01*
X128766594Y-60980000D01*
X128766594Y-62480000D01*
X128791973Y-62607589D01*
X128864246Y-62715754D01*
X128972411Y-62788027D01*
X129100000Y-62813406D01*
X131100000Y-62813406D01*
X131227589Y-62788027D01*
X131335754Y-62715754D01*
X131408027Y-62607589D01*
X131433406Y-62480000D01*
X131433406Y-60980000D01*
X131408027Y-60852411D01*
X131378215Y-60807794D01*
X131475000Y-60788542D01*
X131600000Y-60813406D01*
X131998000Y-60813406D01*
X131998001Y-63163698D01*
X131948254Y-63089246D01*
X131840089Y-63016973D01*
X131712500Y-62991594D01*
X131137500Y-62991594D01*
X131037500Y-63011485D01*
X130937500Y-62991594D01*
X130362500Y-62991594D01*
X130234911Y-63016973D01*
X130126746Y-63089246D01*
X130082940Y-63154806D01*
X130011813Y-63083679D01*
X129744609Y-62973000D01*
X129455391Y-62973000D01*
X129188187Y-63083679D01*
X128983679Y-63288187D01*
X128873000Y-63555391D01*
X128873000Y-63844609D01*
X128983679Y-64111813D01*
X129188187Y-64316321D01*
X129455391Y-64427000D01*
X129744609Y-64427000D01*
X130011813Y-64316321D01*
X130122995Y-64205139D01*
X130126746Y-64210754D01*
X130234911Y-64283027D01*
X130362500Y-64308406D01*
X130937500Y-64308406D01*
X131037500Y-64288515D01*
X131137500Y-64308406D01*
X131667926Y-64308406D01*
X131648910Y-64336866D01*
X131648909Y-64336867D01*
X131574225Y-64448639D01*
X131550822Y-64566294D01*
X131547411Y-64566973D01*
X131439246Y-64639246D01*
X131366973Y-64747411D01*
X131341594Y-64875000D01*
X131341594Y-65448000D01*
X129983144Y-65448000D01*
X129983027Y-65447411D01*
X129910754Y-65339246D01*
X129802589Y-65266973D01*
X129675000Y-65241594D01*
X129449218Y-65241594D01*
X129438327Y-65215301D01*
X129259698Y-65036673D01*
X129026309Y-64940000D01*
X128898250Y-64940000D01*
X128739500Y-65098750D01*
X128739500Y-65773000D01*
X128759500Y-65773000D01*
X128759500Y-66027000D01*
X128739500Y-66027000D01*
X128739500Y-66701250D01*
X128898250Y-66860000D01*
X129026309Y-66860000D01*
X129259698Y-66763327D01*
X129438327Y-66584699D01*
X129449218Y-66558406D01*
X129675000Y-66558406D01*
X129802589Y-66533027D01*
X129910754Y-66460754D01*
X129983027Y-66352589D01*
X129983144Y-66352000D01*
X131366856Y-66352000D01*
X131366973Y-66352589D01*
X131439246Y-66460754D01*
X131547411Y-66533027D01*
X131548001Y-66533144D01*
X131548000Y-68130482D01*
X131539145Y-68175000D01*
X131559210Y-68275874D01*
X131574225Y-68351361D01*
X131674126Y-68500874D01*
X131711869Y-68526093D01*
X132073000Y-68887224D01*
X132073000Y-69119609D01*
X132183679Y-69386813D01*
X132388187Y-69591321D01*
X132655391Y-69702000D01*
X132703665Y-69702000D01*
X132689145Y-69775000D01*
X132698000Y-69819518D01*
X132698000Y-70092602D01*
X132469609Y-69998000D01*
X132180391Y-69998000D01*
X131913187Y-70108679D01*
X131798866Y-70223000D01*
X130432906Y-70223000D01*
X130432906Y-69800000D01*
X130413015Y-69700000D01*
X130432906Y-69600000D01*
X130432906Y-69150000D01*
X130413015Y-69050000D01*
X130432906Y-68950000D01*
X130432906Y-68500000D01*
X130407527Y-68372411D01*
X130335254Y-68264246D01*
X130227089Y-68191973D01*
X130099500Y-68166594D01*
X128624500Y-68166594D01*
X128496911Y-68191973D01*
X128450475Y-68223000D01*
X127683364Y-68223000D01*
X127635754Y-68151746D01*
X127548893Y-68093708D01*
X127602589Y-68083027D01*
X127710754Y-68010754D01*
X127783027Y-67902589D01*
X127808406Y-67775000D01*
X127808406Y-67549218D01*
X127834699Y-67538327D01*
X128013327Y-67359698D01*
X128110000Y-67126309D01*
X128110000Y-66998250D01*
X127951252Y-66839502D01*
X128110000Y-66839502D01*
X128110000Y-66823263D01*
X128198691Y-66860000D01*
X128326750Y-66860000D01*
X128485500Y-66701250D01*
X128485500Y-66027000D01*
X128465500Y-66027000D01*
X128465500Y-65773000D01*
X128485500Y-65773000D01*
X128485500Y-65098750D01*
X128326750Y-64940000D01*
X128198691Y-64940000D01*
X127965302Y-65036673D01*
X127786673Y-65215301D01*
X127690000Y-65448690D01*
X127690000Y-65614250D01*
X127848748Y-65772998D01*
X127690000Y-65772998D01*
X127690000Y-65826737D01*
X127601310Y-65790000D01*
X127435750Y-65790000D01*
X127277000Y-65948750D01*
X127277000Y-66585500D01*
X127297000Y-66585500D01*
X127297000Y-66839500D01*
X127277000Y-66839500D01*
X127277000Y-66859500D01*
X127023000Y-66859500D01*
X127023000Y-66839500D01*
X126348750Y-66839500D01*
X126190000Y-66998250D01*
X126190000Y-67126309D01*
X126286673Y-67359698D01*
X126465301Y-67538327D01*
X126491594Y-67549218D01*
X126491594Y-67775000D01*
X126516973Y-67902589D01*
X126589246Y-68010754D01*
X126623001Y-68033308D01*
X126623001Y-68079356D01*
X126622411Y-68079473D01*
X126514246Y-68151746D01*
X126441973Y-68259911D01*
X126416594Y-68387500D01*
X126416594Y-68962500D01*
X126436485Y-69062500D01*
X126416594Y-69162500D01*
X126416594Y-69444181D01*
X126312776Y-69548000D01*
X126080391Y-69548000D01*
X125927000Y-69611536D01*
X125927000Y-66298691D01*
X126190000Y-66298691D01*
X126190000Y-66426750D01*
X126348750Y-66585500D01*
X127023000Y-66585500D01*
X127023000Y-65948750D01*
X126864250Y-65790000D01*
X126698690Y-65790000D01*
X126465301Y-65886673D01*
X126286673Y-66065302D01*
X126190000Y-66298691D01*
X125927000Y-66298691D01*
X125927000Y-58958998D01*
X126116594Y-58769404D01*
X126116594Y-60830000D01*
X126141973Y-60957589D01*
X126214246Y-61065754D01*
X126322411Y-61138027D01*
X126450000Y-61163406D01*
X128050000Y-61163406D01*
X128177589Y-61138027D01*
X128285754Y-61065754D01*
X128358027Y-60957589D01*
X128383406Y-60830000D01*
X128383406Y-58430000D01*
X128358027Y-58302411D01*
X128285754Y-58194246D01*
X128177589Y-58121973D01*
X128050000Y-58096594D01*
X126789405Y-58096594D01*
X126808999Y-58077000D01*
X132081000Y-58077000D01*
X133100593Y-59096594D01*
X133100593Y-59096594D01*
G37*
X133100593Y-59096594D02*
X132900000Y-59096594D01*
X132775000Y-59121458D01*
X132650000Y-59096594D01*
X132250000Y-59096594D01*
X132125000Y-59121458D01*
X132000000Y-59096594D01*
X131600000Y-59096594D01*
X131475000Y-59121458D01*
X131350000Y-59096594D01*
X130950000Y-59096594D01*
X130822411Y-59121973D01*
X130714246Y-59194246D01*
X130641973Y-59302411D01*
X130626937Y-59378000D01*
X130556134Y-59378000D01*
X130511813Y-59333679D01*
X130244609Y-59223000D01*
X129955391Y-59223000D01*
X129688187Y-59333679D01*
X129483679Y-59538187D01*
X129373000Y-59805391D01*
X129373000Y-60094609D01*
X129483679Y-60361813D01*
X129688187Y-60566321D01*
X129881984Y-60646594D01*
X129100000Y-60646594D01*
X128972411Y-60671973D01*
X128864246Y-60744246D01*
X128791973Y-60852411D01*
X128766594Y-60980000D01*
X128766594Y-62480000D01*
X128791973Y-62607589D01*
X128864246Y-62715754D01*
X128972411Y-62788027D01*
X129100000Y-62813406D01*
X131100000Y-62813406D01*
X131227589Y-62788027D01*
X131335754Y-62715754D01*
X131408027Y-62607589D01*
X131433406Y-62480000D01*
X131433406Y-60980000D01*
X131408027Y-60852411D01*
X131378215Y-60807794D01*
X131475000Y-60788542D01*
X131600000Y-60813406D01*
X131998000Y-60813406D01*
X131998001Y-63163698D01*
X131948254Y-63089246D01*
X131840089Y-63016973D01*
X131712500Y-62991594D01*
X131137500Y-62991594D01*
X131037500Y-63011485D01*
X130937500Y-62991594D01*
X130362500Y-62991594D01*
X130234911Y-63016973D01*
X130126746Y-63089246D01*
X130082940Y-63154806D01*
X130011813Y-63083679D01*
X129744609Y-62973000D01*
X129455391Y-62973000D01*
X129188187Y-63083679D01*
X128983679Y-63288187D01*
X128873000Y-63555391D01*
X128873000Y-63844609D01*
X128983679Y-64111813D01*
X129188187Y-64316321D01*
X129455391Y-64427000D01*
X129744609Y-64427000D01*
X130011813Y-64316321D01*
X130122995Y-64205139D01*
X130126746Y-64210754D01*
X130234911Y-64283027D01*
X130362500Y-64308406D01*
X130937500Y-64308406D01*
X131037500Y-64288515D01*
X131137500Y-64308406D01*
X131667926Y-64308406D01*
X131648910Y-64336866D01*
X131648909Y-64336867D01*
X131574225Y-64448639D01*
X131550822Y-64566294D01*
X131547411Y-64566973D01*
X131439246Y-64639246D01*
X131366973Y-64747411D01*
X131341594Y-64875000D01*
X131341594Y-65448000D01*
X129983144Y-65448000D01*
X129983027Y-65447411D01*
X129910754Y-65339246D01*
X129802589Y-65266973D01*
X129675000Y-65241594D01*
X129449218Y-65241594D01*
X129438327Y-65215301D01*
X129259698Y-65036673D01*
X129026309Y-64940000D01*
X128898250Y-64940000D01*
X128739500Y-65098750D01*
X128739500Y-65773000D01*
X128759500Y-65773000D01*
X128759500Y-66027000D01*
X128739500Y-66027000D01*
X128739500Y-66701250D01*
X128898250Y-66860000D01*
X129026309Y-66860000D01*
X129259698Y-66763327D01*
X129438327Y-66584699D01*
X129449218Y-66558406D01*
X129675000Y-66558406D01*
X129802589Y-66533027D01*
X129910754Y-66460754D01*
X129983027Y-66352589D01*
X129983144Y-66352000D01*
X131366856Y-66352000D01*
X131366973Y-66352589D01*
X131439246Y-66460754D01*
X131547411Y-66533027D01*
X131548001Y-66533144D01*
X131548000Y-68130482D01*
X131539145Y-68175000D01*
X131559210Y-68275874D01*
X131574225Y-68351361D01*
X131674126Y-68500874D01*
X131711869Y-68526093D01*
X132073000Y-68887224D01*
X132073000Y-69119609D01*
X132183679Y-69386813D01*
X132388187Y-69591321D01*
X132655391Y-69702000D01*
X132703665Y-69702000D01*
X132689145Y-69775000D01*
X132698000Y-69819518D01*
X132698000Y-70092602D01*
X132469609Y-69998000D01*
X132180391Y-69998000D01*
X131913187Y-70108679D01*
X131798866Y-70223000D01*
X130432906Y-70223000D01*
X130432906Y-69800000D01*
X130413015Y-69700000D01*
X130432906Y-69600000D01*
X130432906Y-69150000D01*
X130413015Y-69050000D01*
X130432906Y-68950000D01*
X130432906Y-68500000D01*
X130407527Y-68372411D01*
X130335254Y-68264246D01*
X130227089Y-68191973D01*
X130099500Y-68166594D01*
X128624500Y-68166594D01*
X128496911Y-68191973D01*
X128450475Y-68223000D01*
X127683364Y-68223000D01*
X127635754Y-68151746D01*
X127548893Y-68093708D01*
X127602589Y-68083027D01*
X127710754Y-68010754D01*
X127783027Y-67902589D01*
X127808406Y-67775000D01*
X127808406Y-67549218D01*
X127834699Y-67538327D01*
X128013327Y-67359698D01*
X128110000Y-67126309D01*
X128110000Y-66998250D01*
X127951252Y-66839502D01*
X128110000Y-66839502D01*
X128110000Y-66823263D01*
X128198691Y-66860000D01*
X128326750Y-66860000D01*
X128485500Y-66701250D01*
X128485500Y-66027000D01*
X128465500Y-66027000D01*
X128465500Y-65773000D01*
X128485500Y-65773000D01*
X128485500Y-65098750D01*
X128326750Y-64940000D01*
X128198691Y-64940000D01*
X127965302Y-65036673D01*
X127786673Y-65215301D01*
X127690000Y-65448690D01*
X127690000Y-65614250D01*
X127848748Y-65772998D01*
X127690000Y-65772998D01*
X127690000Y-65826737D01*
X127601310Y-65790000D01*
X127435750Y-65790000D01*
X127277000Y-65948750D01*
X127277000Y-66585500D01*
X127297000Y-66585500D01*
X127297000Y-66839500D01*
X127277000Y-66839500D01*
X127277000Y-66859500D01*
X127023000Y-66859500D01*
X127023000Y-66839500D01*
X126348750Y-66839500D01*
X126190000Y-66998250D01*
X126190000Y-67126309D01*
X126286673Y-67359698D01*
X126465301Y-67538327D01*
X126491594Y-67549218D01*
X126491594Y-67775000D01*
X126516973Y-67902589D01*
X126589246Y-68010754D01*
X126623001Y-68033308D01*
X126623001Y-68079356D01*
X126622411Y-68079473D01*
X126514246Y-68151746D01*
X126441973Y-68259911D01*
X126416594Y-68387500D01*
X126416594Y-68962500D01*
X126436485Y-69062500D01*
X126416594Y-69162500D01*
X126416594Y-69444181D01*
X126312776Y-69548000D01*
X126080391Y-69548000D01*
X125927000Y-69611536D01*
X125927000Y-66298691D01*
X126190000Y-66298691D01*
X126190000Y-66426750D01*
X126348750Y-66585500D01*
X127023000Y-66585500D01*
X127023000Y-65948750D01*
X126864250Y-65790000D01*
X126698690Y-65790000D01*
X126465301Y-65886673D01*
X126286673Y-66065302D01*
X126190000Y-66298691D01*
X125927000Y-66298691D01*
X125927000Y-58958998D01*
X126116594Y-58769404D01*
X126116594Y-60830000D01*
X126141973Y-60957589D01*
X126214246Y-61065754D01*
X126322411Y-61138027D01*
X126450000Y-61163406D01*
X128050000Y-61163406D01*
X128177589Y-61138027D01*
X128285754Y-61065754D01*
X128358027Y-60957589D01*
X128383406Y-60830000D01*
X128383406Y-58430000D01*
X128358027Y-58302411D01*
X128285754Y-58194246D01*
X128177589Y-58121973D01*
X128050000Y-58096594D01*
X126789405Y-58096594D01*
X126808999Y-58077000D01*
X132081000Y-58077000D01*
X133100593Y-59096594D01*
G36*
X126141973Y-54002411D02*
X126116594Y-54130000D01*
X126116594Y-56530000D01*
X126141973Y-56657589D01*
X126214246Y-56765754D01*
X126322411Y-56838027D01*
X126450000Y-56863406D01*
X128050000Y-56863406D01*
X128177589Y-56838027D01*
X128285754Y-56765754D01*
X128358027Y-56657589D01*
X128383406Y-56530000D01*
X128383406Y-54130000D01*
X128358027Y-54002411D01*
X128357752Y-54002000D01*
X136542248Y-54002000D01*
X136541973Y-54002411D01*
X136516594Y-54130000D01*
X136516594Y-56530000D01*
X136541973Y-56657589D01*
X136585679Y-56723000D01*
X136136827Y-56723000D01*
X136079999Y-56711696D01*
X136023171Y-56723000D01*
X135854866Y-56756478D01*
X135664006Y-56884006D01*
X135631814Y-56932185D01*
X134162189Y-58401811D01*
X134162183Y-58401815D01*
X134100000Y-58463999D01*
X132768188Y-57132188D01*
X132735994Y-57084006D01*
X132545134Y-56956478D01*
X132376829Y-56923000D01*
X132376828Y-56923000D01*
X132320000Y-56911696D01*
X132263172Y-56923000D01*
X126626827Y-56923000D01*
X126569998Y-56911696D01*
X126344863Y-56956478D01*
X126275035Y-57003136D01*
X126154004Y-57084006D01*
X126121812Y-57132185D01*
X125127000Y-58126998D01*
X125127000Y-54002000D01*
X126142248Y-54002000D01*
X126141973Y-54002411D01*
X126141973Y-54002411D01*
G37*
X126141973Y-54002411D02*
X126116594Y-54130000D01*
X126116594Y-56530000D01*
X126141973Y-56657589D01*
X126214246Y-56765754D01*
X126322411Y-56838027D01*
X126450000Y-56863406D01*
X128050000Y-56863406D01*
X128177589Y-56838027D01*
X128285754Y-56765754D01*
X128358027Y-56657589D01*
X128383406Y-56530000D01*
X128383406Y-54130000D01*
X128358027Y-54002411D01*
X128357752Y-54002000D01*
X136542248Y-54002000D01*
X136541973Y-54002411D01*
X136516594Y-54130000D01*
X136516594Y-56530000D01*
X136541973Y-56657589D01*
X136585679Y-56723000D01*
X136136827Y-56723000D01*
X136079999Y-56711696D01*
X136023171Y-56723000D01*
X135854866Y-56756478D01*
X135664006Y-56884006D01*
X135631814Y-56932185D01*
X134162189Y-58401811D01*
X134162183Y-58401815D01*
X134100000Y-58463999D01*
X132768188Y-57132188D01*
X132735994Y-57084006D01*
X132545134Y-56956478D01*
X132376829Y-56923000D01*
X132376828Y-56923000D01*
X132320000Y-56911696D01*
X132263172Y-56923000D01*
X126626827Y-56923000D01*
X126569998Y-56911696D01*
X126344863Y-56956478D01*
X126275035Y-57003136D01*
X126154004Y-57084006D01*
X126121812Y-57132185D01*
X125127000Y-58126998D01*
X125127000Y-54002000D01*
X126142248Y-54002000D01*
X126141973Y-54002411D01*
G04 #@! TD*
M02*
